<?xml version="1.0" standalone="no"?>
<!DOCTYPE svg PUBLIC "-//W3C//DTD SVG 1.1//EN" "http://www.w3.org/Graphics/SVG/1.1/DTD/svg11.dtd" >
<svg xmlns="http://www.w3.org/2000/svg" xmlns:xlink="http://www.w3.org/1999/xlink" version="1.1">
<metadata>
Created by FontForge 20170731 at Thu Oct 22 16:26:46 2020
 By Aleksey,,,
Copyright (c) 2019 Veronika Burian, Jose' Scaglione. All rights reserved.
</metadata>
<defs>
<font id="Catalpa-Extrabold" horiz-adv-x="1638" >
  <font-face 
    font-family="Catalpa Extrabold"
    font-weight="700"
    font-stretch="normal"
    units-per-em="2048"
    panose-1="2 0 8 0 0 0 0 0 0 0"
    ascent="1638"
    descent="-410"
    x-height="1051"
    cap-height="1434"
    bbox="-999 -639 2871 1989"
    underline-thickness="102"
    underline-position="-357"
    unicode-range="U+0020-FB02"
  />
<missing-glyph horiz-adv-x="1024" 
d="M0 0v1434h1024v-1434h-1024zM123 1311v-1188h778v1188h-778z" />
    <glyph glyph-name="fi" unicode="fi" horiz-adv-x="1626" 
d="M82 1051h135v12q0 87 19 180q18 90 67 162q45 70 137 119q86 45 230 45q85 0 178 -19q88 -21 135 -39v-350l-12 -8q-61 27 -68 29q-37 12 -78 12q-66 0 -75 -37q-13 -41 -13 -92v-14h858v-1051h-520v641h-338v-641h-520v641h-135v410zM1096 1536h499v-307h-499v307z" />
    <glyph glyph-name="fl" unicode="fl" horiz-adv-x="1667" 
d="M82 1051h135v12q0 87 19 180q19 91 69 162q48 72 144 119q91 45 243 45q80 0 152 -10q54 -10 108 -31l92 -359l-12 -8q-56 18 -102 27q-50 6 -84 6q-75 0 -90 -37q-19 -40 -19 -92v-14h260v-410h-260v-641h-520v641h-135v410zM1116 1536h520v-1536h-520v1536z" />
    <glyph glyph-name="f_f" unicode="ff" horiz-adv-x="1863" 
d="M82 1051h135v12q0 87 19 180q19 91 69 162q48 72 144 119q91 45 243 45q65 0 133 -10q54 -11 107 -31l92 -359l-12 -8q-60 19 -94 27q-40 6 -74 6q-75 0 -90 -37q-17 -43 -17 -92v-14h340v12q0 87 19 180q19 91 69 162q48 72 144 119q91 45 243 45q80 0 152 -10
q54 -10 108 -31l93 -359l-13 -8q-56 18 -102 27q-50 6 -84 6q-75 0 -90 -37q-19 -40 -19 -92v-14h261v-410h-261v-641h-520v641h-340v-641h-520v641h-135v410z" />
    <glyph glyph-name="f_f_i" unicode="ffi" horiz-adv-x="2486" 
d="M217 641h-135v410h135v12q0 87 19 180q19 91 69 162q48 72 144 119q91 45 243 45q65 0 133 -10q54 -11 107 -31l92 -359l-12 -8q-60 19 -94 27q-40 6 -74 6q-75 0 -90 -37q-17 -43 -17 -92v-14h340v12q0 87 19 180q18 90 67 162q45 70 137 119q86 45 230 45q85 0 178 -19
q88 -21 135 -39v-350l-12 -8q-62 27 -68 29q-38 12 -77 12q-67 0 -76 -37q-13 -41 -13 -92v-14h859v-1051h-521v641h-338v-641h-520v641h-340v-641h-520v641zM1956 1536h500v-307h-500v307z" />
    <glyph glyph-name="f_f_l" unicode="ffl" horiz-adv-x="2527" 
d="M82 1051h135v12q0 87 19 180q19 91 69 162q48 72 144 119q91 45 243 45q65 0 133 -10q54 -11 107 -31l92 -359l-12 -8q-60 19 -94 27q-40 6 -74 6q-75 0 -90 -37q-17 -43 -17 -92v-14h340v12q0 87 19 180q19 91 69 162q48 72 144 119q91 45 243 45q80 0 152 -10
q54 -10 108 -31l93 -359l-13 -8q-56 18 -102 27q-50 6 -84 6q-75 0 -90 -37q-19 -40 -19 -92v-14h261v-410h-261v-641h-520v641h-340v-641h-520v641h-135v410zM1976 1536h521v-1536h-521v1536z" />
    <glyph glyph-name="t_t" unicode="tt" horiz-adv-x="1957" 
d="M-20 1051h145v219l520 164v-383h428v219l520 164v-383h260v-410h-260v-127q0 -68 19 -100q17 -33 63 -33q41 0 70 16q37 20 63 41l99 -360q-59 -40 -160 -80q-91 -39 -219 -39q-154 0 -240 45q-89 42 -137 115q-46 69 -61 153q-17 94 -17 156v213h-428v-127
q0 -68 19 -100q17 -33 63 -33q41 0 70 16q37 20 63 41l98 -360q-61 -41 -159 -80q-91 -39 -219 -39q-154 0 -240 45q-89 42 -137 115q-47 72 -62 153q-16 88 -16 156v213h-145v410z" />
    <glyph glyph-name=".notdef" horiz-adv-x="1024" 
d="M0 0v1434h1024v-1434h-1024zM123 1311v-1188h778v1188h-778z" />
    <glyph glyph-name=".null" horiz-adv-x="0" 
 />
    <glyph glyph-name="nonmarkingreturn" horiz-adv-x="682" 
 />
    <glyph glyph-name="space" unicode=" " horiz-adv-x="368" 
 />
    <glyph glyph-name="exclam" unicode="!" horiz-adv-x="684" 
d="M164 1434h520v-455l-61 -487h-398l-61 487v455zM199 322h454v-322h-454v322z" />
    <glyph glyph-name="quotedbl" unicode="&#x22;" horiz-adv-x="980" 
d="M537 1495l-2 -594h-349l-2 594h353zM981 1495l-2 -594h-348l-2 594h352z" />
    <glyph glyph-name="numbersign" unicode="#" horiz-adv-x="1222" 
d="M111 641h170l67 250h-180l49 180h178l66 242h221l-66 -242h230l65 242h222l-66 -242h166l-49 -180h-164l-68 -250h174l-49 -180h-174l-78 -293h-221l78 293h-229l-78 -293h-221l77 293h-170zM731 641l68 250h-230l-67 -250h229z" />
    <glyph glyph-name="dollar" unicode="$" horiz-adv-x="1228" 
d="M135 580q113 -52 227 -76q135 -29 230 -29q88 0 88 49q0 24 -31 39q-37 13 -133 27q-240 37 -350 127q-111 89 -111 254q0 291 267 393v233h210v-188q14 2 43 2h41h37q23 0 35 -2v188h211v-217q71 -13 152 -41q68 -23 127 -55l-160 -391q-80 42 -180 68q-104 26 -201 26
q-78 0 -78 -45q0 -22 33 -33q34 -14 125 -28q241 -39 360 -138q111 -95 111 -268q0 -152 -74 -258q-73 -104 -213 -151v-228h-211v187q-12 -2 -37 -2h-39h-39q-26 0 -40 2v-187h-211v215q-178 38 -324 113z" />
    <glyph glyph-name="percent" unicode="%" horiz-adv-x="2164" 
d="M1475 1518h313l-1036 -1541h-314zM522 655q-239 0 -358 119q-123 120 -123 311q0 126 55 224q52 93 162 153q107 58 264 58q241 0 363 -119q123 -120 123 -311q0 -192 -123 -312q-126 -123 -363 -123zM522 983q99 0 99 111q0 58 -25 86q-27 24 -74 24q-94 0 -94 -112
q0 -109 94 -109zM1679 -45q-239 0 -358 119q-123 120 -123 311q0 125 55 223q53 95 162 154q105 57 264 57q241 0 363 -119q123 -120 123 -311t-123 -311q-126 -123 -363 -123zM1679 283q99 0 99 110q0 58 -25 86q-28 25 -74 25q-94 0 -94 -113q0 -108 94 -108z" />
    <glyph glyph-name="ampersand" unicode="&#x26;" horiz-adv-x="1912" 
d="M1638 -76q-115 45 -264 133q-125 -49 -254 -69q-141 -25 -272 -25q-210 0 -375 53q-167 54 -256 156q-94 104 -94 262q0 136 76 230q73 94 245 161q-36 50 -55 113q-20 56 -20 129q0 67 30 137q25 64 101 131q69 60 190 101q116 39 297 39q148 0 266 -37
q122 -38 191 -113t69 -192q0 -150 -94 -248q-91 -96 -291 -156l52 -39q38 -33 84 -61q13 -9 41 -29.5t43 -30.5q43 93 43 217h501q-3 -126 -39 -239q-38 -113 -98 -199q39 -19 105 -47q11 -5 43.5 -19.5t50.5 -21.5zM895 297q21 0 57 4q9 1 28 3t28 3q-25 18 -127 101
q-76 62 -123 104l-80 72q-49 -46 -49 -113q0 -81 73 -127q74 -47 193 -47zM903 948q96 28 146 72q43 40 43 96q0 88 -109 88q-67 0 -96 -33q-33 -33 -33 -86q0 -67 49 -137z" />
    <glyph glyph-name="quotesingle" unicode="'" horiz-adv-x="536" 
d="M537 1495l-2 -594h-349l-2 594h353z" />
    <glyph glyph-name="parenleft" unicode="(" horiz-adv-x="839" 
d="M164 559q0 489 307 977h451q-308 -490 -308 -975q0 -492 308 -985h-451q-307 491 -307 983z" />
    <glyph glyph-name="parenright" unicode=")" horiz-adv-x="839" 
d="M758 553q0 -489 -307 -977h-451q307 488 307 975q0 494 -307 985h451q307 -491 307 -983z" />
    <glyph glyph-name="asterisk" unicode="*" horiz-adv-x="878" 
d="M401 1034l-188 -116l-102 176l196 102l-194 104l100 179l188 -119l-8 221h203l-6 -221l186 117l103 -177l-197 -104l195 -102l-101 -179l-186 117l6 -219h-203z" />
    <glyph glyph-name="plus" unicode="+" 
d="M451 899h368v369h451v-369h368v-412h-368v-366h-453v366h-366v412z" />
    <glyph glyph-name="comma" unicode="," horiz-adv-x="602" 
d="M147 322h455v-322l-137 -324h-266l96 324h-148v322z" />
    <glyph glyph-name="hyphen" unicode="-" horiz-adv-x="761" 
d="M205 700h557v-352h-557v352z" />
    <glyph glyph-name="period" unicode="." horiz-adv-x="598" 
d="M143 322h455v-322h-455v322z" />
    <glyph glyph-name="slash" unicode="/" horiz-adv-x="1183" 
d="M733 1536h451l-733 -1659h-451z" />
    <glyph glyph-name="zero" unicode="0" horiz-adv-x="1529" 
d="M123 723q0 222 88 391t248 264q160 97 366 97q212 0 369 -95q160 -97 248 -266t88 -391q0 -223 -88 -395t-248 -269q-158 -96 -369 -96q-208 0 -366 96q-158 94 -248 269q-88 172 -88 395zM651 723q0 -120 45 -182q44 -68 131 -68t134 68q43 67 43 182q0 117 -43 184
q-48 66 -134 66q-87 0 -131 -68q-45 -65 -45 -182z" />
    <glyph glyph-name="one" unicode="1" horiz-adv-x="1005" 
d="M389 817q-65 -27 -125 -39q-65 -15 -121 -18v422q132 18 248 75q119 58 207 177h356v-1434h-565v817z" />
    <glyph glyph-name="two" unicode="2" horiz-adv-x="1441" 
d="M106 969q21 152 107 266q82 110 233 176q146 64 349 64q169 0 305 -54q138 -58 211 -161q75 -106 75 -263q0 -109 -40 -196q-41 -90 -125 -180q-94 -97 -224 -199h418v-420h-1270v61l398 414q105 107 178 191q66 72 92 120q29 53 29 89q0 60 -39 96q-40 37 -107 37
q-68 0 -114 -43q-48 -48 -60 -123z" />
    <glyph glyph-name="three" unicode="3" horiz-adv-x="1384" 
d="M236 528q79 -52 178 -82q88 -32 178 -32q113 0 166 41q49 40 49 90q0 64 -41 94q-42 31 -111 31q-31 0 -75 -13q-40 -15 -86 -49l-88 66l215 330l-492 4l66 426h1146v-64l-335 -530q169 -41 249 -140q84 -104 84 -237q0 -167 -94 -277q-94 -111 -250 -166
q-152 -57 -348 -57q-192 0 -360 60t-267 165z" />
    <glyph glyph-name="four" unicode="4" horiz-adv-x="1576" 
d="M123 649l764 785h502v-785h208v-409h-208v-240h-502v240h-764v409zM887 649v303l-295 -303h295z" />
    <glyph glyph-name="five" unicode="5" horiz-adv-x="1361" 
d="M201 532q35 -30 98 -59q54 -25 123 -41t121 -16q100 0 153 26q56 27 56 93q0 68 -60 106q-59 35 -155 35q-71 0 -158 -17q-78 -18 -137 -59l-90 45l124 789h953v-406h-617l-20 -115q83 13 164 13q153 0 280 -54t195 -153q69 -100 69 -248q0 -145 -77 -260
q-76 -117 -228 -182q-153 -66 -364 -66q-113 0 -238 25q-122 21 -229 73q-109 50 -180 127z" />
    <glyph glyph-name="six" unicode="6" horiz-adv-x="1466" 
d="M123 676q0 387 199 592q196 205 571 205q83 0 199 -17q92 -14 194 -47q96 -32 158 -76l-135 -372q-213 71 -371 71q-145 0 -223 -63q-82 -67 -103 -203q33 56 97 92q51 30 127 47q73 13 122 13q244 0 381 -119q138 -120 138 -328q0 -153 -80 -268q-79 -113 -221 -178
q-143 -64 -332 -64q-346 0 -533 184q-188 185 -188 531zM670 487q0 -61 47 -96t112 -35q62 0 109 35q45 33 45 96q0 64 -45 97q-43 32 -109 32q-69 0 -112 -32q-47 -35 -47 -97z" />
    <glyph glyph-name="seven" unicode="7" horiz-adv-x="1304" 
d="M166 1434h1212v-62l-481 -1372h-618l397 946h-590z" />
    <glyph glyph-name="eight" unicode="8" horiz-adv-x="1515" 
d="M106 373q0 160 93 256q87 93 229 121q-102 38 -168 118q-70 79 -70 183q0 122 74 217t219 151t355 56q181 0 311 -43q134 -47 209 -134q74 -89 74 -225q0 -103 -68 -192q-71 -89 -172 -129q138 -24 233 -109q91 -88 91 -244q0 -131 -82 -229t-242 -152q-155 -55 -381 -55
q-334 0 -518 111q-187 111 -187 299zM637 459q0 -45 43 -72q44 -27 131 -27q85 0 129 27q43 27 43 72q0 106 -172 106q-86 0 -131 -28q-43 -27 -43 -78zM670 977q0 -92 141 -92q63 0 104 24q37 24 37 68q0 47 -37 74q-39 26 -104 26q-63 0 -102 -26t-39 -74z" />
    <glyph glyph-name="nine" unicode="9" horiz-adv-x="1466" 
d="M1456 760q0 -387 -196 -592q-199 -205 -574 -205q-81 0 -197 17q-93 13 -196 47q-99 32 -158 75l135 373q216 -72 371 -72q144 0 225 66q81 68 101 201q-31 -52 -95 -90q-65 -36 -127 -48q-63 -14 -124 -14q-242 0 -379 119q-140 122 -140 328q0 155 80 270
q77 110 224 176q143 64 329 64q347 0 535 -185q186 -183 186 -530zM909 948q0 61 -47 96t-112 35q-62 0 -109 -35q-45 -33 -45 -96q0 -61 45 -94q47 -35 109 -35q65 0 112 35t47 94z" />
    <glyph glyph-name="colon" unicode=":" horiz-adv-x="638" 
d="M184 322h455v-322h-455v322zM184 1120h455v-321h-455v321z" />
    <glyph glyph-name="semicolon" unicode=";" horiz-adv-x="641" 
d="M188 322h455v-322l-137 -324h-266l96 324h-148v322zM188 1120h455v-321h-455v321z" />
    <glyph glyph-name="less" unicode="&#x3c;" 
d="M913 682l725 -240v-442l-1146 453v456l1146 453v-442z" />
    <glyph glyph-name="equal" unicode="=" 
d="M492 547h1146v-402h-1146v402zM492 1176h1146v-402h-1146v402z" />
    <glyph glyph-name="greater" unicode="&#x3e;" 
d="M492 442l725 240l-725 238v442l1146 -453v-456l-1146 -453v442z" />
    <glyph glyph-name="question" unicode="?" horiz-adv-x="1126" 
d="M41 1315q126 73 276 117q148 43 293 43q246 0 375 -99q127 -100 127 -274q0 -114 -37 -187q-36 -73 -90 -124q-42 -40 -106 -89q-62 -48 -91 -79q-36 -39 -36 -99v-94h-439v201q0 73 29 133q26 51 70 92q42 42 84 68q46 31 69 51q27 21 27 45q0 37 -60 37q-38 0 -104 -17
q-48 -12 -123 -41q-70 -31 -108 -59zM307 322h455v-322h-455v322z" />
    <glyph glyph-name="at" unicode="@" horiz-adv-x="1906" 
d="M123 461q0 228 80 393q77 159 215 266q136 103 301 152t338 49q184 0 338 -43q157 -47 274 -133q119 -90 182 -219q66 -135 66 -303q0 -154 -62 -281q-67 -132 -194 -205q-133 -77 -342 -86l-78 162q-49 -68 -115 -117q-68 -51 -190 -51q-189 0 -303 117
q-115 115 -115 311q0 138 55 236q53 96 146 149q89 53 203 53q118 0 188 -49q69 -48 96 -104v131h303v-504l62 -123q69 46 123 127q49 76 49 221q0 147 -60 258q-63 108 -161 170q-104 66 -224 92q-132 29 -245 29q-150 0 -277 -39q-127 -38 -241 -125q-105 -83 -168 -215
q-64 -131 -64 -313q0 -220 94 -369q92 -150 256 -227q167 -78 377 -78q111 0 219 21q98 19 193 49q88 29 131 51l47 -156q-56 -32 -152 -61q-104 -30 -215 -51q-117 -21 -223 -21q-181 0 -346 47q-160 45 -289 150q-129 104 -198 260q-74 157 -74 379zM827 473
q0 -89 56 -139q51 -51 133 -51q66 0 106 30q39 28 54 74q16 46 16 86v25q0 78 -45 129q-46 49 -131 49q-83 0 -135 -49q-54 -54 -54 -154z" />
    <glyph glyph-name="A" unicode="A" horiz-adv-x="1548" 
d="M377 1434h786l385 -1434h-538l-39 166h-357l-28 -166h-566zM874 580l-96 421h-18l-72 -421h186z" />
    <glyph glyph-name="B" unicode="B" horiz-adv-x="1466" 
d="M205 1434h751q201 0 314 -43q115 -44 164 -117q49 -76 49 -170q0 -115 -76 -197q-78 -87 -205 -121v-12q144 -21 215 -74q73 -54 96 -120q25 -70 25 -144q0 -217 -166 -325q-170 -111 -469 -111h-698v1434zM768 360q72 -3 121 19q47 21 47 96q0 67 -43 88q-48 22 -125 19
v-222zM768 870q59 -3 98 19q35 21 35 90q0 54 -29 80q-30 24 -104 18v-207z" />
    <glyph glyph-name="C" unicode="C" horiz-adv-x="1525" 
d="M102 711q0 158 52 295t155 243q104 104 264 166q163 60 379 60q211 0 363 -58q151 -59 227 -135l-254 -422q-60 48 -117 74q-62 27 -163 27q-133 0 -197 -70q-63 -69 -63 -172q0 -101 67 -168q68 -68 211 -68q154 0 246 86l295 -370q-59 -62 -142 -115q-82 -55 -200 -90
q-119 -35 -279 -35q-249 0 -438 94q-187 90 -297 262q-109 171 -109 396z" />
    <glyph glyph-name="D" unicode="D" horiz-adv-x="1531" 
d="M205 1434h602q216 0 367 -56q148 -56 237 -151q93 -104 131 -223q41 -128 41 -271q0 -365 -199 -549t-563 -184h-616v1434zM768 477q6 -2 25 -2q10 -2 24 -2q92 0 135 64t43 200q0 114 -45 174q-47 62 -137 62h-22q-4 -1 -12 -2t-11 -2v-492z" />
    <glyph glyph-name="E" unicode="E" horiz-adv-x="1323" 
d="M205 1434h1108v-412h-545v-115h539v-360h-539v-123h586v-424h-1149v1434z" />
    <glyph glyph-name="F" unicode="F" horiz-adv-x="1226" 
d="M205 1434h1073v-480h-510v-118h481v-410h-481v-426h-563v1434z" />
    <glyph glyph-name="G" unicode="G" horiz-adv-x="1622" 
d="M102 711q0 235 105 407q102 170 295 264q194 93 450 93q167 0 322 -48q148 -46 250 -131l-256 -422q-116 87 -254 87q-123 0 -195 -66q-71 -65 -71 -182q0 -125 73 -189q73 -67 209 -67q23 0 33 2q19 0 27 2v299h522v-760h-174l-119 98q-89 -61 -205 -100
q-110 -39 -227 -39q-237 0 -412 94q-174 91 -274 262q-99 169 -99 396z" />
    <glyph glyph-name="H" unicode="H" horiz-adv-x="1622" 
d="M205 1434h563v-418h291v418h563v-1434h-563v446h-291v-446h-563v1434z" />
    <glyph glyph-name="I" unicode="I" horiz-adv-x="768" 
d="M205 1434h563v-1434h-563v1434z" />
    <glyph glyph-name="J" unicode="J" horiz-adv-x="1026" 
d="M74 485q61 -8 94 -10q62 -4 86 -4q74 0 117 37q41 35 41 127v799h563v-801q0 -124 -21 -244q-22 -124 -82 -217q-61 -98 -180 -156q-117 -57 -319 -57q-80 0 -129 8q-65 10 -92 17l-91 491z" />
    <glyph glyph-name="K" unicode="K" horiz-adv-x="1574" 
d="M205 1434h563v-496h59l179 496h649l-355 -650l377 -784h-641l-182 473l-86 -70v-403h-563v1434z" />
    <glyph glyph-name="L" unicode="L" horiz-adv-x="1142" 
d="M205 1434h563v-887h416v-547h-979v1434z" />
    <glyph glyph-name="M" unicode="M" horiz-adv-x="1910" 
d="M205 1434h461l393 -603l391 603h461v-1434h-522v485l-289 -485h-84l-289 485v-485h-522v1434z" />
    <glyph glyph-name="N" unicode="N" horiz-adv-x="1601" 
d="M205 1434h502l352 -541v541h543v-1434h-502l-352 496v-496h-543v1434z" />
    <glyph glyph-name="O" unicode="O" horiz-adv-x="1646" 
d="M102 711q0 151 54 293q53 139 151 243q97 106 242 168q148 60 325 60q183 0 326 -58q140 -57 244 -164q99 -105 151 -239q52 -137 52 -291t-52 -291q-53 -139 -151 -246q-102 -109 -244 -166q-143 -61 -326 -61q-180 0 -325 59t-242 162q-97 100 -151 242
q-54 139 -54 289zM680 719q0 -101 51 -164t143 -63q89 0 142 65q51 63 51 164q0 103 -51 166t-142 63q-90 0 -143 -65q-51 -63 -51 -166z" />
    <glyph glyph-name="P" unicode="P" horiz-adv-x="1421" 
d="M205 1434h639q239 0 379 -70q139 -71 200 -190q60 -123 60 -279q0 -265 -154 -416q-155 -149 -491 -149h-70v-330h-563v1434zM768 709h20q6 -2 19 -2q74 0 108 43q33 39 33 129q0 73 -35 114q-38 41 -110 41h-17q-3 -1 -9 -2t-9 -2v-321z" />
    <glyph glyph-name="Q" unicode="Q" horiz-adv-x="1648" 
d="M102 711q0 151 54 293q53 139 151 243q97 106 242 168q148 60 325 60q183 0 326 -58q140 -57 244 -164q99 -105 151 -239q52 -137 52 -291q0 -124 -35 -240q-36 -113 -103 -211h-192l342 -395h-633l-72 94q-52 -12 -112 -12q-165 0 -301 59q-143 60 -234 162
q-99 105 -151 242q-54 139 -54 289zM680 719q0 -101 51 -164t143 -63q89 0 142 65q51 63 51 164q0 103 -51 166t-142 63q-90 0 -143 -65q-51 -63 -51 -166z" />
    <glyph glyph-name="R" unicode="R" horiz-adv-x="1474" 
d="M205 1434h764q200 0 321 -50q115 -52 168 -135q49 -82 49 -186q0 -154 -88 -242q-89 -89 -262 -127v-22q105 -6 184 -29q70 -21 105 -86q33 -62 33 -205q0 -114 6 -178q3 -63 22 -100q16 -31 60 -47v-27h-516q-79 0 -109 53q-33 50 -33 148v233q0 68 -20 94
q-21 27 -70 27h-49v-555h-565v1434zM770 823q71 0 102 31q31 28 31 109q0 65 -31 90q-29 23 -102 20v-250z" />
    <glyph glyph-name="S" unicode="S" horiz-adv-x="1298" 
d="M223 584q111 -63 226 -97q109 -36 229 -36q59 0 78 16q18 15 18 37q0 32 -45 47q-46 15 -121 24q-50 6 -155 29q-78 17 -156 60q-73 40 -119 116q-47 77 -47 201q0 228 152 362q150 132 422 132q82 0 198 -17q87 -13 195 -47q104 -38 166 -84l-166 -428q-74 47 -180 84
q-98 33 -191 33q-55 0 -70 -15q-16 -16 -16 -36q0 -30 47 -45q51 -16 121 -25q66 -8 156 -31q85 -22 155 -63q76 -48 121 -125q47 -83 47 -213q0 -148 -69 -260q-70 -113 -203 -178q-135 -66 -314 -66q-72 0 -184 16q-105 15 -219 52q-113 34 -217 98z" />
    <glyph glyph-name="T" unicode="T" horiz-adv-x="1333" 
d="M82 1434h1251v-570h-344v-864h-563v864h-344v570z" />
    <glyph glyph-name="U" unicode="U" horiz-adv-x="1527" 
d="M164 1434h563v-721q0 -81 31 -135t94 -54q60 0 88 54q29 56 29 135v721h559v-818q0 -172 -55 -297q-54 -124 -150 -204q-94 -79 -219 -117q-121 -39 -260 -39q-142 0 -260 39q-122 37 -217 117q-97 82 -148 204q-55 125 -55 297v818z" />
    <glyph glyph-name="V" unicode="V" horiz-adv-x="1533" 
d="M596 1434l186 -920h13l157 920h582l-377 -1434h-760l-377 1434h576z" />
    <glyph glyph-name="W" unicode="W" horiz-adv-x="2054" 
d="M625 1434l102 -658l289 592h84l289 -592l102 658h563l-266 -1434h-481l-250 520l-248 -520h-481l-267 1434h564z" />
    <glyph glyph-name="X" unicode="X" 
d="M446 717l-419 717h645l180 -342l186 342h594l-418 -715l424 -719h-661l-164 307l-154 -307h-639z" />
    <glyph glyph-name="Y" unicode="Y" horiz-adv-x="1615" 
d="M629 1434l182 -490h12l199 490h594l-529 -1020v-414h-563v414l-524 1020h629z" />
    <glyph glyph-name="Z" unicode="Z" horiz-adv-x="1415" 
d="M82 106l508 857h-504l59 471h1274v-121l-483 -842h446v-471h-1300v106z" />
    <glyph glyph-name="bracketleft" unicode="[" horiz-adv-x="884" 
d="M205 1536h782v-203h-311v-1554h311v-203h-782v1960z" />
    <glyph glyph-name="backslash" unicode="\" horiz-adv-x="1183" 
d="M0 1536h451l733 -1659h-451z" />
    <glyph glyph-name="bracketright" unicode="]" horiz-adv-x="884" 
d="M0 1536h782v-1960h-782v203h311v1554h-311v203z" />
    <glyph glyph-name="asciicircum" unicode="^" 
d="M629 1399h456l555 -881h-516l-268 447l-266 -447h-516z" />
    <glyph glyph-name="underscore" unicode="_" horiz-adv-x="1187" 
d="M41 -82h1147v-362h-1147v362z" />
    <glyph glyph-name="grave" unicode="`" horiz-adv-x="1228" 
d="M936 1536l207 -340h-395l-318 340h506z" />
    <glyph glyph-name="a" unicode="a" horiz-adv-x="1286" 
d="M41 303q0 104 41 172q40 67 104 107q66 39 140 53q71 14 145 14q86 0 164 -16q69 -18 127 -60q-3 70 -39 103q-39 33 -100 45q-72 10 -138 10q-89 0 -157 -10q-44 -6 -117 -27l-10 8l118 338q31 10 82 19q40 7 113 14q61 6 115 6q183 0 319 -43q139 -44 217 -147
q80 -106 80 -293v-596h-483v102q-55 -73 -139 -100q-88 -31 -193 -31q-171 0 -280 86q-109 83 -109 246zM539 332q0 -51 34 -66q37 -16 80 -16q62 0 88 26q27 27 27 62q0 40 -31 59q-34 17 -78 17q-65 0 -92 -21q-28 -22 -28 -61z" />
    <glyph glyph-name="b" unicode="b" horiz-adv-x="1433" 
d="M143 1536h521v-586q111 129 335 129q114 0 218 -61q102 -64 169 -187q68 -124 68 -309q0 -157 -39 -258q-40 -106 -104 -170q-71 -68 -150 -94q-89 -29 -168 -29q-104 0 -207 35q-102 34 -153 109l-10 -115h-480v1536zM641 518q0 -74 37 -117t102 -43q66 0 105 45
q39 42 39 115q0 80 -39 119q-41 41 -105 41q-65 0 -102 -43t-37 -117z" />
    <glyph glyph-name="c" unicode="c" horiz-adv-x="1165" 
d="M82 520q0 172 80 299q79 125 221 193q137 67 324 67q109 0 198 -24q89 -25 148 -58q71 -42 88 -59l-174 -338q-43 43 -84 64q-49 22 -111 22q-76 0 -119 -43t-43 -115q0 -69 47 -116t127 -47q71 0 119 36q45 31 76 66l207 -309q-38 -44 -113 -90q-71 -42 -166 -70
q-91 -27 -194 -27q-198 0 -338 70q-141 67 -217 190q-76 122 -76 289z" />
    <glyph glyph-name="d" unicode="d" horiz-adv-x="1443" 
d="M102 528q0 155 45 260q43 104 115 170t158 93q89 28 170 28q72 0 158 -22q82 -24 155 -78v557h520v-1536h-491l-12 125q-56 -71 -144 -111q-87 -43 -198 -43q-86 0 -170 35q-86 36 -152 105q-71 71 -111 174q-43 104 -43 243zM635 545q0 -75 41 -119q40 -43 108 -43
t107 45q39 42 39 117t-39 117q-40 40 -107 40q-68 0 -108 -43q-41 -44 -41 -114z" />
    <glyph glyph-name="e" unicode="e" horiz-adv-x="1273" 
d="M82 514q0 170 80 297q82 130 223 199q138 69 332 69q169 0 278 -47q108 -49 170 -133q62 -87 86 -199q26 -122 23 -243h-670q21 -50 72 -78q51 -31 149 -31q62 0 127 19q66 19 115 63l186 -305q-59 -53 -153 -90q-85 -33 -182 -49q-92 -15 -164 -15q-218 0 -367 70
q-151 68 -227 190q-78 125 -78 283zM846 676q3 67 -31 94q-37 29 -96 29q-57 0 -92 -35q-38 -35 -41 -88h260z" />
    <glyph glyph-name="f" unicode="f" horiz-adv-x="1003" 
d="M82 1051h135v12q0 87 19 180q19 91 69 162q48 72 144 119q91 45 243 45q80 0 152 -10q54 -10 108 -31l92 -359l-12 -8q-56 18 -102 27q-50 6 -84 6q-75 0 -90 -37q-19 -40 -19 -92v-14h260v-410h-260v-641h-520v641h-135v410z" />
    <glyph glyph-name="g" unicode="g" horiz-adv-x="1359" 
d="M-20 -225q0 74 57 125t158 75q-148 71 -148 199q0 91 57 160q53 67 156 108q-85 44 -137 119q-49 70 -49 158q0 176 157 276q160 97 435 97q110 0 215 -19q41 133 102 182q59 50 174 50l105 -263l-13 -10q-43 12 -80 12q-54 0 -108 -28q96 -47 149 -121q52 -76 52 -172
q0 -105 -74 -188q-76 -82 -209 -129q-139 -48 -313 -48h-181q-90 0 -90 -45q0 -34 74 -34h385q506 0 506 -302q0 -213 -197 -327q-201 -115 -565 -115q-328 0 -471 57q-147 58 -147 183zM442 -125q0 -40 41 -55q46 -17 148 -17q97 0 137 15q39 14 39 51q0 30 -31 39
q-33 10 -114 10h-195q-25 -22 -25 -43zM559 727q0 -32 29 -55q27 -21 78 -21q110 0 110 76q0 80 -110 80q-107 0 -107 -80z" />
    <glyph glyph-name="h" unicode="h" horiz-adv-x="1353" 
d="M143 1536h510v-612q35 61 119 108q82 43 203 43q102 0 190 -49t144 -152q55 -101 55 -262v-612h-520v506q0 52 -19 80q-18 24 -69 24q-92 0 -92 -123v-487h-521v1536z" />
    <glyph glyph-name="i" unicode="i" horiz-adv-x="663" 
d="M143 1051h521v-1051h-521v1051zM143 1536h521v-307h-521v307z" />
    <glyph glyph-name="j" unicode="j" horiz-adv-x="663" 
d="M143 1051h521v-1450l-521 -66v1516zM143 1536h521v-307h-521v307z" />
    <glyph glyph-name="k" unicode="k" horiz-adv-x="1419" 
d="M143 1536h521v-856h51l221 371h555l-338 -461l322 -590h-590l-152 317l-69 -51v-266h-521v1536z" />
    <glyph glyph-name="l" unicode="l" horiz-adv-x="663" 
d="M143 1536h521v-1536h-521v1536z" />
    <glyph glyph-name="m" unicode="m" horiz-adv-x="1892" 
d="M143 1051h469v-144q40 76 133 123q86 45 187 45q213 0 295 -184q53 96 145 141q90 43 180 43q106 0 183 -45q78 -47 123 -143t45 -260v-627h-510v520q0 39 -11 68q-13 22 -43 22q-28 0 -45 -20q-20 -20 -20 -80v-510h-502v522q0 45 -10 68q-9 20 -41 20q-27 0 -47 -20
q-21 -21 -21 -80v-510h-510v1051z" />
    <glyph glyph-name="n" unicode="n" horiz-adv-x="1353" 
d="M143 1051h500v-144q46 75 129 125q83 47 209 47q107 0 193 -45q89 -48 139 -143q51 -99 51 -260v-631h-520v506q0 49 -17 80q-18 24 -61 24q-102 0 -102 -123v-487h-521v1051z" />
    <glyph glyph-name="o" unicode="o" horiz-adv-x="1429" 
d="M82 522q0 151 78 279q77 126 227 203q147 75 367 75q221 0 370 -73q152 -74 228 -197q78 -128 78 -281q0 -150 -78 -278q-76 -126 -228 -203q-149 -76 -370 -76q-216 0 -367 74t-227 199q-78 128 -78 278zM608 526q0 -75 39 -114q40 -43 107 -43q70 0 110 43
q39 42 39 114q0 79 -39 121q-41 41 -110 41q-67 0 -107 -43q-39 -45 -39 -119z" />
    <glyph glyph-name="p" unicode="p" horiz-adv-x="1443" 
d="M143 1051h504v-125q53 67 144 112q90 41 198 41q86 0 170 -35q86 -36 154 -104q67 -70 110 -174q41 -106 41 -244q0 -154 -43 -258q-45 -105 -116 -170q-74 -67 -158 -94q-92 -29 -170 -29q-72 0 -158 25q-80 20 -155 76v-496h-521v1475zM637 506q0 -76 39 -115
q40 -43 106 -43q71 0 111 43q39 42 39 115q0 79 -39 121q-41 41 -111 41q-66 0 -106 -43q-39 -45 -39 -119z" />
    <glyph glyph-name="q" unicode="q" horiz-adv-x="1443" 
d="M102 528q0 155 45 260q43 104 115 170t158 93q89 28 170 28q93 0 178 -26q92 -29 158 -84l16 82h481v-1475h-520v530q-56 -59 -137 -96q-79 -39 -188 -39q-86 0 -170 35q-86 36 -152 105q-71 71 -111 174q-43 104 -43 243zM635 545q0 -75 41 -119q40 -43 108 -43t107 45
q39 42 39 117t-39 117q-40 40 -107 40q-68 0 -108 -43q-41 -44 -41 -114z" />
    <glyph glyph-name="r" unicode="r" horiz-adv-x="1019" 
d="M143 1051h480v-144q48 78 114 125q70 49 174 49q24 0 60 -4q27 -6 59 -20l41 -479l-18 -11q-86 45 -187 45q-74 0 -139 -53q-63 -51 -63 -168v-391h-521v1051z" />
    <glyph glyph-name="s" unicode="s" horiz-adv-x="1140" 
d="M180 434q76 -45 201 -84q106 -33 194 -33q64 0 64 39q0 16 -25 25q-18 6 -96 16q-200 21 -297 99q-96 78 -96 217q0 109 65 192q64 82 185 129q113 45 274 45q89 0 178 -12q76 -10 164 -31q76 -22 117 -47l-127 -321q-83 40 -150 55q-69 16 -129 16q-63 0 -63 -39
q0 -17 27 -26q29 -15 98 -23q200 -27 287 -100q90 -78 90 -205q0 -183 -133 -278q-139 -97 -398 -97q-167 0 -299 33q-144 36 -229 96z" />
    <glyph glyph-name="t" unicode="t" horiz-adv-x="1009" 
d="M-20 1051h145v219l520 164v-383h260v-410h-260v-127q0 -68 19 -100q17 -33 63 -33q41 0 70 16q37 20 63 41l98 -360q-61 -41 -159 -80q-91 -39 -219 -39q-154 0 -240 45q-89 42 -137 115q-47 72 -62 153q-16 88 -16 156v213h-145v410z" />
    <glyph glyph-name="u" unicode="u" horiz-adv-x="1341" 
d="M123 1051h520v-531q0 -55 14 -80q12 -26 64 -26q46 0 67 35q23 38 23 90v512h520v-1051h-500v143q-47 -77 -122 -123q-76 -49 -205 -49q-108 0 -193 49q-84 48 -137 152q-51 99 -51 262v617z" />
    <glyph glyph-name="v" unicode="v" horiz-adv-x="1333" 
d="M518 1051l135 -582l142 582h538l-358 -1051h-653l-363 1051h559z" />
    <glyph glyph-name="w" unicode="w" horiz-adv-x="1761" 
d="M518 1051l72 -502l252 502h102l227 -500l72 500h518l-239 -1051h-457l-195 395l-194 -395h-436l-240 1051h518z" />
    <glyph glyph-name="x" unicode="x" horiz-adv-x="1415" 
d="M313 543l-295 508h560l124 -275l132 275h559l-303 -498l325 -553h-581l-125 254l-121 -254h-588z" />
    <glyph glyph-name="y" unicode="y" horiz-adv-x="1353" 
d="M526 1051l131 -582h15l131 582h551l-582 -1475h-616l213 424l-410 1051h567z" />
    <glyph glyph-name="z" unicode="z" horiz-adv-x="1212" 
d="M82 61l397 596h-379l62 394h1050v-62l-391 -596h377v-393h-1116v61z" />
    <glyph glyph-name="braceleft" unicode="{" horiz-adv-x="1001" 
d="M164 696h80q32 0 61 19q25 19 25 73q0 74 -21 138q-7 21 -20.5 64t-20.5 65q-20 61 -20 135q0 132 69 213q71 83 193 123q116 39 278 39q94 0 177 -9q64 -7 118 -20v-242q-66 19 -100 25q-58 10 -102 10q-59 0 -99 -29q-39 -29 -39 -110q0 -64 23 -141q8 -27 22 -77.5
t19 -68.5q20 -73 20 -155q0 -69 -41 -119q-42 -51 -100 -78q61 -28 100 -76q41 -50 41 -121q0 -80 -20 -153q-36 -132 -41 -148q-23 -81 -23 -145q0 -79 39 -105q38 -30 99 -30q44 0 102 10q44 8 100 24v-241q-47 -11 -118 -19q-92 -10 -177 -10q-157 0 -278 41
q-122 40 -193 123q-69 81 -69 211q0 76 20 137q7 22 20.5 65t20.5 64q21 64 21 135q0 55 -25 74q-29 19 -61 19h-80v290z" />
    <glyph glyph-name="bar" unicode="|" horiz-adv-x="471" 
d="M205 1536h266v-1788h-266v1788z" />
    <glyph glyph-name="braceright" unicode="}" horiz-adv-x="1001" 
d="M840 696h80v-290h-80q-35 0 -60 -19q-26 -17 -26 -74q0 -74 20 -135q7 -21 20.5 -64t20.5 -65q21 -64 21 -137q0 -129 -70 -211t-191 -123q-125 -41 -280 -41q-84 0 -176 10q-73 8 -119 19v241q57 -16 102 -24q55 -10 101 -10q59 0 100 30q37 27 37 105q0 71 -21 145
q-8 27 -22 80.5t-18 67.5q-23 84 -23 153q0 72 43 121q40 49 98 76q-55 25 -98 78q-43 49 -43 119q0 71 23 155q6 21 19 70.5t21 75.5q21 71 21 141q0 80 -37 110q-43 29 -100 29q-46 0 -101 -10q-36 -6 -102 -25v242q54 13 119 20q83 9 176 9q162 0 280 -39
q121 -41 191 -123t70 -213q0 -70 -21 -135q-7 -22 -20.5 -65t-20.5 -64q-20 -61 -20 -138q0 -56 26 -73q25 -19 60 -19z" />
    <glyph glyph-name="asciitilde" unicode="~" 
d="M459 811q72 96 149 131q78 35 144 35q97 0 194 -23q23 -6 170 -49q82 -24 168 -24q67 0 115 26t102 80l129 -371q-72 -97 -147 -135q-75 -37 -144 -37q-98 0 -190 25q-53 14 -172 49q-90 23 -172 23q-69 0 -119 -29q-35 -21 -98 -76z" />
    <glyph glyph-name="uni00A0" unicode="&#xa0;" horiz-adv-x="368" 
 />
    <glyph glyph-name="exclamdown" unicode="&#xa1;" horiz-adv-x="684" 
d="M684 -385h-520v455l61 487h398l61 -487v-455zM649 727h-454v322h454v-322z" />
    <glyph glyph-name="cent" unicode="&#xa2;" horiz-adv-x="1165" 
d="M82 705q0 217 127 362q124 139 334 180v350h211v-335q143 -9 247 -56q100 -47 140 -84l-174 -338q-43 43 -84 64q-49 22 -111 22q-76 0 -119 -43t-43 -114q0 -70 47 -117t127 -47q70 0 119 37q47 33 76 65l207 -309q-61 -68 -174 -121q-116 -54 -258 -63v-320h-211v332
q-220 41 -340 182q-121 142 -121 353z" />
    <glyph glyph-name="sterling" unicode="&#xa3;" horiz-adv-x="1722" 
d="M41 244q0 120 51 186q53 68 125 94q73 27 145 27h25q17 0 27 -2q1 8 2 24.5t2 24.5q1 7 2 24t2 25h-232l46 227h202l2 21q21 285 205 434q184 146 469 146q152 0 291 -45q144 -47 260 -152l-223 -326q-62 50 -135 84q-75 35 -174 35q-94 0 -138 -41q-46 -40 -55 -156h365
l-45 -227h-336q-1 -17 -5.5 -64.5t-5.5 -68.5q-8 -78 -10 -104q94 -36 137 -50q68 -22 129 -22q75 0 109 27q35 24 47 79q13 58 16 136h351q-18 -297 -129 -461q-113 -162 -365 -162q-130 0 -237 43q-115 42 -207 96q-74 -63 -185 -98q-107 -37 -215 -37q-134 0 -223 74
q-90 72 -90 209zM244 231q0 -71 67 -71q50 0 64 39q13 45 16 102q-42 10 -67 10q-80 0 -80 -80z" />
    <glyph glyph-name="currency" unicode="&#xa4;" horiz-adv-x="1234" 
d="M281 336q-40 46 -58 104t-18 119q0 140 78 244l-140 139l97 96l141 -141q58 37 137 59q77 21 174 21q96 0 172 -21q77 -21 133 -57l142 141l96 -96l-135 -135q80 -106 80 -246q0 -125 -78 -229l133 -133l-96 -97l-142 142q-62 -36 -133 -56q-73 -20 -172 -20t-172 20
q-79 22 -137 56l-143 -144l-97 97zM578 559q0 -54 32 -82q29 -33 82 -33q51 0 86 35q33 33 33 84q0 53 -33 86q-36 31 -86 31q-53 0 -82 -33q-32 -32 -32 -88z" />
    <glyph glyph-name="yen" unicode="&#xa5;" horiz-adv-x="1615" 
d="M629 1434l182 -490h12l199 490h594l-404 -627h238l-64 -232h-319v-90h383l-64 -231h-319v-254h-522v254h-416l64 231h352v90h-416l64 232h204l-397 627h629z" />
    <glyph glyph-name="brokenbar" unicode="&#xa6;" horiz-adv-x="471" 
d="M205 451h266v-703h-266v703zM205 1536h266v-702h-266v702z" />
    <glyph glyph-name="section" unicode="&#xa7;" horiz-adv-x="1228" 
d="M645 -313q-98 0 -201 20q-105 17 -202 53q-102 37 -152 72l143 352q41 -27 125 -59q73 -28 144 -43q75 -16 127 -16q55 0 76 12q20 11 20 41q0 26 -37 41q-38 15 -139 30q-237 39 -352 125q-111 82 -111 230q0 74 31 147q25 62 94 144q-55 82 -55 204q0 208 135 322
q134 113 385 113q87 0 203 -17q81 -12 186 -45q86 -31 139 -70l-143 -352q-84 51 -178 76q-113 29 -191 29q-51 0 -74 -13q-22 -13 -22 -41q0 -20 37 -32q38 -13 125 -25q248 -34 362 -117q115 -83 115 -235q0 -161 -125 -301q55 -79 55 -213q0 -198 -139 -316
q-140 -116 -381 -116zM813 500q12 27 12 61q0 43 -43 64q-46 22 -170 37q-9 1 -26.5 4t-26.5 4q-24 3 -57 10q-15 -34 -15 -64q0 -33 43 -51q46 -22 164 -43q23 -2 60 -10q9 -2 59 -12z" />
    <glyph glyph-name="dieresis" unicode="&#xa8;" horiz-adv-x="1228" 
d="M315 1536h410v-319h-410v319zM819 1536h410v-319h-410v319z" />
    <glyph glyph-name="copyright" unicode="&#xa9;" horiz-adv-x="1826" 
d="M266 711q0 154 53 293q52 137 152 243q96 105 244 168q148 60 332 60q188 0 331 -58t246 -164q101 -107 152 -239q51 -134 51 -291t-51 -291q-53 -139 -154 -246t-246 -166q-143 -61 -334 -61q-182 0 -327 59q-148 60 -244 162q-98 98 -152 240q-53 136 -53 291zM512 713
q0 -158 68 -279q65 -121 186 -186q123 -66 281 -66q157 0 276 70q120 67 190 190q68 121 68 279q0 162 -68 283q-71 121 -188 184t-274 63q-164 0 -283 -67q-123 -71 -188 -191q-68 -121 -68 -280zM635 713q0 131 57 223q56 91 154 145q94 52 207 52q194 0 325 -107
l-121 -215q-71 53 -157 53q-66 0 -103 -37q-39 -39 -39 -108q0 -68 41 -109t103 -41q55 0 100 25q35 18 62 45l110 -227q-42 -40 -127 -78q-76 -33 -192 -33q-123 0 -215 51q-100 55 -150 146q-55 91 -55 215z" />
    <glyph glyph-name="ordfeminine" unicode="&#xaa;" horiz-adv-x="1204" 
d="M74 1049q0 107 55 165t141 82q90 23 170 23q100 0 162 -16q55 -14 103 -52q0 57 -35 84q-36 28 -88 37q-47 8 -115 8q-72 0 -137 -8q-75 -9 -125 -24l-8 6l90 270q31 10 123 25q91 12 215 12q298 0 426 -96q127 -95 127 -310v-436h-455v78q-54 -51 -127 -76
q-74 -24 -201 -24q-149 0 -235 65t-86 187zM545 1081q0 -39 26 -51q24 -12 54 -12q86 0 86 67q0 29 -23 45q-26 13 -61 13q-82 0 -82 -62z" />
    <glyph glyph-name="guillemotleft" unicode="&#xab;" horiz-adv-x="1288" 
d="M895 932h393l-309 -373l309 -373h-393l-309 373zM391 932h393l-309 -373l309 -373h-393l-309 373z" />
    <glyph glyph-name="logicalnot" unicode="&#xac;" 
d="M430 940h1147v-737h-453l2 325h-696v412z" />
    <glyph glyph-name="uni00AD" unicode="&#xad;" horiz-adv-x="761" 
d="M205 700h557v-352h-557v352z" />
    <glyph glyph-name="registered" unicode="&#xae;" horiz-adv-x="1503" 
d="M164 836q0 178 78 325t223 228q144 81 358 81q226 0 373 -81q151 -83 229 -224q78 -144 78 -315q0 -120 -39 -227q-41 -115 -123 -203q-84 -94 -213 -146q-130 -53 -305 -53q-221 0 -366 86q-148 86 -219 228q-74 139 -74 301zM383 846q0 -116 47 -219q46 -102 145 -160
q100 -59 252 -59q138 0 228 41q84 38 139 106q48 62 70 143q20 73 20 148q0 154 -57 246q-59 95 -162 145q-106 47 -238 47q-152 0 -252 -59q-98 -58 -145 -158q-47 -103 -47 -221zM596 1120h283q101 0 147 -37q45 -36 45 -108q0 -37 -18 -78q-19 -37 -62 -53
q84 -27 84 -119v-127h-207v123q0 28 -6 43q-6 14 -26 14h-35v-180h-205v522zM834 915q21 0 36 9t15 32q0 24 -15 33q-13 8 -36 8h-33v-82h33z" />
    <glyph glyph-name="macron" unicode="&#xaf;" horiz-adv-x="1228" 
d="M414 1511h815v-284h-815v284z" />
    <glyph glyph-name="degree" unicode="&#xb0;" horiz-adv-x="851" 
d="M123 1118q0 96 43 178q43 79 127 129q85 48 205 48q119 0 204 -48q82 -46 127 -125q43 -79 43 -178q0 -97 -43 -176q-45 -83 -124 -127q-83 -47 -207 -47q-186 0 -279 100q-96 104 -96 246zM397 1120q0 -38 29 -67q27 -27 72 -27q44 0 73 29t29 67q0 41 -29 70
q-27 27 -73 27q-45 0 -72 -27q-29 -29 -29 -72z" />
    <glyph glyph-name="plusminus" unicode="&#xb1;" 
d="M451 412h366v243h-366v412h368v287h451v-287h368v-412h-368v-243h368v-412h-1187v412z" />
    <glyph glyph-name="uni00B2" unicode="&#xb2;" horiz-adv-x="1191" 
d="M82 1327q18 93 80 176q60 85 170 137q114 54 278 54q242 0 369 -92q125 -94 125 -240q0 -75 -25 -139q-27 -64 -86 -123q-67 -64 -166 -133h293v-303h-1009v75l282 242q134 117 150 133q56 56 73 84q21 34 21 59q0 38 -23 58q-22 16 -61 16q-41 0 -70 -26
q-31 -28 -43 -86z" />
    <glyph glyph-name="uni00B3" unicode="&#xb3;" horiz-adv-x="1175" 
d="M233 1069q50 -35 136 -65q79 -29 149 -29q135 0 135 96q0 35 -26 55q-29 19 -70 19q-33 0 -57 -6q-24 -9 -60 -31l-84 59l152 193h-363l56 307h899v-63l-250 -342q135 -21 203 -95q63 -72 63 -180q0 -117 -69 -192q-70 -79 -189 -119q-121 -41 -268 -41q-167 0 -301 45
q-143 45 -223 119z" />
    <glyph glyph-name="acute" unicode="&#xb4;" horiz-adv-x="1228" 
d="M807 1536h518l-328 -340h-395z" />
    <glyph glyph-name="uni00B5" unicode="&#xb5;" horiz-adv-x="1341" 
d="M123 1051h520v-531q0 -55 14 -80q12 -26 64 -26q46 0 67 35q23 38 23 90v512h520v-1051h-489v143q-30 -83 -92 -110q-65 -30 -142 -21v-370h-485v1409z" />
    <glyph glyph-name="paragraph" unicode="&#xb6;" horiz-adv-x="1286" 
d="M53 961q0 136 49 243q48 106 158 168q109 62 285 62h338v-1680h-408v719q-198 15 -309 141q-113 125 -113 347zM985 1434h225v-1680h-225v1680z" />
    <glyph glyph-name="periodcentered" unicode="&#xb7;" horiz-adv-x="557" 
d="M141 913h414v-370h-414v370z" />
    <glyph glyph-name="cedilla" unicode="&#xb8;" horiz-adv-x="1228" 
d="M731 -317q37 -20 62 -27q30 -12 57 -12q68 0 68 53q0 57 -72 57h-45q-5 -1 -12 -1.5t-11.5 -1t-7.5 -1.5l-29 146q36 11 82 16q49 6 119 6q152 0 225 -61q74 -65 74 -166q0 -109 -80 -180q-84 -72 -241 -72q-71 0 -140 16q-62 14 -121 51z" />
    <glyph glyph-name="uni00B9" unicode="&#xb9;" horiz-adv-x="903" 
d="M123 1466q126 18 217 66q90 47 154 135h307v-1003h-479v499q-31 -10 -93 -22q-60 -11 -98 -11z" />
    <glyph glyph-name="ordmasculine" unicode="&#xba;" horiz-adv-x="1306" 
d="M94 1227q0 123 68 223q68 96 203 154q132 57 333 57q303 0 455 -119q154 -121 154 -311t-154 -311q-156 -123 -455 -123q-303 0 -450 118q-154 121 -154 312zM604 1233q0 -109 94 -109q99 0 99 109q0 113 -99 113q-94 0 -94 -113z" />
    <glyph glyph-name="guillemotright" unicode="&#xbb;" horiz-adv-x="1288" 
d="M475 184h-393l309 373l-309 373h393l309 -373zM979 184h-393l309 373l-309 373h393l309 -373z" />
    <glyph glyph-name="onequarter" unicode="&#xbc;" horiz-adv-x="2729" 
d="M1561 1518h512l-947 -1575h-512zM164 1262q128 18 217 65q90 47 154 135h307v-1003h-480v499q-33 -10 -92 -22q-55 -10 -98 -10zM1559 399l544 605h469v-576h160v-270h-160v-158h-456v158h-557v241zM2116 428v258l-226 -258h226z" />
    <glyph glyph-name="onehalf" unicode="&#xbd;" horiz-adv-x="2723" 
d="M1561 1518h512l-947 -1575h-512zM164 1262q128 18 217 65q90 47 154 135h307v-1003h-480v499q-33 -10 -92 -22q-55 -10 -98 -10zM1667 664q18 93 80 176q60 85 170 137q112 53 278 53q242 0 369 -92q125 -94 125 -240q0 -75 -25 -139q-27 -64 -86 -123q-70 -66 -165 -133
h292v-303h-1009v76l282 241q126 110 150 134q58 58 74 84q20 33 20 59q0 38 -22 57q-24 17 -62 17q-40 0 -70 -27q-31 -28 -43 -86z" />
    <glyph glyph-name="threequarters" unicode="&#xbe;" horiz-adv-x="2918" 
d="M1700 1518h512l-946 -1575h-512zM1698 399l545 605h469v-576h159v-270h-159v-158h-457v158h-557v241zM2255 428v258l-225 -258h225zM233 864q50 -35 136 -65q79 -29 149 -29q135 0 135 96q0 36 -26 56q-27 18 -70 18q-33 0 -57 -6q-24 -9 -60 -31l-84 60l152 192h-363
l56 307h899v-63l-250 -342q136 -21 203 -94q63 -72 63 -181q0 -117 -69 -192q-70 -79 -189 -119q-121 -41 -268 -41q-167 0 -301 45q-143 45 -223 119z" />
    <glyph glyph-name="questiondown" unicode="&#xbf;" horiz-adv-x="1126" 
d="M1133 -266q-124 -72 -275 -117q-148 -43 -295 -43q-249 0 -373 100q-129 99 -129 273q0 113 37 188q38 73 90 123q32 30 107 88q56 43 90 80q37 40 37 98v94h438v-200q0 -78 -26 -131q-23 -47 -70 -94q-38 -35 -84 -66q-22 -14 -70 -51q-28 -25 -28 -47q0 -37 59 -37
q41 0 107 16q53 14 120 43q60 26 109 58zM866 727h-454v322h454v-322z" />
    <glyph glyph-name="Agrave" unicode="&#xc0;" horiz-adv-x="1548" 
d="M377 1434h786l385 -1434h-538l-39 166h-357l-28 -166h-566zM874 580l-96 421h-18l-72 -421h186zM801 1864l205 -328h-406l-328 328h529z" />
    <glyph glyph-name="Aacute" unicode="&#xc1;" horiz-adv-x="1548" 
d="M377 1434h786l385 -1434h-538l-39 166h-357l-28 -166h-566zM874 580l-96 421h-18l-72 -421h186zM752 1864h528l-328 -328h-405z" />
    <glyph glyph-name="Acircumflex" unicode="&#xc2;" horiz-adv-x="1548" 
d="M377 1434h786l385 -1434h-538l-39 166h-357l-28 -166h-566zM874 580l-96 421h-18l-72 -421h186zM504 1864h553l200 -326h-387l-90 115l-96 -115h-383z" />
    <glyph glyph-name="Atilde" unicode="&#xc3;" horiz-adv-x="1548" 
d="M377 1434h786l385 -1434h-538l-39 166h-357l-28 -166h-566zM874 580l-96 421h-18l-72 -421h186zM393 1536q-1 4 -1.5 11.5t-1 19.5t-1.5 22q-4 46 -4 51q0 134 55 195q53 59 152 59q67 0 117 -16q26 -10 77 -41q13 -9 43 -22q18 -9 41 -9q48 0 48 56v10q0 6 -3 12h244
q3 -27 6 -51q2 -18 2 -51q0 -117 -51 -183q-51 -69 -166 -69q-60 0 -100 18q-24 9 -74 35q-20 14 -45 25q-23 10 -49 10q-47 0 -47 -57v-13q0 -8 2 -12h-244z" />
    <glyph glyph-name="Adieresis" unicode="&#xc4;" horiz-adv-x="1548" 
d="M377 1434h786l385 -1434h-538l-39 166h-357l-28 -166h-566zM874 580l-96 421h-18l-72 -421h186zM322 1855h409v-319h-409v319zM825 1855h410v-319h-410v319z" />
    <glyph glyph-name="Aring" unicode="&#xc5;" horiz-adv-x="1548" 
d="M377 1434h786l385 -1434h-538l-39 166h-357l-28 -166h-566zM874 580l-96 421h-18l-72 -421h186zM416 1743q0 113 88 180q91 66 282 66q179 0 267 -64t88 -180q0 -109 -88 -176q-89 -68 -267 -68q-191 0 -282 66q-88 64 -88 176zM711 1745q0 -29 22 -45q24 -17 53 -17
q32 0 56 17q20 14 20 45q0 30 -20 47q-22 16 -56 16q-31 0 -53 -16q-22 -19 -22 -47z" />
    <glyph glyph-name="AE" unicode="&#xc6;" horiz-adv-x="2211" 
d="M479 1434h1630v-412h-544v-115h538v-360h-538v-123h585v-424h-1149v227h-327l-68 -227h-586zM1001 641v360h-98l-106 -360h204z" />
    <glyph glyph-name="Ccedilla" unicode="&#xc7;" horiz-adv-x="1525" 
d="M102 711q0 158 52 295t155 243q104 104 264 166q163 60 379 60q211 0 363 -58q151 -59 227 -135l-254 -422q-60 48 -117 74q-62 27 -163 27q-133 0 -197 -70q-63 -69 -63 -172q0 -101 67 -168q68 -68 211 -68q154 0 246 86l295 -370q-59 -62 -142 -115q-82 -55 -200 -90
q-119 -35 -279 -35q-249 0 -438 94q-187 90 -297 262q-109 171 -109 396zM678 -317q38 -21 61 -27q30 -12 58 -12q67 0 67 53q0 57 -71 57h-45q-5 -1 -12 -1.5t-11.5 -1t-7.5 -1.5l-29 146q36 11 82 16q50 6 119 6q152 0 225 -61q74 -65 74 -166q0 -109 -80 -180
q-84 -72 -242 -72q-70 0 -139 16q-62 14 -121 51z" />
    <glyph glyph-name="Egrave" unicode="&#xc8;" horiz-adv-x="1323" 
d="M205 1434h1108v-412h-545v-115h539v-360h-539v-123h586v-424h-1149v1434zM782 1864l205 -328h-405l-328 328h528z" />
    <glyph glyph-name="Eacute" unicode="&#xc9;" horiz-adv-x="1323" 
d="M205 1434h1108v-412h-545v-115h539v-360h-539v-123h586v-424h-1149v1434zM733 1864h529l-328 -328h-406z" />
    <glyph glyph-name="Ecircumflex" unicode="&#xca;" horiz-adv-x="1323" 
d="M205 1434h1108v-412h-545v-115h539v-360h-539v-123h586v-424h-1149v1434zM485 1864h553l201 -326h-387l-90 115l-96 -115h-383z" />
    <glyph glyph-name="Edieresis" unicode="&#xcb;" horiz-adv-x="1323" 
d="M205 1434h1108v-412h-545v-115h539v-360h-539v-123h586v-424h-1149v1434zM303 1855h410v-319h-410v319zM807 1855h410v-319h-410v319z" />
    <glyph glyph-name="Igrave" unicode="&#xcc;" horiz-adv-x="768" 
d="M-18 1434h563v-1434h-563v1434zM287 1864l205 -328h-406l-328 328h529z" />
    <glyph glyph-name="Iacute" unicode="&#xcd;" horiz-adv-x="768" 
d="M205 1434h563v-1434h-563v1434zM461 1864h528l-327 -328h-406z" />
    <glyph glyph-name="Icircumflex" unicode="&#xce;" horiz-adv-x="768" 
d="M10 1434h563v-1434h-563v1434zM18 1864h553l201 -326h-387l-90 115l-96 -115h-383z" />
    <glyph glyph-name="Idieresis" unicode="&#xcf;" horiz-adv-x="768" 
d="M31 1434h563v-1434h-563v1434zM-143 1855h409v-319h-409v319zM360 1855h410v-319h-410v319z" />
    <glyph glyph-name="Eth" unicode="&#xd0;" horiz-adv-x="1531" 
d="M-20 811h112v623h602q216 0 367 -56q148 -56 237 -151q94 -105 132 -223q40 -124 40 -271q0 -366 -198 -549q-199 -184 -563 -184h-617v643h-112v168zM655 477q6 -2 25 -2q10 -2 25 -2q92 0 135 64t43 200q0 114 -45 174q-47 62 -138 62h-22q-4 -1 -12 -2t-11 -2v-158
h119v-168h-119v-166z" />
    <glyph glyph-name="Ntilde" unicode="&#xd1;" horiz-adv-x="1601" 
d="M205 1434h502l352 -541v541h543v-1434h-502l-352 496v-496h-543v1434zM500 1536q-1 4 -1.5 11.5t-1 19.5t-1.5 22q-4 46 -4 51q0 134 55 195q53 59 151 59q67 0 117 -16q29 -11 78 -41q13 -9 43 -22q18 -9 41 -9q47 0 47 56v10q0 8 -2 12h244q3 -27 6 -51q2 -18 2 -51
q0 -117 -51 -183q-51 -69 -166 -69q-61 0 -101 18q-20 8 -73 35q-20 14 -45 25q-23 10 -50 10q-47 0 -47 -57v-13q0 -8 2 -12h-243z" />
    <glyph glyph-name="Ograve" unicode="&#xd2;" horiz-adv-x="1646" 
d="M102 711q0 151 54 293q53 139 151 243q97 106 242 168q148 60 325 60q183 0 326 -58q140 -57 244 -164q99 -105 151 -239q52 -137 52 -291t-52 -291q-53 -139 -151 -246q-102 -109 -244 -166q-143 -61 -326 -61q-180 0 -325 59t-242 162q-97 100 -151 242
q-54 139 -54 289zM680 719q0 -101 51 -164t143 -63q89 0 142 65q51 63 51 164q0 103 -51 166t-142 63q-90 0 -143 -65q-51 -63 -51 -166zM897 1864l205 -328h-406l-327 328h528z" />
    <glyph glyph-name="Oacute" unicode="&#xd3;" horiz-adv-x="1646" 
d="M102 711q0 151 54 293q53 139 151 243q97 106 242 168q148 60 325 60q183 0 326 -58q140 -57 244 -164q99 -105 151 -239q52 -137 52 -291t-52 -291q-53 -139 -151 -246q-102 -109 -244 -166q-143 -61 -326 -61q-180 0 -325 59t-242 162q-97 100 -151 242
q-54 139 -54 289zM680 719q0 -101 51 -164t143 -63q89 0 142 65q51 63 51 164q0 103 -51 166t-142 63q-90 0 -143 -65q-51 -63 -51 -166zM848 1864h528l-327 -328h-406z" />
    <glyph glyph-name="Ocircumflex" unicode="&#xd4;" horiz-adv-x="1646" 
d="M102 711q0 151 54 293q53 139 151 243q97 106 242 168q148 60 325 60q183 0 326 -58q140 -57 244 -164q99 -105 151 -239q52 -137 52 -291t-52 -291q-53 -139 -151 -246q-102 -109 -244 -166q-143 -61 -326 -61q-180 0 -325 59t-242 162q-97 100 -151 242
q-54 139 -54 289zM680 719q0 -101 51 -164t143 -63q89 0 142 65q51 63 51 164q0 103 -51 166t-142 63q-90 0 -143 -65q-51 -63 -51 -166zM600 1864h553l201 -326h-387l-90 115l-97 -115h-383z" />
    <glyph glyph-name="Otilde" unicode="&#xd5;" horiz-adv-x="1646" 
d="M102 711q0 151 54 293q53 139 151 243q97 106 242 168q148 60 325 60q183 0 326 -58q140 -57 244 -164q99 -105 151 -239q52 -137 52 -291t-52 -291q-53 -139 -151 -246q-102 -109 -244 -166q-143 -61 -326 -61q-180 0 -325 59t-242 162q-97 100 -151 242
q-54 139 -54 289zM680 719q0 -101 51 -164t143 -63q89 0 142 65q51 63 51 164q0 103 -51 166t-142 63q-90 0 -143 -65q-51 -63 -51 -166zM489 1536q-1 4 -1.5 11.5t-1 19.5t-1.5 22q-4 46 -4 51q0 133 56 195q53 59 151 59q67 0 117 -16q29 -11 78 -41q13 -9 43 -22
q18 -9 41 -9q47 0 47 56v10q0 8 -2 12h243q1 -10 3.5 -27.5t3.5 -23.5q2 -18 2 -51q0 -116 -52 -183q-51 -69 -165 -69q-61 0 -101 18q-24 9 -74 35q-20 14 -45 25q-23 10 -49 10q-47 0 -47 -57v-13q0 -8 2 -12h-244z" />
    <glyph glyph-name="Odieresis" unicode="&#xd6;" horiz-adv-x="1646" 
d="M102 711q0 151 54 293q53 139 151 243q97 106 242 168q148 60 325 60q183 0 326 -58q140 -57 244 -164q99 -105 151 -239q52 -137 52 -291t-52 -291q-53 -139 -151 -246q-102 -109 -244 -166q-143 -61 -326 -61q-180 0 -325 59t-242 162q-97 100 -151 242
q-54 139 -54 289zM680 719q0 -101 51 -164t143 -63q89 0 142 65q51 63 51 164q0 103 -51 166t-142 63q-90 0 -143 -65q-51 -63 -51 -166zM418 1855h409v-319h-409v319zM922 1855h409v-319h-409v319z" />
    <glyph glyph-name="multiply" unicode="&#xd7;" 
d="M741 694l-319 318l291 291l319 -318l318 318l290 -291l-317 -318l317 -319l-290 -291l-318 319l-319 -319l-291 291z" />
    <glyph glyph-name="Oslash" unicode="&#xd8;" horiz-adv-x="1646" 
d="M102 711q0 151 54 293q53 139 151 243q97 106 242 168q148 60 325 60q116 0 222 -25q97 -23 184 -72l121 142h227l-209 -244q112 -103 170 -246t58 -307q0 -154 -52 -291q-53 -139 -151 -246q-102 -109 -244 -166q-143 -61 -326 -61q-120 0 -225 27q-110 28 -188 75
l-113 -133h-229l200 238q-103 98 -161 244q-56 142 -56 301zM668 719q0 -24 4 -64q4 -39 10 -55l289 369q-42 22 -97 22q-102 0 -153 -69q-53 -71 -53 -203zM782 469q40 -18 92 -18q103 0 154 69q51 68 51 201q0 63 -12 113z" />
    <glyph glyph-name="Ugrave" unicode="&#xd9;" horiz-adv-x="1527" 
d="M164 1434h563v-721q0 -81 31 -135t94 -54q60 0 88 54q29 56 29 135v721h559v-818q0 -172 -55 -297q-54 -124 -150 -204q-94 -79 -219 -117q-121 -39 -260 -39q-142 0 -260 39q-122 37 -217 117q-97 82 -148 204q-55 125 -55 297v818zM868 1864l205 -328h-405l-328 328
h528z" />
    <glyph glyph-name="Uacute" unicode="&#xda;" horiz-adv-x="1527" 
d="M164 1434h563v-721q0 -81 31 -135t94 -54q60 0 88 54q29 56 29 135v721h559v-818q0 -172 -55 -297q-54 -124 -150 -204q-94 -79 -219 -117q-121 -39 -260 -39q-142 0 -260 39q-122 37 -217 117q-97 82 -148 204q-55 125 -55 297v818zM819 1864h529l-328 -328h-406z" />
    <glyph glyph-name="Ucircumflex" unicode="&#xdb;" horiz-adv-x="1527" 
d="M164 1434h563v-721q0 -81 31 -135t94 -54q60 0 88 54q29 56 29 135v721h559v-818q0 -172 -55 -297q-54 -124 -150 -204q-94 -79 -219 -117q-121 -39 -260 -39q-142 0 -260 39q-122 37 -217 117q-97 82 -148 204q-55 125 -55 297v818zM571 1864h553l201 -326h-387l-90 115
l-96 -115h-383z" />
    <glyph glyph-name="Udieresis" unicode="&#xdc;" horiz-adv-x="1527" 
d="M164 1434h563v-721q0 -81 31 -135t94 -54q60 0 88 54q29 56 29 135v721h559v-818q0 -172 -55 -297q-54 -124 -150 -204q-94 -79 -219 -117q-121 -39 -260 -39q-142 0 -260 39q-122 37 -217 117q-97 82 -148 204q-55 125 -55 297v818zM389 1855h410v-319h-410v319z
M893 1855h410v-319h-410v319z" />
    <glyph glyph-name="Yacute" unicode="&#xdd;" horiz-adv-x="1615" 
d="M629 1434l182 -490h12l199 490h594l-529 -1020v-414h-563v414l-524 1020h629zM793 1864h528l-328 -328h-405z" />
    <glyph glyph-name="Thorn" unicode="&#xde;" horiz-adv-x="1421" 
d="M205 1434h563v-170h76q235 0 379 -66q140 -68 200 -186q60 -123 60 -277q0 -264 -154 -409q-158 -146 -491 -146h-70v-180h-563v1434zM768 549h20q6 -2 19 -2q74 0 108 43q33 39 33 129q0 74 -35 115q-37 40 -110 40h-17q-3 -1 -9 -2t-9 -2v-321z" />
    <glyph glyph-name="germandbls" unicode="&#xdf;" horiz-adv-x="1763" 
d="M82 1051h137q0 82 35 172q36 92 117 170q84 78 229 127q146 49 373 49q210 0 344 -35q139 -40 205 -94q74 -62 100 -123q27 -67 27 -131q0 -92 -33 -154t-86 -106q-52 -43 -113 -68q-58 -27 -112 -39v-10q78 -9 157 -33q87 -30 150 -71q66 -45 110 -117q41 -71 41 -174
q0 -127 -67 -228q-64 -97 -197 -157q-131 -58 -321 -58q-104 0 -209 27q-106 27 -189 80l99 334q53 -27 104 -39q49 -15 113 -15q50 0 98 23q41 21 41 78q0 76 -57 94q-58 18 -168 18q-51 0 -76 -2q-12 -1 -40.5 -4t-45.5 -4l26 361q124 16 187 49q65 30 65 114
q0 117 -168 117q-112 0 -157 -39q-47 -41 -56 -106q-10 -72 -10 -144v-913h-516v641h-137v410z" />
    <glyph glyph-name="agrave" unicode="&#xe0;" horiz-adv-x="1286" 
d="M41 303q0 104 41 172q40 67 104 107q66 39 140 53q71 14 145 14q86 0 164 -16q69 -18 127 -60q-3 70 -39 103q-39 33 -100 45q-72 10 -138 10q-89 0 -157 -10q-44 -6 -117 -27l-10 8l118 338q31 10 82 19q40 7 113 14q61 6 115 6q183 0 319 -43q139 -44 217 -147
q80 -106 80 -293v-596h-483v102q-55 -73 -139 -100q-88 -31 -193 -31q-171 0 -280 86q-109 83 -109 246zM539 332q0 -51 34 -66q37 -16 80 -16q62 0 88 26q27 27 27 62q0 40 -31 59q-34 17 -78 17q-65 0 -92 -21q-28 -22 -28 -61zM709 1536l206 -340h-395l-317 340h506z" />
    <glyph glyph-name="aacute" unicode="&#xe1;" horiz-adv-x="1286" 
d="M41 303q0 104 41 172q40 67 104 107q66 39 140 53q71 14 145 14q86 0 164 -16q69 -18 127 -60q-3 70 -39 103q-39 33 -100 45q-72 10 -138 10q-89 0 -157 -10q-44 -6 -117 -27l-10 8l118 338q31 10 82 19q40 7 113 14q61 6 115 6q183 0 319 -43q139 -44 217 -147
q80 -106 80 -293v-596h-483v102q-55 -73 -139 -100q-88 -31 -193 -31q-171 0 -280 86q-109 83 -109 246zM539 332q0 -51 34 -66q37 -16 80 -16q62 0 88 26q27 27 27 62q0 40 -31 59q-34 17 -78 17q-65 0 -92 -21q-28 -22 -28 -61zM676 1536h518l-328 -340h-395z" />
    <glyph glyph-name="acircumflex" unicode="&#xe2;" horiz-adv-x="1286" 
d="M41 303q0 104 41 172q40 67 104 107q66 39 140 53q71 14 145 14q86 0 164 -16q69 -18 127 -60q-3 70 -39 103q-39 33 -100 45q-72 10 -138 10q-89 0 -157 -10q-44 -6 -117 -27l-10 8l118 338q31 10 82 19q40 7 113 14q61 6 115 6q183 0 319 -43q139 -44 217 -147
q80 -106 80 -293v-596h-483v102q-55 -73 -139 -100q-88 -31 -193 -31q-171 0 -280 86q-109 83 -109 246zM539 332q0 -51 34 -66q37 -16 80 -16q62 0 88 26q27 27 27 62q0 40 -31 59q-34 17 -78 17q-65 0 -92 -21q-28 -22 -28 -61zM449 1536h512l200 -340h-366l-90 121
l-97 -121h-362z" />
    <glyph glyph-name="atilde" unicode="&#xe3;" horiz-adv-x="1286" 
d="M41 303q0 104 41 172q40 67 104 107q66 39 140 53q71 14 145 14q86 0 164 -16q69 -18 127 -60q-3 70 -39 103q-39 33 -100 45q-72 10 -138 10q-89 0 -157 -10q-44 -6 -117 -27l-10 8l118 338q31 10 82 19q40 7 113 14q61 6 115 6q183 0 319 -43q139 -44 217 -147
q80 -106 80 -293v-596h-483v102q-55 -73 -139 -100q-88 -31 -193 -31q-171 0 -280 86q-109 83 -109 246zM539 332q0 -51 34 -66q37 -16 80 -16q62 0 88 26q27 27 27 62q0 40 -31 59q-34 17 -78 17q-65 0 -92 -21q-28 -22 -28 -61zM317 1200q-1 4 -1.5 11.5t-1 19.5t-1.5 22
q-4 46 -4 52q0 132 56 194q54 60 151 60q64 0 117 -17q29 -11 78 -41q13 -9 43 -22q18 -9 41 -9q47 0 47 56v10q0 8 -2 12h243q1 -10 3.5 -27.5t3.5 -23.5q2 -18 2 -51q0 -115 -52 -182q-52 -70 -166 -70q-60 0 -100 18q-24 9 -74 35q-20 14 -45 25q-23 10 -49 10
q-47 0 -47 -57v-13q0 -8 2 -12h-244z" />
    <glyph glyph-name="adieresis" unicode="&#xe4;" horiz-adv-x="1286" 
d="M41 303q0 104 41 172q40 67 104 107q66 39 140 53q71 14 145 14q86 0 164 -16q69 -18 127 -60q-3 70 -39 103q-39 33 -100 45q-72 10 -138 10q-89 0 -157 -10q-44 -6 -117 -27l-10 8l118 338q31 10 82 19q40 7 113 14q61 6 115 6q183 0 319 -43q139 -44 217 -147
q80 -106 80 -293v-596h-483v102q-55 -73 -139 -100q-88 -31 -193 -31q-171 0 -280 86q-109 83 -109 246zM539 332q0 -51 34 -66q37 -16 80 -16q62 0 88 26q27 27 27 62q0 40 -31 59q-34 17 -78 17q-65 0 -92 -21q-28 -22 -28 -61zM246 1536h409v-319h-409v319zM750 1536h409
v-319h-409v319z" />
    <glyph glyph-name="aring" unicode="&#xe5;" horiz-adv-x="1286" 
d="M41 303q0 104 41 172q40 67 104 107q66 39 140 53q71 14 145 14q86 0 164 -16q69 -18 127 -60q-3 70 -39 103q-39 33 -100 45q-72 10 -138 10q-89 0 -157 -10q-44 -6 -117 -27l-10 8l118 338q31 10 82 19q40 7 113 14q61 6 115 6q183 0 319 -43q139 -44 217 -147
q80 -106 80 -293v-596h-483v102q-55 -73 -139 -100q-88 -31 -193 -31q-171 0 -280 86q-109 83 -109 246zM539 332q0 -51 34 -66q37 -16 80 -16q62 0 88 26q27 27 27 62q0 40 -31 59q-34 17 -78 17q-65 0 -92 -21q-28 -22 -28 -61zM340 1413q0 113 88 180q91 66 283 66
q178 0 266 -64t88 -180q0 -109 -88 -176q-89 -68 -266 -68q-192 0 -283 66q-88 64 -88 176zM635 1415q0 -29 22 -45t54 -16q33 0 55 16q20 14 20 45q0 30 -20 47q-24 17 -55 17q-30 0 -54 -17q-22 -19 -22 -47z" />
    <glyph glyph-name="ae" unicode="&#xe6;" horiz-adv-x="1943" 
d="M41 309q0 130 59 201q57 69 152 96q92 27 194 27h304q-9 55 -86 76q-80 22 -189 22q-90 0 -158 -10q-42 -6 -116 -27l-11 8l119 338q31 10 82 19q40 7 113 14q62 6 114 6q124 0 211 -20q89 -20 166 -88q76 61 174 86q99 22 197 22q170 0 279 -47q109 -50 170 -135
q62 -87 86 -199q25 -118 22 -241h-670q21 -50 72 -78q51 -31 150 -31q62 0 127 19q64 19 114 63l187 -305q-58 -53 -154 -90q-85 -33 -182 -49q-91 -15 -164 -15q-339 0 -510 162q-84 -93 -209 -127q-128 -35 -254 -35q-171 0 -280 86t-109 252zM539 336q0 -54 32 -68
q35 -18 72 -18q35 0 72 12q32 11 61 37q-7 17 -14 55q-6 35 -6 60h-111q-106 0 -106 -78zM1495 676q3 67 -31 94q-37 29 -96 29q-57 0 -92 -35q-38 -35 -41 -88h260z" />
    <glyph glyph-name="ccedilla" unicode="&#xe7;" horiz-adv-x="1165" 
d="M82 520q0 172 80 299q79 125 221 193q137 67 324 67q109 0 198 -24q89 -25 148 -58q71 -42 88 -59l-174 -338q-43 43 -84 64q-49 22 -111 22q-76 0 -119 -43t-43 -115q0 -69 47 -116t127 -47q71 0 119 36q45 31 76 66l207 -309q-38 -44 -113 -90q-71 -42 -166 -70
q-91 -27 -194 -27q-198 0 -338 70q-141 67 -217 190q-76 122 -76 289zM453 -317q38 -21 61 -27q30 -12 57 -12q68 0 68 53q0 57 -72 57h-45q-5 -1 -12 -1.5t-11 -1t-7 -1.5l-29 146q36 11 82 16q49 6 119 6q152 0 225 -61q74 -65 74 -166q0 -109 -80 -180q-84 -72 -242 -72
q-70 0 -139 16q-62 14 -121 51z" />
    <glyph glyph-name="egrave" unicode="&#xe8;" horiz-adv-x="1273" 
d="M82 514q0 170 80 297q82 130 223 199q138 69 332 69q169 0 278 -47q108 -49 170 -133q62 -87 86 -199q26 -122 23 -243h-670q21 -50 72 -78q51 -31 149 -31q62 0 127 19q66 19 115 63l186 -305q-59 -53 -153 -90q-85 -33 -182 -49q-92 -15 -164 -15q-218 0 -367 70
q-151 68 -227 190q-78 125 -78 283zM846 676q3 67 -31 94q-37 29 -96 29q-57 0 -92 -35q-38 -35 -41 -88h260zM731 1536l207 -340h-395l-318 340h506z" />
    <glyph glyph-name="eacute" unicode="&#xe9;" horiz-adv-x="1273" 
d="M82 514q0 170 80 297q82 130 223 199q138 69 332 69q169 0 278 -47q108 -49 170 -133q62 -87 86 -199q26 -122 23 -243h-670q21 -50 72 -78q51 -31 149 -31q62 0 127 19q66 19 115 63l186 -305q-59 -53 -153 -90q-85 -33 -182 -49q-92 -15 -164 -15q-218 0 -367 70
q-151 68 -227 190q-78 125 -78 283zM846 676q3 67 -31 94q-37 29 -96 29q-57 0 -92 -35q-38 -35 -41 -88h260zM698 1536h519l-328 -340h-395z" />
    <glyph glyph-name="ecircumflex" unicode="&#xea;" horiz-adv-x="1273" 
d="M82 514q0 170 80 297q82 130 223 199q138 69 332 69q169 0 278 -47q108 -49 170 -133q62 -87 86 -199q26 -122 23 -243h-670q21 -50 72 -78q51 -31 149 -31q62 0 127 19q66 19 115 63l186 -305q-59 -53 -153 -90q-85 -33 -182 -49q-92 -15 -164 -15q-218 0 -367 70
q-151 68 -227 190q-78 125 -78 283zM846 676q3 67 -31 94q-37 29 -96 29q-57 0 -92 -35q-38 -35 -41 -88h260zM471 1536h512l201 -340h-367l-90 121l-96 -121h-363z" />
    <glyph glyph-name="edieresis" unicode="&#xeb;" horiz-adv-x="1273" 
d="M82 514q0 170 80 297q82 130 223 199q138 69 332 69q169 0 278 -47q108 -49 170 -133q62 -87 86 -199q26 -122 23 -243h-670q21 -50 72 -78q51 -31 149 -31q62 0 127 19q66 19 115 63l186 -305q-59 -53 -153 -90q-85 -33 -182 -49q-92 -15 -164 -15q-218 0 -367 70
q-151 68 -227 190q-78 125 -78 283zM846 676q3 67 -31 94q-37 29 -96 29q-57 0 -92 -35q-38 -35 -41 -88h260zM268 1536h410v-319h-410v319zM772 1536h410v-319h-410v319z" />
    <glyph glyph-name="igrave" unicode="&#xec;" horiz-adv-x="663" 
d="M-94 1051h520v-1051h-520v1051zM174 1536l207 -340h-395l-318 340h506z" />
    <glyph glyph-name="iacute" unicode="&#xed;" horiz-adv-x="663" 
d="M143 1051h521v-1051h-521v1051zM379 1536h518l-328 -340h-395z" />
    <glyph glyph-name="icircumflex" unicode="&#xee;" horiz-adv-x="663" 
d="M90 1536h410l170 -340h-285l-90 121l-96 -121h-281zM31 1051h520v-1051h-520v1051z" />
    <glyph glyph-name="idieresis" unicode="&#xef;" horiz-adv-x="667" 
d="M-66 1536h328v-319h-328v319zM336 1536h328v-319h-328v319zM39 1051h520v-1051h-520v1051z" />
    <glyph glyph-name="eth" unicode="&#xf0;" horiz-adv-x="1476" 
d="M82 481q0 143 45 234q45 98 117 155q77 62 164 88q89 27 182 27q132 0 246 -57t168 -168q-3 9 -3 20q-1 3 -2 9.5t-2 9.5q-20 140 -118 225q-99 83 -242 117q-138 33 -309 33h-39q-20 0 -41 -3l-8 13l190 372q128 0 234 -14q109 -14 213 -45l178 193l348 -248l-152 -166
q99 -107 152 -244q53 -145 53 -334q0 -238 -88 -401q-91 -168 -250 -248q-166 -84 -385 -84q-183 0 -305 45q-124 43 -201 117q-74 71 -110 166q-35 93 -35 188zM600 485q0 -61 47 -96q46 -37 111 -37q78 0 121 37q41 35 41 92q0 64 -41 105q-40 37 -123 37q-65 0 -109 -33
q-47 -35 -47 -105z" />
    <glyph glyph-name="ntilde" unicode="&#xf1;" horiz-adv-x="1353" 
d="M143 1051h500v-144q46 75 129 125q83 47 209 47q107 0 193 -45q89 -48 139 -143q51 -99 51 -260v-631h-520v506q0 49 -17 80q-18 24 -61 24q-102 0 -102 -123v-487h-521v1051zM379 1200q-1 4 -1.5 11.5t-1 19.5t-1.5 22q-4 46 -4 52q0 133 55 194q54 60 152 60
q63 0 116 -17q29 -11 78 -41q13 -9 43 -22q18 -9 41 -9q47 0 47 56v10q0 8 -2 12h244q3 -27 6 -51q2 -18 2 -51q0 -116 -51 -182q-52 -70 -166 -70q-60 0 -100 18q-24 9 -74 35q-20 14 -45 25q-23 10 -49 10q-47 0 -47 -57v-13q0 -8 2 -12h-244z" />
    <glyph glyph-name="ograve" unicode="&#xf2;" horiz-adv-x="1429" 
d="M82 522q0 151 78 279q77 126 227 203q147 75 367 75q221 0 370 -73q152 -74 228 -197q78 -128 78 -281q0 -150 -78 -278q-76 -126 -228 -203q-149 -76 -370 -76q-216 0 -367 74t-227 199q-78 128 -78 278zM608 526q0 -75 39 -114q40 -43 107 -43q70 0 110 43
q39 42 39 114q0 79 -39 121q-41 41 -110 41q-67 0 -107 -43q-39 -45 -39 -119zM760 1536l207 -340h-396l-317 340h506z" />
    <glyph glyph-name="oacute" unicode="&#xf3;" horiz-adv-x="1429" 
d="M82 522q0 151 78 279q77 126 227 203q147 75 367 75q221 0 370 -73q152 -74 228 -197q78 -128 78 -281q0 -150 -78 -278q-76 -126 -228 -203q-149 -76 -370 -76q-216 0 -367 74t-227 199q-78 128 -78 278zM608 526q0 -75 39 -114q40 -43 107 -43q70 0 110 43
q39 42 39 114q0 79 -39 121q-41 41 -110 41q-67 0 -107 -43q-39 -45 -39 -119zM727 1536h518l-327 -340h-396z" />
    <glyph glyph-name="ocircumflex" unicode="&#xf4;" horiz-adv-x="1429" 
d="M82 522q0 151 78 279q77 126 227 203q147 75 367 75q221 0 370 -73q152 -74 228 -197q78 -128 78 -281q0 -150 -78 -278q-76 -126 -228 -203q-149 -76 -370 -76q-216 0 -367 74t-227 199q-78 128 -78 278zM608 526q0 -75 39 -114q40 -43 107 -43q70 0 110 43
q39 42 39 114q0 79 -39 121q-41 41 -110 41q-67 0 -107 -43q-39 -45 -39 -119zM500 1536h512l200 -340h-366l-90 121l-97 -121h-362z" />
    <glyph glyph-name="otilde" unicode="&#xf5;" horiz-adv-x="1429" 
d="M82 522q0 151 78 279q77 126 227 203q147 75 367 75q221 0 370 -73q152 -74 228 -197q78 -128 78 -281q0 -150 -78 -278q-76 -126 -228 -203q-149 -76 -370 -76q-216 0 -367 74t-227 199q-78 128 -78 278zM608 526q0 -75 39 -114q40 -43 107 -43q70 0 110 43
q39 42 39 114q0 79 -39 121q-41 41 -110 41q-67 0 -107 -43q-39 -45 -39 -119zM369 1200q-1 4 -1.5 11.5t-1 19.5t-1.5 22q-1 9 -2 20.5t-2 19.5t-1 12q0 132 56 194q54 60 151 60q64 0 117 -17q29 -11 78 -41q12 -9 43 -22q18 -9 41 -9q47 0 47 56v10q0 8 -2 12h244
q3 -27 6 -51q2 -18 2 -51q0 -116 -51 -182q-52 -70 -166 -70q-60 0 -101 18q-20 8 -73 35q-20 14 -45 25q-23 10 -50 10q-47 0 -47 -57v-13q0 -8 2 -12h-243z" />
    <glyph glyph-name="odieresis" unicode="&#xf6;" horiz-adv-x="1429" 
d="M82 522q0 151 78 279q77 126 227 203q147 75 367 75q221 0 370 -73q152 -74 228 -197q78 -128 78 -281q0 -150 -78 -278q-76 -126 -228 -203q-149 -76 -370 -76q-216 0 -367 74t-227 199q-78 128 -78 278zM608 526q0 -75 39 -114q40 -43 107 -43q70 0 110 43
q39 42 39 114q0 79 -39 121q-41 41 -110 41q-67 0 -107 -43q-39 -45 -39 -119zM297 1536h410v-319h-410v319zM801 1536h409v-319h-409v319z" />
    <glyph glyph-name="divide" unicode="&#xf7;" 
d="M410 899h1228v-412h-1228v412zM768 362h512v-323h-514zM768 1350h512v-324h-514z" />
    <glyph glyph-name="oslash" unicode="&#xf8;" horiz-adv-x="1429" 
d="M82 522q0 151 78 279q77 126 227 203q147 75 367 75q165 0 290 -43l101 117h227l-168 -195q110 -76 168 -186t58 -244q0 -150 -78 -278q-76 -126 -228 -203q-149 -76 -370 -76q-78 0 -158 13q-82 13 -139 32l-95 -112h-229l164 194q-108 76 -160 187q-55 107 -55 237z
M571 526q0 -50 15 -84l217 273q-3 1 -11 2t-12 2h-26q-91 0 -136 -51q-47 -53 -47 -142zM707 342q6 -2 22 -2q8 -2 25 -2q89 0 137 51q49 52 49 137q0 45 -16 88z" />
    <glyph glyph-name="ugrave" unicode="&#xf9;" horiz-adv-x="1341" 
d="M123 1051h520v-531q0 -55 14 -80q12 -26 64 -26q46 0 67 35q23 38 23 90v512h520v-1051h-500v143q-47 -77 -122 -123q-76 -49 -205 -49q-108 0 -193 49q-84 48 -137 152q-51 99 -51 262v617zM733 1536l207 -340h-395l-318 340h506z" />
    <glyph glyph-name="uacute" unicode="&#xfa;" horiz-adv-x="1341" 
d="M123 1051h520v-531q0 -55 14 -80q12 -26 64 -26q46 0 67 35q23 38 23 90v512h520v-1051h-500v143q-47 -77 -122 -123q-76 -49 -205 -49q-108 0 -193 49q-84 48 -137 152q-51 99 -51 262v617zM700 1536h519l-328 -340h-395z" />
    <glyph glyph-name="ucircumflex" unicode="&#xfb;" horiz-adv-x="1341" 
d="M123 1051h520v-531q0 -55 14 -80q12 -26 64 -26q46 0 67 35q23 38 23 90v512h520v-1051h-500v143q-47 -77 -122 -123q-76 -49 -205 -49q-108 0 -193 49q-84 48 -137 152q-51 99 -51 262v617zM473 1536h512l201 -340h-367l-90 121l-96 -121h-363z" />
    <glyph glyph-name="udieresis" unicode="&#xfc;" horiz-adv-x="1341" 
d="M123 1051h520v-531q0 -55 14 -80q12 -26 64 -26q46 0 67 35q23 38 23 90v512h520v-1051h-500v143q-47 -77 -122 -123q-76 -49 -205 -49q-108 0 -193 49q-84 48 -137 152q-51 99 -51 262v617zM270 1536h410v-319h-410v319zM774 1536h410v-319h-410v319z" />
    <glyph glyph-name="yacute" unicode="&#xfd;" horiz-adv-x="1353" 
d="M526 1051l131 -582h15l131 582h551l-582 -1475h-616l213 424l-410 1051h567zM637 1536h518l-328 -340h-395z" />
    <glyph glyph-name="thorn" unicode="&#xfe;" horiz-adv-x="1443" 
d="M143 1536h521v-586q56 65 143 99q85 30 182 30q86 0 170 -35q86 -36 154 -104q67 -70 110 -174q41 -106 41 -244q0 -154 -43 -258q-45 -105 -116 -170q-74 -67 -158 -94q-92 -29 -170 -29q-72 0 -158 25q-80 20 -155 76v-496h-521v1960zM637 506q0 -76 39 -115
q40 -43 106 -43q71 0 111 43q39 42 39 115q0 79 -39 121q-41 41 -111 41q-66 0 -106 -43q-39 -45 -39 -119z" />
    <glyph glyph-name="ydieresis" unicode="&#xff;" horiz-adv-x="1353" 
d="M526 1051l131 -582h15l131 582h551l-582 -1475h-616l213 424l-410 1051h567zM207 1536h409v-319h-409v319zM711 1536h409v-319h-409v319z" />
    <glyph glyph-name="Amacron" unicode="&#x100;" horiz-adv-x="1548" 
d="M377 1434h786l385 -1434h-538l-39 166h-357l-28 -166h-566zM874 580l-96 421h-18l-72 -421h186zM371 1821h815v-285h-815v285z" />
    <glyph glyph-name="amacron" unicode="&#x101;" horiz-adv-x="1286" 
d="M41 303q0 104 41 172q40 67 104 107q66 39 140 53q71 14 145 14q86 0 164 -16q69 -18 127 -60q-3 70 -39 103q-39 33 -100 45q-72 10 -138 10q-89 0 -157 -10q-44 -6 -117 -27l-10 8l118 338q31 10 82 19q40 7 113 14q61 6 115 6q183 0 319 -43q139 -44 217 -147
q80 -106 80 -293v-596h-483v102q-55 -73 -139 -100q-88 -31 -193 -31q-171 0 -280 86q-109 83 -109 246zM539 332q0 -51 34 -66q37 -16 80 -16q62 0 88 26q27 27 27 62q0 40 -31 59q-34 17 -78 17q-65 0 -92 -21q-28 -22 -28 -61zM295 1511h815v-284h-815v284z" />
    <glyph glyph-name="Abreve" unicode="&#x102;" horiz-adv-x="1548" 
d="M377 1434h786l385 -1434h-538l-39 166h-357l-28 -166h-566zM874 580l-96 421h-18l-72 -421h186zM676 1864q3 -35 31 -60q24 -24 75 -24t78 24q24 24 27 60h330q-9 -322 -426 -322q-213 0 -326 82q-116 81 -119 240h330z" />
    <glyph glyph-name="abreve" unicode="&#x103;" horiz-adv-x="1286" 
d="M41 303q0 104 41 172q40 67 104 107q66 39 140 53q71 14 145 14q86 0 164 -16q69 -18 127 -60q-3 70 -39 103q-39 33 -100 45q-72 10 -138 10q-89 0 -157 -10q-44 -6 -117 -27l-10 8l118 338q31 10 82 19q40 7 113 14q61 6 115 6q183 0 319 -43q139 -44 217 -147
q80 -106 80 -293v-596h-483v102q-55 -73 -139 -100q-88 -31 -193 -31q-171 0 -280 86q-109 83 -109 246zM539 332q0 -51 34 -66q37 -16 80 -16q62 0 88 26q27 27 27 62q0 40 -31 59q-34 17 -78 17q-65 0 -92 -21q-28 -22 -28 -61zM600 1536q6 -96 107 -96q98 0 104 96h311
q-3 -176 -108 -264q-106 -92 -299 -92q-197 0 -309 92q-114 88 -117 264h311z" />
    <glyph glyph-name="Aogonek" unicode="&#x104;" horiz-adv-x="1548" 
d="M377 1434h786l385 -1434q-104 -31 -170 -76q-69 -46 -69 -96q0 -72 98 -72q29 0 53 6q18 3 53 13l7 -8l-72 -271q-33 -20 -88 -31q-55 -14 -135 -14q-139 0 -217 60q-80 59 -80 170q0 94 69 172q67 76 238 147h-225l-39 166h-357l-28 -166h-566zM874 580l-96 421h-18
l-72 -421h186z" />
    <glyph glyph-name="aogonek" unicode="&#x105;" horiz-adv-x="1286" 
d="M41 303q0 104 41 172q40 67 104 107q66 39 140 53q71 14 145 14q86 0 164 -16q69 -18 127 -60q-3 70 -39 103q-39 33 -100 45q-72 10 -138 10q-89 0 -157 -10q-44 -6 -117 -27l-10 8l118 338q31 10 82 19q40 7 113 14q61 6 115 6q183 0 319 -43q139 -44 217 -147
q80 -106 80 -293v-596q-104 -41 -160 -80q-59 -41 -59 -92q0 -72 98 -72q30 0 54 6q18 3 53 13l6 -8l-72 -271q-33 -20 -88 -31q-55 -14 -135 -14q-139 0 -217 60q-80 59 -80 170q0 93 70 172q67 77 237 147h-190v102q-55 -73 -139 -100q-88 -31 -193 -31q-171 0 -280 86
q-109 83 -109 246zM539 332q0 -51 34 -66q37 -16 80 -16q62 0 88 26q27 27 27 62q0 40 -31 59q-34 17 -78 17q-65 0 -92 -21q-28 -22 -28 -61z" />
    <glyph glyph-name="Cacute" unicode="&#x106;" horiz-adv-x="1525" 
d="M102 711q0 158 52 295t155 243q104 104 264 166q163 60 379 60q211 0 363 -58q151 -59 227 -135l-254 -422q-60 48 -117 74q-62 27 -163 27q-133 0 -197 -70q-63 -69 -63 -172q0 -101 67 -168q68 -68 211 -68q154 0 246 86l295 -370q-59 -62 -142 -115q-82 -55 -200 -90
q-119 -35 -279 -35q-249 0 -438 94q-187 90 -297 262q-109 171 -109 396zM901 1864h529l-328 -328h-406z" />
    <glyph glyph-name="cacute" unicode="&#x107;" horiz-adv-x="1165" 
d="M82 520q0 172 80 299q79 125 221 193q137 67 324 67q109 0 198 -24q89 -25 148 -58q71 -42 88 -59l-174 -338q-43 43 -84 64q-49 22 -111 22q-76 0 -119 -43t-43 -115q0 -69 47 -116t127 -47q71 0 119 36q45 31 76 66l207 -309q-38 -44 -113 -90q-71 -42 -166 -70
q-91 -27 -194 -27q-198 0 -338 70q-141 67 -217 190q-76 122 -76 289zM666 1536h518l-328 -340h-395z" />
    <glyph glyph-name="Ccircumflex" unicode="&#x108;" horiz-adv-x="1525" 
d="M102 711q0 158 52 295t155 243q104 104 264 166q163 60 379 60q211 0 363 -58q151 -59 227 -135l-254 -422q-60 48 -117 74q-62 27 -163 27q-133 0 -197 -70q-63 -69 -63 -172q0 -101 67 -168q68 -68 211 -68q154 0 246 86l295 -370q-59 -62 -142 -115q-82 -55 -200 -90
q-119 -35 -279 -35q-249 0 -438 94q-187 90 -297 262q-109 171 -109 396zM653 1864h553l201 -326h-387l-90 115l-96 -115h-383z" />
    <glyph glyph-name="ccircumflex" unicode="&#x109;" horiz-adv-x="1165" 
d="M82 520q0 172 80 299q79 125 221 193q137 67 324 67q109 0 198 -24q89 -25 148 -58q71 -42 88 -59l-174 -338q-43 43 -84 64q-49 22 -111 22q-76 0 -119 -43t-43 -115q0 -69 47 -116t127 -47q71 0 119 36q45 31 76 66l207 -309q-38 -44 -113 -90q-71 -42 -166 -70
q-91 -27 -194 -27q-198 0 -338 70q-141 67 -217 190q-76 122 -76 289zM438 1536h512l201 -340h-367l-90 121l-96 -121h-362z" />
    <glyph glyph-name="Cdotaccent" unicode="&#x10a;" horiz-adv-x="1525" 
d="M102 711q0 158 52 295t155 243q104 104 264 166q163 60 379 60q211 0 363 -58q151 -59 227 -135l-254 -422q-60 48 -117 74q-62 27 -163 27q-133 0 -197 -70q-63 -69 -63 -172q0 -101 67 -168q68 -68 211 -68q154 0 246 86l295 -370q-59 -62 -142 -115q-82 -55 -200 -90
q-119 -35 -279 -35q-249 0 -438 94q-187 90 -297 262q-109 171 -109 396zM678 1843h520v-307h-520v307z" />
    <glyph glyph-name="cdotaccent" unicode="&#x10b;" horiz-adv-x="1165" 
d="M82 520q0 172 80 299q79 125 221 193q137 67 324 67q109 0 198 -24q89 -25 148 -58q71 -42 88 -59l-174 -338q-43 43 -84 64q-49 22 -111 22q-76 0 -119 -43t-43 -115q0 -69 47 -116t127 -47q71 0 119 36q45 31 76 66l207 -309q-38 -44 -113 -90q-71 -42 -166 -70
q-91 -27 -194 -27q-198 0 -338 70q-141 67 -217 190q-76 122 -76 289zM442 1536h521v-307h-521v307z" />
    <glyph glyph-name="Ccaron" unicode="&#x10c;" horiz-adv-x="1525" 
d="M102 711q0 158 52 295t155 243q104 104 264 166q163 60 379 60q211 0 363 -58q151 -59 227 -135l-254 -422q-60 48 -117 74q-62 27 -163 27q-133 0 -197 -70q-63 -69 -63 -172q0 -101 67 -168q68 -68 211 -68q154 0 246 86l295 -370q-59 -62 -142 -115q-82 -55 -200 -90
q-119 -35 -279 -35q-249 0 -438 94q-187 90 -297 262q-109 171 -109 396zM838 1864l90 -115l96 115h383l-203 -326h-553l-200 326h387z" />
    <glyph glyph-name="ccaron" unicode="&#x10d;" horiz-adv-x="1165" 
d="M82 520q0 172 80 299q79 125 221 193q137 67 324 67q109 0 198 -24q89 -25 148 -58q71 -42 88 -59l-174 -338q-43 43 -84 64q-49 22 -111 22q-76 0 -119 -43t-43 -115q0 -69 47 -116t127 -47q71 0 119 36q45 31 76 66l207 -309q-38 -44 -113 -90q-71 -42 -166 -70
q-91 -27 -194 -27q-198 0 -338 70q-141 67 -217 190q-76 122 -76 289zM612 1536l82 -109l86 109h379l-209 -340h-512l-207 340h381z" />
    <glyph glyph-name="Dcaron" unicode="&#x10e;" horiz-adv-x="1531" 
d="M205 1434h602q216 0 367 -56q148 -56 237 -151q93 -104 131 -223q41 -128 41 -271q0 -365 -199 -549t-563 -184h-616v1434zM768 477q6 -2 25 -2q10 -2 24 -2q92 0 135 64t43 200q0 114 -45 174q-47 62 -137 62h-22q-4 -1 -12 -2t-11 -2v-492zM727 1864l90 -115l96 115
h383l-202 -326h-553l-201 326h387z" />
    <glyph glyph-name="dcaron" unicode="&#x10f;" horiz-adv-x="1865" 
d="M102 528q0 155 45 260q43 104 115 170t158 93q89 28 170 28q72 0 158 -22q82 -24 155 -78v557h520v-1536h-491l-12 125q-56 -71 -144 -111q-87 -43 -198 -43q-86 0 -170 35q-86 36 -152 105q-71 71 -111 174q-43 104 -43 243zM635 545q0 -75 41 -119q40 -43 108 -43
t107 45q39 42 39 117t-39 117q-40 40 -107 40q-68 0 -108 -43q-41 -44 -41 -114zM1530 1536h424l-142 -528h-350z" />
    <glyph glyph-name="Dcroat" unicode="&#x110;" horiz-adv-x="1531" 
d="M-20 811h112v623h602q216 0 367 -56q148 -56 237 -151q94 -105 132 -223q40 -124 40 -271q0 -366 -198 -549q-199 -184 -563 -184h-617v643h-112v168zM655 477q6 -2 25 -2q10 -2 25 -2q92 0 135 64t43 200q0 114 -45 174q-47 62 -138 62h-22q-4 -1 -12 -2t-11 -2v-158
h119v-168h-119v-166z" />
    <glyph glyph-name="dcroat" unicode="&#x111;" horiz-adv-x="1454" 
d="M784 383q68 0 107 45q39 42 39 117t-39 117q-40 40 -107 40q-68 0 -108 -43q-41 -44 -41 -114q0 -75 41 -119q40 -43 108 -43zM1516 1382v-178h-93v-1204h-491l-12 125q-56 -71 -144 -111q-87 -43 -198 -43q-86 0 -170 35q-86 36 -152 105q-71 71 -111 174
q-43 104 -43 243q0 155 45 260q43 104 115 170t158 93q89 28 170 28q72 0 158 -22q82 -24 155 -78v225h-274v178h274v154h520v-154h93z" />
    <glyph glyph-name="Emacron" unicode="&#x112;" horiz-adv-x="1323" 
d="M205 1434h1108v-412h-545v-115h539v-360h-539v-123h586v-424h-1149v1434zM352 1821h815v-285h-815v285z" />
    <glyph glyph-name="emacron" unicode="&#x113;" horiz-adv-x="1273" 
d="M82 514q0 170 80 297q82 130 223 199q138 69 332 69q169 0 278 -47q108 -49 170 -133q62 -87 86 -199q26 -122 23 -243h-670q21 -50 72 -78q51 -31 149 -31q62 0 127 19q66 19 115 63l186 -305q-59 -53 -153 -90q-85 -33 -182 -49q-92 -15 -164 -15q-218 0 -367 70
q-151 68 -227 190q-78 125 -78 283zM846 676q3 67 -31 94q-37 29 -96 29q-57 0 -92 -35q-38 -35 -41 -88h260zM317 1511h816v-284h-816v284z" />
    <glyph glyph-name="Ebreve" unicode="&#x114;" horiz-adv-x="1323" 
d="M205 1434h1108v-412h-545v-115h539v-360h-539v-123h586v-424h-1149v1434zM657 1864q3 -35 31 -60q24 -24 76 -24q51 0 78 24q23 23 26 60h330q-9 -322 -426 -322q-213 0 -326 82q-115 80 -118 240h329z" />
    <glyph glyph-name="ebreve" unicode="&#x115;" horiz-adv-x="1273" 
d="M82 514q0 170 80 297q82 130 223 199q138 69 332 69q169 0 278 -47q108 -49 170 -133q62 -87 86 -199q26 -122 23 -243h-670q21 -50 72 -78q51 -31 149 -31q62 0 127 19q66 19 115 63l186 -305q-59 -53 -153 -90q-85 -33 -182 -49q-92 -15 -164 -15q-218 0 -367 70
q-151 68 -227 190q-78 125 -78 283zM846 676q3 67 -31 94q-37 29 -96 29q-57 0 -92 -35q-38 -35 -41 -88h260zM623 1536q6 -96 106 -96q99 0 105 96h311q-3 -175 -109 -264q-106 -92 -299 -92q-197 0 -309 92q-114 88 -117 264h312z" />
    <glyph glyph-name="Edotaccent" unicode="&#x116;" horiz-adv-x="1323" 
d="M205 1434h1108v-412h-545v-115h539v-360h-539v-123h586v-424h-1149v1434zM510 1843h520v-307h-520v307z" />
    <glyph glyph-name="edotaccent" unicode="&#x117;" horiz-adv-x="1273" 
d="M82 514q0 170 80 297q82 130 223 199q138 69 332 69q169 0 278 -47q108 -49 170 -133q62 -87 86 -199q26 -122 23 -243h-670q21 -50 72 -78q51 -31 149 -31q62 0 127 19q66 19 115 63l186 -305q-59 -53 -153 -90q-85 -33 -182 -49q-92 -15 -164 -15q-218 0 -367 70
q-151 68 -227 190q-78 125 -78 283zM846 676q3 67 -31 94q-37 29 -96 29q-57 0 -92 -35q-38 -35 -41 -88h260zM475 1536h520v-307h-520v307z" />
    <glyph glyph-name="Eogonek" unicode="&#x118;" horiz-adv-x="1323" 
d="M205 1434h1108v-412h-545v-115h539v-360h-539v-123h586v-424q-104 -41 -160 -80q-59 -41 -59 -92q0 -72 98 -72q29 0 53 6q18 3 53 13l7 -8l-72 -271q-33 -20 -88 -31q-55 -14 -135 -14q-139 0 -217 60q-80 59 -80 170q0 94 69 172q67 76 238 147h-856v1434z" />
    <glyph glyph-name="eogonek" unicode="&#x119;" horiz-adv-x="1273" 
d="M82 514q0 170 80 297q82 130 223 199q138 69 332 69q169 0 278 -47q108 -49 170 -133q62 -87 86 -199q26 -122 23 -243h-670q21 -50 72 -78q51 -31 149 -31q62 0 127 19q66 19 115 63l186 -305q-70 -48 -159 -115q-62 -47 -88 -86q-29 -44 -29 -90q0 -78 98 -78
q29 0 53 6q20 3 54 13l6 -8l-72 -271q-33 -20 -88 -31q-55 -14 -135 -14q-139 0 -217 60q-80 59 -80 170q0 77 49 153q48 75 166 139q-10 -2 -29 -2h-28q-218 0 -367 70q-151 68 -227 190q-78 125 -78 283zM846 676q3 67 -31 94q-37 29 -96 29q-57 0 -92 -35
q-38 -35 -41 -88h260z" />
    <glyph glyph-name="Ecaron" unicode="&#x11a;" horiz-adv-x="1323" 
d="M205 1434h1108v-412h-545v-115h539v-360h-539v-123h586v-424h-1149v1434zM670 1864l90 -115l96 115h383l-203 -326h-553l-200 326h387z" />
    <glyph glyph-name="ecaron" unicode="&#x11b;" horiz-adv-x="1273" 
d="M82 514q0 170 80 297q82 130 223 199q138 69 332 69q169 0 278 -47q108 -49 170 -133q62 -87 86 -199q26 -122 23 -243h-670q21 -50 72 -78q51 -31 149 -31q62 0 127 19q66 19 115 63l186 -305q-59 -53 -153 -90q-85 -33 -182 -49q-92 -15 -164 -15q-218 0 -367 70
q-151 68 -227 190q-78 125 -78 283zM846 676q3 67 -31 94q-37 29 -96 29q-57 0 -92 -35q-38 -35 -41 -88h260zM645 1536l82 -109l86 109h379l-209 -340h-512l-207 340h381z" />
    <glyph glyph-name="Gcircumflex" unicode="&#x11c;" horiz-adv-x="1622" 
d="M102 711q0 235 105 407q102 170 295 264q194 93 450 93q167 0 322 -48q148 -46 250 -131l-256 -422q-116 87 -254 87q-123 0 -195 -66q-71 -65 -71 -182q0 -125 73 -189q73 -67 209 -67q23 0 33 2q19 0 27 2v299h522v-760h-174l-119 98q-89 -61 -205 -100
q-110 -39 -227 -39q-237 0 -412 94q-174 91 -274 262q-99 169 -99 396zM666 1864h553l200 -326h-387l-90 115l-96 -115h-383z" />
    <glyph glyph-name="gcircumflex" unicode="&#x11d;" horiz-adv-x="1359" 
d="M-20 -225q0 74 57 125t158 75q-148 71 -148 199q0 91 57 160q53 67 156 108q-85 44 -137 119q-49 70 -49 158q0 176 157 276q160 97 435 97q277 0 436 -99q160 -100 160 -270q0 -105 -74 -188q-76 -82 -209 -129q-139 -48 -313 -48h-181q-90 0 -90 -45q0 -34 74 -34h385
q506 0 506 -302q0 -213 -197 -327q-201 -115 -565 -115q-328 0 -471 57q-147 58 -147 183zM442 -125q0 -40 41 -55q46 -17 148 -17q97 0 137 15q39 14 39 51q0 30 -31 39q-33 10 -114 10h-164h-31q-25 -22 -25 -43zM559 727q0 -32 29 -55q27 -21 78 -21q110 0 110 76
q0 80 -110 80q-107 0 -107 -80zM418 1536h512l200 -340h-366l-90 121l-96 -121h-363z" />
    <glyph glyph-name="Gbreve" unicode="&#x11e;" horiz-adv-x="1622" 
d="M102 711q0 235 105 407q102 170 295 264q194 93 450 93q167 0 322 -48q148 -46 250 -131l-256 -422q-116 87 -254 87q-123 0 -195 -66q-71 -65 -71 -182q0 -125 73 -189q73 -67 209 -67q23 0 33 2q19 0 27 2v299h522v-760h-174l-119 98q-89 -61 -205 -100
q-110 -39 -227 -39q-237 0 -412 94q-174 91 -274 262q-99 169 -99 396zM838 1864q3 -36 30 -60q24 -24 76 -24q51 0 78 24q24 24 27 60h329q-9 -322 -426 -322q-212 0 -325 82q-116 81 -119 240h330z" />
    <glyph glyph-name="gbreve" unicode="&#x11f;" horiz-adv-x="1359" 
d="M-20 -225q0 74 57 125t158 75q-148 71 -148 199q0 91 57 160q53 67 156 108q-85 44 -137 119q-49 70 -49 158q0 176 157 276q160 97 435 97q277 0 436 -99q160 -100 160 -270q0 -105 -74 -188q-76 -82 -209 -129q-139 -48 -313 -48h-181q-90 0 -90 -45q0 -34 74 -34h385
q506 0 506 -302q0 -213 -197 -327q-201 -115 -565 -115q-328 0 -471 57q-147 58 -147 183zM442 -125q0 -40 41 -55q46 -17 148 -17q97 0 137 15q39 14 39 51q0 30 -31 39q-33 10 -114 10h-164h-31q-25 -22 -25 -43zM559 727q0 -32 29 -55q27 -21 78 -21q110 0 110 76
q0 80 -110 80q-107 0 -107 -80zM553 1536q6 -96 106 -96q99 0 105 96h311q-3 -176 -108 -264q-106 -92 -299 -92q-198 0 -310 92q-113 88 -116 264h311z" />
    <glyph glyph-name="Gdotaccent" unicode="&#x120;" horiz-adv-x="1622" 
d="M102 711q0 235 105 407q102 170 295 264q194 93 450 93q167 0 322 -48q148 -46 250 -131l-256 -422q-116 87 -254 87q-123 0 -195 -66q-71 -65 -71 -182q0 -125 73 -189q73 -67 209 -67q23 0 33 2q19 0 27 2v299h522v-760h-174l-119 98q-89 -61 -205 -100
q-110 -39 -227 -39q-237 0 -412 94q-174 91 -274 262q-99 169 -99 396zM690 1843h520v-307h-520v307z" />
    <glyph glyph-name="gdotaccent" unicode="&#x121;" horiz-adv-x="1359" 
d="M-20 -225q0 74 57 125t158 75q-148 71 -148 199q0 91 57 160q53 67 156 108q-85 44 -137 119q-49 70 -49 158q0 176 157 276q160 97 435 97q110 0 215 -19q41 133 102 182q59 50 174 50l105 -263l-13 -10q-43 12 -80 12q-54 0 -108 -28q96 -47 149 -121q52 -76 52 -172
q0 -105 -74 -188q-76 -82 -209 -129q-139 -48 -313 -48h-181q-90 0 -90 -45q0 -34 74 -34h385q506 0 506 -302q0 -213 -197 -327q-201 -115 -565 -115q-328 0 -471 57q-147 58 -147 183zM442 -125q0 -40 41 -55q46 -17 148 -17q97 0 137 15q39 14 39 51q0 30 -31 39
q-33 10 -114 10h-195q-25 -22 -25 -43zM559 727q0 -32 29 -55q27 -21 78 -21q110 0 110 76q0 80 -110 80q-107 0 -107 -80zM365 1536h520v-307h-520v307z" />
    <glyph glyph-name="uni0122" unicode="&#x122;" horiz-adv-x="1622" 
d="M102 711q0 235 105 407q102 170 295 264q194 93 450 93q167 0 322 -48q148 -46 250 -131l-256 -422q-116 87 -254 87q-123 0 -195 -66q-71 -65 -71 -182q0 -125 73 -189q73 -67 209 -67q23 0 33 2q19 0 27 2v299h522v-760h-174l-119 98q-89 -61 -205 -100
q-110 -39 -227 -39q-237 0 -412 94q-174 91 -274 262q-99 169 -99 396zM659 -137h451v-281l-131 -221h-242l51 221h-129v281z" />
    <glyph glyph-name="uni0123" unicode="&#x123;" horiz-adv-x="1359" 
d="M-20 -225q0 74 57 125t158 75q-148 71 -148 199q0 91 57 160q53 67 156 108q-85 44 -137 119q-49 70 -49 158q0 176 157 276q160 97 435 97q110 0 215 -19q41 133 102 182q59 50 174 50l105 -263l-13 -10q-43 12 -80 12q-54 0 -108 -28q96 -47 149 -121q52 -76 52 -172
q0 -105 -74 -188q-76 -82 -209 -129q-139 -48 -313 -48h-181q-90 0 -90 -45q0 -34 74 -34h385q506 0 506 -302q0 -213 -197 -327q-201 -115 -565 -115q-328 0 -471 57q-147 58 -147 183zM442 -125q0 -40 41 -55q46 -17 148 -17q97 0 137 15q39 14 39 51q0 30 -31 39
q-33 10 -114 10h-195q-25 -22 -25 -43zM559 727q0 -32 29 -55q27 -21 78 -21q110 0 110 76q0 80 -110 80q-107 0 -107 -80zM442 1395l80 254h223l-43 -193h136v-260h-396v199z" />
    <glyph glyph-name="Hcircumflex" unicode="&#x124;" horiz-adv-x="1622" 
d="M205 1434h563v-418h291v418h563v-1434h-563v446h-291v-446h-563v1434zM639 1864h553l201 -326h-387l-91 115l-96 -115h-383z" />
    <glyph glyph-name="hcircumflex" unicode="&#x125;" horiz-adv-x="1353" 
d="M-84 1536h510v-612q35 61 119 108q82 43 203 43q102 0 190 -49q87 -48 143 -152q56 -103 56 -262v-612h-521v506q0 53 -18 80q-18 24 -70 24q-92 0 -92 -123v-487h-520v1536zM-109 1966h553l201 -326h-387l-90 115l-96 -115h-383z" />
    <glyph glyph-name="Hbar" unicode="&#x126;" horiz-adv-x="1642" 
d="M-20 1300h122v134h564v-134h290v134h564v-134h122v-167h-122v-1133h-564v434h-290v-434h-564v1133h-122v167zM956 963v170h-290v-170h290z" />
    <glyph glyph-name="hbar" unicode="&#x127;" horiz-adv-x="1374" 
d="M-20 1382h92v154h510v-154h274v-178h-274v-280q36 62 118 108q82 43 203 43q103 0 191 -49q87 -48 143 -152q55 -101 55 -262v-612h-520v506q0 53 -18 80q-18 24 -70 24q-92 0 -92 -123v-487h-520v1204h-92v178z" />
    <glyph glyph-name="Itilde" unicode="&#x128;" horiz-adv-x="768" 
d="M94 1434h563v-1434h-563v1434zM-8 1536q-1 4 -1.5 11.5t-1 19.5t-1.5 22q-4 46 -4 51q0 134 55 195q53 59 151 59q67 0 117 -16q29 -11 78 -41q13 -9 43 -22q18 -9 41 -9q47 0 47 56v10q0 8 -2 12h244q3 -27 6 -51q2 -18 2 -51q0 -117 -51 -183q-51 -69 -166 -69
q-59 0 -100 18q-24 9 -74 35q-20 14 -45 25q-23 10 -49 10q-48 0 -48 -57v-13q0 -6 3 -12h-244z" />
    <glyph glyph-name="itilde" unicode="&#x129;" horiz-adv-x="663" 
d="M-12 1200q-1 4 -1.5 11.5t-1 19t-1.5 20.5q-4 46 -4 56q0 135 51 192q51 60 129 60q63 0 106 -19q39 -19 62 -39q7 -7 32 -22q15 -9 33 -9q47 0 47 56v10q0 8 -2 12h217q1 -9 3.5 -26.5t3.5 -26.5q2 -18 2 -51q0 -110 -48 -180q-46 -70 -143 -70q-55 0 -90 18
q-26 11 -59 37q-16 13 -33 23q-20 10 -41 10q-47 0 -47 -57v-13q0 -8 2 -12h-217zM61 1051h521v-1051h-521v1051z" />
    <glyph glyph-name="Imacron" unicode="&#x12a;" horiz-adv-x="768" 
d="M80 1434h563v-1434h-563v1434zM-45 1821h815v-285h-815v285z" />
    <glyph glyph-name="imacron" unicode="&#x12b;" horiz-adv-x="663" 
d="M-4 1511h672v-284h-672v284zM70 1051h520v-1051h-520v1051z" />
    <glyph glyph-name="Ibreve" unicode="&#x12c;" horiz-adv-x="768" 
d="M55 1434h563v-1434h-563v1434zM236 1864q3 -36 30 -60q24 -24 76 -24q51 0 78 24q23 23 26 60h330q-9 -322 -426 -322q-212 0 -325 82q-116 81 -119 240h330z" />
    <glyph glyph-name="ibreve" unicode="&#x12d;" horiz-adv-x="663" 
d="M231 1536q3 -45 25 -70q17 -26 63 -26t66 26q18 24 21 70h260q-3 -173 -82 -264q-77 -92 -256 -92q-186 0 -269 92q-85 91 -88 264h260zM57 1051h521v-1051h-521v1051z" />
    <glyph glyph-name="Iogonek" unicode="&#x12e;" horiz-adv-x="768" 
d="M428 -549q-139 0 -217 60q-80 59 -80 170q0 93 70 172q67 77 237 147h-270v1434h563v-1434q-104 -41 -160 -80q-59 -41 -59 -92q0 -72 98 -72q30 0 54 6q18 3 53 13l6 -8l-72 -271q-33 -20 -88 -31q-55 -14 -135 -14z" />
    <glyph glyph-name="iogonek" unicode="&#x12f;" horiz-adv-x="663" 
d="M63 0v1051h521v-1016v-35q-104 -41 -160 -80q-59 -41 -59 -92q0 -72 98 -72q29 0 53 6q18 3 53 13l6 -8l-71 -271q-33 -20 -88 -31q-55 -14 -135 -14q-140 0 -218 60q-79 58 -79 170q0 94 69 172q67 76 238 147h-228zM76 1536h520v-307h-520v307z" />
    <glyph glyph-name="Idot" unicode="&#x130;" horiz-adv-x="768" 
d="M205 1434h563v-1434h-563v1434zM238 1843h520v-307h-520v307z" />
    <glyph glyph-name="dotlessi" unicode="&#x131;" horiz-adv-x="663" 
d="M143 1051h521v-1051h-521v1051z" />
    <glyph glyph-name="IJ" unicode="&#x132;" horiz-adv-x="1794" 
d="M205 1434h563v-1434h-563v1434zM913 485q60 -8 95 -10q62 -4 86 -4q73 0 116 37q41 35 41 127v799h564v-801q0 -124 -21 -244q-22 -124 -82 -217q-61 -98 -180 -156q-117 -57 -320 -57q-80 0 -129 8q-65 10 -92 17l-90 491z" />
    <glyph glyph-name="ij" unicode="&#x133;" horiz-adv-x="1327" 
d="M143 1051h521v-1051h-521v1051zM143 1536h521v-307h-521v307zM807 1051h520v-1450l-520 -66v1516zM807 1536h520v-307h-520v307z" />
    <glyph glyph-name="Jcircumflex" unicode="&#x134;" horiz-adv-x="1026" 
d="M74 485q61 -8 94 -10q62 -4 86 -4q74 0 117 37q41 35 41 127v799h563v-801q0 -124 -21 -244q-22 -124 -82 -217q-61 -98 -180 -156q-117 -57 -319 -57q-80 0 -129 8q-65 10 -92 17l-91 491zM418 1864h553l200 -326h-387l-90 115l-96 -115h-383z" />
    <glyph glyph-name="jcircumflex" unicode="&#x135;" horiz-adv-x="663" 
d="M-53 1051h520v-1432l-520 -65v1497zM-47 1536h512l201 -340h-367l-90 121l-96 -121h-363z" />
    <glyph glyph-name="uni0136" unicode="&#x136;" horiz-adv-x="1574" 
d="M205 1434h563v-496h59l179 496h649l-355 -650l377 -784h-641l-182 473l-86 -70v-403h-563v1434zM655 -137h451v-281l-131 -221h-242l51 221h-129v281z" />
    <glyph glyph-name="uni0137" unicode="&#x137;" horiz-adv-x="1419" 
d="M143 1536h521v-856h51l221 371h555l-338 -461l322 -590h-590l-152 317l-69 -51v-266h-521v1536zM541 -137h450v-281l-131 -221h-242l52 221h-129v281z" />
    <glyph glyph-name="kgreenlandic" unicode="&#x138;" horiz-adv-x="1419" 
d="M143 1051h521v-371h51l221 371h555l-338 -461l322 -590h-590l-152 317l-69 -51v-266h-521v1051z" />
    <glyph glyph-name="Lacute" unicode="&#x139;" horiz-adv-x="1142" 
d="M205 1434h563v-887h416v-547h-979v1434zM463 1864h528l-327 -328h-406z" />
    <glyph glyph-name="lacute" unicode="&#x13a;" horiz-adv-x="663" 
d="M143 1536h521v-1536h-521v1536zM379 1966h528l-327 -328h-406z" />
    <glyph glyph-name="uni013B" unicode="&#x13b;" horiz-adv-x="1142" 
d="M205 1434h563v-887h416v-547h-979v1434zM436 -137h451v-281l-131 -221h-242l51 221h-129v281z" />
    <glyph glyph-name="uni013C" unicode="&#x13c;" horiz-adv-x="663" 
d="M143 1536h521v-1536h-521v1536zM178 -137h451v-281l-131 -221h-242l51 221h-129v281z" />
    <glyph glyph-name="Lcaron" unicode="&#x13d;" horiz-adv-x="1142" 
d="M205 1434h563v-887h416v-547h-979v1434zM889 1434h424l-142 -529h-350z" />
    <glyph glyph-name="lcaron" unicode="&#x13e;" horiz-adv-x="1087" 
d="M143 1536h521v-1536h-521v1536zM772 1536h424l-141 -528h-350z" />
    <glyph glyph-name="Ldot" unicode="&#x13f;" horiz-adv-x="1142" 
d="M842 1122h434v-348h-434v348zM205 1434h563v-887h416v-547h-979v1434z" />
    <glyph glyph-name="ldot" unicode="&#x140;" horiz-adv-x="1146" 
d="M143 1536h521v-1536h-521v1536zM748 948h454v-321h-454v321z" />
    <glyph glyph-name="Lslash" unicode="&#x141;" horiz-adv-x="1163" 
d="M-20 856l133 39v539h563v-400l270 78v-178l-270 -78v-309h416v-547h-979v717l-133 -39v178z" />
    <glyph glyph-name="lslash" unicode="&#x142;" horiz-adv-x="745" 
d="M20 829l103 29v678h520v-559l102 29v-179l-102 -28v-799h-520v680l-103 -29v178z" />
    <glyph glyph-name="Nacute" unicode="&#x143;" horiz-adv-x="1601" 
d="M205 1434h502l352 -541v541h543v-1434h-502l-352 496v-496h-543v1434zM858 1864h528l-327 -328h-406z" />
    <glyph glyph-name="nacute" unicode="&#x144;" horiz-adv-x="1353" 
d="M143 1051h500v-144q46 75 129 125q83 47 209 47q107 0 193 -45q89 -48 139 -143q51 -99 51 -260v-631h-520v506q0 49 -17 80q-18 24 -61 24q-102 0 -102 -123v-487h-521v1051zM737 1536h518l-327 -340h-396z" />
    <glyph glyph-name="uni0145" unicode="&#x145;" horiz-adv-x="1601" 
d="M205 1434h502l352 -541v541h543v-1434h-502l-352 496v-496h-543v1434zM686 -137h451v-281l-131 -221h-242l51 221h-129v281z" />
    <glyph glyph-name="uni0146" unicode="&#x146;" horiz-adv-x="1353" 
d="M143 1051h500v-144q46 75 129 125q83 47 209 47q107 0 193 -45q89 -48 139 -143q51 -99 51 -260v-631h-520v506q0 49 -17 80q-18 24 -61 24q-102 0 -102 -123v-487h-521v1051zM532 -137h451v-281l-131 -221h-242l52 221h-130v281z" />
    <glyph glyph-name="Ncaron" unicode="&#x147;" horiz-adv-x="1601" 
d="M205 1434h502l352 -541v541h543v-1434h-502l-352 496v-496h-543v1434zM795 1864l90 -115l96 115h383l-203 -326h-553l-200 326h387z" />
    <glyph glyph-name="ncaron" unicode="&#x148;" horiz-adv-x="1353" 
d="M143 1051h500v-144q46 75 129 125q83 47 209 47q107 0 193 -45q89 -48 139 -143q51 -99 51 -260v-631h-520v506q0 49 -17 80q-18 24 -61 24q-102 0 -102 -123v-487h-521v1051zM684 1536l82 -109l86 109h379l-209 -340h-512l-207 340h381z" />
    <glyph glyph-name="Eng" unicode="&#x14a;" horiz-adv-x="1601" 
d="M205 1434h502l352 -541v541h543v-1330q0 -92 -17 -208q-19 -107 -69 -183q-53 -84 -150 -129q-98 -49 -262 -49q-80 0 -129 8q-65 10 -92 17l-90 399l8 8q17 -6 51 -10q14 -2 51 -2q67 0 101 27q35 27 32 108l-288 406v-496h-543v1434z" />
    <glyph glyph-name="eng" unicode="&#x14b;" horiz-adv-x="1353" 
d="M143 1051h500v-144q46 75 129 125q83 47 209 47q107 0 193 -45q89 -48 139 -143q51 -99 51 -260v-527q0 -99 -16 -208q-15 -103 -62 -183q-46 -81 -137 -129q-88 -49 -238 -49q-80 0 -129 8q-65 10 -92 17l-90 338l8 8q17 -6 51 -10q14 -2 52 -2q61 0 98 24q35 24 35 98
v490q0 49 -17 80q-18 24 -61 24q-102 0 -102 -123v-487h-521v1051z" />
    <glyph glyph-name="Omacron" unicode="&#x14c;" horiz-adv-x="1646" 
d="M102 711q0 151 54 293q53 139 151 243q97 106 242 168q148 60 325 60q183 0 326 -58q140 -57 244 -164q99 -105 151 -239q52 -137 52 -291t-52 -291q-53 -139 -151 -246q-102 -109 -244 -166q-143 -61 -326 -61q-180 0 -325 59t-242 162q-97 100 -151 242
q-54 139 -54 289zM680 719q0 -101 51 -164t143 -63q89 0 142 65q51 63 51 164q0 103 -51 166t-142 63q-90 0 -143 -65q-51 -63 -51 -166zM467 1821h815v-285h-815v285z" />
    <glyph glyph-name="omacron" unicode="&#x14d;" horiz-adv-x="1429" 
d="M82 522q0 151 78 279q77 126 227 203q147 75 367 75q221 0 370 -73q152 -74 228 -197q78 -128 78 -281q0 -150 -78 -278q-76 -126 -228 -203q-149 -76 -370 -76q-216 0 -367 74t-227 199q-78 128 -78 278zM608 526q0 -75 39 -114q40 -43 107 -43q70 0 110 43
q39 42 39 114q0 79 -39 121q-41 41 -110 41q-67 0 -107 -43q-39 -45 -39 -119zM346 1511h815v-284h-815v284z" />
    <glyph glyph-name="Obreve" unicode="&#x14e;" horiz-adv-x="1646" 
d="M102 711q0 151 54 293q53 139 151 243q97 106 242 168q148 60 325 60q183 0 326 -58q140 -57 244 -164q99 -105 151 -239q52 -137 52 -291t-52 -291q-53 -139 -151 -246q-102 -109 -244 -166q-143 -61 -326 -61q-180 0 -325 59t-242 162q-97 100 -151 242
q-54 139 -54 289zM680 719q0 -101 51 -164t143 -63q89 0 142 65q51 63 51 164q0 103 -51 166t-142 63q-90 0 -143 -65q-51 -63 -51 -166zM772 1864q3 -35 31 -60q24 -24 76 -24q50 0 77 24q24 24 27 60h330q-9 -322 -426 -322q-213 0 -326 82q-116 81 -119 240h330z" />
    <glyph glyph-name="obreve" unicode="&#x14f;" horiz-adv-x="1429" 
d="M82 522q0 151 78 279q77 126 227 203q147 75 367 75q221 0 370 -73q152 -74 228 -197q78 -128 78 -281q0 -150 -78 -278q-76 -126 -228 -203q-149 -76 -370 -76q-216 0 -367 74t-227 199q-78 128 -78 278zM608 526q0 -75 39 -114q40 -43 107 -43q70 0 110 43
q39 42 39 114q0 79 -39 121q-41 41 -110 41q-67 0 -107 -43q-39 -45 -39 -119zM651 1536q6 -96 107 -96q98 0 104 96h312q-3 -175 -109 -264q-106 -92 -299 -92q-197 0 -309 92q-114 88 -117 264h311z" />
    <glyph glyph-name="Ohungarumlaut" unicode="&#x150;" horiz-adv-x="1646" 
d="M102 711q0 151 54 293q53 139 151 243q97 106 242 168q148 60 325 60q183 0 326 -58q140 -57 244 -164q99 -105 151 -239q52 -137 52 -291t-52 -291q-53 -139 -151 -246q-102 -109 -244 -166q-143 -61 -326 -61q-180 0 -325 59t-242 162q-97 100 -151 242
q-54 139 -54 289zM680 719q0 -101 51 -164t143 -63q89 0 142 65q51 63 51 164q0 103 -51 166t-142 63q-90 0 -143 -65q-51 -63 -51 -166zM621 1864h395l-232 -328h-348zM1118 1864h451l-328 -328h-369z" />
    <glyph glyph-name="ohungarumlaut" unicode="&#x151;" horiz-adv-x="1429" 
d="M82 522q0 151 78 279q77 126 227 203q147 75 367 75q221 0 370 -73q152 -74 228 -197q78 -128 78 -281q0 -150 -78 -278q-76 -126 -228 -203q-149 -76 -370 -76q-216 0 -367 74t-227 199q-78 128 -78 278zM608 526q0 -75 39 -114q40 -43 107 -43q70 0 110 43
q39 42 39 114q0 79 -39 121q-41 41 -110 41q-67 0 -107 -43q-39 -45 -39 -119zM551 1536h381l-242 -340h-344zM1042 1536h437l-328 -340h-365z" />
    <glyph glyph-name="OE" unicode="&#x152;" horiz-adv-x="2236" 
d="M102 711q0 151 54 293q53 139 151 243q97 106 242 168q148 60 325 60q146 0 271 -41h1030v-412h-565v-115h559v-360h-559v-123h606v-424h-1075q-125 -41 -267 -41q-180 0 -325 59t-242 162q-97 100 -151 242q-54 139 -54 289zM680 719q0 -101 57 -164q54 -63 148 -63
q88 0 147 65q55 64 55 164q0 102 -55 166q-57 63 -147 63q-92 0 -148 -65q-57 -63 -57 -166z" />
    <glyph glyph-name="oe" unicode="&#x153;" horiz-adv-x="2074" 
d="M82 522q0 150 72 279q72 128 213 203t360 75q141 0 238 -32q101 -34 178 -93q77 59 178 93q92 32 223 32q158 0 264 -47q103 -50 162 -133q61 -89 84 -199q24 -128 21 -243h-670q21 -50 72 -78q51 -31 149 -31q62 0 127 19q66 19 115 63l186 -305q-59 -53 -153 -90
q-84 -33 -183 -49q-91 -15 -164 -15q-135 0 -239 37q-111 35 -185 92q-76 -58 -176 -92q-101 -37 -227 -37q-215 0 -360 74q-142 73 -213 199q-72 129 -72 278zM608 526q0 -75 39 -114q40 -43 107 -43q70 0 110 43q39 42 39 114q0 79 -39 121q-41 41 -110 41q-67 0 -107 -43
q-39 -45 -39 -119zM1647 676q3 67 -31 94q-37 29 -96 29q-58 0 -93 -35q-38 -35 -41 -88h261z" />
    <glyph glyph-name="Racute" unicode="&#x154;" horiz-adv-x="1474" 
d="M205 1434h764q200 0 321 -50q115 -52 168 -135q49 -82 49 -186q0 -154 -88 -242q-89 -89 -262 -127v-22q105 -6 184 -29q70 -21 105 -86q33 -62 33 -205q0 -114 6 -178q3 -63 22 -100q16 -31 60 -47v-27h-516q-79 0 -109 53q-33 50 -33 148v233q0 68 -20 94
q-21 27 -70 27h-49v-555h-565v1434zM770 823q71 0 102 31q31 28 31 109q0 65 -31 90q-29 23 -102 20v-250zM819 1864h529l-328 -328h-406z" />
    <glyph glyph-name="racute" unicode="&#x155;" horiz-adv-x="1019" 
d="M143 1051h480v-144q48 78 114 125q70 49 174 49q24 0 60 -4q27 -6 59 -20l41 -479l-18 -11q-86 45 -187 45q-74 0 -139 -53q-63 -51 -63 -168v-391h-521v1051zM557 1536h518l-327 -340h-396z" />
    <glyph glyph-name="uni0156" unicode="&#x156;" horiz-adv-x="1474" 
d="M205 1434h764q200 0 321 -50q115 -52 168 -135q49 -82 49 -186q0 -154 -88 -242q-89 -89 -262 -127v-22q105 -6 184 -29q70 -21 105 -86q33 -62 33 -205q0 -114 6 -178q3 -63 22 -100q16 -31 60 -47v-27h-516q-79 0 -109 53q-33 50 -33 148v233q0 68 -20 94
q-21 27 -70 27h-49v-555h-565v1434zM770 823q71 0 102 31q31 28 31 109q0 65 -31 90q-29 23 -102 20v-250zM639 -137h451v-281l-132 -221h-241l51 221h-129v281z" />
    <glyph glyph-name="uni0157" unicode="&#x157;" horiz-adv-x="1019" 
d="M143 1051h480v-144q48 78 114 125q70 49 174 49q24 0 60 -4q27 -6 59 -20l41 -479l-18 -11q-86 45 -187 45q-74 0 -139 -53q-63 -51 -63 -168v-391h-521v1051zM170 -137h451v-281l-132 -221h-241l51 221h-129v281z" />
    <glyph glyph-name="Rcaron" unicode="&#x158;" horiz-adv-x="1474" 
d="M205 1434h764q200 0 321 -50q115 -52 168 -135q49 -82 49 -186q0 -154 -88 -242q-89 -89 -262 -127v-22q105 -6 184 -29q70 -21 105 -86q33 -62 33 -205q0 -114 6 -178q3 -63 22 -100q16 -31 60 -47v-27h-516q-79 0 -109 53q-33 50 -33 148v233q0 68 -20 94
q-21 27 -70 27h-49v-555h-565v1434zM770 823q71 0 102 31q31 28 31 109q0 65 -31 90q-29 23 -102 20v-250zM756 1864l90 -115l96 115h383l-203 -326h-553l-200 326h387z" />
    <glyph glyph-name="rcaron" unicode="&#x159;" horiz-adv-x="1019" 
d="M123 1051h479v-144q47 77 115 125q70 49 174 49q23 0 59 -4q29 -6 60 -20l41 -479l-19 -11q-86 45 -186 45q-74 0 -139 -53q-64 -52 -64 -168v-391h-520v1051zM483 1536l82 -109l86 109h379l-209 -340h-512l-207 340h381z" />
    <glyph glyph-name="Sacute" unicode="&#x15a;" horiz-adv-x="1298" 
d="M223 584q111 -63 226 -97q109 -36 229 -36q59 0 78 16q18 15 18 37q0 32 -45 47q-46 15 -121 24q-50 6 -155 29q-78 17 -156 60q-73 40 -119 116q-47 77 -47 201q0 228 152 362q150 132 422 132q82 0 198 -17q87 -13 195 -47q104 -38 166 -84l-166 -428q-74 47 -180 84
q-98 33 -191 33q-55 0 -70 -15q-16 -16 -16 -36q0 -30 47 -45q51 -16 121 -25q66 -8 156 -31q85 -22 155 -63q76 -48 121 -125q47 -83 47 -213q0 -148 -69 -260q-70 -113 -203 -178q-135 -66 -314 -66q-72 0 -184 16q-105 15 -219 52q-113 34 -217 98zM682 1864h528
l-327 -328h-406z" />
    <glyph glyph-name="sacute" unicode="&#x15b;" horiz-adv-x="1140" 
d="M180 434q76 -45 201 -84q106 -33 194 -33q64 0 64 39q0 16 -25 25q-18 6 -96 16q-200 21 -297 99q-96 78 -96 217q0 109 65 192q64 82 185 129q113 45 274 45q89 0 178 -12q76 -10 164 -31q76 -22 117 -47l-127 -321q-83 40 -150 55q-69 16 -129 16q-63 0 -63 -39
q0 -17 27 -26q29 -15 98 -23q200 -27 287 -100q90 -78 90 -205q0 -183 -133 -278q-139 -97 -398 -97q-167 0 -299 33q-144 36 -229 96zM629 1536h518l-328 -340h-395z" />
    <glyph glyph-name="Scircumflex" unicode="&#x15c;" horiz-adv-x="1298" 
d="M223 584q111 -63 226 -97q109 -36 229 -36q59 0 78 16q18 15 18 37q0 32 -45 47q-46 15 -121 24q-50 6 -155 29q-78 17 -156 60q-73 40 -119 116q-47 77 -47 201q0 228 152 362q150 132 422 132q82 0 198 -17q87 -13 195 -47q104 -38 166 -84l-166 -428q-74 47 -180 84
q-98 33 -191 33q-55 0 -70 -15q-16 -16 -16 -36q0 -30 47 -45q51 -16 121 -25q66 -8 156 -31q85 -22 155 -63q76 -48 121 -125q47 -83 47 -213q0 -148 -69 -260q-70 -113 -203 -178q-135 -66 -314 -66q-72 0 -184 16q-105 15 -219 52q-113 34 -217 98zM434 1864h553
l201 -326h-387l-90 115l-97 -115h-383z" />
    <glyph glyph-name="scircumflex" unicode="&#x15d;" horiz-adv-x="1140" 
d="M180 434q76 -45 201 -84q106 -33 194 -33q64 0 64 39q0 16 -25 25q-18 6 -96 16q-200 21 -297 99q-96 78 -96 217q0 109 65 192q64 82 185 129q113 45 274 45q89 0 178 -12q76 -10 164 -31q76 -22 117 -47l-127 -321q-83 40 -150 55q-69 16 -129 16q-63 0 -63 -39
q0 -17 27 -26q29 -15 98 -23q200 -27 287 -100q90 -78 90 -205q0 -183 -133 -278q-139 -97 -398 -97q-167 0 -299 33q-144 36 -229 96zM401 1536h512l201 -340h-366l-91 121l-96 -121h-362z" />
    <glyph glyph-name="Scedilla" unicode="&#x15e;" horiz-adv-x="1298" 
d="M223 584q111 -63 226 -97q109 -36 229 -36q59 0 78 16q18 15 18 37q0 32 -45 47q-46 15 -121 24q-50 6 -155 29q-78 17 -156 60q-73 40 -119 116q-47 77 -47 201q0 228 152 362q150 132 422 132q82 0 198 -17q87 -13 195 -47q104 -38 166 -84l-166 -428q-74 47 -180 84
q-98 33 -191 33q-55 0 -70 -15q-16 -16 -16 -36q0 -30 47 -45q51 -16 121 -25q66 -8 156 -31q85 -22 155 -63q76 -48 121 -125q47 -83 47 -213q0 -148 -69 -260q-70 -113 -203 -178q-135 -66 -314 -66q-72 0 -184 16q-105 15 -219 52q-113 34 -217 98zM467 -317
q38 -21 61 -27q30 -12 58 -12q67 0 67 53q0 57 -71 57h-45q-5 -1 -12 -1.5t-11.5 -1t-7.5 -1.5l-29 146q36 11 82 16q49 6 119 6q152 0 225 -61q74 -65 74 -166q0 -109 -80 -180q-84 -72 -242 -72q-70 0 -139 16q-62 14 -121 51z" />
    <glyph glyph-name="scedilla" unicode="&#x15f;" horiz-adv-x="1140" 
d="M180 434q76 -45 201 -84q106 -33 194 -33q64 0 64 39q0 16 -25 25q-18 6 -96 16q-200 21 -297 99q-96 78 -96 217q0 109 65 192q64 82 185 129q113 45 274 45q89 0 178 -12q76 -10 164 -31q76 -22 117 -47l-127 -321q-83 40 -150 55q-69 16 -129 16q-63 0 -63 -39
q0 -17 27 -26q29 -15 98 -23q200 -27 287 -100q90 -78 90 -205q0 -183 -133 -278q-139 -97 -398 -97q-167 0 -299 33q-144 36 -229 96zM371 -317q38 -21 61 -27q30 -12 57 -12q68 0 68 53q0 57 -72 57h-45q-5 -1 -12 -1.5t-11 -1t-7 -1.5l-29 146q36 11 82 16q49 6 119 6
q152 0 225 -61q74 -65 74 -166q0 -109 -80 -180q-84 -72 -242 -72q-70 0 -139 16q-62 14 -121 51z" />
    <glyph glyph-name="Scaron" unicode="&#x160;" horiz-adv-x="1298" 
d="M223 584q111 -63 226 -97q109 -36 229 -36q59 0 78 16q18 15 18 37q0 32 -45 47q-46 15 -121 24q-50 6 -155 29q-78 17 -156 60q-73 40 -119 116q-47 77 -47 201q0 228 152 362q150 132 422 132q82 0 198 -17q87 -13 195 -47q104 -38 166 -84l-166 -428q-74 47 -180 84
q-98 33 -191 33q-55 0 -70 -15q-16 -16 -16 -36q0 -30 47 -45q51 -16 121 -25q66 -8 156 -31q85 -22 155 -63q76 -48 121 -125q47 -83 47 -213q0 -148 -69 -260q-70 -113 -203 -178q-135 -66 -314 -66q-72 0 -184 16q-105 15 -219 52q-113 34 -217 98zM618 1864l91 -115
l96 115h383l-203 -326h-553l-201 326h387z" />
    <glyph glyph-name="scaron" unicode="&#x161;" horiz-adv-x="1140" 
d="M180 434q76 -45 201 -84q106 -33 194 -33q64 0 64 39q0 16 -25 25q-18 6 -96 16q-200 21 -297 99q-96 78 -96 217q0 109 65 192q64 82 185 129q113 45 274 45q89 0 178 -12q76 -10 164 -31q76 -22 117 -47l-127 -321q-83 40 -150 55q-69 16 -129 16q-63 0 -63 -39
q0 -17 27 -26q29 -15 98 -23q200 -27 287 -100q90 -78 90 -205q0 -183 -133 -278q-139 -97 -398 -97q-167 0 -299 33q-144 36 -229 96zM575 1536l82 -109l86 109h379l-209 -340h-512l-206 340h380z" />
    <glyph glyph-name="uni0162" unicode="&#x162;" horiz-adv-x="1333" 
d="M82 1434h1251v-570h-344v-864h-563v864h-344v570zM475 -317q37 -20 62 -27q30 -12 57 -12q68 0 68 53q0 57 -72 57h-45q-5 -1 -12 -1.5t-11.5 -1t-7.5 -1.5l-29 146q36 11 82 16q50 6 119 6q152 0 225 -61q74 -65 74 -166q0 -109 -80 -180q-84 -72 -241 -72
q-71 0 -140 16q-62 14 -121 51z" />
    <glyph glyph-name="uni0163" unicode="&#x163;" horiz-adv-x="1009" 
d="M-20 1051h145v219l520 164v-383h260v-410h-260v-127q0 -68 19 -100q17 -33 63 -33q41 0 70 16q37 20 63 41l98 -360q-61 -41 -159 -80q-91 -39 -219 -39q-154 0 -240 45q-89 42 -137 115q-47 72 -62 153q-16 88 -16 156v213h-145v410zM334 -317q38 -21 61 -27
q30 -12 58 -12q67 0 67 53q0 57 -71 57h-46q-5 -1 -12 -1.5t-11 -1t-7 -1.5l-29 146q36 11 82 16q49 6 119 6q152 0 225 -61q74 -65 74 -166q0 -109 -80 -180q-84 -72 -242 -72q-70 0 -139 16q-62 14 -121 51z" />
    <glyph glyph-name="Tcaron" unicode="&#x164;" horiz-adv-x="1333" 
d="M82 1434h1251v-570h-344v-864h-563v864h-344v570zM616 1864l91 -115l96 115h383l-203 -326h-553l-201 326h387z" />
    <glyph glyph-name="tcaron" unicode="&#x165;" horiz-adv-x="1206" 
d="M-20 1051h145v219l520 164v-383h260v-410h-260v-127q0 -68 19 -100q17 -33 63 -33q41 0 70 16q37 20 63 41l98 -360q-61 -41 -159 -80q-91 -39 -219 -39q-154 0 -240 45q-89 42 -137 115q-47 72 -62 153q-16 88 -16 156v213h-145v410zM813 1657h424l-141 -529h-351z" />
    <glyph glyph-name="Tbar" unicode="&#x166;" horiz-adv-x="1333" 
d="M1333 864h-344v-264h156v-178h-156v-422h-563v422h-158v178h158v264h-344v570h1251v-570z" />
    <glyph glyph-name="tbar" unicode="&#x167;" horiz-adv-x="1050" 
d="M662 -41q-154 0 -240 45q-89 42 -137 115q-47 72 -62 153q-16 88 -16 156v84h-146v178h146v94h-146v267h146v219l520 164v-383h260v-267h-260v-94h211v-178h-211v-16q3 -115 82 -115q41 0 70 16q37 20 63 41l98 -360q-61 -41 -159 -80q-91 -39 -219 -39z" />
    <glyph glyph-name="Utilde" unicode="&#x168;" horiz-adv-x="1527" 
d="M164 1434h563v-721q0 -81 31 -135t94 -54q60 0 88 54q29 56 29 135v721h559v-818q0 -172 -55 -297q-54 -124 -150 -204q-94 -79 -219 -117q-121 -39 -260 -39q-142 0 -260 39q-122 37 -217 117q-97 82 -148 204q-55 125 -55 297v818zM461 1536q-1 4 -1.5 11.5t-1 19.5
t-1.5 22q-4 46 -4 51q0 134 55 195q53 59 151 59q67 0 117 -16q29 -11 78 -41q12 -9 43 -22q18 -9 41 -9q47 0 47 56v10q0 8 -2 12h244q3 -27 6 -51q2 -18 2 -51q0 -117 -51 -183q-51 -69 -166 -69q-60 0 -100 18q-24 9 -74 35q-20 14 -45 25q-23 10 -49 10q-48 0 -48 -57
v-13q0 -6 3 -12h-244z" />
    <glyph glyph-name="utilde" unicode="&#x169;" horiz-adv-x="1341" 
d="M123 1051h520v-531q0 -55 14 -80q12 -26 64 -26q46 0 67 35q23 38 23 90v512h520v-1051h-500v143q-47 -77 -122 -123q-76 -49 -205 -49q-108 0 -193 49q-84 48 -137 152q-51 99 -51 262v617zM342 1200q-1 4 -1.5 11.5t-1 19.5t-1.5 22q-4 46 -4 52q0 133 55 194
q54 60 152 60q63 0 116 -17q29 -11 78 -41q13 -9 43 -22q18 -9 41 -9q47 0 47 56v10q0 8 -2 12h244q3 -27 6 -51q2 -18 2 -51q0 -116 -51 -182q-52 -70 -166 -70q-59 0 -100 18q-24 9 -74 35q-20 14 -45 25q-23 10 -49 10q-47 0 -47 -57v-13q0 -8 2 -12h-244z" />
    <glyph glyph-name="Umacron" unicode="&#x16a;" horiz-adv-x="1527" 
d="M164 1434h563v-721q0 -81 31 -135t94 -54q60 0 88 54q29 56 29 135v721h559v-818q0 -172 -55 -297q-54 -124 -150 -204q-94 -79 -219 -117q-121 -39 -260 -39q-142 0 -260 39q-122 37 -217 117q-97 82 -148 204q-55 125 -55 297v818zM438 1821h815v-285h-815v285z" />
    <glyph glyph-name="umacron" unicode="&#x16b;" horiz-adv-x="1341" 
d="M123 1051h520v-531q0 -55 14 -80q12 -26 64 -26q46 0 67 35q23 38 23 90v512h520v-1051h-500v143q-47 -77 -122 -123q-76 -49 -205 -49q-108 0 -193 49q-84 48 -137 152q-51 99 -51 262v617zM319 1511h816v-284h-816v284z" />
    <glyph glyph-name="Ubreve" unicode="&#x16c;" horiz-adv-x="1527" 
d="M164 1434h563v-721q0 -81 31 -135t94 -54q60 0 88 54q29 56 29 135v721h559v-818q0 -172 -55 -297q-54 -124 -150 -204q-94 -79 -219 -117q-121 -39 -260 -39q-142 0 -260 39q-122 37 -217 117q-97 82 -148 204q-55 125 -55 297v818zM743 1864q3 -35 31 -60
q24 -24 76 -24q51 0 78 24q23 23 26 60h330q-9 -322 -426 -322q-213 0 -326 82q-115 80 -118 240h329z" />
    <glyph glyph-name="ubreve" unicode="&#x16d;" horiz-adv-x="1341" 
d="M123 1051h520v-531q0 -55 14 -80q12 -26 64 -26q46 0 67 35q23 38 23 90v512h520v-1051h-500v143q-47 -77 -122 -123q-76 -49 -205 -49q-108 0 -193 49q-84 48 -137 152q-51 99 -51 262v617zM625 1536q6 -96 106 -96q99 0 105 96h311q-3 -175 -109 -264
q-106 -92 -299 -92q-197 0 -309 92q-114 88 -117 264h312z" />
    <glyph glyph-name="Uring" unicode="&#x16e;" horiz-adv-x="1527" 
d="M164 1434h563v-721q0 -81 31 -135t94 -54q60 0 88 54q29 56 29 135v721h559v-818q0 -172 -55 -297q-54 -124 -150 -204q-94 -79 -219 -117q-121 -39 -260 -39q-142 0 -260 39q-122 37 -217 117q-97 82 -148 204q-55 125 -55 297v818zM483 1743q0 113 88 180q91 66 283 66
q178 0 266 -64t88 -180q0 -109 -88 -176q-89 -68 -266 -68q-192 0 -283 66q-88 64 -88 176zM778 1745q0 -29 23 -45q24 -17 53 -17q31 0 55 17q21 15 21 45q0 29 -21 47q-22 16 -55 16q-31 0 -53 -16q-23 -20 -23 -47z" />
    <glyph glyph-name="uring" unicode="&#x16f;" horiz-adv-x="1341" 
d="M123 1051h520v-531q0 -55 14 -80q12 -26 64 -26q46 0 67 35q23 38 23 90v512h520v-1051h-500v143q-47 -77 -122 -123q-76 -49 -205 -49q-108 0 -193 49q-84 48 -137 152q-51 99 -51 262v617zM365 1413q0 113 88 180q91 66 282 66q178 0 266 -64q89 -65 89 -180
q0 -108 -89 -176t-266 -68q-191 0 -282 66q-88 64 -88 176zM659 1415q0 -29 23 -45q22 -16 53 -16q34 0 56 16q20 14 20 45q0 30 -20 47q-24 17 -56 17q-29 0 -53 -17q-23 -20 -23 -47z" />
    <glyph glyph-name="Uhungarumlaut" unicode="&#x170;" horiz-adv-x="1527" 
d="M164 1434h563v-721q0 -81 31 -135t94 -54q60 0 88 54q29 56 29 135v721h559v-818q0 -172 -55 -297q-54 -124 -150 -204q-94 -79 -219 -117q-121 -39 -260 -39q-142 0 -260 39q-122 37 -217 117q-97 82 -148 204q-55 125 -55 297v818zM592 1864h395l-231 -328h-348z
M1090 1864h450l-328 -328h-368z" />
    <glyph glyph-name="uhungarumlaut" unicode="&#x171;" horiz-adv-x="1341" 
d="M123 1051h520v-531q0 -55 14 -80q12 -26 64 -26q46 0 67 35q23 38 23 90v512h520v-1051h-500v143q-47 -77 -122 -123q-76 -49 -205 -49q-108 0 -193 49q-84 48 -137 152q-51 99 -51 262v617zM524 1536h381l-241 -340h-345zM1016 1536h436l-328 -340h-364z" />
    <glyph glyph-name="Uogonek" unicode="&#x172;" horiz-adv-x="1527" 
d="M164 1434h563v-721q0 -81 31 -135t94 -54q60 0 88 54q29 56 29 135v721h559v-818q0 -222 -90 -362q-90 -141 -234 -217q-119 -64 -162 -113q-45 -48 -45 -96q0 -72 99 -72q29 0 53 6q18 3 53 13l6 -8l-71 -271q-33 -20 -88 -31q-55 -14 -136 -14q-139 0 -217 60
q-80 59 -80 170q0 76 50 147q49 70 168 131q-144 3 -256 41q-124 42 -213 119q-96 81 -148 203q-53 124 -53 294v818z" />
    <glyph glyph-name="uogonek" unicode="&#x173;" horiz-adv-x="1341" 
d="M123 1051h520v-531q0 -55 14 -80q12 -26 64 -26q46 0 67 35q23 38 23 90v512h520v-1051q-104 -41 -160 -80q-59 -41 -59 -92q0 -72 98 -72q30 0 54 6q18 3 53 13l6 -8l-72 -271q-33 -20 -88 -31q-55 -14 -135 -14q-139 0 -217 60q-80 59 -80 170q0 93 70 172
q67 77 237 147h-207v143q-47 -77 -122 -123q-76 -49 -205 -49q-108 0 -193 49q-84 48 -137 152q-51 99 -51 262v617z" />
    <glyph glyph-name="Wcircumflex" unicode="&#x174;" horiz-adv-x="2054" 
d="M625 1434l102 -658l289 592h84l289 -592l102 658h563l-266 -1434h-481l-250 520l-248 -520h-481l-267 1434h564zM784 1864h553l201 -326h-387l-90 115l-96 -115h-383z" />
    <glyph glyph-name="wcircumflex" unicode="&#x175;" horiz-adv-x="1761" 
d="M518 1051l72 -502l252 502h102l227 -500l72 500h518l-239 -1051h-457l-195 395l-194 -395h-436l-240 1051h518zM639 1536h512l201 -340h-367l-90 121l-96 -121h-363z" />
    <glyph glyph-name="Ycircumflex" unicode="&#x176;" horiz-adv-x="1615" 
d="M629 1434l182 -490h12l199 490h594l-529 -1020v-414h-563v414l-524 1020h629zM545 1864h553l200 -326h-387l-90 115l-96 -115h-383z" />
    <glyph glyph-name="ycircumflex" unicode="&#x177;" horiz-adv-x="1353" 
d="M526 1051l131 -582h15l131 582h551l-582 -1475h-616l213 424l-410 1051h567zM410 1536h512l200 -340h-366l-90 121l-97 -121h-362z" />
    <glyph glyph-name="Ydieresis" unicode="&#x178;" horiz-adv-x="1615" 
d="M629 1434l182 -490h12l199 490h594l-529 -1020v-414h-563v414l-524 1020h629zM362 1855h410v-319h-410v319zM866 1855h410v-319h-410v319z" />
    <glyph glyph-name="Zacute" unicode="&#x179;" horiz-adv-x="1415" 
d="M82 106l508 857h-504l59 471h1274v-121l-483 -842h446v-471h-1300v106zM729 1864h528l-327 -328h-406z" />
    <glyph glyph-name="zacute" unicode="&#x17a;" horiz-adv-x="1212" 
d="M82 61l397 596h-379l62 394h1050v-62l-391 -596h377v-393h-1116v61zM641 1536h518l-328 -340h-395z" />
    <glyph glyph-name="Zdotaccent" unicode="&#x17b;" horiz-adv-x="1415" 
d="M82 106l508 857h-504l59 471h1274v-121l-483 -842h446v-471h-1300v106zM506 1843h520v-307h-520v307z" />
    <glyph glyph-name="zdotaccent" unicode="&#x17c;" horiz-adv-x="1212" 
d="M82 61l397 596h-379l62 394h1050v-62l-391 -596h377v-393h-1116v61zM418 1536h520v-307h-520v307z" />
    <glyph glyph-name="Zcaron" unicode="&#x17d;" horiz-adv-x="1415" 
d="M82 106l508 857h-504l59 471h1274v-121l-483 -842h446v-471h-1300v106zM666 1864l90 -115l96 115h383l-203 -326h-553l-200 326h387z" />
    <glyph glyph-name="zcaron" unicode="&#x17e;" horiz-adv-x="1212" 
d="M82 61l397 596h-379l62 394h1050v-62l-391 -596h377v-393h-1116v61zM588 1536l82 -109l86 109h379l-209 -340h-512l-207 340h381z" />
    <glyph glyph-name="longs" unicode="&#x17f;" horiz-adv-x="858" 
d="M143 1063q0 87 19 180q19 91 69 162q48 72 144 119q91 45 243 45q70 0 142 -10q43 -8 108 -29l93 -361l-13 -8q-57 19 -98 27q-44 6 -78 6q-75 0 -90 -37q-18 -37 -18 -92v-1065h-521v1063z" />
    <glyph glyph-name="florin" unicode="&#x192;" horiz-adv-x="1161" 
d="M-164 -96q37 -11 101 -23q52 -10 86 -10q58 0 79 27q22 29 31 102l45 426h-188l51 410h180l25 237q27 265 143 387q113 119 332 119q157 0 260 -41l92 -358l-12 -9q-65 19 -98 25q-44 8 -89 8q-58 0 -79 -24q-22 -28 -31 -105l-25 -239h217l-51 -410h-209l-45 -424
q-27 -265 -141 -385q-115 -121 -334 -121q-157 0 -260 41l-92 359z" />
    <glyph glyph-name="AEacute" unicode="&#x1fc;" horiz-adv-x="2211" 
d="M479 1434h1630v-412h-544v-115h538v-360h-538v-123h585v-424h-1149v227h-327l-68 -227h-586zM1001 641v360h-98l-106 -360h204zM1204 1864h529l-328 -328h-406z" />
    <glyph glyph-name="aeacute" unicode="&#x1fd;" horiz-adv-x="1943" 
d="M41 309q0 130 59 201q57 69 152 96q92 27 194 27h304q-9 55 -86 76q-80 22 -189 22q-90 0 -158 -10q-42 -6 -116 -27l-11 8l119 338q31 10 82 19q40 7 113 14q62 6 114 6q124 0 211 -20q89 -20 166 -88q76 61 174 86q99 22 197 22q170 0 279 -47q109 -50 170 -135
q62 -87 86 -199q25 -118 22 -241h-670q21 -50 72 -78q51 -31 150 -31q62 0 127 19q64 19 114 63l187 -305q-58 -53 -154 -90q-85 -33 -182 -49q-91 -15 -164 -15q-339 0 -510 162q-84 -93 -209 -127q-128 -35 -254 -35q-171 0 -280 86t-109 252zM539 336q0 -54 32 -68
q35 -18 72 -18q35 0 72 12q32 11 61 37q-7 17 -14 55q-6 35 -6 60h-111q-106 0 -106 -78zM1495 676q3 67 -31 94q-37 29 -96 29q-57 0 -92 -35q-38 -35 -41 -88h260zM983 1536h518l-327 -340h-396z" />
    <glyph glyph-name="uni0218" unicode="&#x218;" horiz-adv-x="1298" 
d="M223 584q111 -63 226 -97q109 -36 229 -36q59 0 78 16q18 15 18 37q0 32 -45 47q-46 15 -121 24q-50 6 -155 29q-78 17 -156 60q-73 40 -119 116q-47 77 -47 201q0 228 152 362q150 132 422 132q82 0 198 -17q87 -13 195 -47q104 -38 166 -84l-166 -428q-74 47 -180 84
q-98 33 -191 33q-55 0 -70 -15q-16 -16 -16 -36q0 -30 47 -45q51 -16 121 -25q66 -8 156 -31q85 -22 155 -63q76 -48 121 -125q47 -83 47 -213q0 -148 -69 -260q-70 -113 -203 -178q-135 -66 -314 -66q-72 0 -184 16q-105 15 -219 52q-113 34 -217 98zM481 -137h451v-281
l-131 -221h-242l51 221h-129v281z" />
    <glyph glyph-name="uni0219" unicode="&#x219;" horiz-adv-x="1140" 
d="M180 434q76 -45 201 -84q106 -33 194 -33q64 0 64 39q0 16 -25 25q-18 6 -96 16q-200 21 -297 99q-96 78 -96 217q0 109 65 192q64 82 185 129q113 45 274 45q89 0 178 -12q76 -10 164 -31q76 -22 117 -47l-127 -321q-83 40 -150 55q-69 16 -129 16q-63 0 -63 -39
q0 -17 27 -26q29 -15 98 -23q200 -27 287 -100q90 -78 90 -205q0 -183 -133 -278q-139 -97 -398 -97q-167 0 -299 33q-144 36 -229 96zM385 -137h451v-281l-131 -221h-242l51 221h-129v281z" />
    <glyph glyph-name="uni021A" unicode="&#x21a;" horiz-adv-x="1333" 
d="M82 1434h1251v-570h-344v-864h-563v864h-344v570zM489 -137h451v-281l-131 -221h-242l51 221h-129v281z" />
    <glyph glyph-name="uni021B" unicode="&#x21b;" horiz-adv-x="1009" 
d="M-20 1051h145v219l520 164v-383h260v-410h-260v-127q0 -68 19 -100q17 -33 63 -33q41 0 70 16q37 20 63 41l98 -360q-61 -41 -159 -80q-91 -39 -219 -39q-154 0 -240 45q-89 42 -137 115q-47 72 -62 153q-16 88 -16 156v213h-145v410zM348 -137h451v-281l-131 -221h-242
l51 221h-129v281z" />
    <glyph glyph-name="uni0237" unicode="&#x237;" horiz-adv-x="663" 
d="M143 1051h521v-1432l-521 -65v1497z" />
    <glyph glyph-name="uni02BB" unicode="&#x2bb;" horiz-adv-x="1228" 
d="M811 1395l80 254h223l-43 -193h135v-260h-395v199z" />
    <glyph glyph-name="uni02BC" unicode="&#x2bc;" horiz-adv-x="487" 
d="M496 1190l-97 -281h-264l86 281h-115v321h390v-321z" />
    <glyph glyph-name="circumflex" unicode="&#x2c6;" horiz-adv-x="1228" 
d="M518 1536h512l201 -340h-367l-90 121l-96 -121h-363z" />
    <glyph glyph-name="caron" unicode="&#x2c7;" horiz-adv-x="1228" 
d="M688 1536l82 -109l86 109h379l-209 -340h-512l-207 340h381z" />
    <glyph glyph-name="uni02C9" unicode="&#x2c9;" horiz-adv-x="1228" 
d="M414 1511h815v-284h-815v284z" />
    <glyph glyph-name="breve" unicode="&#x2d8;" horiz-adv-x="1228" 
d="M713 1536q6 -96 106 -96q99 0 105 96h311q-3 -175 -109 -264q-106 -92 -299 -92q-197 0 -309 92q-114 88 -117 264h312z" />
    <glyph glyph-name="dotaccent" unicode="&#x2d9;" horiz-adv-x="1228" 
d="M729 1536h520v-307h-520v307z" />
    <glyph glyph-name="ring" unicode="&#x2da;" horiz-adv-x="1228" 
d="M504 1413q0 113 88 180q91 66 282 66q179 0 267 -64t88 -180q0 -109 -88 -176q-89 -68 -267 -68q-191 0 -282 66q-88 64 -88 176zM799 1415q0 -29 22 -45t53 -16q34 0 56 16q20 14 20 45q0 30 -20 47q-24 17 -56 17q-29 0 -53 -17q-22 -19 -22 -47z" />
    <glyph glyph-name="ogonek" unicode="&#x2db;" horiz-adv-x="1228" 
d="M614 -319q0 102 88 190t312 164h200v-35q-102 -40 -159 -80q-60 -42 -60 -92q0 -72 99 -72q29 0 53 6q18 3 53 13l6 -8l-71 -271q-33 -20 -88 -31q-55 -14 -136 -14q-139 0 -217 60q-80 59 -80 170z" />
    <glyph glyph-name="tilde" unicode="&#x2dc;" horiz-adv-x="1228" 
d="M451 1200q-1 6 -5 53q-4 46 -4 52q0 132 56 194q54 60 151 60q64 0 117 -17q29 -11 78 -41q13 -9 43 -22q18 -9 41 -9q47 0 47 56v10q0 8 -2 12h244q3 -27 6 -51q2 -18 2 -51q0 -116 -51 -182q-52 -70 -166 -70q-60 0 -101 18q-20 8 -73 35q-18 13 -46 25q-23 10 -49 10
q-47 0 -47 -57v-13q0 -8 2 -12h-243z" />
    <glyph glyph-name="hungarumlaut" unicode="&#x2dd;" horiz-adv-x="1226" 
d="M475 1536h381l-242 -340h-344zM967 1536h436l-328 -340h-364z" />
    <glyph glyph-name="gravecomb" unicode="&#x300;" horiz-adv-x="0" 
d="M-494 1536l207 -340h-395l-317 340h505z" />
    <glyph glyph-name="acutecomb" unicode="&#x301;" horiz-adv-x="0" 
d="M-258 1536h518l-328 -340h-395z" />
    <glyph glyph-name="uni0302" unicode="&#x302;" horiz-adv-x="0" 
d="M-711 1536h512l201 -340h-367l-90 121l-96 -121h-362z" />
    <glyph glyph-name="tildecomb" unicode="&#x303;" horiz-adv-x="0" 
d="M-778 1200q-1 4 -1.5 11.5t-1 19.5t-1.5 22q-4 46 -4 52q0 133 55 194q54 60 151 60q64 0 117 -17q29 -11 78 -41q13 -9 43 -22q18 -9 41 -9q47 0 47 56v10q0 8 -2 12h244q3 -27 6 -51q2 -18 2 -51q0 -116 -51 -182q-52 -70 -166 -70q-61 0 -101 18q-20 8 -73 35
q-20 14 -45 25q-23 10 -49 10q-48 0 -48 -57v-13q0 -8 2 -12h-243z" />
    <glyph glyph-name="uni0304" unicode="&#x304;" horiz-adv-x="0" 
d="M-815 1511h815v-284h-815v284z" />
    <glyph glyph-name="uni0306" unicode="&#x306;" horiz-adv-x="0" 
d="M-516 1536q6 -96 106 -96q99 0 105 96h311q-3 -176 -108 -264q-106 -92 -299 -92q-198 0 -310 92q-113 88 -116 264h311z" />
    <glyph glyph-name="uni0307" unicode="&#x307;" horiz-adv-x="0" 
d="M-500 1536h520v-307h-520v307z" />
    <glyph glyph-name="uni0308" unicode="&#x308;" horiz-adv-x="0" 
d="M-913 1536h409v-319h-409v319zM-410 1536h410v-319h-410v319z" />
    <glyph glyph-name="uni030A" unicode="&#x30a;" horiz-adv-x="0" 
d="M-725 1413q0 113 88 180q91 66 283 66q178 0 266 -64t88 -180q0 -109 -88 -176q-89 -68 -266 -68q-192 0 -283 66q-88 64 -88 176zM-430 1415q0 -29 22 -45t54 -16q33 0 55 16q20 14 20 45q0 30 -20 47q-24 17 -55 17q-30 0 -54 -17q-22 -19 -22 -47z" />
    <glyph glyph-name="uni030B" unicode="&#x30b;" horiz-adv-x="0" 
d="M-610 1536h381l-242 -340h-344zM-119 1536h436l-327 -340h-365z" />
    <glyph glyph-name="uni030C" unicode="&#x30c;" horiz-adv-x="0" 
d="M-541 1536l82 -109l86 109h379l-209 -340h-512l-207 340h381z" />
    <glyph glyph-name="uni0312" unicode="&#x312;" horiz-adv-x="0" 
d="M-397 1395l80 254h223l-43 -193h135v-260h-395v199z" />
    <glyph glyph-name="uni0326" unicode="&#x326;" horiz-adv-x="0" 
d="M-446 -137h450v-281l-131 -221h-242l52 221h-129v281z" />
    <glyph glyph-name="uni0327" unicode="&#x327;" horiz-adv-x="0" 
d="M-547 -317q37 -20 62 -27q30 -12 57 -12q68 0 68 53q0 57 -72 57h-45q-5 -1 -12 -1.5t-11.5 -1t-7.5 -1.5l-29 146q36 11 82 16q49 6 119 6q152 0 225 -61q74 -65 74 -166q0 -109 -80 -180q-84 -72 -241 -72q-71 0 -140 16q-61 14 -120 51z" />
    <glyph glyph-name="uni0328" unicode="&#x328;" horiz-adv-x="0" 
d="M-668 -319q0 102 88 190t312 164h200v-35q-102 -40 -159 -80q-60 -42 -60 -92q0 -72 99 -72q29 0 53 6q18 3 53 13l6 -8l-71 -271q-32 -19 -89 -31q-55 -14 -135 -14q-139 0 -217 60q-80 59 -80 170z" />
    <glyph glyph-name="uni0394" unicode="&#x394;" horiz-adv-x="1548" 
d="M377 1434h786l385 -1434h-1528zM913 414l-135 587h-18l-103 -587h256z" />
    <glyph glyph-name="uni03A9" unicode="&#x3a9;" horiz-adv-x="1646" 
d="M102 840q0 190 93 336q92 142 266 221q176 78 413 78t416 -78q172 -79 264 -221q93 -146 93 -336q0 -134 -39 -219q-40 -87 -101 -148q-58 -55 -125 -94v-31h234v-348h-688v494q69 24 108 84q37 58 37 163q0 51 -16 113q-14 54 -58 98q-42 39 -125 39q-80 0 -122 -39
q-46 -43 -60 -98q-16 -62 -16 -113q0 -107 39 -163q39 -61 106 -84v-494h-688v348h234v31q-69 40 -123 94q-59 56 -101 148q-41 90 -41 219z" />
    <glyph glyph-name="uni03BC" unicode="&#x3bc;" horiz-adv-x="1341" 
d="M123 1051h520v-531q0 -55 14 -80q12 -26 64 -26q46 0 67 35q23 38 23 90v512h520v-1051h-489v143q-30 -83 -92 -110q-65 -30 -142 -21v-370h-485v1409z" />
    <glyph glyph-name="pi" unicode="&#x3c0;" horiz-adv-x="1536" 
d="M82 1051h1454v-410h-143v-641h-500v641h-168v-641h-500v641h-143v410z" />
    <glyph glyph-name="Wgrave" unicode="&#x1e80;" horiz-adv-x="2054" 
d="M625 1434l102 -658l289 592h84l289 -592l102 658h563l-266 -1434h-481l-250 520l-248 -520h-481l-267 1434h564zM1081 1864l205 -328h-405l-328 328h528z" />
    <glyph glyph-name="wgrave" unicode="&#x1e81;" horiz-adv-x="1761" 
d="M518 1051l72 -502l252 502h102l227 -500l72 500h518l-239 -1051h-457l-195 395l-194 -395h-436l-240 1051h518zM899 1536l207 -340h-395l-318 340h506z" />
    <glyph glyph-name="Wacute" unicode="&#x1e82;" horiz-adv-x="2054" 
d="M625 1434l102 -658l289 592h84l289 -592l102 658h563l-266 -1434h-481l-250 520l-248 -520h-481l-267 1434h564zM1032 1864h529l-328 -328h-406z" />
    <glyph glyph-name="wacute" unicode="&#x1e83;" horiz-adv-x="1761" 
d="M518 1051l72 -502l252 502h102l227 -500l72 500h518l-239 -1051h-457l-195 395l-194 -395h-436l-240 1051h518zM866 1536h518l-327 -340h-395z" />
    <glyph glyph-name="Wdieresis" unicode="&#x1e84;" horiz-adv-x="2054" 
d="M625 1434l102 -658l289 592h84l289 -592l102 658h563l-266 -1434h-481l-250 520l-248 -520h-481l-267 1434h564zM602 1855h410v-319h-410v319zM1106 1855h410v-319h-410v319z" />
    <glyph glyph-name="wdieresis" unicode="&#x1e85;" horiz-adv-x="1761" 
d="M518 1051l72 -502l252 502h102l227 -500l72 500h518l-239 -1051h-457l-195 395l-194 -395h-436l-240 1051h518zM436 1536h410v-319h-410v319zM940 1536h410v-319h-410v319z" />
    <glyph glyph-name="uni1E9E" unicode="&#x1e9e;" horiz-adv-x="1773" 
d="M205 1434h1542v-123l-315 -465q41 -8 133 -35q68 -24 127 -68q60 -48 96 -112q37 -70 37 -168q0 -141 -72 -254q-72 -111 -213 -174q-137 -64 -336 -64q-63 0 -149 13q-76 8 -158 34q-70 22 -131 60l98 389q50 -23 113 -39q55 -14 115 -14q79 0 118 39t39 92q0 46 -37 73
q-40 27 -102 27q-59 0 -102 -16q-25 -9 -78 -39l-105 82l230 360h-334v-1032h-516v1434z" />
    <glyph glyph-name="Ygrave" unicode="&#x1ef2;" horiz-adv-x="1615" 
d="M629 1434l182 -490h12l199 490h594l-529 -1020v-414h-563v414l-524 1020h629zM842 1864l205 -328h-406l-328 328h529z" />
    <glyph glyph-name="ygrave" unicode="&#x1ef3;" horiz-adv-x="1353" 
d="M526 1051l131 -582h15l131 582h551l-582 -1475h-616l213 424l-410 1051h567zM670 1536l207 -340h-396l-317 340h506z" />
    <glyph glyph-name="uni2009" unicode="&#x2009;" horiz-adv-x="256" 
 />
    <glyph glyph-name="endash" unicode="&#x2013;" horiz-adv-x="1024" 
d="M37 700h987v-352h-987v352z" />
    <glyph glyph-name="emdash" unicode="&#x2014;" horiz-adv-x="2048" 
d="M33 700h2013v-352h-2013v352z" />
    <glyph glyph-name="quoteleft" unicode="&#x2018;" horiz-adv-x="487" 
d="M90 1255l96 281h265l-86 -281h114v-321h-389v321z" />
    <glyph glyph-name="quoteright" unicode="&#x2019;" horiz-adv-x="487" 
d="M496 1190l-97 -281h-264l86 281h-115v321h390v-321z" />
    <glyph glyph-name="quotesinglbase" unicode="&#x201a;" horiz-adv-x="487" 
d="M106 322h390v-322l-97 -281h-264l86 281h-115v322z" />
    <glyph glyph-name="quotedblleft" unicode="&#x201c;" horiz-adv-x="960" 
d="M952 934h-389v321l96 281h265l-86 -281h114v-321zM479 934h-389v321l96 281h265l-86 -281h114v-321z" />
    <glyph glyph-name="quotedblright" unicode="&#x201d;" horiz-adv-x="960" 
d="M106 1511h390v-321l-97 -281h-264l86 281h-115v321zM580 1511h389v-321l-97 -281h-264l86 281h-114v321z" />
    <glyph glyph-name="quotedblbase" unicode="&#x201e;" horiz-adv-x="960" 
d="M106 322h390v-322l-97 -281h-264l86 281h-115v322zM580 322h389v-322l-97 -281h-264l86 281h-114v322z" />
    <glyph glyph-name="dagger" unicode="&#x2020;" horiz-adv-x="1024" 
d="M205 1466l225 -20l-20 192h409l-20 -192l225 20v-325l-205 20l-61 -581h-287l-61 581l-205 -20v325z" />
    <glyph glyph-name="daggerdbl" unicode="&#x2021;" horiz-adv-x="1024" 
d="M205 1501l225 -20l-20 157h409l-20 -157l225 20v-317l-205 20l-8 -94l10 -94l203 20v-317l-225 20l20 -157h-407l20 157l-225 -20v317l205 -20l8 94l-10 94l-205 -20v317z" />
    <glyph glyph-name="bullet" unicode="&#x2022;" horiz-adv-x="700" 
d="M123 967h577v-555h-577v555z" />
    <glyph glyph-name="ellipsis" unicode="&#x2026;" horiz-adv-x="1441" 
d="M141 322h351v-322h-351v322zM616 322h351v-322h-351v322zM1090 322h350v-322h-350v322z" />
    <glyph glyph-name="perthousand" unicode="&#x2030;" horiz-adv-x="2650" 
d="M41 1102q0 120 53 215t158 149q108 54 262 54q237 0 358 -115q119 -116 119 -299t-119 -299q-119 -119 -358 -119q-233 0 -354 115q-119 113 -119 299zM1432 1518h313l-1036 -1541h-314zM424 1108q0 -104 90 -104q94 0 94 106q0 58 -24 82q-25 25 -70 25q-90 0 -90 -109z
M1133 362q0 126 51 218q54 97 151 153q101 55 244 55q114 0 188 -32q83 -36 129 -82q52 49 125 82q71 32 183 32q214 0 331 -114q115 -118 115 -299q0 -123 -51 -215q-54 -96 -150 -150q-100 -53 -235 -53q-120 0 -195 37q-82 40 -129 82q-47 -42 -129 -82q-78 -37 -200 -37
q-132 0 -224 51q-97 49 -151 139q-53 89 -53 215zM1516 377q0 -105 90 -105q94 0 94 107q0 57 -25 82q-24 24 -69 24q-90 0 -90 -108zM2083 377q0 -105 90 -105q94 0 94 107q0 58 -24 82t-70 24q-90 0 -90 -108z" />
    <glyph glyph-name="guilsinglleft" unicode="&#x2039;" horiz-adv-x="784" 
d="M391 932h393l-309 -373l309 -373h-393l-309 373z" />
    <glyph glyph-name="guilsinglright" unicode="&#x203a;" horiz-adv-x="784" 
d="M475 186h-393l309 373l-309 373h393l309 -373z" />
    <glyph glyph-name="fraction" unicode="&#x2044;" horiz-adv-x="966" 
d="M455 1518h512l-947 -1575h-512z" />
    <glyph glyph-name="uni2074" unicode="&#x2074;" horiz-adv-x="1298" 
d="M90 1063l545 604h469v-575h160v-271h-160v-157h-457v157h-557v242zM647 1092v258l-225 -258h225z" />
    <glyph glyph-name="Euro" unicode="&#x20ac;" horiz-adv-x="1601" 
d="M123 868h162q30 190 131 326q104 138 262 209q167 72 375 72q178 0 321 -52q150 -55 242 -141l-234 -319q-93 100 -231 100q-108 0 -182 -53q-76 -52 -107 -150h561l-65 -272h-500q27 -97 103 -152q73 -55 182 -55q139 0 225 86l270 -268q-214 -240 -594 -240
q-199 0 -366 78q-161 75 -264 215q-105 142 -131 323h-230z" />
    <glyph glyph-name="uni20BA" unicode="&#x20ba;" horiz-adv-x="1607" 
d="M123 659l172 72v107l-172 -72v250l172 71v347l557 41v-154l203 84v-250l-203 -84v-106l203 84v-250l-203 -84v-236q98 34 154 90q55 55 81 123q27 71 39 146l502 -50q-47 -241 -149 -389q-105 -153 -271 -241q-167 -89 -393 -123q-234 -35 -520 -35v481l-172 -71v249z
" />
    <glyph glyph-name="uni2116" unicode="&#x2116;" horiz-adv-x="2203" 
d="M205 1434h461l249 -516v516h502v-1434h-461l-249 516v-516h-502v1434zM1503 1118q0 105 39 182q38 80 121 127q82 46 219 46q204 0 295 -97q88 -98 88 -254t-88 -254q-87 -100 -295 -100q-206 0 -291 98q-88 94 -88 252zM1532 723h702v-227h-702v227zM1806 1124
q0 -63 21 -84q21 -24 55 -24q39 0 60 24q20 20 20 84q0 65 -20 88q-23 23 -60 23q-33 0 -55 -25q-21 -27 -21 -86z" />
    <glyph glyph-name="trademark" unicode="&#x2122;" horiz-adv-x="2064" 
d="M33 1434h772v-351h-156v-335h-461v335h-155v351zM862 1434h406l170 -252l186 252h406v-689h-428v240l-134 -240h-45l-133 240v-240h-428v689z" />
    <glyph glyph-name="uni2126" unicode="&#x2126;" horiz-adv-x="1646" 
d="M102 840q0 190 93 336q92 142 266 221q176 78 413 78t416 -78q172 -79 264 -221q93 -146 93 -336q0 -134 -39 -219q-40 -87 -101 -148q-58 -55 -125 -94v-31h234v-348h-688v494q69 24 108 84q37 58 37 163q0 51 -16 113q-14 54 -58 98q-42 39 -125 39q-80 0 -122 -39
q-46 -43 -60 -98q-16 -62 -16 -113q0 -107 39 -163q39 -61 106 -84v-494h-688v348h234v31q-69 40 -123 94q-59 56 -101 148q-41 90 -41 219z" />
    <glyph glyph-name="partialdiff" unicode="&#x2202;" horiz-adv-x="1456" 
d="M82 481q0 143 45 234q45 98 117 155q77 62 164 88q89 27 182 27q110 0 213 -41q99 -42 164 -119q-21 104 -93 179q-73 70 -182 120q-119 50 -243 78q-131 29 -281 51l-8 13l243 344q214 -27 406 -92q187 -64 336 -177q151 -120 229 -274q82 -163 82 -389q0 -232 -88 -387
q-90 -161 -250 -242q-166 -84 -385 -84q-183 0 -305 45q-124 43 -201 117q-74 71 -110 166q-35 93 -35 188zM600 485q0 -61 47 -96q46 -37 111 -37q74 0 116 31q36 29 52 78q12 47 12 96q-33 29 -78 47q-52 19 -104 19q-65 0 -109 -33q-47 -35 -47 -105z" />
    <glyph glyph-name="uni2206" unicode="&#x2206;" horiz-adv-x="1548" 
d="M377 1434h786l385 -1434h-1528zM913 414l-135 587h-18l-103 -587h256z" />
    <glyph glyph-name="product" unicode="&#x220f;" horiz-adv-x="1581" 
d="M205 1434h1376v-1659h-563v1089h-250v-1089h-563v1659z" />
    <glyph glyph-name="summation" unicode="&#x2211;" horiz-adv-x="1396" 
d="M139 1434h1254v-396h-559l333 -387v-35l-346 -448h596v-393h-1294v264l446 575l-467 539z" />
    <glyph glyph-name="minus" unicode="&#x2212;" 
d="M492 899h1146v-412h-1146v412z" />
    <glyph glyph-name="uni2215" unicode="&#x2215;" horiz-adv-x="966" 
d="M455 1518h512l-947 -1575h-512z" />
    <glyph glyph-name="uni2219" unicode="&#x2219;" horiz-adv-x="720" 
d="M266 799h455v-322h-455v322z" />
    <glyph glyph-name="radical" unicode="&#x221a;" 
d="M580 1012l256 -547l301 1010h491l-473 -1475h-553l-244 512l-184 -88l-158 313z" />
    <glyph glyph-name="infinity" unicode="&#x221e;" horiz-adv-x="1570" 
d="M123 659q0 178 94 279q93 100 242 100q132 0 231 -57q103 -59 187 -137q71 77 151 133q85 61 207 61q116 0 190 -51q72 -52 111 -137q35 -84 35 -184q0 -109 -37 -193q-41 -86 -113 -135q-74 -51 -186 -51q-132 0 -236 55q-103 55 -188 127q-67 -75 -164 -131
q-89 -51 -196 -51q-81 0 -158 41q-78 41 -123 121q-47 83 -47 210zM385 655q0 -47 25 -69q25 -25 82 -25q43 0 86 14q36 13 81 39q-53 54 -100 91q-45 36 -88 36q-86 0 -86 -86zM1022 705q52 -53 102 -87q46 -34 93 -34q94 0 94 92q0 88 -109 88q-34 0 -80 -12
q-53 -16 -100 -47z" />
    <glyph glyph-name="integral" unicode="&#x222b;" horiz-adv-x="1003" 
d="M119 127q110 -29 170 -29q46 0 69 23q21 21 21 59q0 23 -6 47l-148 695q-16 82 -16 147q0 114 45 203q43 91 139 147q97 54 256 54q87 0 170 -11q65 -12 119 -30l76 -355l-13 -8q-62 20 -98 25q-62 4 -80 4q-48 0 -71 -23q-21 -21 -21 -61q0 -21 6 -45l146 -680
q18 -83 18 -162q0 -116 -43 -203q-44 -92 -139 -145q-94 -55 -256 -55q-100 0 -168 12q-62 8 -113 28l-76 355z" />
    <glyph glyph-name="approxequal" unicode="&#x2248;" 
d="M446 1055q71 95 150 131q78 35 143 35q98 0 195 -23q23 -6 170 -49q86 -25 168 -25q64 0 114 27q51 28 103 80l135 -322q-72 -97 -147 -135q-75 -37 -144 -37q-98 0 -190 25q-53 14 -172 49q-90 23 -172 23q-69 0 -119 -29q-35 -21 -98 -76zM446 438q71 95 150 131
q78 35 143 35q102 0 195 -22q35 -9 96.5 -27.5t73.5 -22.5q82 -24 168 -24q64 0 114 27q53 29 103 79l135 -321q-72 -97 -147 -135q-75 -37 -144 -37q-101 0 -190 24q-2 1 -172 50q-86 22 -172 22q-69 0 -119 -29q-39 -22 -98 -75z" />
    <glyph glyph-name="notequal" unicode="&#x2260;" 
d="M492 547h1146v-402h-551l-108 -268h-242l111 268h-356v402zM492 1176h563l104 251h240l-105 -251h344v-402h-1146v402z" />
    <glyph glyph-name="lessequal" unicode="&#x2264;" 
d="M899 879l739 -134v-684h-1146v351h1136l-1136 243v449l1146 282v-344z" />
    <glyph glyph-name="greaterequal" unicode="&#x2265;" 
d="M492 745l739 134l-739 163v344l1146 -282v-449l-1136 -243h1136v-351h-1146v684z" />
    <glyph glyph-name="lozenge" unicode="&#x25ca;" 
d="M741 1434h496l403 -717l-401 -717h-496l-403 717zM991 387l170 330l-172 330l-172 -330z" />
    <glyph glyph-name="CR" horiz-adv-x="368" 
 />
    <glyph glyph-name="IJacute" horiz-adv-x="1794" 
d="M205 1434h563v-1434h-563v1434zM461 1864h528l-327 -328h-406zM913 485q60 -8 95 -10q62 -4 86 -4q73 0 116 37q41 35 41 127v799h564v-801q0 -124 -21 -244q-22 -124 -82 -217q-61 -98 -180 -156q-117 -57 -320 -57q-80 0 -129 8q-65 10 -92 17l-90 491zM1505 1864h529
l-328 -328h-406z" />
    <glyph glyph-name="i.loclTRK" horiz-adv-x="663" 
d="M143 1051h521v-1051h-521v1051zM156 1536h520v-307h-520v307z" />
    <glyph glyph-name="ijacute" horiz-adv-x="1327" 
d="M143 1051h521v-1051h-521v1051zM379 1536h518l-328 -340h-395zM807 1051h520v-1432l-520 -65v1497zM1040 1536h519l-328 -340h-395z" />
    <glyph glyph-name="a.alt" horiz-adv-x="1443" 
d="M102 528q0 155 45 260q43 104 115 170t158 93q89 28 170 28q84 0 172 -24q86 -26 164 -86l16 82h481v-1051h-491l-12 125q-56 -71 -144 -111q-87 -43 -198 -43q-86 0 -170 35q-86 36 -152 105q-71 71 -111 174q-43 104 -43 243zM635 545q0 -75 41 -119q40 -43 108 -43
t107 45q39 42 39 117t-39 117q-40 40 -107 40q-68 0 -108 -43q-41 -44 -41 -114z" />
    <glyph glyph-name="g.alt" horiz-adv-x="1449" 
d="M102 528q0 155 45 260q43 104 115 170t158 93q89 28 170 28q94 0 180 -24q84 -27 162 -86l16 82h482v-875q0 -210 -72 -369q-70 -157 -230 -245q-155 -88 -417 -88q-121 0 -219 16q-102 16 -160 35l-72 385l12 14q11 -2 74 -16q75 -17 121 -23q75 -10 131 -10
q158 0 240 64q82 61 82 182v45q-55 -70 -142 -111q-85 -43 -200 -43q-83 0 -172 29q-83 27 -152 90q-71 62 -111 160q-41 100 -41 237zM635 561q0 -70 41 -108q39 -39 108 -39q66 0 107 41q39 39 39 110q0 70 -39 103q-40 34 -107 34q-69 0 -108 -36q-41 -38 -41 -105z" />
    <glyph glyph-name="aacute.alt" horiz-adv-x="1443" 
d="M102 528q0 155 45 260q43 104 115 170t158 93q89 28 170 28q84 0 172 -24q86 -26 164 -86l16 82h481v-1051h-491l-12 125q-56 -71 -144 -111q-87 -43 -198 -43q-86 0 -170 35q-86 36 -152 105q-71 71 -111 174q-43 104 -43 243zM635 545q0 -75 41 -119q40 -43 108 -43
t107 45q39 42 39 117t-39 117q-40 40 -107 40q-68 0 -108 -43q-41 -44 -41 -114zM803 1536h518l-328 -340h-395z" />
    <glyph glyph-name="abreve.alt" horiz-adv-x="1443" 
d="M102 528q0 155 45 260q43 104 115 170t158 93q89 28 170 28q84 0 172 -24q86 -26 164 -86l16 82h481v-1051h-491l-12 125q-56 -71 -144 -111q-87 -43 -198 -43q-86 0 -170 35q-86 36 -152 105q-71 71 -111 174q-43 104 -43 243zM635 545q0 -75 41 -119q40 -43 108 -43
t107 45q39 42 39 117t-39 117q-40 40 -107 40q-68 0 -108 -43q-41 -44 -41 -114zM727 1536q6 -96 107 -96q98 0 104 96h311q-3 -176 -108 -264q-106 -92 -299 -92q-198 0 -310 92q-113 88 -116 264h311z" />
    <glyph glyph-name="acircumflex.alt" horiz-adv-x="1443" 
d="M102 528q0 155 45 260q43 104 115 170t158 93q89 28 170 28q84 0 172 -24q86 -26 164 -86l16 82h481v-1051h-491l-12 125q-56 -71 -144 -111q-87 -43 -198 -43q-86 0 -170 35q-86 36 -152 105q-71 71 -111 174q-43 104 -43 243zM635 545q0 -75 41 -119q40 -43 108 -43
t107 45q39 42 39 117t-39 117q-40 40 -107 40q-68 0 -108 -43q-41 -44 -41 -114zM575 1536h512l201 -340h-366l-91 121l-96 -121h-362z" />
    <glyph glyph-name="adieresis.alt" horiz-adv-x="1443" 
d="M102 528q0 155 45 260q43 104 115 170t158 93q89 28 170 28q84 0 172 -24q86 -26 164 -86l16 82h481v-1051h-491l-12 125q-56 -71 -144 -111q-87 -43 -198 -43q-86 0 -170 35q-86 36 -152 105q-71 71 -111 174q-43 104 -43 243zM635 545q0 -75 41 -119q40 -43 108 -43
t107 45q39 42 39 117t-39 117q-40 40 -107 40q-68 0 -108 -43q-41 -44 -41 -114zM373 1536h409v-319h-409v319zM877 1536h409v-319h-409v319z" />
    <glyph glyph-name="agrave.alt" horiz-adv-x="1443" 
d="M102 528q0 155 45 260q43 104 115 170t158 93q89 28 170 28q84 0 172 -24q86 -26 164 -86l16 82h481v-1051h-491l-12 125q-56 -71 -144 -111q-87 -43 -198 -43q-86 0 -170 35q-86 36 -152 105q-71 71 -111 174q-43 104 -43 243zM635 545q0 -75 41 -119q40 -43 108 -43
t107 45q39 42 39 117t-39 117q-40 40 -107 40q-68 0 -108 -43q-41 -44 -41 -114zM836 1536l206 -340h-395l-317 340h506z" />
    <glyph glyph-name="amacron.alt" horiz-adv-x="1443" 
d="M102 528q0 155 45 260q43 104 115 170t158 93q89 28 170 28q84 0 172 -24q86 -26 164 -86l16 82h481v-1051h-491l-12 125q-56 -71 -144 -111q-87 -43 -198 -43q-86 0 -170 35q-86 36 -152 105q-71 71 -111 174q-43 104 -43 243zM635 545q0 -75 41 -119q40 -43 108 -43
t107 45q39 42 39 117t-39 117q-40 40 -107 40q-68 0 -108 -43q-41 -44 -41 -114zM422 1511h815v-284h-815v284z" />
    <glyph glyph-name="aogonek.alt" horiz-adv-x="1443" 
d="M784 383q68 0 107 45q39 42 39 117t-39 117q-40 40 -107 40q-68 0 -108 -43q-41 -44 -41 -114q0 -75 41 -119q40 -43 108 -43zM942 1051h481v-1016v-35q-102 -40 -159 -80q-60 -42 -60 -92q0 -72 99 -72q29 0 53 6q18 3 53 13l6 -8l-72 -271q-33 -20 -88 -31
q-55 -14 -135 -14q-139 0 -217 60q-80 59 -80 170q0 93 70 172q67 77 237 147h-198l-12 125q-56 -71 -144 -111q-87 -43 -198 -43q-86 0 -170 35q-86 36 -152 105q-71 71 -111 174q-43 104 -43 243q0 155 45 260q43 104 115 170t158 93q89 28 170 28q84 0 172 -24
q86 -26 164 -86z" />
    <glyph glyph-name="aring.alt" horiz-adv-x="1443" 
d="M102 528q0 155 45 260q43 104 115 170t158 93q89 28 170 28q84 0 172 -24q86 -26 164 -86l16 82h481v-1051h-491l-12 125q-56 -71 -144 -111q-87 -43 -198 -43q-86 0 -170 35q-86 36 -152 105q-71 71 -111 174q-43 104 -43 243zM635 545q0 -75 41 -119q40 -43 108 -43
t107 45q39 42 39 117t-39 117q-40 40 -107 40q-68 0 -108 -43q-41 -44 -41 -114zM467 1413q0 113 88 180q91 66 283 66q178 0 266 -64t88 -180q0 -109 -88 -176q-89 -68 -266 -68q-192 0 -283 66q-88 64 -88 176zM762 1415q0 -29 22 -45t54 -16q33 0 55 16q20 14 20 45
q0 30 -20 47q-24 17 -55 17q-30 0 -54 -17q-22 -19 -22 -47z" />
    <glyph glyph-name="atilde.alt" horiz-adv-x="1443" 
d="M102 528q0 155 45 260q43 104 115 170t158 93q89 28 170 28q84 0 172 -24q86 -26 164 -86l16 82h481v-1051h-491l-12 125q-56 -71 -144 -111q-87 -43 -198 -43q-86 0 -170 35q-86 36 -152 105q-71 71 -111 174q-43 104 -43 243zM635 545q0 -75 41 -119q40 -43 108 -43
t107 45q39 42 39 117t-39 117q-40 40 -107 40q-68 0 -108 -43q-41 -44 -41 -114zM444 1200q-1 4 -1.5 11.5t-1 19.5t-1.5 22q-4 46 -4 52q0 132 56 194q54 60 151 60q64 0 117 -17q29 -11 78 -41q12 -9 43 -22q18 -9 41 -9q47 0 47 56v10q0 8 -2 12h243q1 -10 3.5 -27.5
t3.5 -23.5q2 -18 2 -51q0 -115 -52 -182q-52 -70 -166 -70q-59 0 -100 18q-24 9 -74 35q-20 14 -45 25q-23 10 -49 10q-47 0 -47 -57v-13q0 -8 2 -12h-244z" />
    <glyph glyph-name="gbreve.alt" horiz-adv-x="1449" 
d="M102 528q0 155 45 260q43 104 115 170t158 93q89 28 170 28q94 0 180 -24q84 -27 162 -86l16 82h482v-875q0 -210 -72 -369q-70 -157 -230 -245q-155 -88 -417 -88q-121 0 -219 16q-102 16 -160 35l-72 385l12 14q11 -2 74 -16q75 -17 121 -23q75 -10 131 -10
q158 0 240 64q82 61 82 182v45q-55 -70 -142 -111q-85 -43 -200 -43q-83 0 -172 29q-83 27 -152 90q-71 62 -111 160q-41 100 -41 237zM635 561q0 -70 41 -108q39 -39 108 -39q66 0 107 41q39 39 39 110q0 70 -39 103q-40 34 -107 34q-69 0 -108 -36q-41 -38 -41 -105z
M727 1536q6 -96 107 -96q98 0 104 96h311q-3 -176 -108 -264q-106 -92 -299 -92q-198 0 -310 92q-113 88 -116 264h311z" />
    <glyph glyph-name="gcircumflex.alt" horiz-adv-x="1449" 
d="M102 528q0 155 45 260q43 104 115 170t158 93q89 28 170 28q94 0 180 -24q84 -27 162 -86l16 82h482v-875q0 -210 -72 -369q-70 -157 -230 -245q-155 -88 -417 -88q-121 0 -219 16q-102 16 -160 35l-72 385l12 14q11 -2 74 -16q75 -17 121 -23q75 -10 131 -10
q158 0 240 64q82 61 82 182v45q-55 -70 -142 -111q-85 -43 -200 -43q-83 0 -172 29q-83 27 -152 90q-71 62 -111 160q-41 100 -41 237zM635 561q0 -70 41 -108q39 -39 108 -39q66 0 107 41q39 39 39 110q0 70 -39 103q-40 34 -107 34q-69 0 -108 -36q-41 -38 -41 -105z
M575 1536h512l201 -340h-366l-91 121l-96 -121h-362z" />
    <glyph glyph-name="uni0123.alt" horiz-adv-x="1449" 
d="M102 528q0 155 45 260q43 104 115 170t158 93q89 28 170 28q94 0 180 -24q84 -27 162 -86l16 82h482v-875q0 -210 -72 -369q-70 -157 -230 -245q-155 -88 -417 -88q-121 0 -219 16q-102 16 -160 35l-72 385l12 14q11 -2 74 -16q75 -17 121 -23q75 -10 131 -10
q158 0 240 64q82 61 82 182v45q-55 -70 -142 -111q-85 -43 -200 -43q-83 0 -172 29q-83 27 -152 90q-71 62 -111 160q-41 100 -41 237zM635 561q0 -70 41 -108q39 -39 108 -39q66 0 107 41q39 39 39 110q0 70 -39 103q-40 34 -107 34q-69 0 -108 -36q-41 -38 -41 -105z
M631 1395l80 254h223l-43 -193h135v-260h-395v199z" />
    <glyph glyph-name="gdotaccent.alt" horiz-adv-x="1449" 
d="M102 528q0 155 45 260q43 104 115 170t158 93q89 28 170 28q94 0 180 -24q84 -27 162 -86l16 82h482v-875q0 -210 -72 -369q-70 -157 -230 -245q-155 -88 -417 -88q-121 0 -219 16q-102 16 -160 35l-72 385l12 14q11 -2 74 -16q75 -17 121 -23q75 -10 131 -10
q158 0 240 64q82 61 82 182v45q-55 -70 -142 -111q-85 -43 -200 -43q-83 0 -172 29q-83 27 -152 90q-71 62 -111 160q-41 100 -41 237zM635 561q0 -70 41 -108q39 -39 108 -39q66 0 107 41q39 39 39 110q0 70 -39 103q-40 34 -107 34q-69 0 -108 -36q-41 -38 -41 -105z
M580 1536h520v-307h-520v307z" />
    <glyph glyph-name="commaaccentbelow" horiz-adv-x="1228" 
d="M823 -137h451v-281l-131 -221h-242l51 221h-129v281z" />
    <glyph glyph-name="caron.alt" horiz-adv-x="1228" 
d="M784 1536h424l-141 -528h-350z" />
    <glyph glyph-name="gravecomb.case" horiz-adv-x="1228" 
d="M745 1864l205 -328h-405l-328 328h528z" />
    <glyph glyph-name="acutecomb.case" horiz-adv-x="1228" 
d="M971 1864h528l-328 -328h-405z" />
    <glyph glyph-name="uni0302.case" horiz-adv-x="1228" 
d="M477 1864h553l201 -326h-387l-90 115l-97 -115h-383z" />
    <glyph glyph-name="tildecomb.case" horiz-adv-x="1228" 
d="M451 1536q-1 6 -5 53q-4 46 -4 51q0 133 56 195q53 59 151 59q67 0 117 -16q29 -11 78 -41q13 -9 43 -22q18 -9 41 -9q47 0 47 56v10q0 8 -2 12h244q3 -27 6 -51q2 -18 2 -51q0 -117 -51 -183q-51 -69 -166 -69q-60 0 -101 18q-20 8 -73 35q-18 13 -46 25q-23 10 -49 10
q-47 0 -47 -57v-13q0 -8 2 -12h-243z" />
    <glyph glyph-name="uni0304.case" horiz-adv-x="1228" 
d="M414 1821h815v-285h-815v285z" />
    <glyph glyph-name="uni0306.case" horiz-adv-x="1228" 
d="M694 1864q3 -35 31 -60q24 -24 76 -24q51 0 78 24q23 23 26 60h330q-9 -322 -426 -322q-213 0 -326 82q-115 80 -118 240h329z" />
    <glyph glyph-name="uni0307.case" horiz-adv-x="1228" 
d="M729 1843h520v-307h-520v307z" />
    <glyph glyph-name="uni0308.case" horiz-adv-x="1228" 
d="M315 1855h410v-319h-410v319zM819 1855h410v-319h-410v319z" />
    <glyph glyph-name="uni030A.case" horiz-adv-x="1228" 
d="M504 1743q0 113 88 180q91 66 282 66q179 0 267 -64t88 -180q0 -109 -88 -176q-89 -68 -267 -68q-191 0 -282 66q-88 64 -88 176zM799 1745q0 -29 22 -45q24 -17 53 -17q32 0 56 17q20 14 20 45q0 30 -20 47q-22 16 -56 16q-31 0 -53 -16q-22 -19 -22 -47z" />
    <glyph glyph-name="uni030B.case" horiz-adv-x="1226" 
d="M537 1864h395l-232 -328h-348zM1034 1864h451l-328 -328h-369z" />
    <glyph glyph-name="uni030C.case" horiz-adv-x="1228" 
d="M662 1864l90 -115l96 115h383l-203 -326h-553l-201 326h388z" />
    <glyph glyph-name="hyphen.case" horiz-adv-x="761" 
d="M205 885h557v-353h-557v353z" />
    <glyph glyph-name="at.case" horiz-adv-x="1855" 
d="M82 678q0 228 80 393q77 159 215 266q136 103 301 152t338 49q184 0 338 -43q157 -47 274 -133q119 -90 182 -219q66 -135 66 -303q0 -156 -61 -281q-67 -131 -195 -205q-133 -77 -342 -86l-78 162q-49 -68 -115 -117q-68 -51 -190 -51q-189 0 -303 117
q-115 115 -115 311q0 138 55 236q53 96 146 149q89 53 203 53q118 0 188 -49q69 -48 96 -104v131h303v-504l62 -123q69 46 123 127q49 76 49 221q0 147 -60 258q-63 108 -161 170q-106 67 -224 93q-128 28 -245 28q-150 0 -277 -39q-127 -38 -241 -125q-105 -83 -168 -215
q-64 -131 -64 -313q0 -222 94 -371q90 -147 256 -225q167 -78 377 -78q111 0 219 21q98 19 193 49q88 29 131 51l47 -156q-56 -32 -152 -61q-104 -30 -215 -51q-117 -21 -223 -21q-181 0 -346 47q-160 45 -289 150q-129 104 -198 260q-74 157 -74 379zM786 690
q0 -89 56 -139q51 -51 133 -51q65 0 106 30q39 28 54 74q16 46 16 86v25q0 78 -45 129q-46 49 -131 49q-83 0 -135 -49q-54 -54 -54 -154z" />
    <glyph glyph-name="exclamdown.case" horiz-adv-x="684" 
d="M684 0h-520v455l61 487h398l61 -487v-455zM649 1112h-454v322h454v-322z" />
    <glyph glyph-name="questiondown.case" horiz-adv-x="1126" 
d="M1133 119q-124 -72 -275 -117q-148 -43 -295 -43q-249 0 -373 100q-129 99 -129 273q0 115 37 188q38 74 90 123q32 30 107 88q56 43 90 80q37 40 37 98v95h438v-201q0 -78 -26 -131q-23 -47 -70 -94q-38 -35 -84 -66q-22 -14 -70 -51q-28 -25 -28 -47q0 -37 59 -37
q41 0 107 16q53 14 120 43q60 26 109 58zM866 1112h-454v322h454v-322z" />
    <glyph glyph-name="zero.tf" 
d="M229 723q0 222 88 391t248 264q160 97 367 97q211 0 368 -95q160 -97 248 -266t88 -391q0 -220 -88 -389t-248 -266t-368 -97q-207 0 -367 97q-158 94 -248 266q-88 169 -88 389zM758 723q0 -120 45 -182q44 -68 131 -68q86 0 133 68q43 67 43 182q0 117 -43 184
q-48 66 -133 66q-87 0 -131 -68q-45 -65 -45 -182z" />
    <glyph glyph-name="one.tf" 
d="M479 414h357v409q-83 -29 -164 -43q-103 -17 -185 -20v422q210 18 338 75q131 58 219 177h357v-1020h346v-414h-1268v414z" />
    <glyph glyph-name="two.tf" 
d="M180 971q21 151 121 266q90 109 256 176q155 64 365 64q172 0 323 -54q152 -59 236 -161q88 -107 88 -263q0 -110 -43 -200q-44 -96 -133 -185q-90 -87 -238 -192h453v-420h-1383v61l467 418q164 146 250 244q80 89 80 154q0 58 -53 96q-52 37 -140 37q-91 0 -149 -43
q-61 -49 -70 -123z" />
    <glyph glyph-name="three.tf" 
d="M348 528q100 -52 219 -82q109 -32 211 -32q151 0 213 41q60 42 60 90q0 64 -52 94q-54 31 -137 31q-31 0 -88 -13q-51 -12 -112 -49l-99 66l250 332l-573 4l69 426h1278v-64l-381 -530q184 -42 275 -140q96 -104 96 -239q0 -125 -59 -217q-62 -96 -168 -156
q-106 -63 -248 -94q-135 -33 -301 -33q-220 0 -400 60q-180 59 -286 165z" />
    <glyph glyph-name="four.tf" 
d="M152 649l786 787h510v-787h215v-409h-215v-240h-510v240h-786v409zM938 649v305l-313 -305h313z" />
    <glyph glyph-name="five.tf" 
d="M328 532q44 -30 114 -57q76 -29 150 -43q85 -16 149 -16q121 0 195 26q76 27 76 93q0 68 -78 106q-81 35 -195 35q-89 0 -190 -14q-105 -15 -189 -62l-98 45l148 789h1075v-404h-707l-24 -112q13 1 41 4t43 4q27 2 86 2q173 0 321 -54q146 -58 225 -155q82 -101 82 -248
q0 -145 -86 -260q-89 -118 -258 -182q-177 -66 -424 -66q-114 0 -252 25q-137 21 -258 73q-118 48 -204 127z" />
    <glyph glyph-name="six.tf" 
d="M193 676q0 387 213 594q211 205 616 205q86 0 215 -17q95 -13 211 -47q102 -30 172 -76l-147 -372q-245 71 -412 71q-162 0 -244 -67q-83 -71 -110 -215h4q38 66 106 102q63 35 141 51q74 15 123 15q167 0 297 -54q132 -58 199 -155q72 -104 72 -240q0 -152 -90 -268
q-87 -112 -244 -178q-155 -64 -348 -64q-373 0 -572 184q-202 184 -202 531zM784 487q0 -59 54 -94q52 -37 127 -37q69 0 122 35q52 34 52 96q0 63 -52 97q-49 32 -122 32q-78 0 -127 -32q-54 -35 -54 -97z" />
    <glyph glyph-name="seven.tf" 
d="M352 1436h1403v-62l-612 -1374h-672l524 948h-733z" />
    <glyph glyph-name="eight.tf" 
d="M156 373q0 112 45 186q48 78 123 127q81 49 170 66q-104 38 -175 118q-75 78 -75 183q0 121 78 217q77 95 231 151t379 56q187 0 323 -43q144 -49 218 -134q77 -89 77 -225q0 -69 -34 -133q-35 -65 -91 -115q-57 -48 -127 -75q96 -16 170 -58q76 -44 123 -114
q47 -74 47 -181q0 -131 -88 -229q-89 -100 -252 -152q-165 -55 -401 -55q-353 0 -547 111t-194 299zM700 459q0 -45 50 -72q49 -27 147 -27q96 0 145 27q50 27 50 72q0 54 -45 80t-150 26q-99 0 -147 -28q-50 -27 -50 -78zM739 979q0 -92 158 -92q77 0 117 24q41 24 41 68
q0 47 -41 74q-42 26 -117 26q-71 0 -113 -26q-45 -26 -45 -74z" />
    <glyph glyph-name="nine.tf" 
d="M168 981q0 154 90 270q85 109 246 176q152 64 346 64q371 0 573 -184q201 -186 201 -531q0 -389 -211 -594t-616 -205q-87 0 -213 17q-112 15 -213 49q-103 30 -174 74l149 372q101 -30 217 -51q97 -20 193 -20q161 0 243 67q84 69 111 215h-4q-33 -62 -102 -100
q-63 -35 -142 -51q-83 -17 -127 -17q-168 0 -295 56q-131 53 -200 153q-72 104 -72 240zM680 965q0 -61 51 -95q52 -34 121 -34q77 0 129 34q53 35 53 95q0 61 -53 96q-56 35 -129 35q-68 0 -121 -35q-51 -36 -51 -96z" />
    <glyph glyph-name="cent.tf" 
d="M573 705q0 217 127 362q124 139 334 180v350h211v-335q145 -9 248 -56q98 -46 139 -84l-174 -338q-43 43 -84 64q-49 22 -110 22q-76 0 -119 -43t-43 -114q0 -70 47 -117t127 -47q70 0 119 37q44 31 75 65l207 -309q-61 -68 -174 -121q-116 -54 -258 -63v-320h-211v332
q-220 41 -340 182q-121 142 -121 353z" />
    <glyph glyph-name="dollar.tf" 
d="M520 580q112 -51 228 -76q135 -29 229 -29q88 0 88 49q0 24 -31 39q-37 13 -133 27q-240 37 -350 127q-111 89 -111 254q0 291 267 393v233h211v-188q14 2 43 2h40h37q23 0 35 -2v188h211v-217q71 -13 152 -41q68 -23 127 -55l-160 -391q-80 42 -180 68q-104 26 -201 26
q-78 0 -78 -45q0 -22 33 -33q34 -14 125 -28q241 -39 360 -138q111 -94 111 -268q0 -152 -74 -258q-73 -104 -213 -151v-228h-211v187q-12 -2 -37 -2h-39h-38q-27 0 -41 2v-187h-211v215q-178 38 -324 113z" />
    <glyph glyph-name="Euro.tf" 
d="M147 868h162q30 190 131 326q104 138 262 209q167 72 375 72q179 0 322 -52q148 -54 241 -141l-233 -319q-93 100 -231 100q-109 0 -183 -53q-75 -51 -106 -150h561l-66 -272h-499q27 -98 102 -152q73 -55 182 -55q140 0 226 86l270 -268q-215 -240 -594 -240
q-200 0 -367 78q-161 75 -264 215q-105 142 -131 323h-229z" />
    <glyph glyph-name="florin.tf" 
d="M389 -96q40 -11 100 -23q52 -10 86 -10q59 0 80 27q22 29 31 102l45 426h-188l51 410h180l25 237q27 265 143 387q113 119 332 119q157 0 260 -41l92 -358l-12 -9q-65 19 -98 25q-44 8 -89 8q-58 0 -79 -24q-22 -28 -31 -105l-25 -239h217l-51 -410h-209l-45 -424
q-27 -265 -141 -385q-115 -121 -334 -121q-157 0 -260 41l-92 359z" />
    <glyph glyph-name="uni20BA.tf" 
d="M86 659l172 72v107l-172 -72v250l172 71v347l557 41v-154l203 84v-250l-203 -84v-106l203 84v-250l-203 -84v-258q146 53 221 159q73 107 94 222l502 -50q-51 -284 -207 -462q-157 -176 -403 -252q-254 -78 -584 -78q-55 0 -82 2q-59 0 -98 2v481l-172 -71v249z" />
    <glyph glyph-name="sterling.tf" 
d="M-94 244q0 120 51 186q53 68 125 94q73 27 145 27h25q17 0 27 -2q1 8 2 24.5t2 24.5q1 7 2 24t2 25h-232l45 227h203l2 21q21 285 205 434q184 146 469 146q152 0 291 -45q144 -47 260 -152l-223 -326q-60 48 -136 84q-75 35 -174 35q-93 0 -137 -41q-46 -40 -55 -156
h364l-45 -227h-336q-9 -115 -10 -133q-8 -78 -10 -104q94 -36 137 -50q68 -22 129 -22q74 0 109 27q35 24 47 79q13 58 16 136h350q-18 -297 -129 -461q-113 -162 -364 -162q-131 0 -238 43q-115 42 -207 96q-75 -63 -184 -98q-107 -37 -215 -37q-134 0 -223 74
q-90 72 -90 209zM109 231q0 -71 67 -71q50 0 64 39q13 45 16 102q-42 10 -68 10q-79 0 -79 -80z" />
    <glyph glyph-name="yen.tf" 
d="M670 1434l182 -490h12l199 490h594l-404 -627h238l-64 -232h-319v-90h383l-64 -231h-319v-254h-522v254h-416l63 231h353v90h-416l63 232h205l-397 627h629z" />
    </font>
</defs>
</svg>
