<?xml version="1.0" standalone="no"?>
<!DOCTYPE svg PUBLIC "-//W3C//DTD SVG 1.1//EN" "http://www.w3.org/Graphics/SVG/1.1/DTD/svg11.dtd" >
<svg xmlns="http://www.w3.org/2000/svg" xmlns:xlink="http://www.w3.org/1999/xlink" version="1.1">
<metadata>
Created by FontForge 20170731 at Thu Mar  2 16:50:45 2023
 By Aleksey,,,
Copyright (c) 2011 by Wolfgang Homola, distributed by TypeTogether. All rights reserved.
</metadata>
<defs>
<font id="Soleil-Book" horiz-adv-x="1126" >
  <font-face 
    font-family="Soleil Bk"
    font-weight="400"
    font-stretch="normal"
    units-per-em="2048"
    panose-1="2 0 5 3 0 0 0 2 0 4"
    ascent="1536"
    descent="-512"
    x-height="1036"
    cap-height="1434"
    bbox="-430 -668 2609 2267"
    underline-thickness="102"
    underline-position="-307"
    unicode-range="U+000D-FB04"
  />
<missing-glyph 
d="M618 266h-135v142h135v-142zM117 1362h895v-1362h-895v1362zM240 1241v-1122h647v1122h-647zM614 512h-125v186q42 14 67.5 25.5t54.5 30.5t43 46t14 62q0 45 -30.5 77t-80.5 32q-51 0 -81 -32t-30 -87v-12h-116v8q0 99 65.5 163t161.5 64q98 0 163.5 -65t65.5 -144
q0 -41 -10.5 -75t-26 -57t-40 -43.5t-45.5 -32.5t-50 -25v-121z" />
    <glyph glyph-name="ff" unicode="ff" horiz-adv-x="1400" 
d="M766 1511l-61 -172q-64 31 -136 31q-69 0 -110 -33q-28 -26 -37.5 -70t-9.5 -116v-115h233v-182h-233v-854h-211v854h-117v182h117v133q0 176 67 273q83 119 281 119q108 0 217 -50zM1466 1511l-61 -172q-64 31 -135 31q-70 0 -111 -33q-28 -26 -37.5 -70t-9.5 -116v-115
h277v-182h-277v-854h-211v854h-117v182h117v133q0 175 68 273q83 119 280 119q108 0 217 -50z" />
    <glyph glyph-name="fi" unicode="fi" horiz-adv-x="1239" 
d="M709 1534l-33 -180q-53 16 -107 16q-69 0 -110 -33q-28 -26 -37.5 -70t-9.5 -116v-115h276v-182h-276v-854h-211v854h-117v182h117v133q0 176 67 273q83 119 281 119q74 0 160 -27zM1075 0h-211v1036h211v-1036zM1075 1225h-211v219h211v-219z" />
    <glyph glyph-name="fl" unicode="fl" horiz-adv-x="1241" 
d="M709 1534l-33 -180q-53 16 -107 16q-69 0 -110 -33q-28 -26 -37.5 -70t-9.5 -116v-115h276v-182h-276v-854h-211v854h-117v182h117v133q0 176 67 273q83 119 281 119q74 0 160 -27zM1075 1536v-1536h-211v1536h211z" />
    <glyph glyph-name="ffi" unicode="ffi" horiz-adv-x="1941" 
d="M1409 1534l-33 -180q-53 16 -106 16q-70 0 -111 -33q-28 -26 -37.5 -70t-9.5 -116v-115h277v-182h-277v-854h-211v854h-117v182h117v133q0 175 68 273q83 119 280 119q74 0 160 -27zM766 1511l-61 -172q-64 31 -136 31q-69 0 -110 -33q-28 -26 -37.5 -70t-9.5 -116v-115
h233v-182h-233v-854h-211v854h-117v182h117v133q0 176 67 273q83 119 281 119q108 0 217 -50zM1778 0h-211v1036h211v-1036zM1778 1225h-211v219h211v-219z" />
    <glyph glyph-name="ffl" unicode="ffl" horiz-adv-x="1939" 
d="M1409 1534l-33 -180q-53 16 -106 16q-70 0 -111 -33q-28 -26 -37.5 -70t-9.5 -116v-115h277v-182h-277v-854h-211v854h-117v182h117v133q0 175 68 273q83 119 280 119q74 0 160 -27zM766 1511l-61 -172q-64 31 -136 31q-69 0 -110 -33q-28 -26 -37.5 -70t-9.5 -116v-115
h233v-182h-233v-854h-211v854h-117v182h117v133q0 176 67 273q83 119 281 119q108 0 217 -50zM1776 1536v-1536h-211v1536h211z" />
    <glyph glyph-name="f_k" unicode="fk" horiz-adv-x="1773" 
d="M709 1534l-33 -180q-53 16 -107 16q-69 0 -110 -33q-28 -26 -37.5 -70t-9.5 -116v-115h276v-182h-276v-854h-211v854h-117v182h117v133q0 176 67 273q83 119 281 119q74 0 160 -27zM1075 1536v-995l4 -2l400 497h254l-367 -426l397 -610h-254l-282 446l-152 -176v-270
h-211v1536h211z" />
    <glyph glyph-name="f_b" unicode="fb" horiz-adv-x="1990" 
d="M709 1534l-33 -180q-53 16 -107 16q-69 0 -110 -33q-28 -26 -37.5 -70t-9.5 -116v-115h276v-182h-276v-854h-211v854h-117v182h117v133q0 176 67 273q83 119 281 119q74 0 160 -27zM864 1536h211v-633q54 75 143.5 116.5t182.5 41.5q144 0 260.5 -73t182 -197.5
t65.5 -274.5q0 -140 -63 -263t-182 -200.5t-267 -77.5q-91 0 -179 37.5t-149 104.5l-4 -117h-201v1536zM1075 686v-371q51 -71 129 -110t158 -39q81 0 146 31t104.5 82.5t60.5 113t21 127.5q0 144 -90.5 247t-237.5 103q-86 0 -169.5 -48.5t-121.5 -135.5z" />
    <glyph glyph-name="f_h" unicode="fh" horiz-adv-x="1947" 
d="M709 1534l-33 -180q-53 16 -107 16q-69 0 -110 -33q-28 -26 -37.5 -70t-9.5 -116v-115h276v-182h-276v-854h-211v854h-117v182h117v133q0 176 67 273q83 119 281 119q74 0 160 -27zM1075 1536v-659q58 87 145.5 135.5t186.5 48.5q198 0 295 -131q92 -125 92 -391v-539
h-211v520q0 193 -49 271q-50 79 -170 79q-82 0 -159.5 -50.5t-129.5 -133.5v-686h-211v1536h211z" />
    <glyph glyph-name="f_t" unicode="ft" horiz-adv-x="1425" 
d="M766 1511l-61 -172q-64 31 -136 31q-69 0 -110 -33q-28 -26 -37.5 -70t-9.5 -116v-115h250v-182h-250v-854h-211v854h-117v182h117v133q0 176 67 273q83 119 281 119q108 0 217 -50zM1372 854h-285v-451q0 -35 3 -81q5 -78 35 -117t96 -39q56 0 116 29l62 -166
q-87 -49 -207 -49q-109 0 -181 47t-104 129q-30 74 -30 204v494h-115v182h115l10 244h200v-244h285v-182z" />
    <glyph glyph-name="f_j" unicode="fj" horiz-adv-x="1257" 
d="M709 1534l-33 -180q-53 16 -107 16q-69 0 -110 -33q-28 -26 -37.5 -70t-9.5 -116v-115h276v-182h-276v-854h-211v854h-117v182h117v133q0 176 67 273q83 119 281 119q74 0 160 -27zM1092 1225h-211v219h211v-219zM1092 1036v-1124q0 -138 -37 -213q-72 -158 -281 -158
q-119 0 -205 45l60 170q54 -28 116 -28q36 0 62 11.5t40 29.5t22 48t10 58t2 70v1091h211z" />
    <glyph glyph-name="f_f_j" unicode="ffj" horiz-adv-x="1957" 
d="M1409 1534l-33 -180q-53 16 -106 16q-70 0 -111 -33q-28 -26 -37.5 -70t-9.5 -116v-115h277v-182h-277v-854h-211v854h-117v182h117v133q0 175 68 273q83 119 280 119q74 0 160 -27zM766 1511l-61 -172q-64 31 -136 31q-69 0 -110 -33q-28 -26 -37.5 -70t-9.5 -116v-115
h233v-182h-233v-854h-211v854h-117v182h117v133q0 176 67 273q83 119 281 119q108 0 217 -50zM1792 1225h-211v219h211v-219zM1792 1036v-1124q0 -138 -37 -213q-72 -158 -280 -158q-119 0 -205 45l59 170q54 -28 117 -28q36 0 61.5 11.5t40 29t22 48.5t9.5 58.5t2 69.5
v1091h211z" />
    <glyph glyph-name="f_f_k" unicode="ffk" horiz-adv-x="2473" 
d="M1409 1534l-33 -180q-53 16 -106 16q-70 0 -111 -33q-28 -26 -37.5 -70t-9.5 -116v-115h277v-182h-277v-854h-211v854h-117v182h117v133q0 175 68 273q83 119 280 119q74 0 160 -27zM766 1511l-61 -172q-64 31 -136 31q-69 0 -110 -33q-28 -26 -37.5 -70t-9.5 -116v-115
h233v-182h-233v-854h-211v854h-117v182h117v133q0 176 67 273q83 119 281 119q108 0 217 -50zM1776 1536v-995l4 -2l399 497h254l-367 -426l398 -610h-254l-283 446l-151 -176v-270h-211v1536h211z" />
    <glyph glyph-name="f_f_b" unicode="ffb" horiz-adv-x="2691" 
d="M1409 1534l-33 -180q-53 16 -106 16q-70 0 -111 -33q-28 -26 -37.5 -70t-9.5 -116v-115h277v-182h-277v-854h-211v854h-117v182h117v133q0 175 68 273q83 119 280 119q74 0 160 -27zM766 1511l-61 -172q-64 31 -136 31q-69 0 -110 -33q-28 -26 -37.5 -70t-9.5 -116v-115
h233v-182h-233v-854h-211v854h-117v182h117v133q0 176 67 273q83 119 281 119q108 0 217 -50zM1565 1536h211v-633q54 75 143 116.5t182 41.5q144 0 260.5 -73t182 -197.5t65.5 -274.5q0 -140 -63 -263t-182 -200.5t-267 -77.5q-91 0 -179 37.5t-149 104.5l-4 -117h-200
v1536zM1776 686v-371q51 -71 128.5 -110t157.5 -39q81 0 146 31t104.5 82.5t60.5 113t21 127.5q0 144 -90.5 247t-237.5 103q-86 0 -169 -48.5t-121 -135.5z" />
    <glyph glyph-name="f_f_h" unicode="ffh" horiz-adv-x="2648" 
d="M1409 1534l-33 -180q-53 16 -106 16q-70 0 -111 -33q-28 -26 -37.5 -70t-9.5 -116v-115h277v-182h-277v-854h-211v854h-117v182h117v133q0 175 68 273q83 119 280 119q74 0 160 -27zM766 1511l-61 -172q-64 31 -136 31q-69 0 -110 -33q-28 -26 -37.5 -70t-9.5 -116v-115
h233v-182h-233v-854h-211v854h-117v182h117v133q0 176 67 273q83 119 281 119q108 0 217 -50zM1776 1536v-659q58 88 145 136t186 48q198 0 295 -131q92 -125 92 -391v-539h-210v520q0 191 -50 271q-50 79 -170 79q-82 0 -159 -50.5t-129 -133.5v-686h-211v1536h211z" />
    <glyph glyph-name="f_f_t" unicode="fft" horiz-adv-x="2125" 
d="M766 1511l-61 -172q-64 31 -136 31q-69 0 -110 -33q-28 -26 -37.5 -70t-9.5 -116v-115h233v-182h-233v-854h-211v854h-117v182h117v133q0 176 67 273q83 119 281 119q108 0 217 -50zM1466 1511l-61 -172q-64 31 -135 31q-70 0 -111 -33q-28 -26 -37.5 -70t-9.5 -116v-115
h248v-182h-248v-854h-211v854h-117v182h117v133q0 175 68 273q83 119 280 119q108 0 217 -50zM2073 854h-285v-451q0 -50 2 -81q5 -78 35 -117t96 -39q57 0 117 29l61 -166q-87 -49 -207 -49q-109 0 -180.5 46.5t-103.5 129.5q-31 77 -31 204v494h-115v182h115l10 244h201
v-244h285v-182z" />
    <glyph glyph-name="f_iacute" unicode="f&#xed;" horiz-adv-x="1241" 
d="M1077 0h-211v1036h211v-1036zM1282 1507l-293 -344l-131 105l272 358zM766 1511l-61 -172q-64 31 -136 31q-69 0 -110 -33q-28 -26 -37.5 -70t-9.5 -116v-115h276v-182h-276v-854h-211v854h-117v182h117v133q0 176 67 273q83 119 281 119q108 0 217 -50z" />
    <glyph glyph-name="t_t" unicode="tt" horiz-adv-x="1449" 
d="M672 854h-285v-451q0 -50 2 -81q5 -78 35 -117t96 -39q57 0 117 29l61 -166q-87 -49 -206 -49q-109 0 -181 47t-104 129q-31 77 -31 204v494h-135v182h135l10 244h201v-244h285v-182zM1397 854h-285v-451q0 -50 2 -81q5 -78 35 -117t96 -39q57 0 117 29l61 -166
q-87 -49 -206 -49q-109 0 -181 47t-104 129q-31 77 -31 204v494h-135v182h135l10 244h201v-244h285v-182z" />
    <glyph glyph-name=".notdef" 
d="M618 266h-135v142h135v-142zM117 1362h895v-1362h-895v1362zM240 1241v-1122h647v1122h-647zM614 512h-125v186q42 14 67.5 25.5t54.5 30.5t43 46t14 62q0 45 -30.5 77t-80.5 32q-51 0 -81 -32t-30 -87v-12h-116v8q0 99 65.5 163t161.5 64q98 0 163.5 -65t65.5 -144
q0 -41 -10.5 -75t-26 -57t-40 -43.5t-45.5 -32.5t-50 -25v-121z" />
    <glyph glyph-name=".null" horiz-adv-x="0" 
 />
    <glyph glyph-name="nonmarkingreturn" horiz-adv-x="682" 
 />
    <glyph glyph-name="CR" unicode="&#xd;" horiz-adv-x="1024" 
 />
    <glyph glyph-name="space" unicode=" " horiz-adv-x="512" 
 />
    <glyph glyph-name="exclam" unicode="!" horiz-adv-x="653" 
d="M451 1434v-234l-21 -756h-205l-22 756v234h248zM446 0h-239v254h239v-254z" />
    <glyph glyph-name="quotedbl" unicode="&#x22;" horiz-adv-x="991" 
d="M365 879h-189l-20 555h227zM815 879h-188l-21 555h228z" />
    <glyph glyph-name="numbersign" unicode="#" horiz-adv-x="1413" 
d="M109 539h253l52 284h-172v162h198l68 377h180l-67 -377h266l67 377h181l-68 -377h238v-162h-267l-51 -284h184v-164h-210l-66 -375h-180l65 375h-266l-65 -375h-179l64 375h-225v164zM594 823l-51 -284h264l51 284h-264z" />
    <glyph glyph-name="dollar" unicode="$" 
d="M51 186l146 138q164 -164 344 -164q118 0 199 56t81 167q0 26 -5.5 48.5t-19.5 42t-26.5 34.5t-38 30.5t-42 25.5t-50.5 23.5t-52 20.5t-57.5 21t-56.5 20q-58 21 -100 40.5t-89 51t-76.5 68.5t-49 91t-19.5 120q0 153 103.5 250.5t267.5 111.5v195h141v-199
q172 -20 340 -137l-129 -154q-126 113 -295 113q-54 0 -102.5 -17.5t-83.5 -59.5t-35 -101q0 -24 8.5 -45t20.5 -37t35.5 -32.5t42.5 -27t53.5 -25t56.5 -22.5t64 -22.5t63 -22.5q61 -23 104 -43.5t92.5 -54t80 -71.5t51 -94.5t20.5 -123.5q0 -175 -112.5 -283.5
t-286.5 -133.5v-201h-139v194q-239 8 -449 209z" />
    <glyph glyph-name="percent" unicode="%" horiz-adv-x="1742" 
d="M449 1446q140 0 237.5 -96.5t97.5 -235.5t-97.5 -235.5t-237.5 -96.5t-238 96.5t-98 235.5t98 235.5t238 96.5zM449 1286q-71 0 -117.5 -48.5t-46.5 -123.5t46.5 -123.5t117.5 -48.5t117 48.5t46 123.5t-46 123.5t-117 48.5zM1325 1460l119 -88l-1018 -1399l-121 88z
M1294 651q140 0 238 -96.5t98 -235.5t-98 -235t-238 -96t-238 96t-98 235t98 235.5t238 96.5zM1294 492q-71 0 -117.5 -49t-46.5 -124t46.5 -123.5t117.5 -48.5t117.5 48.5t46.5 123.5t-46.5 124t-117.5 49z" />
    <glyph glyph-name="ampersand" unicode="&#x26;" horiz-adv-x="1398" 
d="M1427 100l-124 -141l-252 223q-77 -104 -192.5 -155.5t-250.5 -51.5q-127 0 -238.5 61.5t-178 165.5t-66.5 222q0 122 64 222.5t173 160.5q-133 147 -133 295q0 102 61 185.5t154.5 127t196.5 43.5q138 0 241 -72t138 -198l-195 -55q-17 67 -67.5 102t-124.5 35
q-83 0 -139 -49.5t-56 -126.5q0 -72 50 -137t169 -171l-122 -143l-39 35q-74 -36 -117 -101.5t-43 -148.5q0 -110 86 -187t205 -77q179 0 282 143l-161 146l124 143z" />
    <glyph glyph-name="quotesingle" unicode="'" horiz-adv-x="540" 
d="M365 879h-189l-20 555h227z" />
    <glyph glyph-name="parenleft" unicode="(" horiz-adv-x="720" 
d="M733 -207l-84 -149q-555 335 -555 981q0 179 41.5 331.5t119.5 271t173.5 209t218.5 167.5l88 -150q-90 -59 -162.5 -133t-134 -174.5t-95.5 -233.5t-34 -288q0 -156 33.5 -289.5t93.5 -234.5t133.5 -176t163.5 -132z" />
    <glyph glyph-name="parenright" unicode=")" horiz-adv-x="720" 
d="M627 625q0 -646 -555 -981l-84 149q90 57 163.5 132t133.5 176t93.5 234.5t33.5 289.5q0 155 -34 288t-95.5 233.5t-134 174.5t-162.5 133l88 150q123 -77 218.5 -167.5t173.5 -209t119.5 -271t41.5 -331.5z" />
    <glyph glyph-name="asterisk" unicode="*" horiz-adv-x="1011" 
d="M874 1118l-247 -55l176 -195l-160 -114l-137 233l-137 -233l-160 114l174 195l-246 55l60 187l237 -105l-26 258h196l-24 -258l235 105z" />
    <glyph glyph-name="plus" unicode="+" 
d="M653 1149v-422h422v-180h-422v-422h-180v422h-422v180h422v422h180z" />
    <glyph glyph-name="comma" unicode="," horiz-adv-x="512" 
d="M373 254l-140 -524h-200l106 524h234z" />
    <glyph glyph-name="hyphen" unicode="-" horiz-adv-x="935" 
d="M739 483h-542v187h542v-187z" />
    <glyph glyph-name="period" unicode="." horiz-adv-x="512" 
d="M375 0h-240v254h240v-254z" />
    <glyph glyph-name="slash" unicode="/" horiz-adv-x="768" 
d="M768 1497l-596 -1610l-172 66l596 1610z" />
    <glyph glyph-name="zero" unicode="0" horiz-adv-x="1132" 
d="M565 1384q233 0 361.5 -187t128.5 -517t-128.5 -517.5t-361.5 -187.5q-231 0 -359 187.5t-128 517.5q0 329 127.5 516.5t359.5 187.5zM565 1192q-128 0 -197 -129t-69 -383q0 -253 69 -382.5t197 -129.5q129 0 199 129.5t70 382.5q0 254 -69.5 383t-199.5 129z" />
    <glyph glyph-name="one" unicode="1" horiz-adv-x="712" 
d="M526 0h-217v1104q-37 -20 -119 -55l-81 -35v200q129 64 276 146h141v-1360z" />
    <glyph glyph-name="two" unicode="2" horiz-adv-x="1050" 
d="M993 188v-188h-876v184q324 341 475 559q119 175 119 277q0 81 -61 128.5t-144 47.5q-84 0 -142.5 -58.5t-58.5 -148.5l-215 41q12 155 138 254.5t284 99.5q110 0 205 -43.5t155 -128t60 -192.5q0 -170 -144 -375q-142 -201 -380 -457h585z" />
    <glyph glyph-name="three" unicode="3" horiz-adv-x="1071" 
d="M326 592v207q125 3 186 18q78 22 125 74t47 121q0 78 -59.5 130t-153.5 52q-74 0 -131 -37.5t-78 -105.5l-184 75q42 118 148.5 188t248.5 70q188 0 309 -99.5t121 -264.5q0 -90 -46.5 -169t-123.5 -120q105 -37 170.5 -128.5t65.5 -207.5q0 -192 -133 -306t-330 -114
q-139 0 -260 62.5t-180 179.5l174 92q38 -71 105.5 -107t150.5 -36q106 0 180 56.5t74 160.5q0 98 -80.5 160.5t-200.5 62.5q-79 0 -145 -14z" />
    <glyph glyph-name="four" unicode="4" horiz-adv-x="1110" 
d="M868 0h-213v340h-604v215q154 200 596 805h221v-832h201v-188h-201v-340zM281 528h374v537q-232 -343 -374 -537z" />
    <glyph glyph-name="five" unicode="5" horiz-adv-x="1030" 
d="M899 1360v-189h-506q-13 -262 -24 -358q81 37 190 37q171 0 291.5 -121t120.5 -295q0 -197 -131 -328t-330 -131q-135 0 -258 65t-180 173l174 94q37 -70 101.5 -105.5t141.5 -35.5q119 0 190 74t71 184q0 105 -71.5 171.5t-184.5 66.5q-123 0 -201 -84l-152 88
q23 232 47 694h711z" />
    <glyph glyph-name="six" unicode="6" horiz-adv-x="1103" 
d="M760 1440l84 -187q-202 -90 -332 -208t-182 -293q114 114 288 114q178 0 293 -126.5t115 -309.5q0 -194 -125 -324.5t-317 -130.5q-115 0 -212 45t-160.5 121t-98.5 174.5t-35 206.5q0 159 53.5 305t148 261.5t216.5 204.5t264 147zM297 520q0 -56 9 -107t29.5 -97
t51 -79.5t77 -53t103.5 -19.5q108 0 174 76t66 188q0 111 -65.5 180.5t-170.5 69.5q-85 0 -160 -42.5t-114 -115.5z" />
    <glyph glyph-name="seven" unicode="7" horiz-adv-x="937" 
d="M899 1360v-150q-126 -262 -289 -627t-274 -632l-199 88q82 193 177.5 401t214 455t130.5 272h-639v193h879z" />
    <glyph glyph-name="eight" unicode="8" horiz-adv-x="1150" 
d="M834 717q208 -116 208 -340q0 -170 -130.5 -286t-336.5 -116q-204 0 -334 116t-130 286q0 223 206 340q-165 100 -165 295q0 158 118 265t305 107q189 0 307.5 -107t118.5 -265q0 -194 -167 -295zM575 612q-103 0 -174 -65.5t-71 -159.5q0 -96 70.5 -159.5t174.5 -63.5
t176 63.5t72 159.5q0 94 -72.5 159.5t-175.5 65.5zM575 1196q-89 0 -149.5 -55.5t-60.5 -141.5q0 -83 61 -140.5t149 -57.5q89 0 150 57.5t61 140.5q0 87 -60.5 142t-150.5 55z" />
    <glyph glyph-name="nine" unicode="9" horiz-adv-x="1103" 
d="M344 -78l-84 184q96 42 173 89t146 108t118.5 138t76.5 167q-115 -112 -289 -112q-118 0 -212 58.5t-144.5 157.5t-50.5 220q0 192 125 322t317 130q153 0 270.5 -77t176.5 -200t59 -269q0 -159 -53.5 -305t-148 -260.5t-216 -203.5t-264.5 -147zM807 842q0 56 -9 106.5
t-29.5 96.5t-51 79t-77 52.5t-103.5 19.5q-108 0 -174 -75t-66 -187q0 -113 64.5 -182.5t170.5 -69.5q85 0 160.5 43t114.5 117z" />
    <glyph glyph-name="colon" unicode=":" horiz-adv-x="512" 
d="M375 782h-240v254h240v-254zM375 0h-240v254h240v-254z" />
    <glyph glyph-name="semicolon" unicode=";" horiz-adv-x="512" 
d="M373 254l-140 -524h-200l106 524h234zM373 782h-238v254h238v-254z" />
    <glyph glyph-name="less" unicode="&#x3c;" 
d="M43 553v170l1038 414v-181l-800 -317l800 -320v-180z" />
    <glyph glyph-name="equal" unicode="=" 
d="M100 899h924v-180h-924v180zM100 557h924v-180h-924v180z" />
    <glyph glyph-name="greater" unicode="&#x3e;" 
d="M1083 723v-170l-1038 -414v180l801 320l-801 317v181z" />
    <glyph glyph-name="question" unicode="?" horiz-adv-x="1110" 
d="M655 444h-221v334q41 14 69.5 24.5t65 27t61.5 32.5t51 39t41.5 48t25.5 57.5t10 70.5q0 80 -56.5 137.5t-142.5 57.5q-94 0 -149.5 -58t-55.5 -157v-23h-209v15q0 179 120.5 294t293.5 115q88 0 165.5 -33.5t130 -86.5t82.5 -120t30 -135q0 -74 -18 -134.5t-45 -101.5
t-71.5 -78t-83 -59t-94.5 -48v-218zM664 0h-238v254h238v-254z" />
    <glyph glyph-name="at" unicode="@" horiz-adv-x="1636" 
d="M1122 -205q-152 -76 -315 -76q-143 0 -272.5 56t-222.5 151t-148 225t-55 273q0 145 55.5 276.5t149 225.5t223 149t272.5 55q318 0 519.5 -185.5t201.5 -479.5q0 -86 -19.5 -162.5t-58 -137.5t-101 -96.5t-141.5 -35.5q-62 0 -118.5 36t-87.5 124q-33 -60 -96 -92.5
t-136 -32.5q-141 0 -231 99.5t-90 246.5q0 89 36.5 167.5t112 130.5t174.5 52q53 0 107 -22.5t94 -61.5v63h160v-313q0 -139 22.5 -189.5t65.5 -50.5q65 0 99 79.5t34 191.5q0 231 -146.5 367.5t-398.5 136.5q-223 0 -375.5 -155.5t-152.5 -383.5q0 -149 69 -273.5t190 -196
t267 -71.5q124 0 248 62zM975 362v148q-36 50 -84 78t-92 28q-63 0 -107 -31.5t-62 -76t-18 -96.5q0 -81 49.5 -140t133.5 -59q50 0 102 40t78 109z" />
    <glyph glyph-name="A" unicode="A" horiz-adv-x="1355" 
d="M1071 0l-106 295h-588l-107 -295h-241l563 1434h186l547 -1434h-254zM672 1100l-223 -613h446l-221 613h-2z" />
    <glyph glyph-name="B" unicode="B" horiz-adv-x="1261" 
d="M186 0v1434h351q244 0 383 -91q76 -51 115.5 -128.5t39.5 -172.5q0 -208 -209 -292q131 -40 200 -127t69 -211q0 -121 -64 -214t-176 -141q-138 -57 -377 -57h-332zM406 639v-449h98q204 0 289 39q108 53 108 181q0 105 -74 167t-209 62h-212zM406 1243v-414h126
q156 0 240 50.5t84 152.5q0 112 -76 162q-48 31 -113.5 40t-170.5 9h-90z" />
    <glyph glyph-name="C" unicode="C" horiz-adv-x="1380" 
d="M350 717q0 -249 148 -398t389 -149q168 0 313 106l119 -161q-198 -140 -436 -140q-160 0 -300.5 53.5t-243.5 148.5t-162.5 235t-59.5 305q0 207 103.5 377.5t280 267t386.5 96.5q211 0 397 -119l-104 -168q-145 93 -293 93q-233 0 -385 -155t-152 -392z" />
    <glyph glyph-name="D" unicode="D" horiz-adv-x="1470" 
d="M186 0v1434h394q114 0 221.5 -23.5t209 -78t177 -135t121 -202.5t45.5 -272q0 -154 -45.5 -278t-121.5 -206t-179.5 -137t-214.5 -78.5t-232 -23.5h-375zM1120 705q0 260 -150.5 398t-424.5 138h-139v-1048h59q152 0 268 26.5t205 84.5t135.5 159t46.5 242z" />
    <glyph glyph-name="E" unicode="E" horiz-adv-x="1187" 
d="M1061 0h-875v1434h875v-193h-655v-405h655v-193h-655v-450h655v-193z" />
    <glyph glyph-name="F" unicode="F" horiz-adv-x="1017" 
d="M930 604h-524v-604h-220v1434h744v-193h-524v-444h524v-193z" />
    <glyph glyph-name="G" unicode="G" horiz-adv-x="1640" 
d="M1264 610h-361v193h580v-549q-105 -134 -260.5 -206.5t-335.5 -72.5q-218 0 -393 92.5t-276 262.5t-101 387q0 207 103.5 377.5t280 267t386.5 96.5q166 0 312 -68t253 -192l-154 -131q-78 90 -185 143.5t-226 53.5q-233 0 -385 -155t-152 -392q0 -249 148.5 -398
t388.5 -149q106 0 205 38.5t172 108.5v293z" />
    <glyph glyph-name="H" unicode="H" horiz-adv-x="1533" 
d="M1348 0h-220v643h-722v-643h-220v1434h220v-598h722v598h220v-1434z" />
    <glyph glyph-name="I" unicode="I" horiz-adv-x="591" 
d="M406 0h-220v1434h220v-1434z" />
    <glyph glyph-name="J" unicode="J" horiz-adv-x="700" 
d="M524 1434v-1067q0 -185 -71 -281q-83 -111 -275 -111q-109 0 -223 50l63 178q68 -33 129 -33q93 0 127 49q31 40 31 176v1039h219z" />
    <glyph glyph-name="K" unicode="K" horiz-adv-x="1282" 
d="M1247 1434l-479 -570l504 -864h-256l-398 688l-212 -254v-434h-220v1434h220v-697l573 697h268z" />
    <glyph glyph-name="L" unicode="L" horiz-adv-x="1030" 
d="M1020 0h-834v1434h220v-1241h614v-193z" />
    <glyph glyph-name="M" unicode="M" horiz-adv-x="1906" 
d="M1501 1171l-475 -1171h-154l-466 1171v-1171h-220v1434h340l424 -1092l432 1092h338v-1434h-219v1171z" />
    <glyph glyph-name="N" unicode="N" horiz-adv-x="1542" 
d="M1356 0h-195l-755 1028v-1028h-220v1434h193l758 -1028v1028h219v-1434z" />
    <glyph glyph-name="O" unicode="O" horiz-adv-x="1716" 
d="M1366 717q0 152 -65 277t-181.5 197.5t-261.5 72.5t-261.5 -72.5t-181.5 -197.5t-65 -277t65 -277t181.5 -197.5t261.5 -72.5t261.5 72.5t181.5 197.5t65 277zM1599 717q0 -203 -97 -373t-267.5 -269.5t-376.5 -99.5t-376.5 99.5t-267.5 269.5t-97 373q0 152 57 288.5
t155.5 236t236 158t292.5 58.5t292.5 -58.5t236 -158t155.5 -236t57 -288.5z" />
    <glyph glyph-name="P" unicode="P" horiz-adv-x="1193" 
d="M186 1434h435q93 0 180.5 -24t164 -73.5t123 -136t46.5 -199.5q0 -92 -31 -167.5t-81.5 -124.5t-118 -82t-138.5 -47.5t-145 -14.5h-215v-565h-220v1434zM406 1241v-483h165q152 0 241 56t89 181q0 114 -80 180t-211 66h-204z" />
    <glyph glyph-name="Q" unicode="Q" horiz-adv-x="1716" 
d="M1577 4l-137 -137l-209 207q-171 -99 -373 -99q-206 0 -376.5 99.5t-267.5 269.5t-97 373q0 152 57 288.5t155.5 236t236 158t292.5 58.5t292.5 -58.5t236 -158t155.5 -236t57 -288.5t-56 -287.5t-157 -236.5zM1022 555l213 -213q131 157 131 375q0 152 -65 277
t-181.5 197.5t-261.5 72.5t-261.5 -72.5t-181.5 -197.5t-65 -277t65 -277t181.5 -197.5t261.5 -72.5q121 0 223 51l-196 197z" />
    <glyph glyph-name="R" unicode="R" horiz-adv-x="1265" 
d="M186 1434h432q69 0 137.5 -14t134 -46.5t115.5 -79.5t80.5 -118.5t30.5 -157.5q0 -87 -28.5 -158t-77.5 -119t-107.5 -79.5t-126.5 -47.5l451 -614h-275l-422 598h-124v-598h-220v1434zM406 1241v-450h163q143 0 228.5 54.5t85.5 166.5q0 103 -76 166t-199 63h-202z" />
    <glyph glyph-name="S" unicode="S" horiz-adv-x="1247" 
d="M942 1147q-56 50 -137 83.5t-162 33.5q-107 0 -173.5 -49t-66.5 -136q0 -34 15.5 -62.5t37 -48t61 -39t71.5 -31.5t84 -30q8 -3 12 -4q54 -19 89 -32t86.5 -37t84.5 -46.5t71 -56.5t60 -72t36.5 -89t14.5 -109q0 -92 -32 -168.5t-83.5 -127t-119 -85.5t-137.5 -50.5
t-140 -15.5q-158 0 -284 53.5t-242 168.5l154 145q96 -96 180 -134t194 -38q115 0 196 58t81 173q0 31 -9.5 58.5t-23 48t-39.5 40.5t-47.5 33t-59 29t-62 25t-68.5 24q-68 24 -117.5 46t-106.5 57.5t-92.5 75t-59.5 97.5t-24 126q0 98 35.5 175.5t97 125t139.5 72t167 24.5
q252 0 452 -153z" />
    <glyph glyph-name="T" unicode="T" horiz-adv-x="1001" 
d="M967 1241h-357v-1241h-219v1241h-356v193h932v-193z" />
    <glyph glyph-name="U" unicode="U" horiz-adv-x="1476" 
d="M1298 1434v-760q0 -346 -136.5 -522.5t-428.5 -176.5q-286 0 -420.5 176.5t-134.5 522.5v760h219v-807q0 -226 90 -341.5t250 -115.5q163 0 252.5 115.5t89.5 341.5v807h219z" />
    <glyph glyph-name="V" unicode="V" horiz-adv-x="1316" 
d="M1307 1434l-564 -1434h-186l-547 1434h254l398 -1098h2l401 1098h242z" />
    <glyph glyph-name="W" unicode="W" horiz-adv-x="1843" 
d="M1028 1434l277 -1043h4l286 1043h238l-410 -1434h-219l-280 1055h-4l-302 -1055h-212l-396 1434h244l274 -1043h4l289 1043h207z" />
    <glyph glyph-name="X" unicode="X" horiz-adv-x="1361" 
d="M1343 1434l-518 -707l529 -727h-281l-399 549l-389 -549h-277l527 727l-510 707h284l381 -533l379 533h274z" />
    <glyph glyph-name="Y" unicode="Y" horiz-adv-x="1163" 
d="M686 0h-219v618l-457 816h273l303 -582h4l307 582h256l-467 -826v-608z" />
    <glyph glyph-name="Z" unicode="Z" horiz-adv-x="1128" 
d="M1038 1317l-657 -1124h709v-193h-1012v117l659 1124h-643v193h944v-117z" />
    <glyph glyph-name="bracketleft" unicode="[" horiz-adv-x="647" 
d="M627 -344h-453v1878h453v-176h-260v-1528h260v-174z" />
    <glyph glyph-name="backslash" unicode="\" horiz-adv-x="763" 
d="M764 -47l-168 -66l-596 1612l168 64z" />
    <glyph glyph-name="bracketright" unicode="]" horiz-adv-x="647" 
d="M473 -344h-453v174h261v1528h-261v176h453v-1878z" />
    <glyph glyph-name="asciicircum" unicode="^" 
d="M977 707h-186l-228 489l-227 -489h-186l309 696h209z" />
    <glyph glyph-name="underscore" unicode="_" 
d="M1126 -475h-1126v147h1126v-147z" />
    <glyph glyph-name="grave" unicode="`" horiz-adv-x="737" 
d="M381 1165l-281 334l150 117l258 -354z" />
    <glyph glyph-name="a" unicode="a" horiz-adv-x="1132" 
d="M979 0h-195l-6 104q-112 -129 -303 -129q-74 0 -139.5 19.5t-117.5 57.5t-82 100.5t-30 142.5q0 75 26.5 135t70 98t104 63t124 35.5t134.5 10.5q82 0 203 -23v31q0 240 -236 240q-157 0 -325 -92l-60 170q91 43 203 70.5t215 27.5q414 0 414 -432v-629zM768 258v209
q-93 18 -176 18q-51 0 -95.5 -8t-88.5 -26.5t-69.5 -56t-25.5 -89.5q0 -82 54.5 -122t138.5 -40q126 0 262 115z" />
    <glyph glyph-name="b" unicode="b" horiz-adv-x="1290" 
d="M164 1536h211v-633q54 75 143 116.5t182 41.5q144 0 260.5 -73t182 -197.5t65.5 -274.5q0 -140 -63 -263t-182 -200.5t-267 -77.5q-90 0 -178 37.5t-149 104.5l-4 -117h-201v1536zM375 686v-371q51 -71 129 -110t158 -39q81 0 146 31t104.5 82.5t60 113t20.5 127.5
q0 144 -90 247t-237 103q-86 0 -169.5 -48.5t-121.5 -135.5z" />
    <glyph glyph-name="c" unicode="c" horiz-adv-x="991" 
d="M836 240l106 -156q-128 -109 -330 -109q-111 0 -208.5 39.5t-168.5 109.5t-112 172t-41 222q0 149 70.5 274t194.5 197t274 72q174 0 311 -98l-103 -166q-96 73 -208 73q-135 0 -229.5 -103t-94.5 -249q0 -154 95.5 -253t228.5 -99q53 0 113 20.5t102 53.5z" />
    <glyph glyph-name="d" unicode="d" horiz-adv-x="1290" 
d="M1126 1536v-1536h-200l-6 137q-53 -78 -143.5 -120t-186.5 -42q-144 0 -260.5 73t-182 197.5t-65.5 274.5q0 140 63 263t182 200.5t267 77.5q89 0 174.5 -35.5t146.5 -99.5v610h211zM915 721q-51 71 -129 110t-157 39q-81 0 -146 -31t-104.5 -82.5t-60.5 -113t-21 -127.5
q0 -144 90.5 -247t237.5 -103q86 0 169 48.5t121 135.5v371z" />
    <glyph glyph-name="e" unicode="e" horiz-adv-x="1161" 
d="M295 465q11 -133 95.5 -222t217.5 -89q210 0 301 163l148 -96q-80 -127 -190 -186.5t-269 -59.5q-238 0 -377 153t-139 388q0 152 68 277t186.5 196.5t261.5 71.5q209 0 345 -136.5t136 -344.5q0 -63 -10 -115h-774zM860 627q-6 108 -78.5 183t-179.5 75
q-115 0 -190.5 -71.5t-104.5 -186.5h553z" />
    <glyph glyph-name="f" unicode="f" horiz-adv-x="700" 
d="M766 1511l-61 -172q-64 31 -136 31q-69 0 -110 -33q-28 -26 -37.5 -70t-9.5 -116v-115h276v-182h-276v-854h-211v854h-117v182h117v133q0 176 67 273q83 119 281 119q108 0 217 -50z" />
    <glyph glyph-name="g" unicode="g" horiz-adv-x="1280" 
d="M915 375v346q-51 71 -129 110t-157 39q-81 0 -146 -29.5t-104.5 -78.5t-60.5 -109t-21 -125q0 -143 90 -240.5t238 -97.5q86 0 169 49t121 136zM915 158q-54 -75 -143 -116.5t-182 -41.5q-219 0 -363.5 152t-144.5 380q0 140 63 260t181.5 194.5t267.5 74.5
q91 0 179 -37.5t149 -103.5l4 116h200v-981q0 -164 -57 -272q-66 -124 -188.5 -183t-276.5 -59q-123 0 -246 36t-219 104l82 178q75 -56 180 -91.5t197 -35.5q138 0 227.5 72.5t89.5 220.5v133z" />
    <glyph glyph-name="h" unicode="h" horiz-adv-x="1247" 
d="M375 1536v-659q58 87 145.5 135.5t186.5 48.5q197 0 294 -131q93 -127 93 -391v-539h-211v520q0 193 -49 271q-50 79 -170 79q-82 0 -159.5 -50.5t-129.5 -133.5v-686h-211v1536h211z" />
    <glyph glyph-name="i" unicode="i" horiz-adv-x="538" 
d="M375 0h-211v1036h211v-1036zM375 1225h-211v219h211v-219z" />
    <glyph glyph-name="j" unicode="j" horiz-adv-x="557" 
d="M391 1225h-211v219h211v-219zM391 1036v-1124q0 -138 -37 -213q-72 -158 -280 -158q-119 0 -205 45l59 170q54 -28 117 -28q36 0 61.5 11.5t40 29t22 48.5t9.5 58.5t2 69.5v1091h211z" />
    <glyph glyph-name="k" unicode="k" horiz-adv-x="1073" 
d="M375 1536v-995l4 -2l399 497h254l-366 -426l397 -610h-254l-283 446l-151 -176v-270h-211v1536h211z" />
    <glyph glyph-name="l" unicode="l" horiz-adv-x="538" 
d="M375 1536v-1536h-211v1536h211z" />
    <glyph glyph-name="m" unicode="m" horiz-adv-x="1888" 
d="M1735 0h-211v520q0 60 -2 98.5t-12.5 88.5t-30.5 84q-50 79 -168 79q-70 0 -142 -43t-125 -114q11 -97 11 -174v-539h-211v520q0 61 -2 100.5t-14 92.5t-35 86q-46 71 -152 71q-69 0 -142 -49t-124 -119v-702h-211v1036h201l4 -149q59 81 146.5 127.5t174.5 46.5
q192 0 285 -141q11 -15 24 -46q65 93 159 140t198 47q187 0 282 -125q97 -125 97 -397v-539z" />
    <glyph glyph-name="n" unicode="n" horiz-adv-x="1247" 
d="M164 1036h201l6 -164q58 90 146.5 139.5t189.5 49.5q197 0 294 -131q93 -127 93 -391v-539h-211v520q0 193 -49 271q-50 79 -170 79q-82 0 -159.5 -50.5t-129.5 -133.5v-686h-211v1036z" />
    <glyph glyph-name="o" unicode="o" horiz-adv-x="1228" 
d="M614 1061q150 0 272.5 -72t191.5 -196.5t69 -274.5t-69 -274.5t-191.5 -196.5t-272.5 -72q-228 0 -380 157t-152 386t152 386t380 157zM932 518q0 148 -90.5 250t-227.5 102t-227 -102t-90 -250q0 -147 90.5 -249.5t226.5 -102.5t227 102.5t91 249.5z" />
    <glyph glyph-name="p" unicode="p" horiz-adv-x="1290" 
d="M164 1036h201l6 -137q53 78 143 120t186 42q144 0 260.5 -73t182 -197.5t65.5 -274.5q0 -140 -63 -263t-182 -200.5t-267 -77.5q-88 0 -174 36t-147 100v-623h-211v1548zM375 686v-371q51 -71 129 -110t158 -39q81 0 146 31t104.5 82.5t60 113t20.5 127.5q0 144 -90 247
t-237 103q-86 0 -169.5 -48.5t-121.5 -135.5z" />
    <glyph glyph-name="q" unicode="q" horiz-adv-x="1290" 
d="M1126 -512h-211v645q-54 -75 -143 -116.5t-182 -41.5q-144 0 -260.5 73t-182 197.5t-65.5 274.5q0 140 63 263t182 200.5t267 77.5q91 0 179 -37.5t149 -103.5l4 116h200v-1548zM915 350v371q-51 71 -129 110t-157 39q-81 0 -146 -31t-104.5 -82.5t-60.5 -113t-21 -127.5
q0 -144 90.5 -247t237.5 -103q86 0 169 48.5t121 135.5z" />
    <glyph glyph-name="r" unicode="r" horiz-adv-x="739" 
d="M365 1036l6 -162q48 86 115.5 136.5t146.5 50.5q64 0 119 -14l-43 -213q-43 22 -99 22q-144 0 -235 -160v-696h-211v1036h201z" />
    <glyph glyph-name="s" unicode="s" horiz-adv-x="937" 
d="M807 942l-123 -133q-37 34 -94 57t-111 23q-63 0 -102 -34t-39 -89q0 -18 6.5 -34.5t22.5 -30.5t29 -24t41 -23.5t42.5 -19.5t48.5 -20q51 -20 84.5 -35.5t79 -44t73 -58.5t47 -75t19.5 -98q0 -84 -31.5 -148.5t-85 -102.5t-120.5 -57.5t-143 -19.5q-112 0 -209 42.5
t-164 123.5l139 121q109 -112 232 -112q73 0 122.5 36.5t49.5 104.5q0 23 -12 43.5t-26.5 34t-46.5 30.5t-51 25t-61 25q-40 16 -59.5 24.5t-56 26.5t-56 32.5t-45.5 38.5t-39 48.5t-23 58.5t-10 72q0 76 28.5 137t77 98t109.5 56.5t129 19.5q197 0 328 -119z" />
    <glyph glyph-name="t" unicode="t" horiz-adv-x="724" 
d="M672 854h-285v-451q0 -50 2 -81q5 -78 35 -117t96 -39q57 0 117 29l61 -166q-87 -49 -206 -49q-109 0 -181 47t-104 129q-31 77 -31 204v494h-135v182h135l10 244h201v-244h285v-182z" />
    <glyph glyph-name="u" unicode="u" horiz-adv-x="1247" 
d="M1083 0h-200l-6 164q-58 -90 -146.5 -139.5t-189.5 -49.5q-198 0 -295 131q-92 125 -92 392v538h211v-520q0 -192 49 -270q51 -80 170 -80q82 0 159 50.5t129 133.5v686h211v-1036z" />
    <glyph glyph-name="v" unicode="v" horiz-adv-x="1007" 
d="M770 1036h227l-409 -1036h-180l-394 1036h234l260 -768h4z" />
    <glyph glyph-name="w" unicode="w" horiz-adv-x="1525" 
d="M874 1036l201 -764h6l199 764h217l-301 -1036h-223l-209 754h-4l-213 -754h-232l-286 1036h227l184 -764h4l218 764h212z" />
    <glyph glyph-name="x" unicode="x" horiz-adv-x="1056" 
d="M1038 1036l-376 -506l380 -530h-270l-248 369l-250 -369h-262l389 520l-364 516h268l238 -352l237 352h258z" />
    <glyph glyph-name="y" unicode="y" horiz-adv-x="1003" 
d="M10 1036h234l254 -745h4l262 745h229l-583 -1505l-187 74l164 434z" />
    <glyph glyph-name="z" unicode="z" horiz-adv-x="944" 
d="M117 96l442 758h-465v182h746v-94l-445 -760h479v-182h-757v96z" />
    <glyph glyph-name="braceleft" unicode="{" horiz-adv-x="653" 
d="M631 -188v-179q-33 -2 -72 -2q-169 0 -274 115.5t-105 296.5v221q0 104 -41 176t-123 88l4 181q83 19 121.5 95.5t38.5 190.5v152q0 181 105 296.5t274 115.5q23 0 72 -3v-178q-40 4 -58 4q-54 0 -94 -22.5t-62.5 -63t-33 -90.5t-10.5 -112v-154q0 -102 -35.5 -186.5
t-99.5 -135.5q65 -54 100 -138t35 -185v-197q0 -85 18 -147.5t64 -103t118 -40.5q8 0 58 5z" />
    <glyph glyph-name="bar" unicode="|" horiz-adv-x="653" 
d="M420 -348h-184v2105h184v-2105z" />
    <glyph glyph-name="braceright" unicode="}" horiz-adv-x="653" 
d="M20 -367v179q50 -5 58 -5q72 0 118.5 40.5t64.5 103t18 147.5v197q0 101 35 185t100 138q-64 51 -99.5 135.5t-35.5 186.5v154q0 84 -18 145.5t-64.5 102t-118.5 40.5q-18 0 -58 -4v178q50 3 72 3q169 0 274 -115.5t105 -296.5v-152q0 -114 38.5 -190.5t121.5 -95.5
l4 -181q-82 -16 -123 -88t-41 -176v-221q0 -181 -105 -296.5t-274 -115.5q-39 0 -72 2z" />
    <glyph glyph-name="asciitilde" unicode="~" 
d="M236 551l-173 -14q-4 28 -4 59q0 120 79 192t206 72q59 0 114.5 -18.5t97.5 -45.5t81 -54t80.5 -45.5t79.5 -18.5q40 0 70 25.5t30 64.5q0 23 -4 33l172 14q4 -28 4 -59q0 -120 -78.5 -192t-204.5 -72q-60 0 -116 18.5t-98 45.5t-80.5 54t-80 45.5t-79.5 18.5
q-40 0 -70.5 -25t-30.5 -65q0 -18 5 -33z" />
    <glyph glyph-name="uni00A0" unicode="&#xa0;" horiz-adv-x="512" 
 />
    <glyph glyph-name="exclamdown" unicode="&#xa1;" horiz-adv-x="653" 
d="M203 -397v235l22 754h205l21 -754v-235h-248zM207 1036h239v-254h-239v254z" />
    <glyph glyph-name="cent" unicode="&#xa2;" 
d="M899 362l107 -157q-114 -90 -273 -105v-180h-141v182q-197 28 -322 174t-125 365q0 202 126 352.5t321 182.5v184h141v-180q142 -12 262 -95l-102 -165q-92 73 -209 73q-135 0 -228.5 -102.5t-93.5 -249.5q0 -154 94.5 -253t227.5 -99q55 0 114 20t101 53z" />
    <glyph glyph-name="sterling" unicode="&#xa3;" 
d="M1006 0h-846v193h114v446h-114v188h114v101q0 198 119 327t303 129q181 0 314 -79l-88 -177q-77 68 -211 68q-116 0 -171 -85.5t-55 -231.5v-52h273v-188h-273v-446h521v-193z" />
    <glyph glyph-name="currency" unicode="&#xa4;" 
d="M119 666q0 132 78 247l-111 111l119 119l110 -109q113 76 248 76q132 0 248 -76l111 109l118 -119l-110 -111q78 -115 78 -247q0 -137 -78 -248l110 -109l-118 -119l-111 109q-115 -78 -248 -78q-137 0 -248 78l-110 -109l-119 119l111 109q-78 111 -78 248zM293 666
q0 -113 79 -192t191 -79q113 0 192 79.5t79 191.5t-79 191t-192 79t-191.5 -79t-78.5 -191z" />
    <glyph glyph-name="yen" unicode="&#xa5;" 
d="M106 524v162h293l-376 674h245l299 -547h4l287 547h244l-383 -674h291v-162h-344v-127h344v-159h-346v-238h-211v238h-347v159h345v127h-345z" />
    <glyph glyph-name="brokenbar" unicode="&#xa6;" horiz-adv-x="653" 
d="M420 -406h-184v779h184v-779zM420 758h-184v778h184v-778z" />
    <glyph glyph-name="section" unicode="&#xa7;" 
d="M926 1346l-117 -142q-121 80 -262 80q-47 0 -89 -13t-73 -45.5t-31 -78.5q0 -18 5.5 -34t18 -30.5t24.5 -25.5t35.5 -23t40 -20t47.5 -19t49.5 -17.5t55 -18t54.5 -17.5q60 -20 103 -38t92.5 -47.5t80.5 -63t51.5 -83.5t20.5 -110q0 -85 -51.5 -160t-140.5 -123
q147 -84 147 -243q0 -120 -61 -203.5t-158.5 -120.5t-222.5 -37q-130 0 -248 41.5t-205 120.5l125 145q143 -131 324 -131q98 0 165.5 42.5t67.5 121.5q0 29 -16 54t-38.5 42t-62 34t-69.5 26.5t-78 23.5q-51 14 -79.5 22.5t-78 26.5t-79 34.5t-66.5 43.5t-57.5 56.5
t-35 70.5t-14.5 88q0 103 52.5 181.5t144.5 120.5q-145 91 -145 247q0 107 58 184.5t147 113.5t196 36q218 0 373 -112zM666 393q64 26 107.5 76.5t43.5 110.5q0 20 -5.5 37.5t-18.5 33t-26 27.5t-36.5 24.5t-42 21t-49.5 19.5t-51.5 17.5t-57.5 18t-57 18.5
q-73 -24 -115.5 -75t-42.5 -110q0 -28 9 -51t31 -41.5t41.5 -31.5t58.5 -28t63 -22.5t74.5 -22.5t73.5 -22z" />
    <glyph glyph-name="dieresis" unicode="&#xa8;" horiz-adv-x="737" 
d="M258 1225h-215v219h215v-219zM694 1225h-215v219h215v-219z" />
    <glyph glyph-name="copyright" unicode="&#xa9;" horiz-adv-x="1636" 
d="M111 682q0 192 95 355t258 257.5t355 94.5q144 0 275.5 -56t226.5 -150.5t151 -225.5t56 -275t-56 -275t-151 -225.5t-226.5 -150.5t-275.5 -56q-192 0 -355 94.5t-258 257.5t-95 355zM274 682q0 -148 73 -274.5t198.5 -200.5t273.5 -74t273.5 74t198.5 200.5t73 274.5
q0 149 -73 275.5t-198.5 200t-273.5 73.5t-273.5 -73.5t-198.5 -200t-73 -275.5zM1059 1001l-78 -124q-72 45 -145 45q-100 0 -165 -68t-65 -172q0 -115 63 -178.5t167 -63.5q81 0 153 54l84 -123q-116 -78 -233 -78q-172 0 -288 107.5t-116 281.5q0 163 118 275t286 112
q110 0 219 -68z" />
    <glyph glyph-name="ordfeminine" unicode="&#xaa;" horiz-adv-x="784" 
d="M512 1204v17q-3 147 -150 147q-107 0 -212 -59l-46 125q142 69 287 69q143 0 214 -76t71 -219v-417h-146l-8 65q-71 -82 -198 -82q-103 0 -176.5 56.5t-73.5 158.5q0 63 26.5 109t71.5 71.5t98 37.5t113 12q49 0 129 -15zM512 1100q-61 12 -102 12q-31 0 -59.5 -5.5
t-55 -17t-42 -35t-15.5 -55.5q0 -51 33.5 -76.5t86.5 -25.5q72 0 154 68v135z" />
    <glyph glyph-name="guillemotleft" unicode="&#xab;" horiz-adv-x="1114" 
d="M586 678l305 315l106 -188l-260 -250l260 -248l-106 -188l-305 317v242zM117 678l305 315l106 -188l-260 -250l260 -248l-106 -188l-305 317v242z" />
    <glyph glyph-name="logicalnot" unicode="&#xac;" 
d="M47 868h1030v-608h-180v428h-850v180z" />
    <glyph glyph-name="uni00AD" unicode="&#xad;" horiz-adv-x="935" 
d="M739 483h-542v187h542v-187z" />
    <glyph glyph-name="registered" unicode="&#xae;" horiz-adv-x="1177" 
d="M106 987q0 131 64.5 241.5t175.5 175t242 64.5q132 0 243 -64.5t175.5 -175t64.5 -241.5q0 -130 -64.5 -240.5t-175.5 -174.5t-243 -64q-199 0 -340.5 140.5t-141.5 338.5zM817 741h-141l-125 181h-23v-181h-116v492h129q225 0 225 -150q0 -49 -25.5 -86.5t-70.5 -54.5z
M528 1139v-121q60 0 88.5 11.5t28.5 47.5q0 37 -24.5 49.5t-92.5 12.5zM240 987q0 -148 102 -251t248 -103q145 0 247.5 103.5t102.5 250.5q0 148 -102.5 252t-247.5 104q-146 0 -248 -104t-102 -252z" />
    <glyph glyph-name="macron" unicode="&#xaf;" horiz-adv-x="737" 
d="M684 1245h-631v158h631v-158z" />
    <glyph glyph-name="degree" unicode="&#xb0;" horiz-adv-x="946" 
d="M156 1108q0 129 92 220t223 91t223 -91t92 -220t-92 -220t-223 -91t-223 91t-92 220zM309 1108q0 -69 47 -116.5t115 -47.5t115 47.5t47 116.5t-47 116.5t-115 47.5t-115 -47.5t-47 -116.5z" />
    <glyph glyph-name="plusminus" unicode="&#xb1;" 
d="M51 180h1024v-180h-1024v180zM653 1315v-422h422v-180h-422v-422h-180v422h-422v180h422v422h180z" />
    <glyph glyph-name="twosuperior" unicode="&#xb2;" horiz-adv-x="659" 
d="M72 879q159 159 282 323q66 90 66 158q0 42 -29 67t-72 25q-46 0 -74 -32.5t-28 -84.5l-162 25q6 101 84 164t180 63q108 0 187.5 -61.5t79.5 -161.5q0 -113 -82 -227q-82 -115 -221 -250h338v-135h-549v127z" />
    <glyph glyph-name="threesuperior" unicode="&#xb3;" horiz-adv-x="667" 
d="M209 1104v135q57 0 102 10q42 11 67 39t25 64q0 43 -31 71.5t-81 28.5q-40 0 -71.5 -22t-41.5 -62l-133 57q26 76 92.5 119t155.5 43q116 0 195 -60t79 -159q0 -53 -27.5 -101t-76.5 -75q66 -21 104.5 -77t38.5 -124q0 -115 -84.5 -183.5t-208.5 -68.5q-90 0 -167 42.5
t-113 119.5l131 64q46 -88 145 -88q54 0 91.5 29.5t37.5 82.5q0 57 -43.5 90t-111.5 33q-35 0 -74 -8z" />
    <glyph glyph-name="acute" unicode="&#xb4;" horiz-adv-x="737" 
d="M637 1499l-281 -334l-127 97l258 354z" />
    <glyph glyph-name="mu" unicode="&#xb5;" 
d="M1028 0h-201l-6 164q-58 -90 -146.5 -139.5t-189.5 -49.5q-102 0 -174 37v-524h-213v1548h211v-520q0 -192 49 -270q51 -80 170 -80q82 0 159.5 50.5t129.5 133.5v686h211v-1036z" />
    <glyph glyph-name="paragraph" unicode="&#xb6;" 
d="M1026 -358h-209v1792h209v-1792zM707 -358h-209v929q-66 9 -125 29t-113.5 55t-93.5 82t-62.5 115t-23.5 149q0 91 31 165.5t81.5 123.5t117.5 82t137.5 47.5t144.5 14.5h115v-1792zM287 1001q0 -104 60.5 -164.5t150.5 -68.5v469q-90 -10 -150.5 -71t-60.5 -165z" />
    <glyph glyph-name="periodcentered" unicode="&#xb7;" horiz-adv-x="512" 
d="M375 524h-240v254h240v-254z" />
    <glyph glyph-name="cedilla" unicode="&#xb8;" horiz-adv-x="819" 
d="M391 2l-49 -133l2 -2q44 33 96 33q73 0 128 -56t55 -139q0 -85 -66 -149t-160 -64q-146 0 -217 127l121 59q24 -65 92 -65q37 0 61.5 25.5t24.5 60.5q0 39 -25.5 66.5t-64.5 27.5q-54 0 -78 -47l-131 68l90 213z" />
    <glyph glyph-name="onesuperior" unicode="&#xb9;" horiz-adv-x="448" 
d="M342 752h-162v639q-5 -2 -52 -23.5t-67 -28.5v146q61 30 175 90h106v-823z" />
    <glyph glyph-name="ordmasculine" unicode="&#xba;" horiz-adv-x="839" 
d="M420 1503q157 0 259.5 -104.5t102.5 -259.5t-102.5 -260t-259.5 -105q-156 0 -259.5 105t-103.5 260t103.5 259.5t259.5 104.5zM614 1139q0 95 -54.5 159t-139.5 64t-140 -64t-55 -159t55 -159.5t140 -64.5t139.5 64.5t54.5 159.5z" />
    <glyph glyph-name="guillemotright" unicode="&#xbb;" horiz-adv-x="1114" 
d="M223 975l305 -299v-242l-305 -299l-106 172l260 246l-260 250zM692 975l305 -299v-242l-305 -299l-106 172l260 246l-260 250z" />
    <glyph glyph-name="onequarter" unicode="&#xbc;" horiz-adv-x="1554" 
d="M1190 1460l121 -88l-1020 -1399l-121 88zM813 311q150 195 315 426h158v-432h105v-127h-105v-178h-153v178h-320v133zM1133 305v234q-114 -174 -160 -234h160zM467 692h-156v568q-106 -48 -110 -50v142l73 36.5t86 45.5h107v-742z" />
    <glyph glyph-name="onehalf" unicode="&#xbd;" horiz-adv-x="1605" 
d="M1190 1460l121 -88l-1020 -1399l-121 88zM938 117q141 135 258 291q57 77 57 135q0 36 -24.5 57t-63.5 21q-40 0 -64 -28t-24 -75l-153 27q6 93 77.5 150t169.5 57q97 0 169.5 -57t72.5 -150t-80 -201q-52 -75 -186 -215h295v-129h-504v117zM467 692h-156v568
q-106 -48 -110 -50v142l73 36.5t86 45.5h107v-742z" />
    <glyph glyph-name="threequarters" unicode="&#xbe;" horiz-adv-x="1695" 
d="M1331 1460l121 -88l-1018 -1399l-121 88zM956 311q231 307 316 426h158v-432h102v-127h-102v-178h-154v178h-320v133zM1276 305v234q-114 -174 -160 -234h160zM328 1008v129q61 0 88 8q80 20 80 90q0 36 -26.5 60t-72.5 24q-75 0 -94 -76l-129 57q24 69 86 108.5
t139 39.5q105 0 178.5 -55t73.5 -144q0 -45 -26 -88t-66 -67q57 -22 92 -72t35 -113q0 -103 -77.5 -164t-188.5 -61q-83 0 -152.5 38.5t-105.5 111.5l129 59q36 -80 127 -80q46 0 78 25t32 73q0 49 -38.5 76t-100.5 27q-38 0 -61 -6z" />
    <glyph glyph-name="questiondown" unicode="&#xbf;" horiz-adv-x="1110" 
d="M455 594h221v-334q-41 -14 -69.5 -24.5t-65 -27t-61.5 -32.5t-51 -39t-41.5 -48t-25.5 -57.5t-10 -70.5q0 -80 56.5 -137t142.5 -57q94 0 149.5 58t55.5 157v22h209v-14q0 -179 -120.5 -294.5t-293.5 -115.5q-88 0 -165.5 33.5t-130 86.5t-82.5 120t-30 135q0 74 18 135
t45 102t71.5 78t83.5 59t94 48v217zM446 1038h238v-254h-238v254z" />
    <glyph glyph-name="Agrave" unicode="&#xc0;" horiz-adv-x="1355" 
d="M1071 0l-106 295h-588l-107 -295h-241l563 1434h186l547 -1434h-254zM672 1100l-223 -613h446l-221 613h-2zM723 1511l-363 261l119 149l340 -285z" />
    <glyph glyph-name="Aacute" unicode="&#xc1;" horiz-adv-x="1355" 
d="M1071 0l-106 295h-588l-107 -295h-241l563 1434h186l547 -1434h-254zM672 1100l-223 -613h446l-221 613h-2zM995 1772l-362 -261l-96 125l340 285z" />
    <glyph glyph-name="Acircumflex" unicode="&#xc2;" horiz-adv-x="1355" 
d="M1071 0l-106 295h-588l-107 -295h-241l563 1434h186l547 -1434h-254zM672 1100l-223 -613h446l-221 613h-2zM571 1886h228l221 -270l-125 -96l-211 223l-215 -223l-125 96z" />
    <glyph glyph-name="Atilde" unicode="&#xc3;" horiz-adv-x="1355" 
d="M1071 0l-106 295h-588l-107 -295h-241l563 1434h186l547 -1434h-254zM672 1100l-223 -613h446l-221 613h-2zM926 1790l141 14q6 -24 6 -61q0 -90 -58 -144.5t-151 -54.5q-47 0 -93.5 19.5t-77 43t-66.5 43t-64 19.5q-27 0 -44.5 -15t-18.5 -42q0 -15 2 -21l-142 -14
q-6 24 -6 61q0 90 58 144.5t151 54.5q46 0 93 -19.5t78.5 -43t67 -43t62.5 -19.5t45.5 15t18.5 42q0 15 -2 21z" />
    <glyph glyph-name="Adieresis" unicode="&#xc4;" horiz-adv-x="1355" 
d="M1071 0l-106 295h-588l-107 -295h-241l563 1434h186l547 -1434h-254zM672 1100l-223 -613h446l-221 613h-2zM522 1563h-231v233h231v-233zM1077 1563h-231v233h231v-233z" />
    <glyph glyph-name="Aring" unicode="&#xc5;" horiz-adv-x="1355" 
d="M1071 0l-106 295h-588l-107 -295h-241l563 1434h186l547 -1434h-254zM672 1100l-223 -613h446l-221 613h-2zM487 1683q0 83 59 142t142 59t142 -59t59 -142t-59 -141.5t-142 -58.5t-142 58.5t-59 141.5zM598 1683q0 -37 26.5 -63.5t63.5 -26.5t63.5 26.5t26.5 63.5
t-26.5 64t-63.5 27t-63.5 -27t-26.5 -64z" />
    <glyph glyph-name="AE" unicode="&#xc6;" horiz-adv-x="2031" 
d="M1903 0h-875v297h-565l-207 -297h-276l1050 1434h873v-193h-654v-405h654v-193h-654v-450h654v-193zM594 487h434v621z" />
    <glyph glyph-name="Ccedilla" unicode="&#xc7;" horiz-adv-x="1380" 
d="M350 717q0 -249 148 -398t389 -149q168 0 313 106l119 -161q-198 -140 -436 -140q-59 0 -115 9l-47 -115l4 -2q37 33 98 33q79 0 130 -56t51 -139q0 -85 -65.5 -149t-160.5 -64q-146 0 -217 127l123 59q21 -65 90 -65q37 0 61.5 25.5t24.5 60.5q0 37 -23 65.5t-61 28.5
q-57 0 -84 -47l-131 70l88 190q-239 66 -385.5 255.5t-146.5 455.5q0 207 103.5 377.5t280 267t386.5 96.5q211 0 397 -119l-104 -168q-145 93 -293 93q-233 0 -385 -155t-152 -392z" />
    <glyph glyph-name="Egrave" unicode="&#xc8;" horiz-adv-x="1187" 
d="M1061 0h-875v1434h875v-193h-655v-405h655v-193h-655v-450h655v-193zM709 1511l-363 261l119 149l340 -285z" />
    <glyph glyph-name="Eacute" unicode="&#xc9;" horiz-adv-x="1187" 
d="M1061 0h-875v1434h875v-193h-655v-405h655v-193h-655v-450h655v-193zM928 1772l-363 -261l-96 125l340 285z" />
    <glyph glyph-name="Ecircumflex" unicode="&#xca;" horiz-adv-x="1187" 
d="M1061 0h-875v1434h875v-193h-655v-405h655v-193h-655v-450h655v-193zM522 1886h228l221 -270l-125 -96l-211 223l-215 -223l-125 96z" />
    <glyph glyph-name="Edieresis" unicode="&#xcb;" horiz-adv-x="1187" 
d="M516 1563h-229v233h229v-233zM991 1563h-229v233h229v-233zM1061 0h-875v1434h875v-193h-655v-405h655v-193h-655v-450h655v-193z" />
    <glyph glyph-name="Igrave" unicode="&#xcc;" horiz-adv-x="591" 
d="M406 0h-220v1434h220v-1434zM336 1511l-363 261l119 149l340 -285z" />
    <glyph glyph-name="Iacute" unicode="&#xcd;" horiz-adv-x="591" 
d="M406 0h-220v1434h220v-1434zM627 1772l-363 -261l-96 125l340 285z" />
    <glyph glyph-name="Icircumflex" unicode="&#xce;" horiz-adv-x="591" 
d="M406 0h-220v1434h220v-1434zM184 1886h228l221 -270l-125 -96l-211 223l-215 -223l-125 96z" />
    <glyph glyph-name="Idieresis" unicode="&#xcf;" horiz-adv-x="591" 
d="M178 1563h-233v233h233v-233zM647 1563h-233v233h233v-233zM406 0h-220v1434h220v-1434z" />
    <glyph glyph-name="Eth" unicode="&#xd0;" horiz-adv-x="1470" 
d="M186 0v653h-141v172h141v609h394q114 0 221.5 -23.5t209 -78t177 -135t121 -202.5t45.5 -272q0 -154 -45.5 -278t-121.5 -206t-179.5 -137t-214.5 -78.5t-232 -23.5h-375zM1120 705q0 260 -150.5 398t-424.5 138h-139v-416h243v-172h-243v-460h59q152 0 268 26.5
t205 84.5t135.5 159t46.5 242z" />
    <glyph glyph-name="Ntilde" unicode="&#xd1;" horiz-adv-x="1542" 
d="M1356 0h-195l-755 1028v-1028h-220v1434h193l758 -1028v1028h219v-1434zM1001 1790l142 14q6 -24 6 -61q0 -90 -58 -144.5t-151 -54.5q-47 0 -93.5 19.5t-77 43t-66.5 43t-64 19.5q-27 0 -45 -15t-19 -42q0 -12 3 -21l-142 -14q-6 24 -6 61q0 90 58 144.5t151 54.5
q46 0 93 -19.5t78.5 -43t67 -43t62.5 -19.5t45.5 15t18.5 42q0 12 -3 21z" />
    <glyph glyph-name="Ograve" unicode="&#xd2;" horiz-adv-x="1716" 
d="M1366 717q0 152 -65 277t-181.5 197.5t-261.5 72.5t-261.5 -72.5t-181.5 -197.5t-65 -277t65 -277t181.5 -197.5t261.5 -72.5t261.5 72.5t181.5 197.5t65 277zM1599 717q0 -203 -97 -373t-267.5 -269.5t-376.5 -99.5t-376.5 99.5t-267.5 269.5t-97 373q0 152 57 288.5
t155.5 236t236 158t292.5 58.5t292.5 -58.5t236 -158t155.5 -236t57 -288.5zM899 1511l-362 261l118 149l340 -285z" />
    <glyph glyph-name="Oacute" unicode="&#xd3;" horiz-adv-x="1716" 
d="M1366 717q0 152 -65 277t-181.5 197.5t-261.5 72.5t-261.5 -72.5t-181.5 -197.5t-65 -277t65 -277t181.5 -197.5t261.5 -72.5t261.5 72.5t181.5 197.5t65 277zM1599 717q0 -203 -97 -373t-267.5 -269.5t-376.5 -99.5t-376.5 99.5t-267.5 269.5t-97 373q0 152 57 288.5
t155.5 236t236 158t292.5 58.5t292.5 -58.5t236 -158t155.5 -236t57 -288.5zM1188 1772l-363 -261l-96 125l340 285z" />
    <glyph glyph-name="Ocircumflex" unicode="&#xd4;" horiz-adv-x="1716" 
d="M1366 717q0 152 -65 277t-181.5 197.5t-261.5 72.5t-261.5 -72.5t-181.5 -197.5t-65 -277t65 -277t181.5 -197.5t261.5 -72.5t261.5 72.5t181.5 197.5t65 277zM1599 717q0 -203 -97 -373t-267.5 -269.5t-376.5 -99.5t-376.5 99.5t-267.5 269.5t-97 373q0 152 57 288.5
t155.5 236t236 158t292.5 58.5t292.5 -58.5t236 -158t155.5 -236t57 -288.5zM745 1886h228l221 -270l-125 -96l-211 223l-215 -223l-125 96z" />
    <glyph glyph-name="Otilde" unicode="&#xd5;" horiz-adv-x="1716" 
d="M1366 717q0 152 -65 277t-181.5 197.5t-261.5 72.5t-261.5 -72.5t-181.5 -197.5t-65 -277t65 -277t181.5 -197.5t261.5 -72.5t261.5 72.5t181.5 197.5t65 277zM1599 717q0 -203 -97 -373t-267.5 -269.5t-376.5 -99.5t-376.5 99.5t-267.5 269.5t-97 373q0 152 57 288.5
t155.5 236t236 158t292.5 58.5t292.5 -58.5t236 -158t155.5 -236t57 -288.5zM1112 1790l141 14q7 -28 7 -61q0 -90 -58 -144.5t-151 -54.5q-47 0 -93.5 19.5t-77 43t-66.5 43t-64 19.5q-27 0 -45 -15t-19 -42q0 -15 2 -21l-141 -14q-6 24 -6 61q0 90 58 144.5t151 54.5
q46 0 93 -19.5t78.5 -43t67 -43t62.5 -19.5t45 15t18 42q0 15 -2 21z" />
    <glyph glyph-name="Odieresis" unicode="&#xd6;" horiz-adv-x="1716" 
d="M1366 717q0 152 -65 277t-181.5 197.5t-261.5 72.5t-261.5 -72.5t-181.5 -197.5t-65 -277t65 -277t181.5 -197.5t261.5 -72.5t261.5 72.5t181.5 197.5t65 277zM1599 717q0 -203 -97 -373t-267.5 -269.5t-376.5 -99.5t-376.5 99.5t-267.5 269.5t-97 373q0 152 57 288.5
t155.5 236t236 158t292.5 58.5t292.5 -58.5t236 -158t155.5 -236t57 -288.5zM696 1563h-231v233h231v-233zM1251 1563h-231v233h231v-233z" />
    <glyph glyph-name="multiply" unicode="&#xd7;" 
d="M264 1063l299 -299l299 299l127 -127l-299 -299l299 -299l-127 -127l-299 299l-299 -299l-127 127l299 299l-299 299z" />
    <glyph glyph-name="Oslash" unicode="&#xd8;" horiz-adv-x="1716" 
d="M1399 1372l-60 -88q122 -105 191 -252t69 -315q0 -203 -97 -373t-267.5 -269.5t-376.5 -99.5q-184 0 -346 84l-68 -100l-151 94l72 107q-117 103 -182.5 247.5t-65.5 309.5q0 152 57 288.5t155.5 236t236 158t292.5 58.5q176 0 332 -78l59 88zM1366 717q0 114 -38 215
t-107 176l-596 -881q105 -57 233 -57q145 0 261.5 72.5t181.5 197.5t65 277zM350 717q0 -228 135 -379l592 874q-104 52 -219 52q-145 0 -261.5 -72.5t-181.5 -197.5t-65 -277z" />
    <glyph glyph-name="Ugrave" unicode="&#xd9;" horiz-adv-x="1476" 
d="M1298 1434v-760q0 -346 -136.5 -522.5t-428.5 -176.5q-286 0 -420.5 176.5t-134.5 522.5v760h219v-807q0 -226 90 -341.5t250 -115.5q163 0 252.5 115.5t89.5 341.5v807h219zM778 1511l-362 261l119 149l339 -285z" />
    <glyph glyph-name="Uacute" unicode="&#xda;" horiz-adv-x="1476" 
d="M1298 1434v-760q0 -346 -136.5 -522.5t-428.5 -176.5q-286 0 -420.5 176.5t-134.5 522.5v760h219v-807q0 -226 90 -341.5t250 -115.5q163 0 252.5 115.5t89.5 341.5v807h219zM1061 1772l-363 -261l-96 125l340 285z" />
    <glyph glyph-name="Ucircumflex" unicode="&#xdb;" horiz-adv-x="1476" 
d="M1298 1434v-760q0 -346 -136.5 -522.5t-428.5 -176.5q-286 0 -420.5 176.5t-134.5 522.5v760h219v-807q0 -226 90 -341.5t250 -115.5q163 0 252.5 115.5t89.5 341.5v807h219zM641 1886h227l222 -270l-125 -96l-211 223l-215 -223l-125 96z" />
    <glyph glyph-name="Udieresis" unicode="&#xdc;" horiz-adv-x="1476" 
d="M1298 1434v-760q0 -346 -136.5 -522.5t-428.5 -176.5q-286 0 -420.5 176.5t-134.5 522.5v760h219v-807q0 -226 90 -341.5t250 -115.5q163 0 252.5 115.5t89.5 341.5v807h219zM575 1563h-231v233h231v-233zM1130 1563h-231v233h231v-233z" />
    <glyph glyph-name="Yacute" unicode="&#xdd;" horiz-adv-x="1163" 
d="M686 0h-219v618l-457 816h273l303 -582h4l307 582h256l-467 -826v-608zM893 1772l-363 -261l-96 125l340 285z" />
    <glyph glyph-name="Thorn" unicode="&#xde;" horiz-adv-x="1226" 
d="M186 1434h220v-275h215q74 0 144.5 -14.5t138 -47.5t118.5 -81.5t82 -123t31 -165.5q0 -92 -31 -167.5t-81.5 -124.5t-118 -82t-138.5 -47.5t-145 -14.5h-215v-291h-220v1434zM901 721q0 114 -80 180t-211 66h-204v-484h165q152 0 241 56.5t89 181.5z" />
    <glyph glyph-name="germandbls" unicode="&#xdf;" horiz-adv-x="1288" 
d="M367 0h-209v1104q0 138 62.5 243t167 159.5t233.5 54.5q194 0 323 -113.5t129 -302.5q0 -85 -42 -160t-109 -121q131 -44 204.5 -149.5t73.5 -263.5q0 -142 -66.5 -251.5t-178 -167t-246.5 -57.5q-117 0 -213 52l71 176q65 -39 144 -39q137 0 206.5 77.5t69.5 209.5
q0 148 -93 224.5t-239 76.5q-61 0 -92 -4v165h45q96 0 175 63t79 163q0 105 -65 169t-172 64q-128 0 -193 -81t-65 -226v-1065z" />
    <glyph glyph-name="agrave" unicode="&#xe0;" horiz-adv-x="1132" 
d="M979 0h-195l-6 104q-112 -129 -303 -129q-74 0 -139.5 19.5t-117.5 57.5t-82 100.5t-30 142.5q0 75 26.5 135t70 98t104 63t124 35.5t134.5 10.5q82 0 203 -23v31q0 240 -236 240q-157 0 -325 -92l-60 170q91 43 203 70.5t215 27.5q414 0 414 -432v-629zM768 258v209
q-93 18 -176 18q-51 0 -95.5 -8t-88.5 -26.5t-69.5 -56t-25.5 -89.5q0 -82 54.5 -122t138.5 -40q126 0 262 115zM553 1165l-281 334l150 117l258 -354z" />
    <glyph glyph-name="aacute" unicode="&#xe1;" horiz-adv-x="1132" 
d="M979 0h-195l-6 104q-112 -129 -303 -129q-74 0 -139.5 19.5t-117.5 57.5t-82 100.5t-30 142.5q0 75 26.5 135t70 98t104 63t124 35.5t134.5 10.5q82 0 203 -23v31q0 240 -236 240q-157 0 -325 -92l-60 170q91 43 203 70.5t215 27.5q414 0 414 -432v-629zM768 258v209
q-93 18 -176 18q-51 0 -95.5 -8t-88.5 -26.5t-69.5 -56t-25.5 -89.5q0 -82 54.5 -122t138.5 -40q126 0 262 115zM842 1499l-281 -334l-127 97l258 354z" />
    <glyph glyph-name="acircumflex" unicode="&#xe2;" horiz-adv-x="1132" 
d="M979 0h-195l-6 104q-112 -129 -303 -129q-74 0 -139.5 19.5t-117.5 57.5t-82 100.5t-30 142.5q0 75 26.5 135t70 98t104 63t124 35.5t134.5 10.5q82 0 203 -23v31q0 240 -236 240q-157 0 -325 -92l-60 170q91 43 203 70.5t215 27.5q414 0 414 -432v-629zM768 258v209
q-93 18 -176 18q-51 0 -95.5 -8t-88.5 -26.5t-69.5 -56t-25.5 -89.5q0 -82 54.5 -122t138.5 -40q126 0 262 115zM430 1593h213l211 -344l-123 -80l-196 277l-195 -277l-125 80z" />
    <glyph glyph-name="atilde" unicode="&#xe3;" horiz-adv-x="1132" 
d="M979 0h-195l-6 104q-112 -129 -303 -129q-74 0 -139.5 19.5t-117.5 57.5t-82 100.5t-30 142.5q0 75 26.5 135t70 98t104 63t124 35.5t134.5 10.5q82 0 203 -23v31q0 240 -236 240q-157 0 -325 -92l-60 170q91 43 203 70.5t215 27.5q414 0 414 -432v-629zM768 258v209
q-93 18 -176 18q-51 0 -95.5 -8t-88.5 -26.5t-69.5 -56t-25.5 -89.5q0 -82 54.5 -122t138.5 -40q126 0 262 115zM340 1239l-141 -14q-9 31 -9 53q0 90 59 144.5t152 54.5q48 0 95 -19.5t78 -43t66 -43t62 -19.5t45 15.5t19 43.5q0 13 -2 19l141 14q8 -28 8 -53
q0 -90 -59 -144.5t-152 -54.5q-48 0 -95 19.5t-78 43t-66 43t-62 19.5t-44.5 -15.5t-18.5 -44.5q0 -12 2 -18z" />
    <glyph glyph-name="adieresis" unicode="&#xe4;" horiz-adv-x="1132" 
d="M979 0h-195l-6 104q-112 -129 -303 -129q-74 0 -139.5 19.5t-117.5 57.5t-82 100.5t-30 142.5q0 75 26.5 135t70 98t104 63t124 35.5t134.5 10.5q82 0 203 -23v31q0 240 -236 240q-157 0 -325 -92l-60 170q91 43 203 70.5t215 27.5q414 0 414 -432v-629zM768 258v209
q-93 18 -176 18q-51 0 -95.5 -8t-88.5 -26.5t-69.5 -56t-25.5 -89.5q0 -82 54.5 -122t138.5 -40q126 0 262 115zM438 1225h-215v219h215v-219zM874 1225h-215v219h215v-219z" />
    <glyph glyph-name="aring" unicode="&#xe5;" horiz-adv-x="1132" 
d="M979 0h-195l-6 104q-112 -129 -303 -129q-74 0 -139.5 19.5t-117.5 57.5t-82 100.5t-30 142.5q0 75 26.5 135t70 98t104 63t124 35.5t134.5 10.5q82 0 203 -23v31q0 240 -236 240q-157 0 -325 -92l-60 170q91 43 203 70.5t215 27.5q414 0 414 -432v-629zM768 258v209
q-93 18 -176 18q-51 0 -95.5 -8t-88.5 -26.5t-69.5 -56t-25.5 -89.5q0 -82 54.5 -122t138.5 -40q126 0 262 115zM356 1364q0 83 59 142t142 59t142 -59t59 -142t-59 -142t-142 -59t-142 59t-59 142zM467 1364q0 -37 26.5 -63.5t63.5 -26.5t63.5 26.5t26.5 63.5t-26.5 63.5
t-63.5 26.5t-63.5 -26.5t-26.5 -63.5z" />
    <glyph glyph-name="ae" unicode="&#xe6;" horiz-adv-x="1839" 
d="M799 291q-30 82 -39 176q-85 18 -168 18q-51 0 -95.5 -8t-88.5 -26.5t-69.5 -56t-25.5 -89.5q0 -82 54.5 -122t138.5 -40q162 0 293 148zM1587 317l150 -96q-82 -127 -192 -186.5t-267 -59.5q-126 0 -227.5 45.5t-169.5 126.5q-155 -172 -406 -172q-74 0 -139.5 19.5
t-117.5 57.5t-82 100.5t-30 142.5q0 75 26.5 135t70 98t104 63t124 35.5t134.5 10.5q82 0 203 -23v31q0 240 -236 240q-157 0 -325 -92l-60 170q91 43 203 70.5t215 27.5q255 0 348 -164q145 164 365 164q207 0 343 -137t136 -344q0 -63 -10 -115h-774q11 -132 96 -221.5
t219 -89.5q208 0 299 163zM1280 885q-115 0 -190.5 -71.5t-104.5 -186.5h553q-6 108 -78.5 183t-179.5 75z" />
    <glyph glyph-name="ccedilla" unicode="&#xe7;" horiz-adv-x="991" 
d="M836 240l106 -156q-128 -109 -330 -109q-25 0 -37 2l-40 -108l2 -2q44 33 98 33q71 0 125.5 -56t54.5 -139q0 -85 -65 -149t-160 -64q-146 0 -217 127l123 59q21 -65 90 -65q37 0 61.5 25.5t24.5 60.5q0 39 -25 66.5t-63 27.5q-56 0 -80 -47l-131 68l78 184
q-166 47 -267.5 186t-101.5 334q0 149 70.5 274t194.5 197t274 72q174 0 311 -98l-103 -166q-96 73 -208 73q-135 0 -229.5 -103t-94.5 -249q0 -154 95.5 -253t228.5 -99q53 0 113 20.5t102 53.5z" />
    <glyph glyph-name="egrave" unicode="&#xe8;" horiz-adv-x="1161" 
d="M295 465q11 -133 95.5 -222t217.5 -89q210 0 301 163l148 -96q-80 -127 -190 -186.5t-269 -59.5q-238 0 -377 153t-139 388q0 152 68 277t186.5 196.5t261.5 71.5q209 0 345 -136.5t136 -344.5q0 -63 -10 -115h-774zM860 627q-6 108 -78.5 183t-179.5 75
q-115 0 -190.5 -71.5t-104.5 -186.5h553zM584 1165l-281 334l150 117l258 -354z" />
    <glyph glyph-name="eacute" unicode="&#xe9;" horiz-adv-x="1161" 
d="M295 465q11 -133 95.5 -222t217.5 -89q210 0 301 163l148 -96q-80 -127 -190 -186.5t-269 -59.5q-238 0 -377 153t-139 388q0 152 68 277t186.5 196.5t261.5 71.5q209 0 345 -136.5t136 -344.5q0 -63 -10 -115h-774zM860 627q-6 108 -78.5 183t-179.5 75
q-115 0 -190.5 -71.5t-104.5 -186.5h553zM905 1499l-280 -334l-127 97l258 354z" />
    <glyph glyph-name="ecircumflex" unicode="&#xea;" horiz-adv-x="1161" 
d="M295 465q11 -133 95.5 -222t217.5 -89q210 0 301 163l148 -96q-80 -127 -190 -186.5t-269 -59.5q-238 0 -377 153t-139 388q0 152 68 277t186.5 196.5t261.5 71.5q209 0 345 -136.5t136 -344.5q0 -63 -10 -115h-774zM860 627q-6 108 -78.5 183t-179.5 75
q-115 0 -190.5 -71.5t-104.5 -186.5h553zM494 1593h213l211 -344l-123 -80l-197 277l-195 -277l-124 80z" />
    <glyph glyph-name="edieresis" unicode="&#xeb;" horiz-adv-x="1161" 
d="M295 465q11 -133 95.5 -222t217.5 -89q210 0 301 163l148 -96q-80 -127 -190 -186.5t-269 -59.5q-238 0 -377 153t-139 388q0 152 68 277t186.5 196.5t261.5 71.5q209 0 345 -136.5t136 -344.5q0 -63 -10 -115h-774zM860 627q-6 108 -78.5 183t-179.5 75
q-115 0 -190.5 -71.5t-104.5 -186.5h553zM489 1225h-215v219h215v-219zM926 1225h-215v219h215v-219z" />
    <glyph glyph-name="igrave" unicode="&#xec;" horiz-adv-x="538" 
d="M375 0h-211v1036h211v-1036zM248 1165l-281 334l150 117l258 -354z" />
    <glyph glyph-name="iacute" unicode="&#xed;" horiz-adv-x="538" 
d="M375 0h-211v1036h211v-1036zM569 1499l-280 -334l-127 97l258 354z" />
    <glyph glyph-name="icircumflex" unicode="&#xee;" horiz-adv-x="538" 
d="M375 0h-211v1036h211v-1036zM164 1593h213l211 -344l-123 -80l-197 277l-194 -277l-125 80z" />
    <glyph glyph-name="idieresis" unicode="&#xef;" horiz-adv-x="538" 
d="M168 1225h-215v219h215v-219zM590 1225h-215v219h215v-219zM375 0h-211v1036h211v-1036z" />
    <glyph glyph-name="eth" unicode="&#xf0;" horiz-adv-x="1189" 
d="M360 1024l-141 84l111 192q-77 43 -195 91l78 178q111 -49 211 -101l106 189l146 -82l-107 -186q265 -167 402 -388.5t137 -511.5q0 -104 -36.5 -197t-103 -163.5t-167.5 -112t-223 -41.5q-146 0 -261 72t-175 187t-60 249q0 130 61 240t167 174t233 64q76 0 131.5 -15.5
t118.5 -50.5q-111 187 -320 324zM608 778q-136 0 -225.5 -77.5t-89.5 -219.5q0 -134 84.5 -228.5t216.5 -94.5q79 0 139 28.5t95 78.5t52 111.5t17 133.5q0 83 -31 201q-115 67 -258 67z" />
    <glyph glyph-name="ntilde" unicode="&#xf1;" horiz-adv-x="1247" 
d="M164 1036h201l6 -164q58 90 146.5 139.5t189.5 49.5q197 0 294 -131q93 -127 93 -391v-539h-211v520q0 193 -49 271q-50 79 -170 79q-82 0 -159.5 -50.5t-129.5 -133.5v-686h-211v1036zM455 1239l-142 -14q-8 28 -8 53q0 90 59 144.5t152 54.5q48 0 95 -19.5t78 -43
t66 -43t62 -19.5t45 15.5t19 43.5q0 13 -2 19l141 14q8 -28 8 -53q0 -90 -59 -144.5t-152 -54.5q-48 0 -95 19.5t-78 43t-66 43t-62 19.5t-44.5 -15.5t-18.5 -44.5q0 -12 2 -18z" />
    <glyph glyph-name="ograve" unicode="&#xf2;" horiz-adv-x="1228" 
d="M614 1061q150 0 272.5 -72t191.5 -196.5t69 -274.5t-69 -274.5t-191.5 -196.5t-272.5 -72q-228 0 -380 157t-152 386t152 386t380 157zM932 518q0 148 -90.5 250t-227.5 102t-227 -102t-90 -250q0 -147 90.5 -249.5t226.5 -102.5t227 102.5t91 249.5zM575 1165l-280 334
l149 117l258 -354z" />
    <glyph glyph-name="oacute" unicode="&#xf3;" horiz-adv-x="1228" 
d="M614 1061q150 0 272.5 -72t191.5 -196.5t69 -274.5t-69 -274.5t-191.5 -196.5t-272.5 -72q-228 0 -380 157t-152 386t152 386t380 157zM932 518q0 148 -90.5 250t-227.5 102t-227 -102t-90 -250q0 -147 90.5 -249.5t226.5 -102.5t227 102.5t91 249.5zM924 1499l-281 -334
l-127 97l258 354z" />
    <glyph glyph-name="ocircumflex" unicode="&#xf4;" horiz-adv-x="1228" 
d="M614 1061q150 0 272.5 -72t191.5 -196.5t69 -274.5t-69 -274.5t-191.5 -196.5t-272.5 -72q-228 0 -380 157t-152 386t152 386t380 157zM932 518q0 148 -90.5 250t-227.5 102t-227 -102t-90 -250q0 -147 90.5 -249.5t226.5 -102.5t227 102.5t91 249.5zM508 1593h213
l211 -344l-123 -80l-197 277l-194 -277l-125 80z" />
    <glyph glyph-name="otilde" unicode="&#xf5;" horiz-adv-x="1228" 
d="M614 1061q150 0 272.5 -72t191.5 -196.5t69 -274.5t-69 -274.5t-191.5 -196.5t-272.5 -72q-228 0 -380 157t-152 386t152 386t380 157zM932 518q0 148 -90.5 250t-227.5 102t-227 -102t-90 -250q0 -147 90.5 -249.5t226.5 -102.5t227 102.5t91 249.5zM420 1239l-141 -14
q-9 31 -9 53q0 90 59 144.5t152 54.5q48 0 95 -19.5t78 -43t66 -43t62 -19.5t45 15.5t19 43.5q0 13 -2 19l141 14q8 -28 8 -53q0 -90 -59 -144.5t-152 -54.5q-48 0 -95 19.5t-78 43t-66 43t-62 19.5t-44.5 -15.5t-18.5 -44.5q0 -12 2 -18z" />
    <glyph glyph-name="odieresis" unicode="&#xf6;" horiz-adv-x="1228" 
d="M614 1061q150 0 272.5 -72t191.5 -196.5t69 -274.5t-69 -274.5t-191.5 -196.5t-272.5 -72q-228 0 -380 157t-152 386t152 386t380 157zM932 518q0 148 -90.5 250t-227.5 102t-227 -102t-90 -250q0 -147 90.5 -249.5t226.5 -102.5t227 102.5t91 249.5zM504 1225h-215v219
h215v-219zM940 1225h-215v219h215v-219z" />
    <glyph glyph-name="divide" unicode="&#xf7;" 
d="M49 549v178h1026v-178h-1026zM682 113h-240v254h240v-254zM682 909h-240v254h240v-254z" />
    <glyph glyph-name="oslash" unicode="&#xf8;" horiz-adv-x="1228" 
d="M614 1061q132 0 236 -55l51 75l121 -77l-53 -76q83 -75 130.5 -182t47.5 -228q0 -150 -69 -274.5t-191.5 -196.5t-272.5 -72q-130 0 -247 60l-56 -82l-121 78l60 86q-79 75 -123.5 179t-44.5 222q0 229 152 386t380 157zM932 518q0 140 -80 236l-375 -555q59 -33 137 -33
q136 0 227 102.5t91 249.5zM297 518q0 -130 70 -225l372 549q-54 28 -125 28q-137 0 -227 -102t-90 -250z" />
    <glyph glyph-name="ugrave" unicode="&#xf9;" horiz-adv-x="1247" 
d="M1083 0h-200l-6 164q-58 -90 -146.5 -139.5t-189.5 -49.5q-198 0 -295 131q-92 125 -92 392v538h211v-520q0 -192 49 -270q51 -80 170 -80q82 0 159 50.5t129 133.5v686h211v-1036zM625 1165l-281 334l150 117l258 -354z" />
    <glyph glyph-name="uacute" unicode="&#xfa;" horiz-adv-x="1247" 
d="M1083 0h-200l-6 164q-58 -90 -146.5 -139.5t-189.5 -49.5q-198 0 -295 131q-92 125 -92 392v538h211v-520q0 -192 49 -270q51 -80 170 -80q82 0 159 50.5t129 133.5v686h211v-1036zM924 1499l-281 -334l-127 97l258 354z" />
    <glyph glyph-name="ucircumflex" unicode="&#xfb;" horiz-adv-x="1247" 
d="M1083 0h-200l-6 164q-58 -90 -146.5 -139.5t-189.5 -49.5q-198 0 -295 131q-92 125 -92 392v538h211v-520q0 -192 49 -270q51 -80 170 -80q82 0 159 50.5t129 133.5v686h211v-1036zM526 1593h213l211 -344l-123 -80l-196 277l-195 -277l-125 80z" />
    <glyph glyph-name="udieresis" unicode="&#xfc;" horiz-adv-x="1247" 
d="M1083 0h-200l-6 164q-58 -90 -146.5 -139.5t-189.5 -49.5q-198 0 -295 131q-92 125 -92 392v538h211v-520q0 -192 49 -270q51 -80 170 -80q82 0 159 50.5t129 133.5v686h211v-1036zM508 1225h-215v219h215v-219zM944 1225h-215v219h215v-219z" />
    <glyph glyph-name="yacute" unicode="&#xfd;" horiz-adv-x="1003" 
d="M10 1036h234l254 -745h4l262 745h229l-583 -1505l-187 74l164 434zM778 1499l-280 -334l-127 97l258 354z" />
    <glyph glyph-name="thorn" unicode="&#xfe;" horiz-adv-x="1290" 
d="M164 1536h213v-631q53 75 141.5 115.5t181.5 40.5q144 0 260.5 -73t182 -197.5t65.5 -274.5q0 -140 -63 -263t-182 -200.5t-267 -77.5q-89 0 -173.5 35t-145.5 99v-621h-213v2048zM377 688v-375q51 -71 128 -109t157 -38q81 0 146 31t104.5 82.5t60 113t20.5 127.5
q0 144 -90 247t-237 103q-86 0 -169 -47.5t-120 -134.5z" />
    <glyph glyph-name="ydieresis" unicode="&#xff;" horiz-adv-x="1003" 
d="M10 1036h234l254 -745h4l262 745h229l-583 -1505l-187 74l164 434zM395 1225h-215v219h215v-219zM831 1225h-215v219h215v-219z" />
    <glyph glyph-name="Amacron" unicode="&#x100;" horiz-adv-x="1355" 
d="M1071 0l-106 295h-588l-107 -295h-241l563 1434h186l547 -1434h-254zM672 1100l-223 -613h446l-221 613h-2zM1028 1583h-692v158h692v-158z" />
    <glyph glyph-name="amacron" unicode="&#x101;" horiz-adv-x="1132" 
d="M979 0h-195l-6 104q-112 -129 -303 -129q-74 0 -139.5 19.5t-117.5 57.5t-82 100.5t-30 142.5q0 75 26.5 135t70 98t104 63t124 35.5t134.5 10.5q82 0 203 -23v31q0 240 -236 240q-157 0 -325 -92l-60 170q91 43 203 70.5t215 27.5q414 0 414 -432v-629zM768 258v209
q-93 18 -176 18q-51 0 -95.5 -8t-88.5 -26.5t-69.5 -56t-25.5 -89.5q0 -82 54.5 -122t138.5 -40q126 0 262 115zM887 1245h-631v158h631v-158z" />
    <glyph glyph-name="Abreve" unicode="&#x102;" horiz-adv-x="1355" 
d="M1071 0l-106 295h-588l-107 -295h-241l563 1434h186l547 -1434h-254zM672 1100l-223 -613h446l-221 613h-2zM840 1855h147v-14q0 -126 -87 -208.5t-216 -82.5t-216 82.5t-87 208.5v14h147v-16q0 -63 45 -103t111 -40t111 40t45 103v16z" />
    <glyph glyph-name="abreve" unicode="&#x103;" horiz-adv-x="1132" 
d="M979 0h-195l-6 104q-112 -129 -303 -129q-74 0 -139.5 19.5t-117.5 57.5t-82 100.5t-30 142.5q0 75 26.5 135t70 98t104 63t124 35.5t134.5 10.5q82 0 203 -23v31q0 240 -236 240q-157 0 -325 -92l-60 170q91 43 203 70.5t215 27.5q414 0 414 -432v-629zM768 258v209
q-93 18 -176 18q-51 0 -95.5 -8t-88.5 -26.5t-69.5 -56t-25.5 -89.5q0 -82 54.5 -122t138.5 -40q126 0 262 115zM745 1505h148v-37q0 -128 -87.5 -215.5t-215.5 -87.5t-215.5 87.5t-87.5 215.5v37h151v-39q0 -65 44 -110t108 -45t109.5 45.5t45.5 109.5v39z" />
    <glyph glyph-name="Aogonek" unicode="&#x104;" horiz-adv-x="1355" 
d="M672 1100l-223 -613h446l-221 613h-2zM905 -252q0 78 44 146t122 108l-106 293h-588l-107 -295h-241l563 1434h186l547 -1434q-120 -27 -177.5 -88.5t-57.5 -130.5q0 -41 23.5 -64.5t66.5 -23.5q45 0 90 28l67 -116q-73 -64 -194 -64q-98 0 -168 56t-70 151z" />
    <glyph glyph-name="aogonek" unicode="&#x105;" horiz-adv-x="1132" 
d="M768 258v209q-93 18 -176 18q-51 0 -95.5 -8t-88.5 -26.5t-69.5 -56t-25.5 -89.5q0 -82 54.5 -122t138.5 -40q126 0 262 115zM979 0q-82 -20 -150.5 -80t-68.5 -139q0 -41 23.5 -64.5t66.5 -23.5q47 0 92 28l66 -116q-73 -64 -193 -64q-99 0 -169.5 55t-70.5 148
q0 87 52 149.5t157 114.5l-6 96q-112 -129 -303 -129q-74 0 -139.5 19.5t-117.5 57.5t-82 100.5t-30 142.5q0 75 26.5 135t70 98t104 63t124 35.5t134.5 10.5q82 0 203 -23v31q0 240 -236 240q-157 0 -325 -92l-60 170q91 43 203 70.5t215 27.5q414 0 414 -432v-629z" />
    <glyph glyph-name="Cacute" unicode="&#x106;" horiz-adv-x="1380" 
d="M350 717q0 -249 148 -398t389 -149q168 0 313 106l119 -161q-198 -140 -436 -140q-160 0 -300.5 53.5t-243.5 148.5t-162.5 235t-59.5 305q0 207 103.5 377.5t280 267t386.5 96.5q211 0 397 -119l-104 -168q-145 93 -293 93q-233 0 -385 -155t-152 -392zM1188 1772
l-363 -261l-96 125l340 285z" />
    <glyph glyph-name="cacute" unicode="&#x107;" horiz-adv-x="991" 
d="M836 240l106 -156q-128 -109 -330 -109q-111 0 -208.5 39.5t-168.5 109.5t-112 172t-41 222q0 149 70.5 274t194.5 197t274 72q174 0 311 -98l-103 -166q-96 73 -208 73q-135 0 -229.5 -103t-94.5 -249q0 -154 95.5 -253t228.5 -99q53 0 113 20.5t102 53.5zM924 1499
l-281 -334l-127 97l258 354z" />
    <glyph glyph-name="Ccircumflex" unicode="&#x108;" horiz-adv-x="1380" 
d="M350 717q0 -249 148 -398t389 -149q168 0 313 106l119 -161q-198 -140 -436 -140q-160 0 -300.5 53.5t-243.5 148.5t-162.5 235t-59.5 305q0 207 103.5 377.5t280 267t386.5 96.5q211 0 397 -119l-104 -168q-145 93 -293 93q-233 0 -385 -155t-152 -392zM754 1886h227
l221 -270l-125 -96l-211 223l-215 -223l-125 96z" />
    <glyph glyph-name="ccircumflex" unicode="&#x109;" horiz-adv-x="991" 
d="M836 240l106 -156q-128 -109 -330 -109q-111 0 -208.5 39.5t-168.5 109.5t-112 172t-41 222q0 149 70.5 274t194.5 197t274 72q174 0 311 -98l-103 -166q-96 73 -208 73q-135 0 -229.5 -103t-94.5 -249q0 -154 95.5 -253t228.5 -99q53 0 113 20.5t102 53.5zM496 1593h213
l211 -344l-123 -80l-197 277l-194 -277l-125 80z" />
    <glyph glyph-name="Cdotaccent" unicode="&#x10a;" horiz-adv-x="1380" 
d="M350 717q0 -249 148 -398t389 -149q168 0 313 106l119 -161q-198 -140 -436 -140q-160 0 -300.5 53.5t-243.5 148.5t-162.5 235t-59.5 305q0 207 103.5 377.5t280 267t386.5 96.5q211 0 397 -119l-104 -168q-145 93 -293 93q-233 0 -385 -155t-152 -392zM973 1563h-230
v233h230v-233z" />
    <glyph glyph-name="cdotaccent" unicode="&#x10b;" horiz-adv-x="991" 
d="M836 240l106 -156q-128 -109 -330 -109q-111 0 -208.5 39.5t-168.5 109.5t-112 172t-41 222q0 149 70.5 274t194.5 197t274 72q174 0 311 -98l-103 -166q-96 73 -208 73q-135 0 -229.5 -103t-94.5 -249q0 -154 95.5 -253t228.5 -99q53 0 113 20.5t102 53.5zM688 1225
h-211v219h211v-219z" />
    <glyph glyph-name="Ccaron" unicode="&#x10c;" horiz-adv-x="1380" 
d="M350 717q0 -249 148 -398t389 -149q168 0 313 106l119 -161q-198 -140 -436 -140q-160 0 -300.5 53.5t-243.5 148.5t-162.5 235t-59.5 305q0 207 103.5 377.5t280 267t386.5 96.5q211 0 397 -119l-104 -168q-145 93 -293 93q-233 0 -385 -155t-152 -392zM977 1542h-227
l-222 270l129 97l211 -223l215 223l121 -97z" />
    <glyph glyph-name="ccaron" unicode="&#x10d;" horiz-adv-x="991" 
d="M836 240l106 -156q-128 -109 -330 -109q-111 0 -208.5 39.5t-168.5 109.5t-112 172t-41 222q0 149 70.5 274t194.5 197t274 72q174 0 311 -98l-103 -166q-96 73 -208 73q-135 0 -229.5 -103t-94.5 -249q0 -154 95.5 -253t228.5 -99q53 0 113 20.5t102 53.5zM707 1169
h-213l-211 344l127 78l196 -276l195 276l121 -78z" />
    <glyph glyph-name="Dcaron" unicode="&#x10e;" horiz-adv-x="1470" 
d="M186 0v1434h394q114 0 221.5 -23.5t209 -78t177 -135t121 -202.5t45.5 -272q0 -154 -45.5 -278t-121.5 -206t-179.5 -137t-214.5 -78.5t-232 -23.5h-375zM1120 705q0 260 -150.5 398t-424.5 138h-139v-1048h59q152 0 268 26.5t205 84.5t135.5 159t46.5 242zM776 1542
h-227l-221 270l129 97l211 -223l215 223l121 -97z" />
    <glyph glyph-name="dcaron" unicode="&#x10f;" horiz-adv-x="1327" 
d="M1126 1536v-1536h-200l-6 137q-53 -78 -143.5 -120t-186.5 -42q-144 0 -260.5 73t-182 197.5t-65.5 274.5q0 140 63 263t182 200.5t267 77.5q89 0 174.5 -35.5t146.5 -99.5v610h211zM915 721q-51 71 -129 110t-157 39q-81 0 -146 -31t-104.5 -82.5t-60.5 -113t-21 -127.5
q0 -144 90.5 -247t237.5 -103q86 0 169 48.5t121 135.5v371zM1366 1118h-176l82 418h205z" />
    <glyph glyph-name="Dcroat" unicode="&#x110;" horiz-adv-x="1470" 
d="M186 0v653h-141v172h141v609h394q114 0 221.5 -23.5t209 -78t177 -135t121 -202.5t45.5 -272q0 -154 -45.5 -278t-121.5 -206t-179.5 -137t-214.5 -78.5t-232 -23.5h-375zM1120 705q0 260 -150.5 398t-424.5 138h-139v-416h243v-172h-243v-460h59q152 0 268 26.5
t205 84.5t135.5 159t46.5 242z" />
    <glyph glyph-name="dcroat" unicode="&#x111;" horiz-adv-x="1290" 
d="M590 -25q-144 0 -260.5 73t-182 197.5t-65.5 274.5q0 140 63 263t182 200.5t267 77.5q89 0 174.5 -35.5t146.5 -99.5v276h-333v160h333v174h211v-174h144v-160h-144v-1202h-200l-6 137q-53 -78 -143.5 -120t-186.5 -42zM625 166q86 0 169 48.5t121 135.5v371
q-51 71 -129 110t-157 39q-81 0 -146 -31t-104.5 -82.5t-60.5 -113t-21 -127.5q0 -144 90.5 -247t237.5 -103z" />
    <glyph glyph-name="Emacron" unicode="&#x112;" horiz-adv-x="1187" 
d="M1061 0h-875v1434h875v-193h-655v-405h655v-193h-655v-450h655v-193zM985 1583h-692v158h692v-158z" />
    <glyph glyph-name="emacron" unicode="&#x113;" horiz-adv-x="1161" 
d="M295 465q11 -133 95.5 -222t217.5 -89q210 0 301 163l148 -96q-80 -127 -190 -186.5t-269 -59.5q-238 0 -377 153t-139 388q0 152 68 277t186.5 196.5t261.5 71.5q209 0 345 -136.5t136 -344.5q0 -63 -10 -115h-774zM860 627q-6 108 -78.5 183t-179.5 75
q-115 0 -190.5 -71.5t-104.5 -186.5h553zM918 1245h-631v158h631v-158z" />
    <glyph glyph-name="Ebreve" unicode="&#x114;" horiz-adv-x="1187" 
d="M1061 0h-875v1434h875v-193h-655v-405h655v-193h-655v-450h655v-193zM819 1855h148v-14q0 -126 -87 -208.5t-216 -82.5t-216.5 82.5t-87.5 208.5v14h148v-16q0 -63 45 -103t111 -40t110.5 40t44.5 103v16z" />
    <glyph glyph-name="ebreve" unicode="&#x115;" horiz-adv-x="1161" 
d="M295 465q11 -133 95.5 -222t217.5 -89q210 0 301 163l148 -96q-80 -127 -190 -186.5t-269 -59.5q-238 0 -377 153t-139 388q0 152 68 277t186.5 196.5t261.5 71.5q209 0 345 -136.5t136 -344.5q0 -63 -10 -115h-774zM860 627q-6 108 -78.5 183t-179.5 75
q-115 0 -190.5 -71.5t-104.5 -186.5h553zM756 1505h147v-37q0 -128 -87.5 -215.5t-215.5 -87.5t-215.5 87.5t-87.5 215.5v37h152v-39q0 -65 43.5 -110t107.5 -45q65 0 110.5 45.5t45.5 109.5v39z" />
    <glyph glyph-name="Edotaccent" unicode="&#x116;" horiz-adv-x="1187" 
d="M1061 0h-875v1434h875v-193h-655v-405h655v-193h-655v-450h655v-193zM758 1563h-230v233h230v-233z" />
    <glyph glyph-name="edotaccent" unicode="&#x117;" horiz-adv-x="1161" 
d="M295 465q11 -133 95.5 -222t217.5 -89q210 0 301 163l148 -96q-80 -127 -190 -186.5t-269 -59.5q-238 0 -377 153t-139 388q0 152 68 277t186.5 196.5t261.5 71.5q209 0 345 -136.5t136 -344.5q0 -63 -10 -115h-774zM860 627q-6 108 -78.5 183t-179.5 75
q-115 0 -190.5 -71.5t-104.5 -186.5h553zM696 1225h-211v219h211v-219z" />
    <glyph glyph-name="Eogonek" unicode="&#x118;" horiz-adv-x="1187" 
d="M186 0v1434h875v-193h-655v-405h655v-193h-655v-450h655v-193q-118 -17 -182 -84.5t-64 -134.5q0 -41 23.5 -64.5t66.5 -23.5q47 0 92 28l66 -116q-73 -64 -193 -64q-99 0 -169 55.5t-70 151.5q0 78 45 144.5t129 107.5h-619z" />
    <glyph glyph-name="eogonek" unicode="&#x119;" horiz-adv-x="1161" 
d="M860 627q-6 108 -78.5 183t-179.5 75q-115 0 -190.5 -71.5t-104.5 -186.5h553zM295 465q11 -133 95.5 -222t217.5 -89q210 0 301 163l148 -96q-97 -154 -260 -217q-96 -38 -150.5 -91.5t-54.5 -115.5q0 -51 23.5 -77.5t66.5 -26.5q44 0 92 28l66 -116q-73 -64 -195 -64
q-101 0 -169 55.5t-68 151.5q0 65 36.5 127t98.5 105q-212 20 -336.5 169t-124.5 367q0 152 68 277t186.5 196.5t261.5 71.5q209 0 345 -136.5t136 -344.5q0 -63 -10 -115h-774z" />
    <glyph glyph-name="Ecaron" unicode="&#x11a;" horiz-adv-x="1187" 
d="M1061 0h-875v1434h875v-193h-655v-405h655v-193h-655v-450h655v-193zM743 1542h-227l-221 270l129 97l211 -223l215 223l121 -97z" />
    <glyph glyph-name="ecaron" unicode="&#x11b;" horiz-adv-x="1161" 
d="M295 465q11 -133 95.5 -222t217.5 -89q210 0 301 163l148 -96q-80 -127 -190 -186.5t-269 -59.5q-238 0 -377 153t-139 388q0 152 68 277t186.5 196.5t261.5 71.5q209 0 345 -136.5t136 -344.5q0 -63 -10 -115h-774zM860 627q-6 108 -78.5 183t-179.5 75
q-115 0 -190.5 -71.5t-104.5 -186.5h553zM705 1169h-213l-211 344l127 78l196 -276l195 276l121 -78z" />
    <glyph glyph-name="Gcircumflex" unicode="&#x11c;" horiz-adv-x="1640" 
d="M1264 610h-361v193h580v-549q-105 -134 -260.5 -206.5t-335.5 -72.5q-218 0 -393 92.5t-276 262.5t-101 387q0 207 103.5 377.5t280 267t386.5 96.5q166 0 312 -68t253 -192l-154 -131q-78 90 -185 143.5t-226 53.5q-233 0 -385 -155t-152 -392q0 -249 148.5 -398
t388.5 -149q106 0 205 38.5t172 108.5v293zM774 1886h227l222 -270l-125 -96l-211 223l-215 -223l-125 96z" />
    <glyph glyph-name="gcircumflex" unicode="&#x11d;" horiz-adv-x="1280" 
d="M915 375v346q-51 71 -129 110t-157 39q-81 0 -146 -29.5t-104.5 -78.5t-60.5 -109t-21 -125q0 -143 90 -240.5t238 -97.5q86 0 169 49t121 136zM915 158q-54 -75 -143 -116.5t-182 -41.5q-219 0 -363.5 152t-144.5 380q0 140 63 260t181.5 194.5t267.5 74.5
q91 0 179 -37.5t149 -103.5l4 116h200v-981q0 -164 -57 -272q-66 -124 -188.5 -183t-276.5 -59q-123 0 -246 36t-219 104l82 178q75 -56 180 -91.5t197 -35.5q138 0 227.5 72.5t89.5 220.5v133zM500 1593h213l211 -344l-123 -80l-197 277l-194 -277l-125 80z" />
    <glyph glyph-name="Gbreve" unicode="&#x11e;" horiz-adv-x="1640" 
d="M1264 610h-361v193h580v-549q-105 -134 -260.5 -206.5t-335.5 -72.5q-218 0 -393 92.5t-276 262.5t-101 387q0 207 103.5 377.5t280 267t386.5 96.5q166 0 312 -68t253 -192l-154 -131q-78 90 -185 143.5t-226 53.5q-233 0 -385 -155t-152 -392q0 -249 148.5 -398
t388.5 -149q106 0 205 38.5t172 108.5v293zM1044 1855h148v-14q0 -126 -87 -208.5t-216 -82.5t-216 82.5t-87 208.5v14h147v-16q0 -63 45 -103t111 -40t110.5 40t44.5 103v16z" />
    <glyph glyph-name="gbreve" unicode="&#x11f;" horiz-adv-x="1280" 
d="M915 375v346q-51 71 -129 110t-157 39q-81 0 -146 -29.5t-104.5 -78.5t-60.5 -109t-21 -125q0 -143 90 -240.5t238 -97.5q86 0 169 49t121 136zM915 158q-54 -75 -143 -116.5t-182 -41.5q-219 0 -363.5 152t-144.5 380q0 140 63 260t181.5 194.5t267.5 74.5
q91 0 179 -37.5t149 -103.5l4 116h200v-981q0 -164 -57 -272q-66 -124 -188.5 -183t-276.5 -59q-123 0 -246 36t-219 104l82 178q75 -56 180 -91.5t197 -35.5q138 0 227.5 72.5t89.5 220.5v133zM778 1505h148v-37q0 -128 -88 -215.5t-215 -87.5q-128 0 -216 88t-88 215v37
h152v-39q0 -65 44 -110t108 -45q65 0 110 45.5t45 109.5v39z" />
    <glyph glyph-name="Gdotaccent" unicode="&#x120;" horiz-adv-x="1640" 
d="M1264 610h-361v193h580v-549q-105 -134 -260.5 -206.5t-335.5 -72.5q-218 0 -393 92.5t-276 262.5t-101 387q0 207 103.5 377.5t280 267t386.5 96.5q166 0 312 -68t253 -192l-154 -131q-78 90 -185 143.5t-226 53.5q-233 0 -385 -155t-152 -392q0 -249 148.5 -398
t388.5 -149q106 0 205 38.5t172 108.5v293zM975 1563h-230v233h230v-233z" />
    <glyph glyph-name="gdotaccent" unicode="&#x121;" horiz-adv-x="1280" 
d="M915 375v346q-51 71 -129 110t-157 39q-81 0 -146 -29.5t-104.5 -78.5t-60.5 -109t-21 -125q0 -143 90 -240.5t238 -97.5q86 0 169 49t121 136zM915 158q-54 -75 -143 -116.5t-182 -41.5q-219 0 -363.5 152t-144.5 380q0 140 63 260t181.5 194.5t267.5 74.5
q91 0 179 -37.5t149 -103.5l4 116h200v-981q0 -164 -57 -272q-66 -124 -188.5 -183t-276.5 -59q-123 0 -246 36t-219 104l82 178q75 -56 180 -91.5t197 -35.5q138 0 227.5 72.5t89.5 220.5v133zM711 1225h-211v219h211v-219z" />
    <glyph glyph-name="Gcommaaccent" unicode="&#x122;" horiz-adv-x="1640" 
d="M1264 610h-361v193h580v-549q-105 -134 -260.5 -206.5t-335.5 -72.5q-218 0 -393 92.5t-276 262.5t-101 387q0 207 103.5 377.5t280 267t386.5 96.5q166 0 312 -68t253 -192l-154 -131q-78 90 -185 143.5t-226 53.5q-233 0 -385 -155t-152 -392q0 -249 148.5 -398
t388.5 -149q106 0 205 38.5t172 108.5v293zM834 -481h-170l73 364h197z" />
    <glyph glyph-name="gcommaaccent" unicode="&#x123;" horiz-adv-x="1280" 
d="M915 375v346q-51 71 -129 110t-157 39q-81 0 -146 -29.5t-104.5 -78.5t-60.5 -109t-21 -125q0 -143 90 -240.5t238 -97.5q86 0 169 49t121 136zM915 158q-54 -75 -143 -116.5t-182 -41.5q-219 0 -363.5 152t-144.5 380q0 140 63 260t181.5 194.5t267.5 74.5
q91 0 179 -37.5t149 -103.5l4 116h200v-981q0 -164 -57 -272q-66 -124 -188.5 -183t-276.5 -59q-123 0 -246 36t-219 104l82 178q75 -56 180 -91.5t197 -35.5q138 0 227.5 72.5t89.5 220.5v133zM606 1540h176l-75 -373h-201z" />
    <glyph glyph-name="Hcircumflex" unicode="&#x124;" horiz-adv-x="1533" 
d="M1348 0h-220v643h-722v-643h-220v1434h220v-598h722v598h220v-1434zM655 1886h228l221 -270l-125 -96l-211 223l-215 -223l-125 96z" />
    <glyph glyph-name="hcircumflex" unicode="&#x125;" horiz-adv-x="1247" 
d="M375 1536v-659q58 87 145.5 135.5t186.5 48.5q197 0 294 -131q93 -127 93 -391v-539h-211v520q0 193 -49 271q-50 79 -170 79q-82 0 -159.5 -50.5t-129.5 -133.5v-686h-211v1536h211zM156 1898h227l221 -270l-125 -96l-211 223l-215 -223l-125 96z" />
    <glyph glyph-name="Hbar" unicode="&#x126;" horiz-adv-x="1533" 
d="M1348 0h-220v643h-722v-643h-220v1049h-182v165h182v220h220v-220h722v220h220v-220h182v-165h-182v-1049zM406 836h722v213h-722v-213z" />
    <glyph glyph-name="hbar" unicode="&#x127;" horiz-adv-x="1247" 
d="M375 1536v-174h336v-160h-336v-325q58 87 145.5 135.5t186.5 48.5q197 0 294 -131q93 -127 93 -391v-539h-211v520q0 193 -49 271q-50 79 -170 79q-82 0 -159.5 -50.5t-129.5 -133.5v-686h-211v1202h-144v160h144v174h211z" />
    <glyph glyph-name="Itilde" unicode="&#x128;" horiz-adv-x="591" 
d="M406 0h-220v1434h220v-1434zM510 1790l141 14q6 -24 6 -61q0 -90 -57.5 -144.5t-150.5 -54.5q-47 0 -93.5 19.5t-77.5 43t-67 43t-64 19.5q-27 0 -44.5 -15t-18.5 -42q0 -15 2 -21l-141 -14q-6 24 -6 61q0 90 57.5 144.5t150.5 54.5q46 0 93 -19.5t78.5 -43t67.5 -43
t63 -19.5t45 15t18 42q0 15 -2 21z" />
    <glyph glyph-name="itilde" unicode="&#x129;" horiz-adv-x="538" 
d="M375 0h-211v1036h211v-1036zM59 1239l-141 -14q-8 28 -8 53q0 90 59 144.5t152 54.5q48 0 95 -19.5t78 -43t66 -43t62 -19.5t44.5 15.5t18.5 43.5q0 13 -2 19l142 14q8 -28 8 -53q0 -90 -59 -144.5t-152 -54.5q-48 0 -95 19.5t-78 43t-66 43t-62 19.5t-45 -16t-19 -44
q0 -12 2 -18z" />
    <glyph glyph-name="Imacron" unicode="&#x12a;" horiz-adv-x="591" 
d="M406 0h-220v1434h220v-1434zM643 1583h-692v158h692v-158z" />
    <glyph glyph-name="imacron" unicode="&#x12b;" horiz-adv-x="538" 
d="M375 0h-211v1036h211v-1036zM586 1245h-631v158h631v-158z" />
    <glyph glyph-name="Ibreve" unicode="&#x12c;" horiz-adv-x="591" 
d="M406 0h-220v1434h220v-1434zM453 1855h147v-14q0 -126 -87 -208.5t-216 -82.5t-216 82.5t-87 208.5v14h147v-16q0 -63 45 -103t111 -40t111 40t45 103v16z" />
    <glyph glyph-name="ibreve" unicode="&#x12d;" horiz-adv-x="538" 
d="M375 0h-211v1036h211v-1036zM426 1505h147v-37q0 -128 -87.5 -215.5t-215.5 -87.5t-215.5 87.5t-87.5 215.5v37h152v-39q0 -65 43.5 -110t107.5 -45q65 0 110.5 45.5t45.5 109.5v39z" />
    <glyph glyph-name="Iogonek" unicode="&#x12e;" horiz-adv-x="591" 
d="M186 6v1428h220v-1434q-106 -28 -156.5 -90t-50.5 -129q0 -41 23.5 -64.5t66.5 -23.5q44 0 92 28l65 -116q-73 -64 -192 -64q-99 0 -169.5 56t-70.5 151q0 81 45 150t127 108z" />
    <glyph glyph-name="iogonek" unicode="&#x12f;" horiz-adv-x="538" 
d="M375 1225h-211v219h211v-219zM164 6v1030h211v-1036q-99 -28 -148 -88.5t-49 -118.5q0 -100 88 -100q47 0 92 28l68 -116q-76 -64 -195 -64q-98 0 -168.5 56t-70.5 151q0 174 172 258z" />
    <glyph glyph-name="Idotaccent" unicode="&#x130;" horiz-adv-x="591" 
d="M412 1563h-232v233h232v-233zM406 0h-220v1434h220v-1434z" />
    <glyph glyph-name="dotlessi" unicode="&#x131;" horiz-adv-x="538" 
d="M375 0h-211v1036h211v-1036z" />
    <glyph glyph-name="IJ" unicode="&#x132;" horiz-adv-x="1323" 
d="M1147 1434v-1067q0 -184 -72 -281q-83 -111 -274 -111q-109 0 -223 50l63 178q68 -33 129 -33q93 0 127 49q31 40 31 176v1039h219zM406 0h-220v1434h220v-1434z" />
    <glyph glyph-name="ij" unicode="&#x133;" horiz-adv-x="1097" 
d="M375 0h-211v1036h211v-1036zM375 1225h-211v219h211v-219zM932 1225h-211v219h211v-219zM932 1036v-1122q0 -138 -37 -213q-72 -158 -281 -158q-118 0 -204 45l59 170q54 -28 117 -28q36 0 61.5 11.5t40 29t22 48.5t9.5 58.5t2 69.5v1089h211z" />
    <glyph glyph-name="Jcircumflex" unicode="&#x134;" horiz-adv-x="700" 
d="M524 1434v-1067q0 -185 -71 -281q-83 -111 -275 -111q-109 0 -223 50l63 178q68 -33 129 -33q93 0 127 49q31 40 31 176v1039h219zM303 1886h227l222 -270l-125 -96l-211 223l-215 -223l-125 96z" />
    <glyph glyph-name="jcircumflex" unicode="&#x135;" horiz-adv-x="557" 
d="M391 1036v-1122q0 -138 -37 -213q-72 -158 -280 -158q-119 0 -205 45l59 170q54 -28 117 -28q36 0 61.5 11.5t40 29t22 48.5t9.5 58.5t2 69.5v1089h211zM180 1593h213l211 -344l-123 -80l-196 277l-195 -277l-125 80z" />
    <glyph glyph-name="Kcommaaccent" unicode="&#x136;" horiz-adv-x="1282" 
d="M1247 1434l-479 -570l504 -864h-256l-398 688l-212 -254v-434h-220v1434h220v-697l573 697h268zM670 -481h-170l73 364h197z" />
    <glyph glyph-name="kcommaaccent" unicode="&#x137;" horiz-adv-x="1073" 
d="M375 1536v-995l4 -2l399 497h254l-366 -426l397 -610h-254l-283 446l-151 -176v-270h-211v1536h211zM555 -481h-170l74 364h196z" />
    <glyph glyph-name="kgreenlandic" unicode="&#x138;" horiz-adv-x="1073" 
d="M164 1036h211v-495l4 -2l399 497h254l-366 -426l397 -610h-254l-283 446l-151 -176v-270h-211v1036z" />
    <glyph glyph-name="Lacute" unicode="&#x139;" horiz-adv-x="1030" 
d="M1020 0h-834v1434h220v-1241h614v-193zM649 1772l-362 -261l-97 125l340 285z" />
    <glyph glyph-name="lacute" unicode="&#x13a;" horiz-adv-x="538" 
d="M375 1536v-1536h-211v1536h211zM594 1862l-363 -260l-96 124l340 285z" />
    <glyph glyph-name="Lcommaaccent" unicode="&#x13b;" horiz-adv-x="1030" 
d="M1020 0h-834v1434h220v-1241h614v-193zM625 -481h-170l73 364h197z" />
    <glyph glyph-name="lcommaaccent" unicode="&#x13c;" horiz-adv-x="538" 
d="M375 1536v-1536h-211v1536h211zM262 -481h-170l74 364h196z" />
    <glyph glyph-name="Lcaron" unicode="&#x13d;" horiz-adv-x="1030" 
d="M1020 0h-834v1434h220v-1241h614v-193zM727 1016h-176l82 418h205z" />
    <glyph glyph-name="lcaron" unicode="&#x13e;" horiz-adv-x="567" 
d="M375 1536v-1536h-211v1536h211zM614 1118h-176l82 418h205z" />
    <glyph glyph-name="Ldot" unicode="&#x13f;" horiz-adv-x="1036" 
d="M1020 0h-834v1434h220v-1241h614v-193zM950 641h-229v233h229v-233z" />
    <glyph glyph-name="ldot" unicode="&#x140;" horiz-adv-x="604" 
d="M375 1536v-1536h-211v1536h211zM690 643h-229v234h229v-234z" />
    <glyph glyph-name="Lslash" unicode="&#x141;" horiz-adv-x="1030" 
d="M1020 0h-834v551l-182 -119v207l182 117v678h220v-568l301 197v-207l-301 -194v-469h614v-193z" />
    <glyph glyph-name="lslash" unicode="&#x142;" horiz-adv-x="538" 
d="M375 0h-211v635l-137 -88v203l137 88v698h211v-592l141 92v-205l-141 -90v-741z" />
    <glyph glyph-name="Nacute" unicode="&#x143;" horiz-adv-x="1542" 
d="M1356 0h-195l-755 1028v-1028h-220v1434h193l758 -1028v1028h219v-1434zM1108 1772l-363 -261l-96 125l340 285z" />
    <glyph glyph-name="nacute" unicode="&#x144;" horiz-adv-x="1247" 
d="M164 1036h201l6 -164q58 90 146.5 139.5t189.5 49.5q197 0 294 -131q93 -127 93 -391v-539h-211v520q0 193 -49 271q-50 79 -170 79q-82 0 -159.5 -50.5t-129.5 -133.5v-686h-211v1036zM950 1499l-280 -334l-127 97l258 354z" />
    <glyph glyph-name="Ncommaaccent" unicode="&#x145;" horiz-adv-x="1542" 
d="M1356 0h-195l-755 1028v-1028h-220v1434h193l758 -1028v1028h219v-1434zM752 -481h-170l73 364h197z" />
    <glyph glyph-name="ncommaaccent" unicode="&#x146;" horiz-adv-x="1247" 
d="M164 1036h201l6 -164q58 90 146.5 139.5t189.5 49.5q197 0 294 -131q93 -127 93 -391v-539h-211v520q0 193 -49 271q-50 79 -170 79q-82 0 -159.5 -50.5t-129.5 -133.5v-686h-211v1036zM627 -481h-170l73 364h197z" />
    <glyph glyph-name="Ncaron" unicode="&#x147;" horiz-adv-x="1542" 
d="M1356 0h-195l-755 1028v-1028h-220v1434h193l758 -1028v1028h219v-1434zM897 1542h-227l-221 270l129 97l210 -223l216 223l120 -97z" />
    <glyph glyph-name="ncaron" unicode="&#x148;" horiz-adv-x="1247" 
d="M164 1036h201l6 -164q58 90 146.5 139.5t189.5 49.5q197 0 294 -131q93 -127 93 -391v-539h-211v520q0 193 -49 271q-50 79 -170 79q-82 0 -159.5 -50.5t-129.5 -133.5v-686h-211v1036zM756 1169h-213l-211 344l127 78l196 -276l195 276l121 -78z" />
    <glyph glyph-name="napostrophe" unicode="&#x149;" horiz-adv-x="1265" 
d="M158 1049h-197l102 501h228zM225 1036h201l6 -164q58 90 146.5 139.5t189.5 49.5q198 0 295 -131q92 -125 92 -391v-539h-211v520q0 193 -49 271q-50 79 -170 79q-82 0 -159.5 -50.5t-129.5 -133.5v-686h-211v1036z" />
    <glyph glyph-name="Eng" unicode="&#x14a;" horiz-adv-x="1542" 
d="M1356 1434v-1500q0 -183 -72 -280q-82 -111 -274 -111q-112 0 -224 49l64 179q68 -33 129 -33q93 0 127 49q31 40 31 176v70l-731 995v-1028h-220v1434h193l758 -1028v1028h219z" />
    <glyph glyph-name="eng" unicode="&#x14b;" horiz-adv-x="1247" 
d="M164 1036h201l6 -164q58 90 146.5 139.5t189.5 49.5q197 0 294 -131q93 -127 93 -391v-625q0 -138 -37 -213q-72 -158 -281 -158q-119 0 -205 45l60 170q54 -28 117 -28q36 0 61.5 11.5t40 29t22 48.5t9.5 58.5t2 69.5v573q0 193 -49 271q-50 79 -170 79
q-82 0 -159.5 -50.5t-129.5 -133.5v-686h-211v1036z" />
    <glyph glyph-name="Omacron" unicode="&#x14c;" horiz-adv-x="1716" 
d="M1366 717q0 152 -65 277t-181.5 197.5t-261.5 72.5t-261.5 -72.5t-181.5 -197.5t-65 -277t65 -277t181.5 -197.5t261.5 -72.5t261.5 72.5t181.5 197.5t65 277zM1599 717q0 -203 -97 -373t-267.5 -269.5t-376.5 -99.5t-376.5 99.5t-267.5 269.5t-97 373q0 152 57 288.5
t155.5 236t236 158t292.5 58.5t292.5 -58.5t236 -158t155.5 -236t57 -288.5zM1204 1583h-692v158h692v-158z" />
    <glyph glyph-name="omacron" unicode="&#x14d;" horiz-adv-x="1228" 
d="M614 1061q150 0 272.5 -72t191.5 -196.5t69 -274.5t-69 -274.5t-191.5 -196.5t-272.5 -72q-228 0 -380 157t-152 386t152 386t380 157zM932 518q0 148 -90.5 250t-227.5 102t-227 -102t-90 -250q0 -147 90.5 -249.5t226.5 -102.5t227 102.5t91 249.5zM930 1245h-631v158
h631v-158z" />
    <glyph glyph-name="Obreve" unicode="&#x14e;" horiz-adv-x="1716" 
d="M1366 717q0 152 -65 277t-181.5 197.5t-261.5 72.5t-261.5 -72.5t-181.5 -197.5t-65 -277t65 -277t181.5 -197.5t261.5 -72.5t261.5 72.5t181.5 197.5t65 277zM1599 717q0 -203 -97 -373t-267.5 -269.5t-376.5 -99.5t-376.5 99.5t-267.5 269.5t-97 373q0 152 57 288.5
t155.5 236t236 158t292.5 58.5t292.5 -58.5t236 -158t155.5 -236t57 -288.5zM1014 1855h147v-14q0 -126 -87 -208.5t-216 -82.5t-216 82.5t-87 208.5v14h147v-16q0 -63 45 -103t111 -40t111 40t45 103v16z" />
    <glyph glyph-name="obreve" unicode="&#x14f;" horiz-adv-x="1228" 
d="M614 1061q150 0 272.5 -72t191.5 -196.5t69 -274.5t-69 -274.5t-191.5 -196.5t-272.5 -72q-228 0 -380 157t-152 386t152 386t380 157zM932 518q0 148 -90.5 250t-227.5 102t-227 -102t-90 -250q0 -147 90.5 -249.5t226.5 -102.5t227 102.5t91 249.5zM770 1505h148v-37
q0 -127 -88 -215t-216 -88t-215.5 87.5t-87.5 215.5v37h152v-39q0 -65 43.5 -110t107.5 -45q65 0 110.5 45.5t45.5 109.5v39z" />
    <glyph glyph-name="Ohungarumlaut" unicode="&#x150;" horiz-adv-x="1716" 
d="M1366 717q0 152 -65 277t-181.5 197.5t-261.5 72.5t-261.5 -72.5t-181.5 -197.5t-65 -277t65 -277t181.5 -197.5t261.5 -72.5t261.5 72.5t181.5 197.5t65 277zM1599 717q0 -203 -97 -373t-267.5 -269.5t-376.5 -99.5t-376.5 99.5t-267.5 269.5t-97 373q0 152 57 288.5
t155.5 236t236 158t292.5 58.5t292.5 -58.5t236 -158t155.5 -236t57 -288.5zM961 1772l-363 -261l-96 121l340 285zM1407 1763l-350 -252l-96 125l327 277z" />
    <glyph glyph-name="ohungarumlaut" unicode="&#x151;" horiz-adv-x="1228" 
d="M614 1061q150 0 272.5 -72t191.5 -196.5t69 -274.5t-69 -274.5t-191.5 -196.5t-272.5 -72q-228 0 -380 157t-152 386t152 386t380 157zM932 518q0 148 -90.5 250t-227.5 102t-227 -102t-90 -250q0 -147 90.5 -249.5t226.5 -102.5t227 102.5t91 249.5zM770 1526l-291 -344
l-127 94l266 369zM1106 1497l-281 -334l-129 97l260 354z" />
    <glyph glyph-name="OE" unicode="&#x152;" horiz-adv-x="2172" 
d="M2046 0h-875v66q-137 -91 -313 -91q-206 0 -376.5 99.5t-267.5 269.5t-97 373q0 152 57 288.5t155.5 236t236 158t292.5 58.5q170 0 313 -88v64h875v-193h-655v-405h655v-193h-655v-450h655v-193zM858 170q177 0 313 111v872q-136 111 -313 111q-145 0 -261.5 -72.5
t-181.5 -197.5t-65 -277t65 -277t181.5 -197.5t261.5 -72.5z" />
    <glyph glyph-name="oe" unicode="&#x153;" horiz-adv-x="2000" 
d="M614 1061q134 0 242 -58.5t176 -160.5q68 102 173 160.5t233 58.5q209 0 345 -136.5t136 -344.5q0 -63 -10 -115h-774q11 -133 95.5 -222t217.5 -89q210 0 301 163l147 -96q-80 -127 -189.5 -186.5t-268.5 -59.5q-280 0 -412 211q-67 -99 -174 -155t-238 -56
q-228 0 -380 157t-152 386t152 386t380 157zM932 518q0 148 -90.5 250t-227.5 102t-227 -102t-90 -250q0 -147 90.5 -249.5t226.5 -102.5t227 102.5t91 249.5zM1442 885q-115 0 -190.5 -71.5t-104.5 -186.5h553q-6 108 -78.5 183t-179.5 75z" />
    <glyph glyph-name="Racute" unicode="&#x154;" horiz-adv-x="1265" 
d="M186 1434h432q69 0 137.5 -14t134 -46.5t115.5 -79.5t80.5 -118.5t30.5 -157.5q0 -87 -28.5 -158t-77.5 -119t-107.5 -79.5t-126.5 -47.5l451 -614h-275l-422 598h-124v-598h-220v1434zM406 1241v-450h163q143 0 228.5 54.5t85.5 166.5q0 103 -76 166t-199 63h-202z
M924 1772l-363 -261l-96 125l340 285z" />
    <glyph glyph-name="racute" unicode="&#x155;" horiz-adv-x="739" 
d="M365 1036l6 -162q48 86 115.5 136.5t146.5 50.5q64 0 119 -14l-43 -213q-43 22 -99 22q-144 0 -235 -160v-696h-211v1036h201zM725 1499l-281 -334l-127 97l258 354z" />
    <glyph glyph-name="Rcommaaccent" unicode="&#x156;" horiz-adv-x="1265" 
d="M186 1434h432q69 0 137.5 -14t134 -46.5t115.5 -79.5t80.5 -118.5t30.5 -157.5q0 -87 -28.5 -158t-77.5 -119t-107.5 -79.5t-126.5 -47.5l451 -614h-275l-422 598h-124v-598h-220v1434zM406 1241v-450h163q143 0 228.5 54.5t85.5 166.5q0 103 -76 166t-199 63h-202z
M657 -481h-170l74 364h197z" />
    <glyph glyph-name="rcommaaccent" unicode="&#x157;" horiz-adv-x="739" 
d="M365 1036l6 -162q48 86 115.5 136.5t146.5 50.5q64 0 119 -14l-43 -213q-43 22 -99 22q-144 0 -235 -160v-696h-211v1036h201zM262 -481h-170l74 364h196z" />
    <glyph glyph-name="Rcaron" unicode="&#x158;" horiz-adv-x="1265" 
d="M186 1434h432q69 0 137.5 -14t134 -46.5t115.5 -79.5t80.5 -118.5t30.5 -157.5q0 -87 -28.5 -158t-77.5 -119t-107.5 -79.5t-126.5 -47.5l451 -614h-275l-422 598h-124v-598h-220v1434zM406 1241v-450h163q143 0 228.5 54.5t85.5 166.5q0 103 -76 166t-199 63h-202z
M743 1542h-227l-221 270l129 97l211 -223l215 223l121 -97z" />
    <glyph glyph-name="rcaron" unicode="&#x159;" horiz-adv-x="739" 
d="M365 1036l6 -162q48 86 115.5 136.5t146.5 50.5q64 0 119 -14l-43 -213q-43 22 -99 22q-144 0 -235 -160v-696h-211v1036h201zM555 1169h-213l-211 344l127 78l197 -276l194 276l121 -78z" />
    <glyph glyph-name="Sacute" unicode="&#x15a;" horiz-adv-x="1253" 
d="M942 1147q-56 50 -137 83.5t-162 33.5q-107 0 -173.5 -49t-66.5 -136q0 -34 15.5 -62.5t37 -48t61 -39t71.5 -31.5t84 -30q8 -3 12 -4q54 -19 89 -32t86.5 -37t84.5 -46.5t71 -56.5t60 -72t36.5 -89t14.5 -109q0 -92 -32 -168.5t-83.5 -127t-119 -85.5t-137.5 -50.5
t-140 -15.5q-158 0 -284 53.5t-242 168.5l154 145q96 -96 180 -134t194 -38q115 0 196 58t81 173q0 31 -9.5 58.5t-23 48t-39.5 40.5t-47.5 33t-59 29t-62 25t-68.5 24q-68 24 -117.5 46t-106.5 57.5t-92.5 75t-59.5 97.5t-24 126q0 98 35.5 175.5t97 125t139.5 72t167 24.5
q252 0 452 -153zM977 1772l-363 -261l-96 125l340 285z" />
    <glyph glyph-name="sacute" unicode="&#x15b;" horiz-adv-x="937" 
d="M807 942l-123 -133q-37 34 -94 57t-111 23q-63 0 -102 -34t-39 -89q0 -18 6.5 -34.5t22.5 -30.5t29 -24t41 -23.5t42.5 -19.5t48.5 -20q51 -20 84.5 -35.5t79 -44t73 -58.5t47 -75t19.5 -98q0 -84 -31.5 -148.5t-85 -102.5t-120.5 -57.5t-143 -19.5q-112 0 -209 42.5
t-164 123.5l139 121q109 -112 232 -112q73 0 122.5 36.5t49.5 104.5q0 23 -12 43.5t-26.5 34t-46.5 30.5t-51 25t-61 25q-40 16 -59.5 24.5t-56 26.5t-56 32.5t-45.5 38.5t-39 48.5t-23 58.5t-10 72q0 76 28.5 137t77 98t109.5 56.5t129 19.5q197 0 328 -119zM813 1499
l-281 -334l-126 97l258 354z" />
    <glyph glyph-name="Scircumflex" unicode="&#x15c;" horiz-adv-x="1253" 
d="M942 1147q-56 50 -137 83.5t-162 33.5q-107 0 -173.5 -49t-66.5 -136q0 -34 15.5 -62.5t37 -48t61 -39t71.5 -31.5t84 -30q8 -3 12 -4q54 -19 89 -32t86.5 -37t84.5 -46.5t71 -56.5t60 -72t36.5 -89t14.5 -109q0 -92 -32 -168.5t-83.5 -127t-119 -85.5t-137.5 -50.5
t-140 -15.5q-158 0 -284 53.5t-242 168.5l154 145q96 -96 180 -134t194 -38q115 0 196 58t81 173q0 31 -9.5 58.5t-23 48t-39.5 40.5t-47.5 33t-59 29t-62 25t-68.5 24q-68 24 -117.5 46t-106.5 57.5t-92.5 75t-59.5 97.5t-24 126q0 98 35.5 175.5t97 125t139.5 72t167 24.5
q252 0 452 -153zM532 1886h228l221 -270l-125 -96l-211 223l-215 -223l-125 96z" />
    <glyph glyph-name="scircumflex" unicode="&#x15d;" horiz-adv-x="937" 
d="M807 942l-123 -133q-37 34 -94 57t-111 23q-63 0 -102 -34t-39 -89q0 -18 6.5 -34.5t22.5 -30.5t29 -24t41 -23.5t42.5 -19.5t48.5 -20q51 -20 84.5 -35.5t79 -44t73 -58.5t47 -75t19.5 -98q0 -84 -31.5 -148.5t-85 -102.5t-120.5 -57.5t-143 -19.5q-112 0 -209 42.5
t-164 123.5l139 121q109 -112 232 -112q73 0 122.5 36.5t49.5 104.5q0 23 -12 43.5t-26.5 34t-46.5 30.5t-51 25t-61 25q-40 16 -59.5 24.5t-56 26.5t-56 32.5t-45.5 38.5t-39 48.5t-23 58.5t-10 72q0 76 28.5 137t77 98t109.5 56.5t129 19.5q197 0 328 -119zM383 1593h213
l211 -344l-123 -80l-197 277l-194 -277l-125 80z" />
    <glyph glyph-name="Scedilla" unicode="&#x15e;" horiz-adv-x="1247" 
d="M942 1147q-56 50 -137 83.5t-162 33.5q-107 0 -173.5 -49t-66.5 -136q0 -34 15.5 -62.5t37 -48t61 -39t71.5 -31.5t84 -30q8 -3 12 -4q54 -19 89 -32t86.5 -37t84.5 -46.5t71 -56.5t60 -72t36.5 -89t14.5 -109q0 -89 -30 -164t-78.5 -125t-113 -85.5t-131.5 -53
t-136 -19.5l-45 -106l4 -2q37 33 96 33q80 0 131 -56t51 -139q0 -85 -66 -149t-161 -64q-143 0 -217 127l123 59q24 -65 92 -65q37 0 60.5 25.5t23.5 60.5q0 37 -23 65.5t-61 28.5q-55 0 -82 -47l-133 70l78 166q-230 28 -420 215l154 145q96 -96 180 -134t194 -38
q115 0 196 58t81 173q0 31 -9.5 58.5t-23 48t-39.5 40.5t-47.5 33t-59 29t-62 25t-68.5 24q-68 24 -117.5 46t-106.5 57.5t-92.5 75t-59.5 97.5t-24 126q0 98 35.5 175.5t97 125t139.5 72t167 24.5q252 0 452 -153z" />
    <glyph glyph-name="scedilla" unicode="&#x15f;" horiz-adv-x="937" 
d="M807 942l-123 -133q-37 34 -94 57t-111 23q-63 0 -102 -34t-39 -89q0 -18 6.5 -34.5t22.5 -30.5t29 -24t41 -23.5t42.5 -19.5t48.5 -20q51 -20 84.5 -35.5t79 -44t73 -58.5t47 -75t19.5 -98q0 -80 -28.5 -142.5t-78.5 -101t-112 -59t-133 -23.5l-39 -108l2 -2
q44 33 97 33q73 0 127.5 -56t54.5 -139q0 -85 -66 -149t-161 -64q-147 0 -218 127l123 59q24 -65 93 -65q37 0 60 25.5t23 60.5q0 39 -24.5 66.5t-63.5 27.5q-56 0 -77 -47l-131 68l69 172q-168 28 -270 155l139 121q109 -112 232 -112q73 0 122.5 36.5t49.5 104.5
q0 23 -12 43.5t-26.5 34t-46.5 30.5t-51 25t-61 25q-40 16 -59.5 24.5t-56 26.5t-56 32.5t-45.5 38.5t-39 48.5t-23 58.5t-10 72q0 76 28.5 137t77 98t109.5 56.5t129 19.5q197 0 328 -119z" />
    <glyph glyph-name="Scaron" unicode="&#x160;" horiz-adv-x="1253" 
d="M942 1147q-56 50 -137 83.5t-162 33.5q-107 0 -173.5 -49t-66.5 -136q0 -34 15.5 -62.5t37 -48t61 -39t71.5 -31.5t84 -30q8 -3 12 -4q54 -19 89 -32t86.5 -37t84.5 -46.5t71 -56.5t60 -72t36.5 -89t14.5 -109q0 -92 -32 -168.5t-83.5 -127t-119 -85.5t-137.5 -50.5
t-140 -15.5q-158 0 -284 53.5t-242 168.5l154 145q96 -96 180 -134t194 -38q115 0 196 58t81 173q0 31 -9.5 58.5t-23 48t-39.5 40.5t-47.5 33t-59 29t-62 25t-68.5 24q-68 24 -117.5 46t-106.5 57.5t-92.5 75t-59.5 97.5t-24 126q0 98 35.5 175.5t97 125t139.5 72t167 24.5
q252 0 452 -153zM754 1542h-228l-221 270l129 97l211 -223l215 223l121 -97z" />
    <glyph glyph-name="scaron" unicode="&#x161;" horiz-adv-x="937" 
d="M807 942l-123 -133q-37 34 -94 57t-111 23q-63 0 -102 -34t-39 -89q0 -18 6.5 -34.5t22.5 -30.5t29 -24t41 -23.5t42.5 -19.5t48.5 -20q51 -20 84.5 -35.5t79 -44t73 -58.5t47 -75t19.5 -98q0 -84 -31.5 -148.5t-85 -102.5t-120.5 -57.5t-143 -19.5q-112 0 -209 42.5
t-164 123.5l139 121q109 -112 232 -112q73 0 122.5 36.5t49.5 104.5q0 23 -12 43.5t-26.5 34t-46.5 30.5t-51 25t-61 25q-40 16 -59.5 24.5t-56 26.5t-56 32.5t-45.5 38.5t-39 48.5t-23 58.5t-10 72q0 76 28.5 137t77 98t109.5 56.5t129 19.5q197 0 328 -119zM598 1169h-213
l-211 344l127 78l197 -276l194 276l121 -78z" />
    <glyph glyph-name="uni0162" unicode="&#x162;" horiz-adv-x="1001" 
d="M967 1241h-357v-1241h-43l-47 -131l2 -2q44 33 96 33q73 0 128 -56t55 -139q0 -85 -66 -149t-160 -64q-146 0 -217 127l121 59q24 -65 92 -65q37 0 61.5 25.5t24.5 60.5q0 39 -25.5 66.5t-64.5 27.5q-54 0 -78 -47l-131 68l78 186h-45v1241h-356v193h932v-193z" />
    <glyph glyph-name="uni0163" unicode="&#x163;" horiz-adv-x="724" 
d="M672 854h-285v-451q0 -50 2 -81q5 -78 35 -117t96 -39q57 0 117 29l61 -166q-87 -49 -206 -49h-21l-41 -111l2 -2q44 33 96 33q73 0 128 -56t55 -139q0 -85 -66 -149t-160 -64q-146 0 -217 127l121 59q24 -65 92 -65q37 0 61.5 25.5t24.5 60.5q0 39 -25.5 66.5
t-64.5 27.5q-54 0 -78 -47l-131 68l80 192q-101 42 -141 150q-31 77 -31 204v494h-135v182h135l10 244h201v-244h285v-182z" />
    <glyph glyph-name="Tcaron" unicode="&#x164;" horiz-adv-x="1001" 
d="M967 1241h-357v-1241h-219v1241h-356v193h932v-193zM610 1542h-227l-221 270l129 97l211 -223l215 223l121 -97z" />
    <glyph glyph-name="tcaron" unicode="&#x165;" horiz-adv-x="724" 
d="M672 854h-285v-451q0 -50 2 -81q5 -78 35 -117t96 -39q57 0 117 29l61 -166q-87 -49 -206 -49q-109 0 -181 47t-104 129q-31 77 -31 204v494h-135v182h135l10 244h201v-244h285v-182zM680 1169h-176l82 418h205z" />
    <glyph glyph-name="Tbar" unicode="&#x166;" horiz-adv-x="1001" 
d="M967 1241h-357v-414h224v-178h-224v-649h-219v649h-223v178h223v414h-356v193h932v-193z" />
    <glyph glyph-name="tbar" unicode="&#x167;" horiz-adv-x="724" 
d="M672 465h-285v-62q0 -50 2 -81q5 -78 35 -117t96 -39q57 0 117 29l61 -166q-87 -49 -206 -49q-109 0 -181 47t-104 129q-31 77 -31 204v105h-135v166h135v223h-135v182h135l10 244h201v-244h285v-182h-285v-223h285v-166z" />
    <glyph glyph-name="Utilde" unicode="&#x168;" horiz-adv-x="1476" 
d="M1298 1434v-760q0 -346 -136.5 -522.5t-428.5 -176.5q-286 0 -420.5 176.5t-134.5 522.5v760h219v-807q0 -226 90 -341.5t250 -115.5q163 0 252.5 115.5t89.5 341.5v807h219zM948 1790l142 14q6 -24 6 -61q0 -90 -58 -144.5t-151 -54.5q-47 0 -93.5 19.5t-77 43t-66.5 43
t-64 19.5q-27 0 -45 -15t-19 -42q0 -15 2 -21l-141 -14q-6 24 -6 61q0 90 58 144.5t151 54.5q46 0 93 -19.5t78.5 -43t67 -43t62.5 -19.5t45 15t18 42q0 15 -2 21z" />
    <glyph glyph-name="utilde" unicode="&#x169;" horiz-adv-x="1247" 
d="M1083 0h-200l-6 164q-58 -90 -146.5 -139.5t-189.5 -49.5q-198 0 -295 131q-92 125 -92 392v538h211v-520q0 -192 49 -270q51 -80 170 -80q82 0 159 50.5t129 133.5v686h211v-1036zM430 1239l-141 -14q-8 28 -8 53q0 90 59 144.5t152 54.5q48 0 95 -19.5t78 -43t66 -43
t62 -19.5t44.5 15.5t18.5 43.5q0 13 -2 19l141 14q9 -32 9 -53q0 -90 -59 -144.5t-152 -54.5q-48 0 -95 19.5t-78 43t-66 43t-62 19.5t-45 -16t-19 -44q0 -12 2 -18z" />
    <glyph glyph-name="Umacron" unicode="&#x16a;" horiz-adv-x="1476" 
d="M1298 1434v-760q0 -346 -136.5 -522.5t-428.5 -176.5q-286 0 -420.5 176.5t-134.5 522.5v760h219v-807q0 -226 90 -341.5t250 -115.5q163 0 252.5 115.5t89.5 341.5v807h219zM1083 1583h-692v158h692v-158z" />
    <glyph glyph-name="umacron" unicode="&#x16b;" horiz-adv-x="1247" 
d="M1083 0h-200l-6 164q-58 -90 -146.5 -139.5t-189.5 -49.5q-198 0 -295 131q-92 125 -92 392v538h211v-520q0 -192 49 -270q51 -80 170 -80q82 0 159 50.5t129 133.5v686h211v-1036zM934 1245h-631v158h631v-158z" />
    <glyph glyph-name="Ubreve" unicode="&#x16c;" horiz-adv-x="1476" 
d="M1298 1434v-760q0 -346 -136.5 -522.5t-428.5 -176.5q-286 0 -420.5 176.5t-134.5 522.5v760h219v-807q0 -226 90 -341.5t250 -115.5q163 0 252.5 115.5t89.5 341.5v807h219zM895 1855h147v-14q0 -126 -87 -208.5t-216 -82.5t-216 82.5t-87 208.5v14h148v-16
q0 -63 44.5 -103t110.5 -40t111 40t45 103v16z" />
    <glyph glyph-name="ubreve" unicode="&#x16d;" horiz-adv-x="1247" 
d="M1083 0h-200l-6 164q-58 -90 -146.5 -139.5t-189.5 -49.5q-198 0 -295 131q-92 125 -92 392v538h211v-520q0 -192 49 -270q51 -80 170 -80q82 0 159 50.5t129 133.5v686h211v-1036zM782 1505h148v-37q0 -128 -88 -215.5t-215 -87.5t-215 87.5t-88 215.5v37h151v-39
q0 -65 44 -110t108 -45q65 0 110 45.5t45 109.5v39z" />
    <glyph glyph-name="Uring" unicode="&#x16e;" horiz-adv-x="1476" 
d="M1298 1434v-760q0 -346 -136.5 -522.5t-428.5 -176.5q-286 0 -420.5 176.5t-134.5 522.5v760h219v-807q0 -226 90 -341.5t250 -115.5q163 0 252.5 115.5t89.5 341.5v807h219zM537 1683q0 83 58.5 142t141.5 59t142 -59t59 -142t-59 -141.5t-142 -58.5t-141.5 58.5
t-58.5 141.5zM647 1683q0 -37 26.5 -63.5t63.5 -26.5t63.5 26.5t26.5 63.5t-26.5 64t-63.5 27t-63.5 -27t-26.5 -64z" />
    <glyph glyph-name="uring" unicode="&#x16f;" horiz-adv-x="1247" 
d="M1083 0h-200l-6 164q-58 -90 -146.5 -139.5t-189.5 -49.5q-198 0 -295 131q-92 125 -92 392v538h211v-520q0 -192 49 -270q51 -80 170 -80q82 0 159 50.5t129 133.5v686h211v-1036zM424 1354q0 83 59 141.5t142 58.5t141.5 -58.5t58.5 -141.5t-58.5 -142t-141.5 -59
t-142 59t-59 142zM535 1354q0 -37 26.5 -63.5t63.5 -26.5t63.5 26.5t26.5 63.5t-26.5 63.5t-63.5 26.5t-63.5 -26.5t-26.5 -63.5z" />
    <glyph glyph-name="Uhungarumlaut" unicode="&#x170;" horiz-adv-x="1476" 
d="M1298 1434v-760q0 -346 -136.5 -522.5t-428.5 -176.5q-286 0 -420.5 176.5t-134.5 522.5v760h219v-807q0 -226 90 -341.5t250 -115.5q163 0 252.5 115.5t89.5 341.5v807h219zM834 1772l-363 -261l-96 121l340 285zM1280 1763l-350 -252l-96 125l327 277z" />
    <glyph glyph-name="uhungarumlaut" unicode="&#x171;" horiz-adv-x="1247" 
d="M1083 0h-200l-6 164q-58 -90 -146.5 -139.5t-189.5 -49.5q-198 0 -295 131q-92 125 -92 392v538h211v-520q0 -192 49 -270q51 -80 170 -80q82 0 159 50.5t129 133.5v686h211v-1036zM750 1526l-291 -344l-127 94l266 369zM1085 1497l-280 -334l-129 97l260 354z" />
    <glyph glyph-name="Uogonek" unicode="&#x172;" horiz-adv-x="1476" 
d="M1298 1434v-760q0 -566 -362 -672q-77 -23 -139 -82.5t-62 -132.5q0 -44 23.5 -69t66.5 -25q45 0 90 28l68 -116q-73 -64 -195 -64q-98 0 -167.5 56t-69.5 151q0 67 33.5 128.5t93.5 100.5q-257 17 -378.5 193t-121.5 504v760h219v-807q0 -226 90 -341.5t250 -115.5
q163 0 252.5 115.5t89.5 341.5v807h219z" />
    <glyph glyph-name="uogonek" unicode="&#x173;" horiz-adv-x="1247" 
d="M680 -252q0 77 50.5 143.5t152.5 112.5l-6 160q-58 -90 -146.5 -139.5t-189.5 -49.5q-198 0 -295 131q-92 125 -92 392v538h211v-520q0 -192 49 -270q51 -80 170 -80q82 0 159 50.5t129 133.5v686h211v-1036q-219 -72 -219 -219q0 -41 23.5 -64.5t66.5 -23.5q48 0 93 28
l65 -116q-73 -64 -192 -64q-99 0 -169.5 56t-70.5 151z" />
    <glyph glyph-name="Wcircumflex" unicode="&#x174;" horiz-adv-x="1843" 
d="M1028 1434l277 -1043h4l286 1043h238l-410 -1434h-219l-280 1055h-4l-302 -1055h-212l-396 1434h244l274 -1043h4l289 1043h207zM813 1886h227l222 -270l-125 -96l-211 223l-215 -223l-125 96z" />
    <glyph glyph-name="wcircumflex" unicode="&#x175;" horiz-adv-x="1525" 
d="M874 1036l201 -764h6l199 764h217l-301 -1036h-223l-209 754h-4l-213 -754h-232l-286 1036h227l184 -764h4l218 764h212zM662 1593h212l211 -344l-122 -80l-197 277l-195 -277l-125 80z" />
    <glyph glyph-name="Ycircumflex" unicode="&#x176;" horiz-adv-x="1163" 
d="M686 0h-219v618l-457 816h273l303 -582h4l307 582h256l-467 -826v-608zM471 1886h227l222 -270l-125 -96l-211 223l-215 -223l-125 96z" />
    <glyph glyph-name="ycircumflex" unicode="&#x177;" horiz-adv-x="1003" 
d="M10 1036h234l254 -745h4l262 745h229l-583 -1505l-187 74l164 434zM412 1593h213l211 -344l-123 -80l-197 277l-194 -277l-125 80z" />
    <glyph glyph-name="Ydieresis" unicode="&#x178;" horiz-adv-x="1163" 
d="M686 0h-221v618l-455 816h273l303 -582h4l307 582h256l-467 -826v-608zM467 1563h-229v233h229v-233zM956 1563h-229v233h229v-233z" />
    <glyph glyph-name="Zacute" unicode="&#x179;" horiz-adv-x="1128" 
d="M1038 1317l-657 -1124h709v-193h-1012v117l659 1124h-643v193h944v-117zM868 1772l-362 -261l-96 125l340 285z" />
    <glyph glyph-name="zacute" unicode="&#x17a;" horiz-adv-x="944" 
d="M117 96l442 758h-465v182h746v-94l-445 -760h479v-182h-757v96zM772 1499l-280 -334l-127 97l258 354z" />
    <glyph glyph-name="Zdotaccent" unicode="&#x17b;" horiz-adv-x="1128" 
d="M1038 1317l-657 -1124h709v-193h-1012v117l659 1124h-643v193h944v-117zM666 1563h-230v233h230v-233z" />
    <glyph glyph-name="zdotaccent" unicode="&#x17c;" horiz-adv-x="944" 
d="M117 96l442 758h-465v182h746v-94l-445 -760h479v-182h-757v96zM565 1225h-211v219h211v-219z" />
    <glyph glyph-name="Zcaron" unicode="&#x17d;" horiz-adv-x="1128" 
d="M1038 1317l-657 -1124h709v-193h-1012v117l659 1124h-643v193h944v-117zM674 1542h-228l-221 270l129 97l211 -223l215 223l121 -97z" />
    <glyph glyph-name="zcaron" unicode="&#x17e;" horiz-adv-x="944" 
d="M117 96l442 758h-465v182h746v-94l-445 -760h479v-182h-757v96zM598 1169h-213l-211 344l127 78l197 -276l194 276l121 -78z" />
    <glyph glyph-name="longs" unicode="&#x17f;" horiz-adv-x="634" 
d="M723 1511l-61 -172q-64 31 -136 31q-69 0 -110 -33q-28 -26 -37.5 -70t-9.5 -116v-1151h-211v1169q0 176 67 273q83 119 281 119q108 0 217 -50z" />
    <glyph glyph-name="florin" unicode="&#x192;" 
d="M821 827v-188h-266l-82 -725q-18 -165 -101.5 -253.5t-211.5 -88.5q-74 0 -172 25l45 180q53 -17 102 -17q68 0 93.5 45.5t37.5 149.5l78 684h-162v188h183l24 215q19 163 109 252.5t233 89.5q138 0 275 -67l-80 -172q-76 51 -172 51q-82 0 -114 -46t-44 -146l-21 -177
h246z" />
    <glyph glyph-name="Aringacute" unicode="&#x1fa;" horiz-adv-x="1355" 
d="M997 2118l-374 -224l-80 123l360 250zM487 1663q0 83 59 142t142 59t142 -59t59 -142t-59 -142t-142 -59t-142 59t-59 142zM598 1663q0 -37 26.5 -63.5t63.5 -26.5t63.5 26.5t26.5 63.5t-26.5 63.5t-63.5 26.5t-63.5 -26.5t-26.5 -63.5zM1071 0l-106 295h-588l-107 -295
h-241l563 1434h186l547 -1434h-254zM672 1100l-223 -613h446l-221 613h-2z" />
    <glyph glyph-name="aringacute" unicode="&#x1fb;" horiz-adv-x="1132" 
d="M356 1323q0 83 59 142t142 59t142 -59t59 -142t-59 -142t-142 -59t-142 59t-59 142zM467 1323q0 -37 26.5 -63.5t63.5 -26.5t63.5 26.5t26.5 63.5t-26.5 63.5t-63.5 26.5t-63.5 -26.5t-26.5 -63.5zM866 1778l-374 -224l-80 123l360 250zM979 0h-195l-6 104
q-112 -129 -303 -129q-74 0 -139.5 19.5t-117.5 57.5t-82 100.5t-30 142.5q0 75 26.5 135t70 98t104 63t124 35.5t134.5 10.5q82 0 203 -23v31q0 240 -236 240q-157 0 -325 -92l-60 170q91 43 203 70.5t215 27.5q414 0 414 -432v-629zM768 258v209q-93 18 -176 18
q-51 0 -95.5 -8t-88.5 -26.5t-69.5 -56t-25.5 -89.5q0 -82 54.5 -122t138.5 -40q126 0 262 115z" />
    <glyph glyph-name="AEacute" unicode="&#x1fc;" horiz-adv-x="2031" 
d="M1903 0h-875v297h-565l-207 -297h-276l1050 1434h873v-193h-654v-405h654v-193h-654v-450h654v-193zM594 487h434v621zM1513 1772l-362 -261l-96 125l340 285z" />
    <glyph glyph-name="aeacute" unicode="&#x1fd;" horiz-adv-x="1839" 
d="M799 291q-30 82 -39 176q-85 18 -168 18q-51 0 -95.5 -8t-88.5 -26.5t-69.5 -56t-25.5 -89.5q0 -82 54.5 -122t138.5 -40q162 0 293 148zM1587 317l150 -96q-82 -127 -192 -186.5t-267 -59.5q-126 0 -227.5 45.5t-169.5 126.5q-155 -172 -406 -172q-74 0 -139.5 19.5
t-117.5 57.5t-82 100.5t-30 142.5q0 75 26.5 135t70 98t104 63t124 35.5t134.5 10.5q82 0 203 -23v31q0 240 -236 240q-157 0 -325 -92l-60 170q91 43 203 70.5t215 27.5q255 0 348 -164q145 164 365 164q207 0 343 -137t136 -344q0 -63 -10 -115h-774q11 -132 96 -221.5
t219 -89.5q208 0 299 163zM1280 885q-115 0 -190.5 -71.5t-104.5 -186.5h553q-6 108 -78.5 183t-179.5 75zM1227 1499l-281 -334l-127 97l258 354z" />
    <glyph glyph-name="Oslashacute" unicode="&#x1fe;" horiz-adv-x="1716" 
d="M1399 1372l-60 -88q122 -105 191 -252t69 -315q0 -203 -97 -373t-267.5 -269.5t-376.5 -99.5q-184 0 -346 84l-68 -100l-151 94l72 107q-117 103 -182.5 247.5t-65.5 309.5q0 152 57 288.5t155.5 236t236 158t292.5 58.5q176 0 332 -78l59 88zM1366 717q0 114 -38 215
t-107 176l-596 -881q105 -57 233 -57q145 0 261.5 72.5t181.5 197.5t65 277zM350 717q0 -228 135 -379l592 874q-104 52 -219 52q-145 0 -261.5 -72.5t-181.5 -197.5t-65 -277zM1188 1772l-363 -261l-96 125l340 285z" />
    <glyph glyph-name="oslashacute" unicode="&#x1ff;" horiz-adv-x="1228" 
d="M924 1499l-281 -334l-127 97l258 354zM614 1061q132 0 236 -55l51 75l121 -77l-53 -76q83 -75 130.5 -182t47.5 -228q0 -150 -69 -274.5t-191.5 -196.5t-272.5 -72q-130 0 -247 60l-56 -82l-121 78l60 86q-79 75 -123.5 179t-44.5 222q0 229 152 386t380 157zM932 518
q0 140 -80 236l-375 -555q59 -33 137 -33q136 0 227 102.5t91 249.5zM297 518q0 -130 70 -225l372 549q-54 28 -125 28q-137 0 -227 -102t-90 -250z" />
    <glyph glyph-name="Scommaaccent" unicode="&#x218;" horiz-adv-x="1247" 
d="M942 1147q-56 50 -137 83.5t-162 33.5q-107 0 -173.5 -49t-66.5 -136q0 -34 15.5 -62.5t37 -48t61 -39t71.5 -31.5t84 -30q8 -3 12 -4q54 -19 89 -32t86.5 -37t84.5 -46.5t71 -56.5t60 -72t36.5 -89t14.5 -109q0 -92 -32 -168.5t-83.5 -127t-119 -85.5t-137.5 -50.5
t-140 -15.5q-158 0 -284 53.5t-242 168.5l154 145q96 -96 180 -134t194 -38q115 0 196 58t81 173q0 31 -9.5 58.5t-23 48t-39.5 40.5t-47.5 33t-59 29t-62 25t-68.5 24q-68 24 -117.5 46t-106.5 57.5t-92.5 75t-59.5 97.5t-24 126q0 98 35.5 175.5t97 125t139.5 72t167 24.5
q252 0 452 -153zM547 -481h-170l74 364h196z" />
    <glyph glyph-name="scommaaccent" unicode="&#x219;" horiz-adv-x="937" 
d="M807 942l-123 -133q-37 34 -94 57t-111 23q-63 0 -102 -34t-39 -89q0 -18 6.5 -34.5t22.5 -30.5t29 -24t41 -23.5t42.5 -19.5t48.5 -20q51 -20 84.5 -35.5t79 -44t73 -58.5t47 -75t19.5 -98q0 -84 -31.5 -148.5t-85 -102.5t-120.5 -57.5t-143 -19.5q-112 0 -209 42.5
t-164 123.5l139 121q109 -112 232 -112q73 0 122.5 36.5t49.5 104.5q0 23 -12 43.5t-26.5 34t-46.5 30.5t-51 25t-61 25q-40 16 -59.5 24.5t-56 26.5t-56 32.5t-45.5 38.5t-39 48.5t-23 58.5t-10 72q0 76 28.5 137t77 98t109.5 56.5t129 19.5q197 0 328 -119zM416 -481h-170
l73 364h197z" />
    <glyph glyph-name="uni021A" unicode="&#x21a;" horiz-adv-x="1001" 
d="M967 1241h-357v-1241h-219v1241h-356v193h932v-193zM489 -481h-170l74 364h197z" />
    <glyph glyph-name="uni021B" unicode="&#x21b;" horiz-adv-x="724" 
d="M672 854h-285v-451q0 -50 2 -81q5 -78 35 -117t96 -39q57 0 117 29l61 -166q-87 -49 -206 -49q-109 0 -181 47t-104 129q-31 77 -31 204v494h-135v182h135l10 244h201v-244h285v-182zM375 -481h-170l74 364h196z" />
    <glyph glyph-name="apostrophe" unicode="&#x2bc;" horiz-adv-x="737" 
d="M309 1479h226l-123 -451h-185z" />
    <glyph glyph-name="circumflex" unicode="&#x2c6;" horiz-adv-x="737" 
d="M262 1593h213l211 -344l-123 -80l-196 277l-195 -277l-125 80z" />
    <glyph glyph-name="caron" unicode="&#x2c7;" horiz-adv-x="737" 
d="M471 1169h-213l-211 344l127 78l197 -276l194 276l121 -78z" />
    <glyph glyph-name="uni02C9" unicode="&#x2c9;" horiz-adv-x="737" 
d="M684 1245h-631v158h631v-158z" />
    <glyph glyph-name="breve" unicode="&#x2d8;" horiz-adv-x="737" 
d="M524 1505h148v-37q0 -128 -88 -215.5t-215 -87.5t-215 87.5t-88 215.5v37h151v-39q0 -65 44 -110t108 -45q65 0 110 45.5t45 109.5v39z" />
    <glyph glyph-name="dotaccent" unicode="&#x2d9;" horiz-adv-x="737" 
d="M475 1225h-211v219h211v-219z" />
    <glyph glyph-name="ring" unicode="&#x2da;" horiz-adv-x="737" 
d="M168 1389q0 83 59 141.5t142 58.5t141.5 -58.5t58.5 -141.5t-58.5 -142t-141.5 -59t-142 59t-59 142zM279 1389q0 -37 26.5 -64t63.5 -27t63.5 27t26.5 64t-26.5 63.5t-63.5 26.5t-63.5 -26.5t-26.5 -63.5z" />
    <glyph glyph-name="ogonek" unicode="&#x2db;" horiz-adv-x="737" 
d="M332 23h172v-23q-105 -29 -163 -91t-58 -128q0 -41 23.5 -64.5t66.5 -23.5q47 0 92 28l65 -116q-73 -64 -192 -64q-99 0 -169.5 56t-70.5 151q0 93 60.5 163t173.5 112z" />
    <glyph glyph-name="tilde" unicode="&#x2dc;" horiz-adv-x="737" 
d="M158 1239l-142 -14q-8 28 -8 53q0 90 59 144.5t152 54.5q48 0 95 -19.5t78 -43t66 -43t62 -19.5t45 15.5t19 43.5q0 13 -2 19l141 14q8 -28 8 -53q0 -90 -59 -144.5t-152 -54.5q-48 0 -95 19.5t-78 43t-66 43t-62 19.5t-44.5 -15.5t-18.5 -44.5q0 -12 2 -18z" />
    <glyph glyph-name="hungarumlaut" unicode="&#x2dd;" horiz-adv-x="737" 
d="M481 1526l-291 -344l-127 94l267 369zM817 1497l-280 -334l-129 97l260 354z" />
    <glyph glyph-name="uni0394" unicode="&#x394;" 
d="M1116 0h-1108l455 1171h205zM811 184l-252 695h-4l-256 -695h512z" />
    <glyph glyph-name="uni03A9" unicode="&#x3a9;" horiz-adv-x="1626" 
d="M39 188h371q-153 109 -231.5 261.5t-78.5 318.5q0 138 50.5 263.5t140.5 220t225.5 150.5t296.5 56t296.5 -56t225.5 -150.5t140.5 -220t50.5 -263.5q0 -166 -78 -318.5t-231 -261.5h370v-188h-661v207q116 41 200.5 129.5t125 197.5t40.5 226q0 102 -30 191t-87.5 159.5
t-150.5 111t-211 40.5t-211 -40.5t-150.5 -111t-87.5 -159.5t-30 -191q0 -117 40.5 -226t125 -197.5t200.5 -129.5v-207h-661v188z" />
    <glyph glyph-name="uni03BC" unicode="&#x3bc;" 
d="M1028 0h-201l-6 164q-58 -90 -146.5 -139.5t-189.5 -49.5q-102 0 -174 37v-524h-213v1548h211v-520q0 -192 49 -270q51 -80 170 -80q82 0 159.5 50.5t129.5 133.5v686h211v-1036z" />
    <glyph glyph-name="pi" unicode="&#x3c0;" 
d="M1106 854h-191v-489q0 -38 3 -68q3 -70 25.5 -106t74.5 -46l-86 -180q-201 51 -223 303q-4 46 -4 78v508h-318v-721q0 -65 -12 -133h-215q16 61 16 150v704h-121v182h1051v-182z" />
    <glyph glyph-name="Wgrave" unicode="&#x1e80;" horiz-adv-x="1843" 
d="M1028 1434l277 -1043h4l286 1043h238l-410 -1434h-219l-280 1055h-4l-302 -1055h-212l-396 1434h244l274 -1043h4l289 1043h207zM967 1511l-363 261l119 149l340 -285z" />
    <glyph glyph-name="wgrave" unicode="&#x1e81;" horiz-adv-x="1525" 
d="M874 1036l201 -764h6l199 764h217l-301 -1036h-223l-209 754h-4l-213 -754h-232l-286 1036h227l184 -764h4l218 764h212zM745 1165l-280 334l149 117l258 -354z" />
    <glyph glyph-name="Wacute" unicode="&#x1e82;" horiz-adv-x="1843" 
d="M1028 1434l277 -1043h4l286 1043h238l-410 -1434h-219l-280 1055h-4l-302 -1055h-212l-396 1434h244l274 -1043h4l289 1043h207zM1255 1772l-362 -261l-96 125l340 285z" />
    <glyph glyph-name="wacute" unicode="&#x1e83;" horiz-adv-x="1525" 
d="M874 1036l201 -764h6l199 764h217l-301 -1036h-223l-209 754h-4l-213 -754h-232l-286 1036h227l184 -764h4l218 764h212zM1067 1499l-281 -334l-127 97l259 354z" />
    <glyph glyph-name="Wdieresis" unicode="&#x1e84;" horiz-adv-x="1843" 
d="M1028 1434l277 -1043h4l286 1043h238l-410 -1434h-219l-280 1055h-4l-302 -1055h-212l-396 1434h244l274 -1043h4l289 1043h207zM764 1563h-232v233h232v-233zM1319 1563h-232v233h232v-233z" />
    <glyph glyph-name="wdieresis" unicode="&#x1e85;" horiz-adv-x="1525" 
d="M874 1036l201 -764h6l199 764h217l-301 -1036h-223l-209 754h-4l-213 -754h-232l-286 1036h227l184 -764h4l218 764h212zM657 1225h-215v219h215v-219zM1094 1225h-215v219h215v-219z" />
    <glyph glyph-name="Ygrave" unicode="&#x1ef2;" horiz-adv-x="1163" 
d="M686 0h-219v618l-457 816h273l303 -582h4l307 582h256l-467 -826v-608zM678 1511l-363 261l119 149l340 -285z" />
    <glyph glyph-name="ygrave" unicode="&#x1ef3;" horiz-adv-x="1003" 
d="M10 1036h234l254 -745h4l262 745h229l-583 -1505l-187 74l164 434zM545 1165l-281 334l150 117l258 -354z" />
    <glyph glyph-name="thinspace" unicode="&#x2009;" horiz-adv-x="256" 
 />
    <glyph glyph-name="endash" unicode="&#x2013;" horiz-adv-x="1228" 
d="M1126 543h-1024v188h1024v-188z" />
    <glyph glyph-name="emdash" unicode="&#x2014;" horiz-adv-x="1843" 
d="M1741 543h-1639v188h1639v-188z" />
    <glyph glyph-name="quoteleft" unicode="&#x2018;" horiz-adv-x="575" 
d="M457 1434l-107 -525h-233l139 525h201z" />
    <glyph glyph-name="quoteright" unicode="&#x2019;" horiz-adv-x="575" 
d="M117 909l106 525h234l-140 -525h-200z" />
    <glyph glyph-name="quotesinglbase" unicode="&#x201a;" horiz-adv-x="575" 
d="M117 -270l106 524h234l-140 -524h-200z" />
    <glyph glyph-name="quotedblleft" unicode="&#x201c;" horiz-adv-x="1089" 
d="M498 1434l-107 -525h-233l139 525h201zM932 1434l-107 -525h-233l139 525h201z" />
    <glyph glyph-name="quotedblright" unicode="&#x201d;" horiz-adv-x="1089" 
d="M158 909l106 525h234l-140 -525h-200zM592 909l106 525h234l-139 -525h-201z" />
    <glyph glyph-name="quotedblbase" unicode="&#x201e;" horiz-adv-x="1089" 
d="M158 -270l106 524h234l-140 -524h-200zM592 -270l106 524h234l-139 -524h-201z" />
    <glyph glyph-name="dagger" unicode="&#x2020;" horiz-adv-x="849" 
d="M344 283v329l6 332l-137 -6h-76v154h76l137 -7l-6 250v99h162v-99l-6 -250l137 7h76v-154h-76l-137 6l6 -332v-329h-162z" />
    <glyph glyph-name="daggerdbl" unicode="&#x2021;" horiz-adv-x="849" 
d="M137 870h76l137 -6l-2 45v95q0 14 1 40t1 41l-213 -4v152l213 -6l-6 207h162l-6 -207l213 6v-152l-213 4q0 -15 1 -41t1 -40v-95l-2 -45l137 6h76v-153l-213 4l6 -146v-292h-162v292l6 146l-213 -4v153z" />
    <glyph glyph-name="bullet" unicode="&#x2022;" horiz-adv-x="671" 
d="M72 592q0 109 77.5 186.5t186.5 77.5t186.5 -77.5t77.5 -186.5t-77.5 -186.5t-186.5 -77.5t-186.5 77.5t-77.5 186.5z" />
    <glyph glyph-name="ellipsis" unicode="&#x2026;" horiz-adv-x="1536" 
d="M887 0h-240v254h240v-254zM379 0h-240v254h240v-254zM1399 0h-240v254h240v-254z" />
    <glyph glyph-name="perthousand" unicode="&#x2030;" horiz-adv-x="2537" 
d="M449 1446q140 0 237.5 -96.5t97.5 -235.5t-97.5 -235.5t-237.5 -96.5t-238 96.5t-98 235.5t98 235.5t238 96.5zM449 1286q-71 0 -117.5 -48.5t-46.5 -123.5t46.5 -123.5t117.5 -48.5t117 48.5t46 123.5t-46 123.5t-117 48.5zM1325 1460l119 -88l-1018 -1399l-121 88z
M1294 651q140 0 238 -96.5t98 -235.5t-98 -235t-238 -96t-238 96t-98 235t98 235.5t238 96.5zM1294 492q-71 0 -117.5 -49t-46.5 -124t46.5 -123.5t117.5 -48.5t117.5 48.5t46.5 123.5t-46.5 124t-117.5 49zM2089 651q140 0 238 -96.5t98 -235.5t-98 -235t-238 -96t-238 96
t-98 235t98 235.5t238 96.5zM2089 492q-71 0 -117.5 -49t-46.5 -124t46.5 -123.5t117.5 -48.5t117.5 48.5t46.5 123.5t-46.5 124t-117.5 49z" />
    <glyph glyph-name="guilsinglleft" unicode="&#x2039;" horiz-adv-x="647" 
d="M117 678l305 315l106 -188l-260 -250l260 -248l-106 -188l-305 317v242z" />
    <glyph glyph-name="guilsinglright" unicode="&#x203a;" horiz-adv-x="647" 
d="M223 991l305 -315v-242l-305 -317l-106 190l260 246l-260 250z" />
    <glyph glyph-name="fraction" unicode="&#x2044;" horiz-adv-x="278" 
d="M588 1460l121 -88l-1018 -1399l-121 88z" />
    <glyph glyph-name="Euro" unicode="&#x20ac;" horiz-adv-x="1331" 
d="M23 760v162h182q69 214 247 338t414 124q103 0 207.5 -29t188.5 -81l-97 -166q-60 41 -140 64.5t-157 23.5q-156 0 -269 -71.5t-169 -202.5h541v-162h-584q-4 -54 -4 -80q0 -53 4 -78h584v-162h-543q55 -132 169.5 -203t270.5 -71q83 0 167 25t149 73l112 -155
q-90 -63 -203 -98.5t-229 -35.5q-237 0 -415.5 123.5t-245.5 341.5h-180v162h149q-4 50 -4 78q0 26 4 80h-149z" />
    <glyph glyph-name="afii61352" unicode="&#x2116;" horiz-adv-x="2318" 
d="M1358 0h-197l-755 1028v-1028h-220v1434h193l758 -1028v1028h221v-1434zM1898 1466q156 0 259.5 -104.5t103.5 -259.5t-103.5 -260t-259.5 -105q-157 0 -259.5 105t-102.5 260t102.5 259.5t259.5 104.5zM2093 1102q0 95 -55 159t-140 64t-139.5 -64t-54.5 -159t54.5 -159
t139.5 -64t140 64t55 159z" />
    <glyph glyph-name="trademark" unicode="&#x2122;" horiz-adv-x="2007" 
d="M723 1288h-201v-696h-166v696h-200v146h567v-146zM1686 1239l-265 -647h-139l-258 647v-647h-166v842h258l236 -613l241 613h258v-842h-165v647z" />
    <glyph glyph-name="Omega" unicode="&#x2126;" horiz-adv-x="1626" 
d="M39 188h371q-153 109 -231.5 261.5t-78.5 318.5q0 138 50.5 263.5t140.5 220t225.5 150.5t296.5 56t296.5 -56t225.5 -150.5t140.5 -220t50.5 -263.5q0 -166 -78 -318.5t-231 -261.5h370v-188h-661v207q116 41 200.5 129.5t125 197.5t40.5 226q0 102 -30 191t-87.5 159.5
t-150.5 111t-211 40.5t-211 -40.5t-150.5 -111t-87.5 -159.5t-30 -191q0 -117 40.5 -226t125 -197.5t200.5 -129.5v-207h-661v188z" />
    <glyph glyph-name="onethird" unicode="&#x2153;" horiz-adv-x="1607" 
d="M1190 1460l121 -88l-1020 -1399l-121 88zM467 692h-156v568q-106 -48 -110 -50v142l73 36.5t86 45.5h107v-742zM1085 309v129q62 0 89 8q37 9 58 32.5t21 58.5q0 37 -26 60.5t-72 23.5q-75 0 -94 -76l-129 57q24 69 86 108.5t139 39.5q105 0 178.5 -55t73.5 -144
q0 -45 -26 -89t-66 -67q57 -22 92 -72t35 -112q0 -103 -77.5 -164t-188.5 -61q-83 0 -153 38.5t-105 110.5l129 60q36 -80 127 -80q46 0 78 25t32 73q0 49 -38.5 75.5t-100.5 26.5q-39 0 -62 -6z" />
    <glyph glyph-name="twothirds" unicode="&#x2154;" horiz-adv-x="1794" 
d="M1376 1460l121 -88l-1020 -1399l-121 88zM178 813q149 146 258 291q58 78 58 137q0 36 -24.5 57t-63.5 21t-64 -28t-25 -74l-153 26q6 92 77.5 148.5t170.5 56.5q97 0 169 -56t72 -149q0 -92 -78 -203q-72 -97 -188 -213h295v-131h-504v117zM1272 309v129q61 0 88 8
q80 20 80 91q0 36 -26.5 60t-72.5 24q-75 0 -94 -76l-129 57q24 69 86 108.5t139 39.5q105 0 178.5 -55t73.5 -144q0 -45 -26 -89t-66 -67q57 -22 92 -72t35 -112q0 -103 -77.5 -164t-188.5 -61q-83 0 -153 38.5t-105 110.5l129 60q36 -80 127 -80q47 0 79 25t32 73
q0 49 -38.5 75.5t-101.5 26.5q-38 0 -61 -6z" />
    <glyph glyph-name="oneeighth" unicode="&#x215b;" horiz-adv-x="1634" 
d="M1190 1460l121 -88l-1020 -1399l-121 88zM1470 209q0 -95 -76.5 -158t-189.5 -63q-115 0 -190.5 63t-75.5 158q0 120 111 182q-91 61 -91 158q0 86 69 145.5t177 59.5t176 -59t68 -146q0 -100 -90 -158q112 -59 112 -182zM1110 541q0 -38 27 -64t67 -26q39 0 66.5 26
t27.5 64q0 37 -28 62.5t-66 25.5q-40 0 -67 -25.5t-27 -62.5zM1096 217q0 -43 30.5 -72.5t77.5 -29.5t78 29.5t31 72.5t-31 74t-78 31q-46 0 -77 -31t-31 -74zM467 692h-156v568q-106 -48 -110 -50v142l73 36.5t86 45.5h107v-742z" />
    <glyph glyph-name="threeeighths" unicode="&#x215c;" horiz-adv-x="1777" 
d="M1331 1460l121 -88l-1018 -1399l-121 88zM1614 209q0 -95 -76.5 -158t-189.5 -63q-115 0 -191 63t-76 158q0 120 111 182q-90 58 -90 158q0 86 69 145.5t177 59.5t175.5 -59t67.5 -146q0 -100 -90 -158q113 -60 113 -182zM1253 541q0 -38 27.5 -64t67.5 -26q38 0 65 26
t27 64q0 37 -27 62.5t-65 25.5q-40 0 -67.5 -25.5t-27.5 -62.5zM1237 217q0 -43 32 -72.5t79 -29.5q46 0 77 29.5t31 72.5t-31.5 74t-76.5 31q-47 0 -79 -31t-32 -74zM328 1008v129q61 0 88 8q80 20 80 90q0 36 -26.5 60t-72.5 24q-75 0 -94 -76l-129 57q24 69 86 108.5
t139 39.5q105 0 178.5 -55t73.5 -144q0 -45 -26 -88t-66 -67q57 -22 92 -72t35 -113q0 -103 -77.5 -164t-188.5 -61q-83 0 -152.5 38.5t-105.5 111.5l129 59q36 -80 127 -80q46 0 78 25t32 73q0 49 -38.5 76t-100.5 27q-38 0 -61 -6z" />
    <glyph glyph-name="fiveeighths" unicode="&#x215d;" horiz-adv-x="1751" 
d="M1307 1460l120 -88l-1017 -1399l-121 88zM645 1305h-268q-1 -13 -12 -160q39 20 96 20q93 0 156 -67t63 -160q0 -108 -75.5 -181t-186.5 -73q-83 0 -150.5 37t-103.5 106l129 62q32 -76 117 -76q52 0 81 33.5t29 83.5q0 48 -30.5 78t-79.5 30q-62 0 -99 -45l-100 68
q17 185 25 373h409v-129zM1587 209q0 -95 -76.5 -158t-189.5 -63q-114 0 -190 63t-76 158q0 120 112 182q-90 58 -90 158q0 87 68 146t176 59t177 -59.5t69 -145.5q0 -100 -90 -158q110 -58 110 -182zM1229 541q0 -38 26 -64t66 -26t67 26t27 64q0 37 -27 62.5t-67 25.5
q-39 0 -65.5 -25.5t-26.5 -62.5zM1212 217q0 -43 31.5 -72.5t77.5 -29.5q47 0 79 29.5t32 72.5t-32 74t-79 31q-45 0 -77 -31t-32 -74z" />
    <glyph glyph-name="seveneighths" unicode="&#x215e;" horiz-adv-x="1636" 
d="M1192 1460l121 -88l-1020 -1399l-121 88zM1473 209q0 -95 -77 -158t-190 -63q-115 0 -190.5 63t-75.5 158q0 120 111 182q-90 61 -90 158q0 87 68.5 146t176.5 59t177 -59.5t69 -145.5q0 -97 -90 -158q111 -60 111 -182zM1112 541q0 -38 27 -64t67 -26q39 0 66.5 26
t27.5 64q0 37 -28 62.5t-66 25.5q-40 0 -67 -25.5t-27 -62.5zM1098 217q0 -43 30.5 -72.5t77.5 -29.5t78 29.5t31 72.5t-31 74t-78 31q-46 0 -77 -31t-31 -74zM688 1337q-161 -325 -305 -675l-143 65q34 78 77 170.5t71 150t72 146.5t54 109h-332v131h506v-97z" />
    <glyph glyph-name="uni2192" unicode="&#x2192;" horiz-adv-x="1951" 
d="M137 459v164h1362l-403 397l118 117l601 -596l-601 -598l-118 118l403 398h-1362z" />
    <glyph glyph-name="uni2194" unicode="&#x2194;" horiz-adv-x="2330" 
d="M856 1020l-405 -397h1429l-403 397l116 117l600 -596l-600 -598l-116 118l403 398h-1429l405 -398l-117 -118l-602 598l602 596z" />
    <glyph glyph-name="uni21D2" unicode="&#x21d2;" horiz-adv-x="1986" 
d="M1384 772l-251 248l116 117l600 -596l-600 -598l-116 118l251 248h-1247v164h1413l70 68l-70 67h-1413v164h1247z" />
    <glyph glyph-name="uni21D4" unicode="&#x21d4;" horiz-adv-x="2519" 
d="M1917 772l-252 248l117 117l600 -596l-600 -598l-117 118l252 248h-1313l252 -248l-117 -118l-602 598l602 596l117 -117l-254 -248h1315zM436 608l-69 -67l69 -68h1647l69 68l-69 67h-1647z" />
    <glyph glyph-name="uni21FD" unicode="&#x21fd;" horiz-adv-x="1951" 
d="M741 -55l-604 596l604 594v-512h1074v-164h-1074v-514zM580 752l-215 -211l215 -213v424z" />
    <glyph glyph-name="uni21FE" unicode="&#x21fe;" horiz-adv-x="1949" 
d="M1812 541l-600 -596v514h-1075v164h1075v512zM1587 541l-215 211v-424z" />
    <glyph glyph-name="uni21FF" unicode="&#x21ff;" horiz-adv-x="2519" 
d="M2382 541l-602 -596v514h-1039v-514l-604 596l604 594v-512h1039v512zM580 752l-215 -211l215 -213v424zM2154 541l-215 211v-424z" />
    <glyph glyph-name="uni2200" unicode="&#x2200;" horiz-adv-x="1355" 
d="M29 1434h254l108 -295h586l106 295h242l-561 -1434h-189zM682 334l225 612h-448l221 -612h2z" />
    <glyph glyph-name="partialdiff" unicode="&#x2202;" 
d="M61 1423l74 176q181 -75 325.5 -156t267.5 -181.5t204.5 -212t127.5 -248t46 -289.5q0 -150 -65 -271.5t-191 -193.5t-293 -72q-114 0 -213.5 45t-167.5 120.5t-107.5 175t-39.5 206.5q0 104 39 198.5t106 164t163 110.5t204 41q91 0 164 -26q-105 125 -263 222t-381 191
zM836 803q-98 49 -205 49q-175 0 -282 -83t-107 -243q0 -147 93.5 -254.5t235.5 -107.5q146 0 234 98.5t88 237.5q0 167 -57 303z" />
    <glyph glyph-name="uni2203" unicode="&#x2203;" horiz-adv-x="1187" 
d="M127 1434h874v-1434h-874v193h655v405h-655v193h655v450h-655v193z" />
    <glyph glyph-name="uni2204" unicode="&#x2204;" horiz-adv-x="1187" 
d="M127 1434h491l50 170l163 -43l-36 -127h206v-1434h-618l-47 -168l-164 43l35 125h-80v193h135l117 405h-252v193h307l129 450h-436v193zM782 598h-227l-117 -405h344v405zM782 1241h-43l-129 -450h172v450z" />
    <glyph glyph-name="Delta" unicode="&#x2206;" horiz-adv-x="1296" 
d="M1294 0h-1292l555 1434h188zM971 193l-328 899h-2l-330 -899h660z" />
    <glyph glyph-name="uni2208" unicode="&#x2208;" 
d="M1004 0h-250q-172 0 -300 38t-205.5 108.5t-115 163t-37.5 208.5t37.5 208.5t115 163t205.5 108.5t300 38h250v-180h-295q-171 0 -269 -68t-125 -178h689v-182h-689q27 -112 124.5 -179t269.5 -67h295v-182z" />
    <glyph glyph-name="uni2209" unicode="&#x2209;" 
d="M924 1260l-64 -224h144v-180h-197l-70 -246h267v-182h-320l-68 -242q58 -4 93 -4h295v-182h-250q-104 0 -187 12l-82 -278l-163 43l79 278q-155 61 -230 180.5t-75 282.5q0 110 33.5 199t102.5 158t183 110.5t267 48.5l76 271zM627 850q-133 -14 -211 -79t-101 -161h244z
M315 428q26 -125 138 -188l53 188h-191z" />
    <glyph glyph-name="product" unicode="&#x220f;" 
d="M1118 979h-184v-979h-219v979h-303v-979h-219v979h-185v192h1110v-192z" />
    <glyph glyph-name="summation" unicode="&#x2211;" 
d="M823 748l-434 -555h707v-193h-1061v115l512 626l-490 576v117h987v-193h-641z" />
    <glyph glyph-name="minus" unicode="&#x2212;" 
d="M100 727h924v-180h-924v180z" />
    <glyph glyph-name="uni2215" unicode="&#x2215;" horiz-adv-x="763" 
d="M768 1497l-596 -1610l-172 66l596 1610z" />
    <glyph glyph-name="uni2219" unicode="&#x2219;" 
d="M682 512h-240v254h240v-254z" />
    <glyph glyph-name="radical" unicode="&#x221a;" 
d="M1137 1536l-496 -1536h-213l-256 854h-174v182h352l191 -737h4l366 1237h226z" />
    <glyph glyph-name="infinity" unicode="&#x221e;" horiz-adv-x="1593" 
d="M1516 506q0 -141 -101.5 -241.5t-245.5 -100.5q-95 0 -180.5 53t-193.5 168q-112 -117 -195.5 -169t-175.5 -52q-145 0 -245.5 101.5t-100.5 244.5t101 243.5t245 100.5q93 0 179 -53t196 -168q112 117 194.5 169t175.5 52q146 0 246.5 -101.5t100.5 -246.5zM1163 342
q64 0 107 49.5t43 116.5q0 66 -43.5 117t-106.5 51q-50 0 -109 -44t-136 -124q76 -79 135.5 -122.5t109.5 -43.5zM430 676q-64 0 -106.5 -49.5t-42.5 -116.5q0 -66 43 -117t106 -51q50 0 110 44t136 124q-159 166 -246 166z" />
    <glyph glyph-name="uni2229" unicode="&#x2229;" 
d="M1024 424v-424h-182v494q0 387 -279 387q-278 0 -278 -387v-494h-183v424q0 332 117.5 484.5t343.5 152.5q227 0 344 -152.5t117 -484.5z" />
    <glyph glyph-name="uni222A" unicode="&#x222a;" 
d="M102 612v424h183v-493q0 -385 278 -385q279 0 279 385v493h182v-424q0 -332 -117.5 -484.5t-343.5 -152.5q-227 0 -344 152.5t-117 484.5z" />
    <glyph glyph-name="integral" unicode="&#x222b;" 
d="M1018 1511l-57 -172q-64 31 -132 31q-84 0 -116 -35q-16 -16 -24 -45t-10 -54t-5 -83l-53 -1225q-9 -207 -95 -299q-76 -82 -225 -82q-78 0 -195 50l58 172q68 -33 112 -33q38 0 58.5 8.5t38.5 28.5q21 23 28 63t11 119l51 1225q9 208 92 297q78 84 244 84q102 0 219 -50
z" />
    <glyph glyph-name="uni2234" unicode="&#x2234;" 
d="M367 0h-240v254h240v-254zM999 0h-237v254h237v-254zM684 565h-240v254h240v-254z" />
    <glyph glyph-name="approxequal" unicode="&#x2248;" 
d="M899 932l127 -90q-39 -85 -111.5 -128.5t-169.5 -43.5q-62 0 -127.5 24.5t-126.5 49t-112 24.5q-102 0 -152 -82l-129 90q39 85 112.5 129.5t168.5 44.5q62 0 128 -24.5t127 -49t111 -24.5q103 0 154 80zM899 590l127 -90q-39 -85 -112 -129.5t-169 -44.5
q-62 0 -127.5 24.5t-126.5 49t-112 24.5q-104 0 -152 -82l-129 90q39 86 112 130t169 44q62 0 128 -24.5t127 -49t111 -24.5q102 0 154 82z" />
    <glyph glyph-name="notequal" unicode="&#x2260;" 
d="M133 170l696 1032l140 -96l-699 -1032zM100 899h924v-180h-924v180zM100 557h924v-180h-924v180z" />
    <glyph glyph-name="lessequal" unicode="&#x2264;" 
d="M43 705v167l1038 416v-180l-800 -320l800 -319v-180zM43 176h1038v-176h-1038v176z" />
    <glyph glyph-name="greaterequal" unicode="&#x2265;" 
d="M1081 872v-167l-1038 -416v180l801 319l-801 320v180zM43 176h1038v-176h-1038v176z" />
    <glyph glyph-name="uni2282" unicode="&#x2282;" 
d="M1004 0h-250q-172 0 -300 38t-205.5 108.5t-115 163t-37.5 208.5t37.5 208.5t115 163t205.5 108.5t300 38h250v-180h-295q-106 0 -186.5 -27.5t-127 -75.5t-69.5 -107t-23 -128t23 -128t69.5 -106.5t127 -74.5t186.5 -27h295v-182z" />
    <glyph glyph-name="uni2283" unicode="&#x2283;" 
d="M373 0h-250v182h295q106 0 186 27t127 74.5t69.5 106.5t22.5 128t-22.5 128t-69.5 107t-127 75.5t-186 27.5h-295v180h250q172 0 300 -38t205 -108.5t114.5 -163t37.5 -208.5t-37.5 -208.5t-114.5 -163t-205 -108.5t-300 -38z" />
    <glyph glyph-name="uni2284" unicode="&#x2284;" 
d="M924 1260l-64 -224h144v-180h-197l-191 -670q58 -4 93 -4h295v-182h-250q-104 0 -187 12l-82 -278l-163 43l79 278q-155 61 -230 180.5t-75 282.5q0 110 33.5 199t102.5 158t183 110.5t267 48.5l76 271zM303 518q0 -192 150 -278l174 610q-111 -13 -186 -63
t-106.5 -117.5t-31.5 -151.5z" />
    <glyph glyph-name="uni2285" unicode="&#x2285;" 
d="M805 1260l-82 -279q156 -61 231.5 -180.5t75.5 -282.5q0 -110 -33.5 -199t-102.5 -158t-183 -110.5t-267 -48.5l-75 -268l-166 43l63 223h-143v182h196l191 666q-39 8 -92 8h-295v180h250q109 0 186 -14l82 283zM823 518q0 89 -37.5 162t-113.5 117l-174 -611
q165 18 245 109.5t80 222.5z" />
    <glyph glyph-name="uni2286" unicode="&#x2286;" 
d="M1004 344h-250q-172 0 -300 38t-205.5 108.5t-115 163t-37.5 208.5t37.5 208.5t115 163t205.5 108.5t300 38h250v-182h-295q-106 0 -186.5 -27t-127 -74.5t-69.5 -106.5t-23 -128t23 -128t69.5 -107t127 -75.5t186.5 -27.5h295v-180zM125 0v182h879v-182h-879z" />
    <glyph glyph-name="uni2287" unicode="&#x2287;" 
d="M373 344h-250v180h295q106 0 186 27.5t127 75.5t69.5 107t22.5 128t-22.5 128t-69.5 106.5t-127 74.5t-186 27h-295v182h250q172 0 300 -38t205 -108.5t114.5 -163t37.5 -208.5t-37.5 -208.5t-114.5 -163t-205 -108.5t-300 -38zM123 0v182h878v-182h-878z" />
    <glyph glyph-name="uni22C4" unicode="&#x22c4;" 
d="M563 -123l-401 635l401 635l402 -635zM356 512l207 -332l207 332l-207 330z" />
    <glyph glyph-name="triangle" unicode="&#x25b3;" horiz-adv-x="815" 
d="M754 586l-631 -359v713z" />
    <glyph glyph-name="lozenge" unicode="&#x25ca;" 
d="M68 717l401 717h190l402 -717l-402 -717h-190zM860 717l-297 528l-295 -528l295 -529z" />
    <glyph glyph-name="circle" unicode="&#x25cb;" horiz-adv-x="749" 
d="M72 592q0 126 88.5 214.5t214.5 88.5t214.5 -88.5t88.5 -214.5t-88.5 -214.5t-214.5 -88.5t-214.5 88.5t-88.5 214.5z" />
    <glyph glyph-name="uni25FB" unicode="&#x25fb;" 
d="M190 811h746v-745h-746v745zM356 645v-414h414v414h-414z" />
    <glyph glyph-name="dotlessj" unicode="&#xf6be;" horiz-adv-x="557" 
d="M391 1036v-1122q0 -138 -37 -213q-72 -158 -280 -158q-119 0 -205 45l59 170q54 -28 117 -28q36 0 61.5 11.5t40 29t22 48.5t9.5 58.5t2 69.5v1089h211z" />
    <glyph glyph-name="commainferior" unicode="&#xf6e1;" horiz-adv-x="337" 
d="M258 -193l-86 -329h-149l67 329h168z" />
    <glyph glyph-name="commasuperior" unicode="&#xf6e2;" horiz-adv-x="337" 
d="M258 924l-86 -330h-149l67 330h168z" />
    <glyph glyph-name="hypheninferior" unicode="&#xf6e5;" horiz-adv-x="565" 
d="M444 -80h-323v133h323v-133z" />
    <glyph glyph-name="hyphensuperior" unicode="&#xf6e6;" horiz-adv-x="565" 
d="M444 1036h-323v133h323v-133z" />
    <glyph glyph-name="periodinferior" unicode="&#xf6e7;" horiz-adv-x="323" 
d="M246 -365h-168v170h168v-170z" />
    <glyph glyph-name="periodsuperior" unicode="&#xf6e8;" horiz-adv-x="323" 
d="M246 752h-168v170h168v-170z" />
    <glyph glyph-name="M.salt" horiz-adv-x="1716" 
d="M928 317h-142l-385 783v-1100h-215v1434h281l389 -807h4l391 807h279v-1434h-215v1102z" />
    <glyph glyph-name="trademark.salt" horiz-adv-x="1804" 
d="M858 1434h197l205 -430l206 430h193v-842h-164v543l-186 -375h-101l-184 373v-541h-166v842zM723 1288h-201v-696h-166v696h-198v146h565v-146z" />
    <glyph glyph-name="hyphen.case" horiz-adv-x="935" 
d="M739 596h-542v186h542v-186z" />
    <glyph glyph-name="zero.lf" horiz-adv-x="1132" 
d="M565 1384q233 0 361.5 -187t128.5 -517t-128.5 -517.5t-361.5 -187.5q-231 0 -359 187.5t-128 517.5q0 329 127.5 516.5t359.5 187.5zM565 1192q-128 0 -197 -129t-69 -383q0 -253 69 -382.5t197 -129.5q129 0 199 129.5t70 382.5q0 254 -69.5 383t-199.5 129z" />
    <glyph glyph-name="one.lf" horiz-adv-x="712" 
d="M526 0h-217v1104q-37 -20 -119 -55l-81 -35v200q129 64 276 146h141v-1360z" />
    <glyph glyph-name="two.lf" horiz-adv-x="1050" 
d="M788 645q-142 -201 -380 -457h585v-188h-876v184q324 341 475 559q119 175 119 277q0 81 -61 128.5t-144 47.5q-84 0 -142.5 -58.5t-58.5 -148.5l-215 41q12 155 138 254.5t284 99.5q110 0 205 -43.5t155 -128t60 -192.5q0 -170 -144 -375z" />
    <glyph glyph-name="three.lf" horiz-adv-x="1071" 
d="M326 592v207q125 3 186 18q78 22 125 74t47 121q0 79 -59.5 131.5t-153.5 52.5q-74 0 -131 -38t-78 -107l-184 75q42 118 148.5 188t248.5 70q188 0 309 -99.5t121 -264.5q0 -90 -46.5 -169t-123.5 -120q105 -37 170.5 -128.5t65.5 -207.5q0 -192 -133 -306t-330 -114
q-139 0 -260 62.5t-180 179.5l174 92q38 -71 105.5 -107t150.5 -36q106 0 180 56.5t74 160.5q0 98 -80.5 160.5t-200.5 62.5q-79 0 -145 -14z" />
    <glyph glyph-name="four.lf" horiz-adv-x="1110" 
d="M868 0h-213v340h-604v215q154 200 596 805h221v-832h201v-188h-201v-340zM281 528h374v537q-232 -343 -374 -537z" />
    <glyph glyph-name="five.lf" horiz-adv-x="1030" 
d="M899 1360v-189h-506q-13 -263 -24 -356q81 37 190 37q171 0 291.5 -122t120.5 -296q0 -197 -131 -328t-330 -131q-135 0 -258 65t-180 173l174 94q37 -70 101.5 -105.5t141.5 -35.5q119 0 190 74t71 184q0 107 -71.5 173.5t-184.5 66.5q-121 0 -201 -86l-152 90
q23 229 47 692h711z" />
    <glyph glyph-name="six.lf" horiz-adv-x="1103" 
d="M760 1440l84 -187q-202 -90 -332 -208t-182 -293q114 114 288 114q178 0 293 -126.5t115 -309.5q0 -194 -125 -324.5t-317 -130.5q-115 0 -212 45t-160.5 121t-98.5 174.5t-35 206.5q0 159 53.5 305t148 261.5t216.5 204.5t264 147zM571 678q-85 0 -160 -42.5
t-114 -115.5q0 -56 9 -107t29.5 -97t51 -79.5t77 -53t103.5 -19.5q108 0 174 76t66 188q0 111 -65.5 180.5t-170.5 69.5z" />
    <glyph glyph-name="seven.lf" horiz-adv-x="937" 
d="M899 1360v-150q-126 -262 -289 -627t-274 -632l-199 88q82 193 177.5 401t214 455t130.5 272h-639v193h879z" />
    <glyph glyph-name="eight.lf" horiz-adv-x="1150" 
d="M575 -25q-204 0 -334 116t-130 286q0 223 206 340q-165 100 -165 295q0 158 118 265t305 107q189 0 307.5 -107t118.5 -265q0 -194 -167 -295q208 -116 208 -340q0 -170 -130.5 -286t-336.5 -116zM575 612q-103 0 -174 -65.5t-71 -159.5q0 -96 70.5 -159.5t174.5 -63.5
t176 63.5t72 159.5q0 94 -72.5 159.5t-175.5 65.5zM575 1196q-89 0 -149.5 -55.5t-60.5 -141.5q0 -83 61 -140.5t149 -57.5q89 0 150 57.5t61 140.5q0 87 -60.5 142t-150.5 55z" />
    <glyph glyph-name="nine.lf" horiz-adv-x="1103" 
d="M344 -78l-84 184q96 42 173 89t146 108t118.5 138t76.5 167q-115 -112 -289 -112q-118 0 -212 58.5t-144.5 157.5t-50.5 220q0 192 125 322t317 130q153 0 270.5 -77t176.5 -200t59 -269q0 -159 -53.5 -305t-148 -260.5t-216 -203.5t-264.5 -147zM532 682q85 0 160.5 43
t114.5 117q0 56 -9 106.5t-29.5 96.5t-51 79t-77 52.5t-103.5 19.5q-108 0 -174 -75t-66 -187q0 -113 64.5 -182.5t170.5 -69.5z" />
    <glyph glyph-name="dollar.lf" 
d="M51 186l146 138q164 -164 344 -164q118 0 199 56t81 167q0 26 -5.5 48.5t-19.5 42t-26.5 34.5t-38 30.5t-42 25.5t-50.5 23.5t-52 20.5t-57.5 21t-56.5 20q-58 21 -100 40.5t-89 51t-76.5 68.5t-49 91t-19.5 120q0 153 103.5 250.5t267.5 111.5v195h141v-199
q172 -20 340 -137l-129 -154q-126 113 -295 113q-54 0 -102.5 -17.5t-83.5 -59.5t-35 -101q0 -24 8.5 -45t20.5 -37t35.5 -32.5t42.5 -27t53.5 -25t56.5 -22.5t64 -22.5t63 -22.5q61 -23 104 -43.5t92.5 -54t80 -71.5t51 -94.5t20.5 -123.5q0 -175 -112.5 -283.5
t-286.5 -133.5v-201h-139v194q-239 8 -449 209z" />
    <glyph glyph-name="Euro.lf" horiz-adv-x="1331" 
d="M23 760v162h182q69 214 247 338t414 124q103 0 207.5 -29t188.5 -81l-97 -166q-60 41 -140 64.5t-157 23.5q-156 0 -269 -71.5t-169 -202.5h541v-162h-584q-4 -54 -4 -80q0 -53 4 -78h584v-162h-543q55 -132 169.5 -203t270.5 -71q83 0 167 25t149 73l112 -155
q-90 -63 -203 -98.5t-229 -35.5q-237 0 -415.5 123.5t-245.5 341.5h-180v162h149q-4 50 -4 78q0 26 4 80h-149z" />
    <glyph glyph-name="cent.lf" 
d="M899 362l107 -157q-114 -90 -273 -105v-180h-141v182q-197 28 -322 174t-125 365q0 202 126 352.5t321 182.5v184h141v-180q142 -12 262 -95l-102 -165q-92 73 -209 73q-135 0 -228.5 -102.5t-93.5 -249.5q0 -154 94.5 -253t227.5 -99q55 0 114 20t101 53z" />
    <glyph glyph-name="sterling.lf" 
d="M1006 0h-846v193h114v446h-114v188h114v101q0 198 119 327t303 129q181 0 314 -79l-88 -177q-77 68 -211 68q-116 0 -171 -85.5t-55 -231.5v-52h273v-188h-273v-446h521v-193z" />
    <glyph glyph-name="yen.lf" 
d="M106 524v162h293l-376 674h245l299 -547h4l287 547h244l-383 -674h291v-162h-344v-127h344v-159h-346v-238h-211v238h-347v159h345v127h-345z" />
    <glyph glyph-name="florin.lf" 
d="M821 827v-188h-266l-82 -725q-18 -165 -101.5 -253.5t-211.5 -88.5q-74 0 -172 25l45 180q53 -17 102 -17q68 0 93.5 45.5t37.5 149.5l78 684h-162v188h183l24 215q19 163 109 252.5t233 89.5q138 0 275 -67l-80 -172q-76 51 -172 51q-82 0 -114 -46t-44 -146l-21 -177
h246z" />
    <glyph glyph-name="afii61352.lf" horiz-adv-x="2318" 
d="M1358 0h-197l-755 1028v-1028h-220v1434h193l758 -1028v1028h221v-1434zM1898 1466q156 0 259.5 -104.5t103.5 -259.5t-103.5 -260t-259.5 -105q-157 0 -259.5 105t-102.5 260t102.5 259.5t259.5 104.5zM2093 1102q0 95 -55 159t-140 64t-139.5 -64t-54.5 -159t54.5 -159
t139.5 -64t140 64t55 159z" />
    <glyph glyph-name="percent.lf" horiz-adv-x="1742" 
d="M449 1446q140 0 237.5 -96.5t97.5 -235.5t-97.5 -235.5t-237.5 -96.5t-238 96.5t-98 235.5t98 235.5t238 96.5zM449 1286q-71 0 -117.5 -48.5t-46.5 -123.5t46.5 -123.5t117.5 -48.5t117 48.5t46 123.5t-46 123.5t-117 48.5zM1325 1460l119 -88l-1018 -1399l-121 88z
M1294 651q140 0 238 -96.5t98 -235.5t-98 -235t-238 -96t-238 96t-98 235t98 235.5t238 96.5zM1294 492q-71 0 -117.5 -49t-46.5 -124t46.5 -123.5t117.5 -48.5t117.5 48.5t46.5 123.5t-46.5 124t-117.5 49z" />
    <glyph glyph-name="perthousand.lf" horiz-adv-x="2537" 
d="M449 1446q140 0 237.5 -96.5t97.5 -235.5t-97.5 -235.5t-237.5 -96.5t-238 96.5t-98 235.5t98 235.5t238 96.5zM449 1286q-71 0 -117.5 -48.5t-46.5 -123.5t46.5 -123.5t117.5 -48.5t117 48.5t46 123.5t-46 123.5t-117 48.5zM1325 1460l119 -88l-1018 -1399l-121 88z
M1294 651q140 0 238 -96.5t98 -235.5t-98 -235t-238 -96t-238 96t-98 235t98 235.5t238 96.5zM1294 492q-71 0 -117.5 -49t-46.5 -124t46.5 -123.5t117.5 -48.5t117.5 48.5t46.5 123.5t-46.5 124t-117.5 49zM2089 651q140 0 238 -96.5t98 -235.5t-98 -235t-238 -96t-238 96
t-98 235t98 235.5t238 96.5zM2089 492q-71 0 -117.5 -49t-46.5 -124t46.5 -123.5t117.5 -48.5t117.5 48.5t46.5 123.5t-46.5 124t-117.5 49z" />
    <glyph glyph-name="zero.osf" horiz-adv-x="1261" 
d="M631 1061q148 0 275 -72t202.5 -197.5t75.5 -273.5q0 -149 -75.5 -274.5t-202.5 -197t-275 -71.5t-275 71.5t-202.5 197t-75.5 274.5t75.5 274.5t202.5 197t275 71.5zM631 872q-142 0 -237 -100.5t-95 -253.5q0 -152 95 -252t237 -100t237 100t95 252q0 153 -95 253.5
t-237 100.5z" />
    <glyph glyph-name="one.osf" horiz-adv-x="712" 
d="M526 0h-217v799q-48 -25 -200 -88v200q129 64 276 146h141v-1057z" />
    <glyph glyph-name="two.osf" horiz-adv-x="1048" 
d="M309 690l-211 43q17 148 125.5 238t265.5 90q169 0 281.5 -91t112.5 -243q0 -181 -215 -356q-106 -83 -269 -183h574v-188h-852v209q19 13 93.5 64t98.5 67.5t74.5 52.5t81.5 60.5t59 48.5q134 120 134 223q0 70 -47.5 108.5t-127.5 38.5q-75 0 -124.5 -48.5
t-53.5 -133.5z" />
    <glyph glyph-name="three.osf" horiz-adv-x="1071" 
d="M326 268v207q120 3 186 19q78 22 125 73.5t47 120.5q0 78 -59.5 130t-153.5 52q-74 0 -131 -37.5t-78 -105.5l-184 76q42 118 148.5 188t248.5 70q188 0 309 -100t121 -265q0 -90 -46.5 -168t-123.5 -120q105 -37 170.5 -128.5t65.5 -207.5q0 -192 -133 -306t-330 -114
q-139 0 -260 62.5t-180 179.5l174 92q39 -71 106.5 -107.5t149.5 -36.5q106 0 180 56.5t74 160.5q0 99 -80.5 161.5t-200.5 62.5q-74 0 -145 -15z" />
    <glyph glyph-name="four.osf" horiz-adv-x="1132" 
d="M1100 0h-187v-324h-211v324h-661v217q376 453 661 819h211v-848h187v-188zM272 188h430v539q-233 -308 -430 -539z" />
    <glyph glyph-name="five.osf" horiz-adv-x="1030" 
d="M899 1036v-188h-506q-14 -264 -24 -359q81 37 190 37q171 0 291.5 -120.5t120.5 -294.5q0 -197 -131 -328t-330 -131q-135 0 -258 64.5t-180 172.5l174 95q37 -70 102 -106t141 -36q119 0 190 74t71 184q0 105 -71.5 171.5t-184.5 66.5q-123 0 -201 -84l-152 88
q23 232 47 694h711z" />
    <glyph glyph-name="six.osf" horiz-adv-x="1103" 
d="M760 1440l84 -187q-202 -90 -332 -208t-182 -293q114 114 288 114q178 0 293 -126.5t115 -309.5q0 -194 -125 -324.5t-317 -130.5q-115 0 -212 45t-160.5 121t-98.5 174.5t-35 206.5q0 159 53.5 305t148 261.5t216.5 204.5t264 147zM297 520q0 -56 9 -107t29.5 -97
t51 -79.5t77 -53t103.5 -19.5q108 0 174 76t66 188q0 111 -65.5 180.5t-170.5 69.5q-85 0 -160 -42.5t-114 -115.5z" />
    <glyph glyph-name="seven.osf" horiz-adv-x="937" 
d="M899 1036v-149q-125 -260 -288.5 -626t-274.5 -634l-199 88q82 193 177 400t215.5 458.5t129.5 270.5h-639v192h879z" />
    <glyph glyph-name="eight.osf" horiz-adv-x="1150" 
d="M834 717q208 -116 208 -340q0 -170 -130.5 -286t-336.5 -116q-204 0 -334 116t-130 286q0 223 206 340q-165 100 -165 295q0 158 118 265t305 107q189 0 307.5 -107t118.5 -265q0 -194 -167 -295zM575 612q-103 0 -174 -65.5t-71 -159.5q0 -96 70.5 -159.5t174.5 -63.5
t176 63.5t72 159.5q0 94 -72.5 159.5t-175.5 65.5zM575 1196q-89 0 -149.5 -55.5t-60.5 -141.5q0 -83 61 -140.5t149 -57.5q89 0 150 57.5t61 140.5q0 87 -60.5 142t-150.5 55z" />
    <glyph glyph-name="nine.osf" horiz-adv-x="1103" 
d="M344 -401l-84 184q96 42 173 89t146 108t118.5 138t76.5 167q-116 -113 -289 -113q-118 0 -212 58.5t-144.5 157.5t-50.5 220q0 192 125 322.5t317 130.5q116 0 212.5 -45t160 -120.5t98.5 -174t35 -207.5q0 -159 -53.5 -304.5t-148 -260.5t-216 -203.5t-264.5 -146.5z
M807 518q0 56 -9 106.5t-29.5 96.5t-51 79t-77 52.5t-103.5 19.5q-108 0 -174 -75t-66 -187q0 -113 64.5 -182.5t170.5 -69.5q85 0 160.5 43t114.5 117z" />
    <glyph glyph-name="dollar.osf" 
d="M51 186l146 138q164 -164 344 -164q118 0 199 56t81 167q0 26 -5.5 48.5t-19.5 42t-26.5 34.5t-38 30.5t-42 25.5t-50.5 23.5t-52 20.5t-57.5 21t-56.5 20q-58 21 -100 40.5t-89 51t-76.5 68.5t-49 91t-19.5 120q0 153 103.5 250.5t267.5 111.5v195h141v-199
q172 -20 340 -137l-129 -154q-126 113 -295 113q-54 0 -102.5 -17.5t-83.5 -59.5t-35 -101q0 -24 8.5 -45t20.5 -37t35.5 -32.5t42.5 -27t53.5 -25t56.5 -22.5t64 -22.5t63 -22.5q61 -23 104 -43.5t92.5 -54t80 -71.5t51 -94.5t20.5 -123.5q0 -175 -112.5 -283.5
t-286.5 -133.5v-201h-139v194q-239 8 -449 209z" />
    <glyph glyph-name="Euro.osf" horiz-adv-x="1331" 
d="M23 760v162h182q69 214 247 338t414 124q103 0 207.5 -29t188.5 -81l-97 -166q-60 41 -140 64.5t-157 23.5q-156 0 -269 -71.5t-169 -202.5h541v-162h-584q-4 -54 -4 -80q0 -53 4 -78h584v-162h-543q55 -132 169.5 -203t270.5 -71q83 0 167 25t149 73l112 -155
q-90 -63 -203 -98.5t-229 -35.5q-237 0 -415.5 123.5t-245.5 341.5h-180v162h149q-4 50 -4 78q0 26 4 80h-149z" />
    <glyph glyph-name="cent.osf" 
d="M899 362l107 -157q-114 -90 -273 -105v-180h-141v182q-197 28 -322 174t-125 365q0 202 126 352.5t321 182.5v184h141v-180q142 -12 262 -95l-102 -165q-92 73 -209 73q-135 0 -228.5 -102.5t-93.5 -249.5q0 -154 94.5 -253t227.5 -99q55 0 114 20t101 53z" />
    <glyph glyph-name="sterling.osf" 
d="M1006 0h-846v193h114v446h-114v188h114v99q0 200 119 329t303 129q183 0 314 -81l-88 -175q-74 66 -211 66q-116 0 -171 -85t-55 -230v-52h273v-188h-273v-446h521v-193z" />
    <glyph glyph-name="yen.osf" 
d="M106 547v139h293l-376 674h245l299 -547h4l287 547h244l-383 -674h293v-139h-346v-113h346v-139h-348v-295h-211v295h-347v139h345v113h-345z" />
    <glyph glyph-name="florin.osf" 
d="M821 827v-188h-266l-82 -725q-18 -165 -101.5 -253.5t-211.5 -88.5q-74 0 -172 25l45 180q53 -17 102 -17q68 0 93.5 45.5t37.5 149.5l78 684h-162v188h183l24 215q19 163 109 252.5t233 89.5q138 0 275 -67l-80 -172q-76 51 -172 51q-82 0 -114 -46t-44 -146l-21 -177
h246z" />
    <glyph glyph-name="afii61352.osf" horiz-adv-x="2318" 
d="M1358 0h-197l-755 1028v-1028h-220v1434h193l758 -1028v1028h221v-1434zM1898 1466q156 0 259.5 -104.5t103.5 -259.5t-103.5 -260t-259.5 -105q-157 0 -259.5 105t-102.5 260t102.5 259.5t259.5 104.5zM2093 1102q0 95 -55 159t-140 64t-139.5 -64t-54.5 -159t54.5 -159
t139.5 -64t140 64t55 159z" />
    <glyph glyph-name="percent.osf" horiz-adv-x="1742" 
d="M449 1446q140 0 237.5 -96.5t97.5 -235.5t-97.5 -235.5t-237.5 -96.5t-238 96.5t-98 235.5t98 235.5t238 96.5zM449 1286q-71 0 -117.5 -48.5t-46.5 -123.5t46.5 -123.5t117.5 -48.5t117 48.5t46 123.5t-46 123.5t-117 48.5zM1325 1460l119 -88l-1018 -1399l-121 88z
M1294 651q140 0 238 -96.5t98 -235.5t-98 -235t-238 -96t-238 96t-98 235t98 235.5t238 96.5zM1294 492q-71 0 -117.5 -49t-46.5 -124t46.5 -123.5t117.5 -48.5t117.5 48.5t46.5 123.5t-46.5 124t-117.5 49z" />
    <glyph glyph-name="perthousand.osf" horiz-adv-x="2537" 
d="M449 1446q140 0 237.5 -96.5t97.5 -235.5t-97.5 -235.5t-237.5 -96.5t-238 96.5t-98 235.5t98 235.5t238 96.5zM449 1286q-71 0 -117.5 -48.5t-46.5 -123.5t46.5 -123.5t117.5 -48.5t117 48.5t46 123.5t-46 123.5t-117 48.5zM1325 1460l119 -88l-1018 -1399l-121 88z
M1294 651q140 0 238 -96.5t98 -235.5t-98 -235t-238 -96t-238 96t-98 235t98 235.5t238 96.5zM1294 492q-71 0 -117.5 -49t-46.5 -124t46.5 -123.5t117.5 -48.5t117.5 48.5t46.5 123.5t-46.5 124t-117.5 49zM2089 651q140 0 238 -96.5t98 -235.5t-98 -235t-238 -96t-238 96
t-98 235t98 235.5t238 96.5zM2089 492q-71 0 -117.5 -49t-46.5 -124t46.5 -123.5t117.5 -48.5t117.5 48.5t46.5 123.5t-46.5 124t-117.5 49z" />
    <glyph glyph-name="zero.slash" 
d="M563 1384q232 0 360 -187.5t128 -516.5t-128 -517t-360 -188q-231 0 -359 187.5t-128 517.5q0 329 127.5 516.5t359.5 187.5zM563 168q118 0 185 107t79 319h-528q10 -212 78 -319t186 -107zM563 1192q-118 0 -186 -106.5t-78 -317.5h528q-12 211 -79.5 317.5
t-184.5 106.5z" />
    <glyph glyph-name="zero.tf" 
d="M563 1384q233 0 361.5 -187t128.5 -517t-128.5 -517.5t-361.5 -187.5q-231 0 -359 187.5t-128 517.5q0 329 127.5 516.5t359.5 187.5zM563 1192q-128 0 -197 -129t-69 -383q0 -253 69 -382.5t197 -129.5q129 0 198.5 129.5t69.5 382.5q0 254 -69.5 383t-198.5 129z" />
    <glyph glyph-name="one.tf" 
d="M223 190h312v938q-148 -74 -351 -159v202q223 104 410 201h158v-1182h286v-190h-815v190z" />
    <glyph glyph-name="two.tf" 
d="M1014 188v-188h-877v184q324 341 475 559q119 175 119 277q0 81 -61 128.5t-144 47.5q-84 0 -142 -58t-58 -149l-215 41q12 155 137.5 254.5t283.5 99.5q110 0 205 -43.5t155 -128t60 -192.5q0 -171 -143 -375q-139 -197 -381 -457h586z" />
    <glyph glyph-name="three.tf" 
d="M346 592v207q125 3 186 18q78 22 125.5 74t47.5 121q0 78 -59.5 130t-153.5 52q-74 0 -131 -37.5t-78 -105.5l-185 75q41 118 148.5 188t249.5 70q188 0 309 -99.5t121 -264.5q0 -90 -46.5 -169t-123.5 -120q105 -37 170 -128.5t65 -207.5q0 -192 -133 -306t-330 -114
q-139 0 -260 62.5t-180 179.5l174 92q38 -71 105.5 -107t150.5 -36q106 0 180 56.5t74 160.5q0 99 -80 161t-200 62q-80 0 -146 -14z" />
    <glyph glyph-name="four.tf" 
d="M864 0h-213v340h-604v215q154 200 596 805h221v-832h201v-188h-201v-340zM276 528h375v537q-220 -325 -375 -537z" />
    <glyph glyph-name="five.tf" 
d="M936 1360v-189h-506q-13 -262 -24 -358q81 37 190 37q171 0 291.5 -121t120.5 -295q0 -197 -131 -328t-330 -131q-135 0 -258 65t-180 173l174 94q37 -70 101.5 -105.5t141.5 -35.5q119 0 189.5 74t70.5 184q0 105 -71.5 171.5t-184.5 66.5q-122 0 -200 -84l-152 88
q23 232 47 694h711z" />
    <glyph glyph-name="six.tf" 
d="M770 1440l84 -187q-202 -90 -332 -208t-182 -293q114 114 289 114q178 0 292.5 -126.5t114.5 -309.5q0 -194 -125 -324.5t-317 -130.5q-115 0 -212 45t-160.5 121t-98.5 174.5t-35 206.5q0 159 53.5 305t148 261.5t216.5 204.5t264 147zM307 520q0 -71 15 -133t46 -113
t85 -80.5t125 -29.5q108 0 173.5 76t65.5 188q0 111 -65 180.5t-170 69.5q-86 0 -161 -42.5t-114 -115.5z" />
    <glyph glyph-name="seven.tf" 
d="M989 1360v-150q-126 -262 -289 -627t-274 -632l-199 88q81 192 178.5 403t213 451t131.5 274h-639v193h878z" />
    <glyph glyph-name="eight.tf" 
d="M821 717q209 -117 209 -340q0 -170 -130.5 -286t-336.5 -116q-204 0 -334.5 116t-130.5 286q0 223 207 340q-166 101 -166 295q0 158 118.5 265t305.5 107q189 0 307.5 -107t118.5 -265q0 -193 -168 -295zM563 612q-103 0 -174.5 -65.5t-71.5 -159.5q0 -96 71 -159.5
t175 -63.5t176 63.5t72 159.5q0 94 -72.5 159.5t-175.5 65.5zM563 1196q-89 0 -150 -55.5t-61 -141.5q0 -83 61.5 -140.5t149.5 -57.5q89 0 150 57.5t61 140.5q0 87 -60.5 142t-150.5 55z" />
    <glyph glyph-name="nine.tf" 
d="M356 -78l-84 184q96 42 173 89t146 108t118.5 138t76.5 167q-115 -112 -288 -112q-179 0 -293.5 126t-114.5 310q0 192 125 322t317 130q153 0 270.5 -77t176.5 -200t59 -269q0 -159 -53.5 -305t-148 -260.5t-216 -203.5t-264.5 -147zM819 842q0 56 -9 106.5t-29.5 96.5
t-51 79t-77 52.5t-103.5 19.5q-108 0 -174 -75t-66 -187q0 -113 65 -182.5t171 -69.5q85 0 160 43t114 117z" />
    <glyph glyph-name="dollar.tf" 
d="M51 186l146 138q164 -164 344 -164q118 0 199 56t81 167q0 26 -5.5 48.5t-19.5 42t-26.5 34.5t-38 30.5t-42 25.5t-50.5 23.5t-52 20.5t-57.5 21t-56.5 20q-58 21 -100 40.5t-89 51t-76.5 68.5t-49 91t-19.5 120q0 153 103.5 250.5t267.5 111.5v195h141v-199
q172 -20 340 -137l-129 -154q-126 113 -295 113q-54 0 -102.5 -17.5t-83.5 -59.5t-35 -101q0 -24 8.5 -45t20.5 -37t35.5 -32.5t42.5 -27t53.5 -25t56.5 -22.5t64 -22.5t63 -22.5q61 -23 104 -43.5t92.5 -54t80 -71.5t51 -94.5t20.5 -123.5q0 -175 -112.5 -283.5
t-286.5 -133.5v-201h-139v194q-239 8 -449 209z" />
    <glyph glyph-name="Euro.tf" 
d="M39 760v162h162q42 221 160 341.5t305 120.5q144 0 250.5 -75t160.5 -213l-188 -68q-34 80 -91 122t-130 42q-192 0 -248 -270h344v-162h-363q-2 -27 -2 -80q0 -55 2 -78h363v-162h-346q56 -272 250 -272q86 0 148 58t93 167l195 -57q-55 -175 -165.5 -268t-272.5 -93
q-186 0 -305.5 121.5t-161.5 343.5h-160v162h141q-2 25 -2 78t2 80h-141z" />
    <glyph glyph-name="cent.tf" 
d="M899 362l107 -157q-114 -90 -273 -105v-180h-141v182q-197 28 -322 174t-125 365q0 202 126 352.5t321 182.5v184h141v-180q142 -12 262 -95l-102 -165q-92 73 -209 73q-135 0 -228.5 -102.5t-93.5 -249.5q0 -154 94.5 -253t227.5 -99q55 0 114 20t101 53z" />
    <glyph glyph-name="sterling.tf" 
d="M1006 0h-846v193h114v446h-114v188h114v101q0 198 119 327t303 129q181 0 314 -79l-88 -177q-77 68 -211 68q-116 0 -171 -85.5t-55 -231.5v-52h273v-188h-273v-446h521v-193z" />
    <glyph glyph-name="yen.tf" 
d="M106 524v162h293l-376 674h245l299 -547h4l287 547h244l-383 -674h291v-162h-344v-127h344v-159h-346v-238h-211v238h-347v159h345v127h-345z" />
    <glyph glyph-name="florin.tf" 
d="M821 827v-188h-266l-82 -725q-18 -165 -101.5 -253.5t-211.5 -88.5q-74 0 -172 25l45 180q53 -17 102 -17q68 0 93.5 45.5t37.5 149.5l78 684h-162v188h183l24 215q19 163 109 252.5t233 89.5q138 0 275 -67l-80 -172q-76 51 -172 51q-82 0 -114 -46t-44 -146l-21 -177
h246z" />
    <glyph glyph-name="afii61352.tf" horiz-adv-x="2318" 
d="M1358 0h-197l-755 1028v-1028h-220v1434h193l758 -1028v1028h221v-1434zM1898 1466q156 0 259.5 -104.5t103.5 -259.5t-103.5 -260t-259.5 -105q-157 0 -259.5 105t-102.5 260t102.5 259.5t259.5 104.5zM2093 1102q0 95 -55 159t-140 64t-139.5 -64t-54.5 -159t54.5 -159
t139.5 -64t140 64t55 159z" />
    <glyph glyph-name="percent.tf" horiz-adv-x="1742" 
d="M449 1446q140 0 237.5 -96.5t97.5 -235.5t-97.5 -235.5t-237.5 -96.5t-238 96.5t-98 235.5t98 235.5t238 96.5zM449 1286q-71 0 -117.5 -48.5t-46.5 -123.5t46.5 -123.5t117.5 -48.5t117 48.5t46 123.5t-46 123.5t-117 48.5zM1325 1460l119 -88l-1018 -1399l-121 88z
M1294 651q140 0 238 -96.5t98 -235.5t-98 -235t-238 -96t-238 96t-98 235t98 235.5t238 96.5zM1294 492q-71 0 -117.5 -49t-46.5 -124t46.5 -123.5t117.5 -48.5t117.5 48.5t46.5 123.5t-46.5 124t-117.5 49z" />
    <glyph glyph-name="perthousand.tf" horiz-adv-x="2537" 
d="M449 1446q140 0 237.5 -96.5t97.5 -235.5t-97.5 -235.5t-237.5 -96.5t-238 96.5t-98 235.5t98 235.5t238 96.5zM449 1286q-71 0 -117.5 -48.5t-46.5 -123.5t46.5 -123.5t117.5 -48.5t117 48.5t46 123.5t-46 123.5t-117 48.5zM1325 1460l119 -88l-1018 -1399l-121 88z
M1294 651q140 0 238 -96.5t98 -235.5t-98 -235t-238 -96t-238 96t-98 235t98 235.5t238 96.5zM1294 492q-71 0 -117.5 -49t-46.5 -124t46.5 -123.5t117.5 -48.5t117.5 48.5t46.5 123.5t-46.5 124t-117.5 49zM2089 651q140 0 238 -96.5t98 -235.5t-98 -235t-238 -96t-238 96
t-98 235t98 235.5t238 96.5zM2089 492q-71 0 -117.5 -49t-46.5 -124t46.5 -123.5t117.5 -48.5t117.5 48.5t46.5 123.5t-46.5 124t-117.5 49z" />
    <glyph glyph-name="zeroslash.tosf" 
d="M563 1061q147 0 261 -72.5t174.5 -196t60.5 -274.5t-60.5 -274.5t-174.5 -196t-261 -72.5q-221 0 -358 155.5t-137 387.5t137 387.5t358 155.5zM563 166q116 0 183.5 68.5t84.5 197.5h-538q17 -129 85 -197.5t185 -68.5zM563 872q-115 0 -184 -69t-86 -197h538
q-18 128 -85.5 197t-182.5 69z" />
    <glyph glyph-name="zero.tosf" 
d="M563 1061q147 0 261 -72.5t174.5 -196t60.5 -274.5t-60.5 -274.5t-174.5 -196t-261 -72.5q-221 0 -358 155.5t-137 387.5t137 387.5t358 155.5zM563 872q-134 0 -205 -93t-71 -261q0 -167 71 -259.5t205 -92.5t205.5 92.5t71.5 259.5t-71.5 260.5t-205.5 93.5z" />
    <glyph glyph-name="one.tosf" 
d="M223 190h312v623q-167 -82 -351 -160v205q225 101 410 199h158v-867h286v-190h-815v190z" />
    <glyph glyph-name="two.tosf" 
d="M348 690l-211 43q17 148 125.5 238t265.5 90q169 0 281.5 -91t112.5 -243q0 -181 -215 -356q-106 -83 -269 -183h574v-188h-852v209q19 13 93.5 64t98.5 67.5t74.5 52.5t81.5 60.5t59 48.5q133 119 133 223q0 71 -47 109t-127 38q-75 0 -124.5 -48.5t-53.5 -133.5z" />
    <glyph glyph-name="three.tosf" 
d="M346 268v207q120 3 186 19q78 22 125.5 73.5t47.5 120.5q0 78 -59.5 130t-153.5 52q-74 0 -131 -37.5t-78 -105.5l-185 76q41 118 148.5 188t249.5 70q188 0 309 -100t121 -265q0 -90 -46.5 -168t-123.5 -120q105 -37 170 -128.5t65 -207.5q0 -192 -133 -306t-330 -114
q-139 0 -260 62.5t-180 179.5l174 92q39 -71 106.5 -107.5t149.5 -36.5q106 0 180 56.5t74 160.5q0 99 -80 161.5t-200 62.5q-75 0 -146 -15z" />
    <glyph glyph-name="four.tosf" 
d="M1092 0h-187v-324h-213v324h-661v217q360 434 663 819h211v-848h187v-188zM262 188h430v539q-206 -276 -430 -539z" />
    <glyph glyph-name="five.tosf" 
d="M936 1036v-188h-506q-14 -264 -24 -359q81 37 190 37q171 0 291.5 -120.5t120.5 -294.5q0 -197 -131 -328t-330 -131q-135 0 -258 64.5t-180 172.5l174 95q37 -70 102 -106t141 -36q119 0 189.5 74t70.5 184q0 105 -71.5 171.5t-184.5 66.5q-122 0 -200 -84l-152 88
q23 232 47 694h711z" />
    <glyph glyph-name="six.tosf" 
d="M770 1440l84 -187q-202 -90 -332 -208t-182 -293q114 114 289 114q178 0 292.5 -126.5t114.5 -309.5q0 -194 -125 -324.5t-317 -130.5q-115 0 -212 45t-160.5 121t-98.5 174.5t-35 206.5q0 159 53.5 305t148 261.5t216.5 204.5t264 147zM307 520q0 -71 15 -133t46 -113
t85 -80.5t125 -29.5q108 0 173.5 76t65.5 188q0 111 -65 180.5t-170 69.5q-86 0 -161 -42.5t-114 -115.5z" />
    <glyph glyph-name="seven.tosf" 
d="M989 1036v-149q-125 -260 -288.5 -626t-274.5 -634l-199 88q81 193 178 402.5t214 453t131 273.5h-639v192h878z" />
    <glyph glyph-name="eight.tosf" 
d="M821 717q209 -117 209 -340q0 -170 -130.5 -286t-336.5 -116q-204 0 -334.5 116t-130.5 286q0 223 207 340q-166 101 -166 295q0 158 118.5 265t305.5 107q189 0 307.5 -107t118.5 -265q0 -193 -168 -295zM563 612q-103 0 -174.5 -65.5t-71.5 -159.5q0 -96 71 -159.5
t175 -63.5t176 63.5t72 159.5q0 94 -72.5 159.5t-175.5 65.5zM563 1196q-89 0 -150 -55.5t-61 -141.5q0 -83 61.5 -140.5t149.5 -57.5q89 0 150 57.5t61 140.5q0 87 -60.5 142t-150.5 55z" />
    <glyph glyph-name="nine.tosf" 
d="M356 -401l-84 184q96 42 173 89t146 108t118.5 138t76.5 167q-116 -113 -288 -113q-179 0 -293.5 126t-114.5 310q0 192 125 322.5t317 130.5q116 0 212.5 -45t160 -120.5t98.5 -174t35 -207.5q0 -159 -53.5 -304.5t-148 -260.5t-216 -203.5t-264.5 -146.5zM819 518
q0 56 -9 106.5t-29.5 96.5t-51 79t-77 52.5t-103.5 19.5q-108 0 -174 -75t-66 -187q0 -113 65 -182.5t171 -69.5q85 0 160 43t114 117z" />
    <glyph glyph-name="dollar.tosf" 
d="M51 186l146 138q164 -164 344 -164q118 0 199 56t81 167q0 26 -5.5 48.5t-19.5 42t-26.5 34.5t-38 30.5t-42 25.5t-50.5 23.5t-52 20.5t-57.5 21t-56.5 20q-58 21 -100 40.5t-89 51t-76.5 68.5t-49 91t-19.5 120q0 153 103.5 250.5t267.5 111.5v195h141v-199
q172 -20 340 -137l-129 -154q-126 113 -295 113q-54 0 -102.5 -17.5t-83.5 -59.5t-35 -101q0 -24 8.5 -45t20.5 -37t35.5 -32.5t42.5 -27t53.5 -25t56.5 -22.5t64 -22.5t63 -22.5q61 -23 104 -43.5t92.5 -54t80 -71.5t51 -94.5t20.5 -123.5q0 -175 -112.5 -283.5
t-286.5 -133.5v-201h-139v194q-239 8 -449 209z" />
    <glyph glyph-name="Euro.tosf" 
d="M39 760v162h162q42 221 160 341.5t305 120.5q144 0 250.5 -75t160.5 -213l-188 -68q-34 80 -91 122t-130 42q-192 0 -248 -270h344v-162h-363q-2 -27 -2 -80q0 -55 2 -78h363v-162h-346q56 -272 250 -272q86 0 148 58t93 167l195 -57q-55 -175 -165.5 -268t-272.5 -93
q-186 0 -305.5 121.5t-161.5 343.5h-160v162h141q-2 25 -2 78t2 80h-141z" />
    <glyph glyph-name="cent.tosf" 
d="M899 362l107 -157q-114 -90 -273 -105v-180h-141v182q-197 28 -322 174t-125 365q0 202 126 352.5t321 182.5v184h141v-180q142 -12 262 -95l-102 -165q-92 73 -209 73q-135 0 -228.5 -102.5t-93.5 -249.5q0 -154 94.5 -253t227.5 -99q55 0 114 20t101 53z" />
    <glyph glyph-name="sterling.tosf" 
d="M1006 0h-846v193h114v446h-114v188h114v101q0 198 119 327t303 129q181 0 314 -79l-88 -177q-77 68 -211 68q-116 0 -171 -85.5t-55 -231.5v-52h273v-188h-273v-446h521v-193z" />
    <glyph glyph-name="yen.tosf" 
d="M106 524v162h293l-376 674h245l299 -547h4l287 547h244l-383 -674h291v-162h-344v-127h344v-159h-346v-238h-211v238h-347v159h345v127h-345z" />
    <glyph glyph-name="florin.tosf" 
d="M821 827v-188h-266l-82 -725q-18 -165 -101.5 -253.5t-211.5 -88.5q-74 0 -172 25l45 180q53 -17 102 -17q68 0 93.5 45.5t37.5 149.5l78 684h-162v188h183l24 215q19 163 109 252.5t233 89.5q138 0 275 -67l-80 -172q-76 51 -172 51q-82 0 -114 -46t-44 -146l-21 -177
h246z" />
    <glyph glyph-name="afii61352.tosf" horiz-adv-x="2318" 
d="M1358 0h-197l-755 1028v-1028h-220v1434h193l758 -1028v1028h221v-1434zM1898 1466q156 0 259.5 -104.5t103.5 -259.5t-103.5 -260t-259.5 -105q-157 0 -259.5 105t-102.5 260t102.5 259.5t259.5 104.5zM2093 1102q0 95 -55 159t-140 64t-139.5 -64t-54.5 -159t54.5 -159
t139.5 -64t140 64t55 159z" />
    <glyph glyph-name="percent.tosf" horiz-adv-x="1742" 
d="M449 1446q140 0 237.5 -96.5t97.5 -235.5t-97.5 -235.5t-237.5 -96.5t-238 96.5t-98 235.5t98 235.5t238 96.5zM449 1286q-71 0 -117.5 -48.5t-46.5 -123.5t46.5 -123.5t117.5 -48.5t117 48.5t46 123.5t-46 123.5t-117 48.5zM1325 1460l119 -88l-1018 -1399l-121 88z
M1294 651q140 0 238 -96.5t98 -235.5t-98 -235t-238 -96t-238 96t-98 235t98 235.5t238 96.5zM1294 492q-71 0 -117.5 -49t-46.5 -124t46.5 -123.5t117.5 -48.5t117.5 48.5t46.5 123.5t-46.5 124t-117.5 49z" />
    <glyph glyph-name="perthousand.tosf" horiz-adv-x="2537" 
d="M449 1446q140 0 237.5 -96.5t97.5 -235.5t-97.5 -235.5t-237.5 -96.5t-238 96.5t-98 235.5t98 235.5t238 96.5zM449 1286q-71 0 -117.5 -48.5t-46.5 -123.5t46.5 -123.5t117.5 -48.5t117 48.5t46 123.5t-46 123.5t-117 48.5zM1325 1460l119 -88l-1018 -1399l-121 88z
M1294 651q140 0 238 -96.5t98 -235.5t-98 -235t-238 -96t-238 96t-98 235t98 235.5t238 96.5zM1294 492q-71 0 -117.5 -49t-46.5 -124t46.5 -123.5t117.5 -48.5t117.5 48.5t46.5 123.5t-46.5 124t-117.5 49zM2089 651q140 0 238 -96.5t98 -235.5t-98 -235t-238 -96t-238 96
t-98 235t98 235.5t238 96.5zM2089 492q-71 0 -117.5 -49t-46.5 -124t46.5 -123.5t117.5 -48.5t117.5 48.5t46.5 123.5t-46.5 124t-117.5 49z" />
    <glyph glyph-name="germandbls.cap" horiz-adv-x="2494" 
d="M2189 1147q-56 50 -137 83.5t-162 33.5q-107 0 -173 -49t-66 -136q0 -89 107 -146q45 -25 173 -69q41 -14 69 -24.5t68.5 -27t68 -31.5t62 -37.5t58 -45t47.5 -52.5t38 -63t23 -74t9 -87q0 -92 -32 -168.5t-83.5 -127t-119 -85.5t-137.5 -50.5t-140 -15.5
q-159 0 -285 53.5t-242 168.5l154 145q96 -96 180.5 -134t194.5 -38q115 0 195.5 58t80.5 173q0 31 -9.5 58.5t-23 48t-39.5 40.5t-47.5 33t-59 29t-62 25t-68.5 24q-68 24 -117.5 46t-106 57.5t-92 75t-59.5 97.5t-24 126q0 98 35.5 175.5t96.5 125t139 72t167 24.5
q252 0 452 -153zM942 1147q-56 50 -137 83.5t-162 33.5q-107 0 -173.5 -49t-66.5 -136q0 -34 15.5 -62.5t37 -48t61 -39t71.5 -31.5t84 -30q8 -3 12 -4q54 -19 89 -32t86.5 -37t84.5 -46.5t71 -56.5t60 -72t36.5 -89t14.5 -109q0 -92 -32 -168.5t-83.5 -127t-119 -85.5
t-137.5 -50.5t-140 -15.5q-158 0 -284 53.5t-242 168.5l154 145q96 -96 180 -134t194 -38q115 0 196 58t81 173q0 31 -9.5 58.5t-23 48t-39.5 40.5t-47.5 33t-59 29t-62 25t-68.5 24q-68 24 -117.5 46t-106.5 57.5t-92.5 75t-59.5 97.5t-24 126q0 98 35.5 175.5t97 125
t139.5 72t167 24.5q252 0 452 -153z" />
    <glyph glyph-name="idotaccent" horiz-adv-x="538" 
d="M375 0h-211v1036h211v-1036zM375 1225h-211v219h211v-219z" />
    <glyph glyph-name="s_t" horiz-adv-x="1662" 
d="M807 942l-123 -133q-37 34 -94 57t-111 23q-63 0 -102 -34t-39 -89q0 -18 6.5 -34.5t22.5 -30.5t29 -24t41 -23.5t42.5 -19.5t48.5 -20q51 -20 84.5 -35.5t79 -44t73 -58.5t47 -75t19.5 -98q0 -84 -31.5 -148.5t-85 -102.5t-120.5 -57.5t-143 -19.5q-112 0 -209 42.5
t-164 123.5l139 121q109 -112 232 -112q73 0 122.5 36.5t49.5 104.5q0 23 -12 43.5t-26.5 34t-46.5 30.5t-51 25t-61 25q-40 16 -59.5 24.5t-56 26.5t-56 32.5t-45.5 38.5t-39 48.5t-23 58.5t-10 72q0 76 28.5 137t77 98t109.5 56.5t129 19.5q197 0 328 -119zM1610 854h-285
v-451q0 -50 2 -81q5 -78 35 -117t96 -39q57 0 117 29l61 -166q-87 -49 -206 -49q-109 0 -181 47t-104 129q-31 77 -31 204v494h-135v182h135l10 244h201v-244h285v-182z" />
    <glyph glyph-name="s_p" horiz-adv-x="2228" 
d="M807 942l-123 -133q-37 34 -94 57t-111 23q-63 0 -102 -34t-39 -89q0 -18 6.5 -34.5t22.5 -30.5t29 -24t41 -23.5t42.5 -19.5t48.5 -20q51 -20 84.5 -35.5t79 -44t73 -58.5t47 -75t19.5 -98q0 -84 -31.5 -148.5t-85 -102.5t-120.5 -57.5t-143 -19.5q-112 0 -209 42.5
t-164 123.5l139 121q109 -112 232 -112q73 0 122.5 36.5t49.5 104.5q0 23 -12 43.5t-26.5 34t-46.5 30.5t-51 25t-61 25q-40 16 -59.5 24.5t-56 26.5t-56 32.5t-45.5 38.5t-39 48.5t-23 58.5t-10 72q0 76 28.5 137t77 98t109.5 56.5t129 19.5q197 0 328 -119zM1102 1036h201
l6 -137q53 78 143 120t186 42q144 0 260.5 -73t182 -197.5t65.5 -274.5q0 -140 -63 -263t-182 -200.5t-267 -77.5q-88 0 -174 36t-147 100v-623h-211v1548zM1313 686v-371q51 -71 129 -110t157 -39q81 0 146 31t104.5 82.5t60.5 113t21 127.5q0 144 -90 247t-237 103
q-86 0 -169.5 -48.5t-121.5 -135.5z" />
    <glyph glyph-name="c_t" horiz-adv-x="1746" 
d="M836 240l106 -156q-128 -109 -330 -109q-111 0 -208.5 39.5t-168.5 109.5t-112 172t-41 222q0 149 70.5 274t194.5 197t274 72q174 0 311 -98l-103 -166q-96 73 -208 73q-135 0 -229.5 -103t-94.5 -249q0 -154 95.5 -253t228.5 -99q53 0 113 20.5t102 53.5zM1694 854
h-285v-451q0 -50 2 -81q5 -78 35 -117t96 -39q57 0 117 29l61 -166q-87 -49 -207 -49q-109 0 -180.5 46.5t-103.5 129.5q-31 77 -31 204v494h-135v182h135l10 244h201v-244h285v-182z" />
    <glyph glyph-name="c_h" horiz-adv-x="2238" 
d="M836 240l106 -156q-128 -109 -330 -109q-111 0 -208.5 39.5t-168.5 109.5t-112 172t-41 222q0 149 70.5 274t194.5 197t274 72q174 0 311 -98l-103 -166q-96 73 -208 73q-135 0 -229.5 -103t-94.5 -249q0 -154 95.5 -253t228.5 -99q53 0 113 20.5t102 53.5zM1366 1536
v-659q58 87 145.5 135.5t186.5 48.5q198 0 295 -131q92 -125 92 -391v-539h-211v520q0 193 -49 271q-50 79 -170 79q-82 0 -159.5 -50.5t-129.5 -133.5v-686h-211v1536h211z" />
    <glyph glyph-name="c_k" horiz-adv-x="2064" 
d="M836 240l106 -156q-128 -109 -330 -109q-111 0 -208.5 39.5t-168.5 109.5t-112 172t-41 222q0 149 70.5 274t194.5 197t274 72q174 0 311 -98l-103 -166q-96 73 -208 73q-135 0 -229.5 -103t-94.5 -249q0 -154 95.5 -253t228.5 -99q53 0 113 20.5t102 53.5zM1366 1536
v-995l4 -2l399 497h254l-366 -426l397 -610h-254l-282 446l-152 -176v-270h-211v1536h211z" />
    <glyph glyph-name="T_h" horiz-adv-x="2166" 
d="M967 1241h-357v-1241h-219v1241h-356v193h932v-193zM1294 1536v-659q58 87 145.5 135.5t186.5 48.5q198 0 295 -131q92 -125 92 -391v-539h-211v520q0 193 -49 271q-50 79 -170 79q-82 0 -159.5 -50.5t-129.5 -133.5v-686h-211v1536h211z" />
    <glyph glyph-name="zerosuperior" horiz-adv-x="700" 
d="M350 877q137 0 137 286q0 287 -137 287t-137 -287q0 -286 137 -286zM350 1587q145 0 225 -112.5t80 -311.5q0 -198 -80 -311t-225 -113t-225 113t-80 311q0 199 80 311.5t225 112.5z" />
    <glyph glyph-name="foursuperior" horiz-adv-x="692" 
d="M39 1104q38 47 87.5 112.5t84.5 113t94.5 130t83.5 115.5h166v-483h117v-131h-117v-209h-160v209h-356v143zM395 1092v272q-134 -205 -188 -272h188z" />
    <glyph glyph-name="fivesuperior" horiz-adv-x="653" 
d="M561 1442h-297q-3 -106 -12 -187q50 21 106 21q103 0 173.5 -73.5t70.5 -176.5q0 -123 -82 -203t-205 -80q-88 0 -163.5 41.5t-112.5 114.5l131 68q39 -88 133 -88q59 0 95 39.5t36 95.5t-36 91.5t-93 35.5q-70 0 -110 -51l-109 71q19 186 27 414h448v-133z" />
    <glyph glyph-name="sixsuperior" horiz-adv-x="688" 
d="M473 1624l55 -131q-113 -46 -186.5 -108.5t-105.5 -155.5q66 53 151 53q111 0 183.5 -76t72.5 -188q0 -119 -80 -199t-201 -80q-144 0 -230.5 97t-86.5 239q0 193 119.5 335t308.5 214zM352 1149q-43 0 -81 -21.5t-60 -56.5q0 -85 34 -141t107 -56q58 0 91.5 40t33.5 98
q0 61 -34.5 99t-90.5 38z" />
    <glyph glyph-name="sevensuperior" horiz-adv-x="581" 
d="M561 1575v-100q-191 -403 -336 -754l-147 67q105 244 299 652h-365v135h549z" />
    <glyph glyph-name="eightsuperior" horiz-adv-x="712" 
d="M621 1360q0 -112 -99 -176q61 -35 92 -82.5t31 -118.5q0 -104 -82 -174t-207 -70t-206.5 70t-81.5 174q0 71 29.5 118.5t90.5 82.5q-98 66 -98 176q0 96 75 161.5t191 65.5q117 0 191 -65t74 -162zM356 1112q-52 0 -88.5 -34.5t-36.5 -84.5q0 -52 36.5 -86.5t88.5 -34.5
q53 0 88 34.5t35 86.5q0 51 -35 85t-88 34zM356 1452q-43 0 -73.5 -29t-30.5 -71q0 -44 30.5 -75.5t73.5 -31.5q44 0 74.5 31.5t30.5 75.5q0 43 -30.5 71.5t-74.5 28.5z" />
    <glyph glyph-name="ninesuperior" horiz-adv-x="688" 
d="M215 702l-55 134q235 93 291 264q-59 -53 -152 -53q-109 0 -181.5 75.5t-72.5 186.5q0 119 79 198.5t200 79.5q145 0 232 -96.5t87 -237.5q0 -193 -119.5 -336t-308.5 -215zM336 1180q42 0 80 20.5t61 56.5q0 83 -35 140t-106 57q-58 0 -91.5 -40t-33.5 -99
q0 -60 34.5 -97.5t90.5 -37.5z" />
    <glyph glyph-name="parenleftsuperior" horiz-adv-x="452" 
d="M459 645l-58 -108q-348 209 -348 591q0 376 348 590l60 -108q-250 -162 -250 -482q0 -325 248 -483z" />
    <glyph glyph-name="parenrightsuperior" horiz-adv-x="452" 
d="M49 537l-57 108q250 159 250 483q0 171 -69.5 290t-180.5 192l59 108q346 -215 346 -590q0 -382 -348 -591z" />
    <glyph glyph-name="minussuperior" horiz-adv-x="698" 
d="M59 1202h580v-133h-580v133z" />
    <glyph glyph-name="plussuperior" horiz-adv-x="688" 
d="M276 827v242h-239v133h239v242h134v-242h241v-133h-241v-242h-134z" />
    <glyph glyph-name="equalsuperior" horiz-adv-x="698" 
d="M59 1315h580v-129h-580v129zM59 1087h580v-133h-580v133z" />
    <glyph glyph-name="a.sup" horiz-adv-x="700" 
d="M614 752h-139l-10 57q-61 -72 -176 -72q-95 0 -161.5 52t-66.5 145q0 57 24 98.5t65.5 64.5t88.5 33.5t101 10.5q59 0 115 -13v15q0 131 -131 131q-93 0 -193 -57l-43 116q129 66 266 66q129 0 194.5 -69t65.5 -197v-381zM455 1030q-44 10 -88 10q-61 0 -104.5 -23
t-43.5 -75q0 -44 30 -67t73 -23q66 0 133 57v121z" />
    <glyph glyph-name="b.sup" horiz-adv-x="790" 
d="M440 737q-55 0 -108 22t-88 64l-6 -71h-144v921h160v-362q34 44 85 66t105 22q130 0 214.5 -96t84.5 -234q0 -135 -85 -233.5t-218 -98.5zM408 1262q-44 0 -87.5 -24t-66.5 -69v-221q57 -74 152 -74q82 0 128 59t46 136q0 79 -47 136t-125 57z" />
    <glyph glyph-name="c.sup" horiz-adv-x="610" 
d="M506 922l84 -109q-85 -76 -217 -76q-140 0 -233 91.5t-93 238.5q0 140 95 236t235 96q117 0 211 -72l-84 -115q-53 50 -121 50q-74 0 -123 -57t-49 -138q0 -84 48.5 -138.5t121.5 -54.5q68 0 125 48z" />
    <glyph glyph-name="d.sup" horiz-adv-x="790" 
d="M551 752l-8 79q-30 -48 -83.5 -71t-111.5 -23q-130 0 -215.5 96.5t-85.5 235.5q0 133 85.5 231.5t215.5 98.5q52 0 103 -20t86 -58v352h159v-921h-145zM381 874q45 0 88 23.5t68 69.5v221q-59 74 -154 74q-81 0 -126.5 -58.5t-45.5 -138.5q0 -78 47.5 -134.5t122.5 -56.5
z" />
    <glyph glyph-name="e.sup" horiz-adv-x="716" 
d="M547 958l106 -69q-54 -78 -121 -115t-165 -37q-143 0 -231.5 91.5t-88.5 234.5q0 142 92.5 239t229.5 97q128 0 214.5 -83.5t86.5 -209.5q0 -28 -8 -78h-453q8 -71 53 -116.5t115 -45.5q111 0 170 92zM371 1274q-61 0 -100.5 -37t-53.5 -98h289q-5 59 -42.5 97t-92.5 38z
" />
    <glyph glyph-name="f.sup" horiz-adv-x="452" 
d="M489 1655l-45 -123q-39 20 -84 20q-50 0 -64.5 -25.5t-14.5 -82.5v-62h159v-129h-159v-501h-160v501h-70v129h70v72q0 115 51 174.5t168 59.5q75 0 149 -33z" />
    <glyph glyph-name="g.sup" horiz-adv-x="782" 
d="M696 1382v-602q0 -81 -26 -142t-71 -96.5t-101 -53t-121 -17.5q-163 0 -293 86l59 131q109 -82 228 -82q75 0 120.5 40t45.5 120v70q-33 -42 -84.5 -63t-104.5 -21q-130 0 -215.5 94t-85.5 229q0 131 85.5 227.5t215.5 96.5q54 0 106.5 -22.5t88.5 -63.5l8 69h145z
M537 981v207q-59 74 -154 74q-82 0 -127 -55.5t-45 -133.5q0 -77 46.5 -130.5t121.5 -53.5q46 0 89.5 23t68.5 69z" />
    <glyph glyph-name="h.sup" horiz-adv-x="763" 
d="M254 752h-160v921h160v-373q74 99 182 99q130 0 185 -80.5t55 -231.5v-335h-160v327q0 34 -1 54.5t-7 48t-17.5 43t-32.5 26.5t-52 11q-41 0 -82.5 -25t-69.5 -68v-417z" />
    <glyph glyph-name="i.sup" horiz-adv-x="348" 
d="M254 752h-160v630h160v-630zM254 1485h-160v141h160v-141z" />
    <glyph glyph-name="j.sup" horiz-adv-x="376" 
d="M-63 500l45 125q34 -17 61 -17q80 0 80 107v667h160v-682q0 -112 -48.5 -169.5t-162.5 -57.5q-62 0 -135 27zM283 1485h-160v141h160v-141z" />
    <glyph glyph-name="k.sup" horiz-adv-x="675" 
d="M254 1673v-557h2l213 266h186l-225 -260l242 -370h-195l-155 245l-68 -82v-163h-160v921h160z" />
    <glyph glyph-name="l.sup" horiz-adv-x="348" 
d="M254 1673v-921h-160v921h160z" />
    <glyph glyph-name="m.sup" horiz-adv-x="1142" 
d="M254 752h-160v630h144l8 -82q37 48 86 73.5t100 25.5q126 0 184 -107q82 107 213 107q64 0 109.5 -25t70.5 -70t36.5 -98.5t11.5 -120.5v-333h-160v321q0 33 -1.5 55t-7.5 50t-17 44.5t-32.5 28t-52.5 11.5q-35 0 -72 -21t-65 -57q6 -44 6 -99v-333h-159v321
q0 33 -1 53.5t-7 49.5t-16.5 45.5t-31.5 28.5t-51 12q-34 0 -70.5 -22t-64.5 -56v-432z" />
    <glyph glyph-name="n.sup" horiz-adv-x="763" 
d="M254 752h-160v630h144l8 -92q78 109 190 109q130 0 185 -80.5t55 -231.5v-335h-160v327q0 34 -1 54.5t-7 48t-17.5 43t-32.5 26.5t-52 11q-41 0 -82.5 -25t-69.5 -68v-417z" />
    <glyph glyph-name="o.sup" horiz-adv-x="753" 
d="M377 1399q143 0 236.5 -95.5t93.5 -236.5q0 -140 -93.5 -235t-236.5 -95t-236.5 95t-93.5 235q0 141 93.5 236.5t236.5 95.5zM543 1067q0 82 -46.5 138.5t-119.5 56.5t-119.5 -56.5t-46.5 -138.5q0 -80 46.5 -136.5t119.5 -56.5t119.5 56.5t46.5 136.5z" />
    <glyph glyph-name="p.sup" horiz-adv-x="790" 
d="M238 1382l10 -77q31 47 83.5 70.5t110.5 23.5q129 0 215 -97t86 -235q0 -133 -85.5 -231.5t-215.5 -98.5q-115 0 -188 76v-364h-160v933h144zM410 1262q-45 0 -88 -24t-68 -69v-221q57 -74 152 -74q82 0 128 58t46 137t-47 136t-123 57z" />
    <glyph glyph-name="q.sup" horiz-adv-x="790" 
d="M350 1399q54 0 106 -21.5t87 -62.5l8 67h145v-933h-159v374q-69 -86 -193 -86q-129 0 -213 96.5t-84 235.5q0 133 85.5 231.5t217.5 98.5zM381 874q46 0 88.5 23t67.5 70v221q-59 74 -154 74q-82 0 -127 -59.5t-45 -137.5t46 -134.5t124 -56.5z" />
    <glyph glyph-name="r.sup" horiz-adv-x="471" 
d="M254 752h-160v630h144l8 -86q60 103 151 103q31 0 82 -15l-37 -143q-24 16 -61 16q-80 0 -127 -83v-422z" />
    <glyph glyph-name="s.sup" horiz-adv-x="591" 
d="M522 1319l-86 -96q-55 51 -125 51q-31 0 -50 -15.5t-19 -41.5q0 -28 27.5 -46.5t82.5 -40.5q38 -16 63 -29t55 -36t45 -54.5t15 -70.5q0 -68 -35.5 -115.5t-87.5 -67.5t-116 -20q-148 0 -246 107l94 92q74 -74 148 -74q37 0 61.5 18t24.5 50q0 15 -8 27t-27.5 23.5
t-34.5 18.5t-45 19q-37 15 -60 27t-52 34.5t-43.5 54t-14.5 72.5q0 91 64.5 142t156.5 51q127 0 213 -80z" />
    <glyph glyph-name="t.sup" horiz-adv-x="475" 
d="M408 891l47 -117q-61 -37 -142 -37q-103 0 -151.5 63t-48.5 173v280h-78v129h80l18 146h139v-146h164v-129h-164v-256q0 -29 1.5 -45.5t7 -38t19.5 -31.5t36 -10q28 0 72 19z" />
    <glyph glyph-name="u.sup" horiz-adv-x="763" 
d="M508 1382h160v-630h-144l-8 92q-78 -109 -190 -109q-130 0 -185 80.5t-55 231.5v335h160v-327q0 -34 1 -54.5t7 -48t17.5 -43t32.5 -26.5t52 -11q41 0 82.5 25t69.5 68v417z" />
    <glyph glyph-name="v.sup" horiz-adv-x="641" 
d="M319 969h3l137 413h176l-254 -630h-135l-238 630h176z" />
    <glyph glyph-name="w.sup" horiz-adv-x="931" 
d="M467 1145h-2l-111 -393h-174l-172 630h172l99 -411h2l112 411h150l106 -411h4l105 411h166l-183 -630h-168z" />
    <glyph glyph-name="x.sup" horiz-adv-x="694" 
d="M27 1382h200l131 -190l131 190h197l-237 -311l233 -319h-201l-137 200l-137 -200h-199l246 319z" />
    <glyph glyph-name="y.sup" horiz-adv-x="636" 
d="M315 983h4l136 399h174l-353 -911l-143 53l98 262l-223 596h174z" />
    <glyph glyph-name="z.sup" horiz-adv-x="587" 
d="M66 823l251 430h-264v129h473v-67l-254 -434h275v-129h-481v71z" />
    <glyph glyph-name="zeroinferior" horiz-adv-x="700" 
d="M350 -238q137 0 137 287t-137 287t-137 -287t137 -287zM350 473q145 0 225 -112.5t80 -311.5q0 -198 -80 -311t-225 -113t-225 113t-80 311q0 199 80 311.5t225 112.5z" />
    <glyph glyph-name="oneinferior" horiz-adv-x="448" 
d="M342 -365h-162v639q-112 -49 -119 -51v146q61 30 175 90h106v-824z" />
    <glyph glyph-name="twoinferior" horiz-adv-x="659" 
d="M72 -238q156 156 282 324q66 90 66 158q0 42 -29 67t-72 25q-46 0 -74 -32.5t-28 -84.5l-162 25q6 101 84 164t180 63q108 0 187.5 -61.5t79.5 -161.5q0 -114 -82 -228q-80 -112 -221 -249h338v-136h-549v127z" />
    <glyph glyph-name="threeinferior" horiz-adv-x="667" 
d="M209 -12v135q57 0 102 10q42 11 67 39t25 64q0 43 -31 71.5t-81 28.5q-40 0 -71.5 -22t-41.5 -62l-133 57q26 76 92.5 119t155.5 43q116 0 195 -60t79 -159q0 -53 -27.5 -101t-76.5 -75q66 -21 104.5 -77t38.5 -124q0 -115 -84.5 -183.5t-208.5 -68.5q-90 0 -167 42.5
t-113 119.5l131 63q46 -88 145 -88q54 0 91.5 30t37.5 83q0 57 -43.5 90t-111.5 33q-35 0 -74 -8z" />
    <glyph glyph-name="fourinferior" horiz-adv-x="692" 
d="M39 -12q38 47 87.5 112.5t84.5 113t94.5 130t83.5 115.5h166v-484h117v-131h-117v-209h-160v209h-356v144zM395 -25v273q-138 -211 -188 -273h188z" />
    <glyph glyph-name="fiveinferior" horiz-adv-x="653" 
d="M561 326h-297q-3 -106 -12 -187q50 21 106 21q103 0 173.5 -73.5t70.5 -176.5q0 -123 -82 -203t-205 -80q-88 0 -163.5 41.5t-112.5 114.5l131 67q39 -88 133 -88q59 0 95 40t36 96t-36 91.5t-93 35.5q-69 0 -110 -52l-109 72q19 186 27 414h448v-133z" />
    <glyph glyph-name="sixinferior" horiz-adv-x="688" 
d="M473 508l55 -131q-113 -46 -186.5 -108.5t-105.5 -155.5q66 53 151 53q111 0 183.5 -76t72.5 -188q0 -119 -80 -199t-201 -80q-144 0 -230.5 97t-86.5 239q0 193 119.5 335t308.5 214zM352 33q-43 0 -81 -21.5t-60 -56.5q0 -85 34 -141t107 -56q58 0 91.5 40t33.5 98
q0 61 -34.5 99t-90.5 38z" />
    <glyph glyph-name="seveninferior" horiz-adv-x="581" 
d="M561 459v-101q-194 -410 -336 -753l-147 67q105 244 299 652h-365v135h549z" />
    <glyph glyph-name="eightinferior" horiz-adv-x="712" 
d="M621 244q0 -112 -99 -176q61 -35 92 -82.5t31 -118.5q0 -104 -82 -174t-207 -70t-206.5 70t-81.5 174q0 71 29.5 118.5t90.5 82.5q-98 66 -98 176q0 96 75 161.5t191 65.5q117 0 191 -65t74 -162zM356 -4q-52 0 -88.5 -34.5t-36.5 -84.5q0 -52 36.5 -86.5t88.5 -34.5
q53 0 88 34.5t35 86.5q0 51 -35 85t-88 34zM356 336q-43 0 -73.5 -29t-30.5 -71q0 -44 30.5 -75.5t73.5 -31.5q44 0 74.5 31.5t30.5 75.5q0 43 -30.5 71.5t-74.5 28.5z" />
    <glyph glyph-name="nineinferior" horiz-adv-x="688" 
d="M215 -414l-55 133q112 44 186 108t105 157q-60 -54 -152 -54q-109 0 -181.5 76t-72.5 187q0 119 79 198.5t200 79.5q145 0 232 -96.5t87 -237.5q0 -193 -119.5 -336t-308.5 -215zM336 63q42 0 79.5 21t61.5 57q0 83 -35 140t-106 57q-58 0 -91.5 -40t-33.5 -99
q0 -60 35 -98t90 -38z" />
    <glyph glyph-name="parenleftinferior" horiz-adv-x="452" 
d="M459 -471l-58 -109q-348 209 -348 592q0 376 348 590l60 -108q-250 -162 -250 -482q0 -325 248 -483z" />
    <glyph glyph-name="parenrightinferior" horiz-adv-x="452" 
d="M49 -580l-57 109q250 159 250 483q0 171 -69.5 290t-180.5 192l59 108q346 -215 346 -590q0 -383 -348 -592z" />
    <glyph glyph-name="minusinferior" horiz-adv-x="698" 
d="M59 86h580v-133h-580v133z" />
    <glyph glyph-name="plusinferior" horiz-adv-x="688" 
d="M276 -289v242h-239v133h239v242h134v-242h241v-133h-241v-242h-134z" />
    <glyph glyph-name="equalinferior" horiz-adv-x="698" 
d="M59 199h580v-129h-580v129zM59 -29h580v-133h-580v133z" />
    <glyph glyph-name="a.sinf" horiz-adv-x="700" 
d="M614 -365h-139l-10 58q-61 -72 -176 -72q-95 0 -161.5 52t-66.5 145q0 57 24 98.5t65.5 64.5t88.5 33.5t101 10.5q59 0 115 -13v15q0 131 -131 131q-91 0 -193 -58l-43 117q129 66 266 66q129 0 194.5 -69.5t65.5 -197.5v-381zM455 -86q-44 10 -88 10q-61 0 -104.5 -23
t-43.5 -75q0 -44 30 -67t73 -23q66 0 133 57v121z" />
    <glyph glyph-name="b.sinf" horiz-adv-x="790" 
d="M440 -379q-55 0 -108 22t-88 64l-6 -72h-144v922h160v-362q34 44 85 66t105 22q130 0 214.5 -96t84.5 -234q0 -135 -85 -233.5t-218 -98.5zM408 145q-45 0 -88 -23.5t-66 -68.5v-221q57 -74 152 -74q82 0 128 59t46 136q0 79 -47 135.5t-125 56.5z" />
    <glyph glyph-name="c.sinf" horiz-adv-x="610" 
d="M506 -195l84 -108q-85 -76 -217 -76q-140 0 -233 91.5t-93 238.5q0 140 95 236t235 96q117 0 211 -72l-84 -115q-52 49 -121 49q-74 0 -123 -56.5t-49 -137.5q0 -84 48.5 -138.5t121.5 -54.5q69 0 125 47z" />
    <glyph glyph-name="d.sinf" horiz-adv-x="790" 
d="M551 -365l-8 80q-30 -48 -83.5 -71t-111.5 -23q-130 0 -215.5 96.5t-85.5 235.5q0 133 85.5 231.5t215.5 98.5q52 0 103 -20t86 -58v352h159v-922h-145zM381 -242q46 0 88.5 23t67.5 69v222q-59 73 -154 73q-81 0 -126.5 -58t-45.5 -138q0 -78 47.5 -134.5t122.5 -56.5z
" />
    <glyph glyph-name="e.sinf" horiz-adv-x="716" 
d="M547 -158l106 -69q-54 -78 -121 -115t-165 -37q-143 0 -231.5 91.5t-88.5 234.5q0 142 92.5 239t229.5 97q128 0 214.5 -83.5t86.5 -209.5q0 -28 -8 -78h-453q8 -71 53 -116.5t115 -45.5q111 0 170 92zM371 158q-61 0 -100.5 -37t-53.5 -98h289q-5 59 -42.5 97t-92.5 38z
" />
    <glyph glyph-name="f.sinf" horiz-adv-x="452" 
d="M489 539l-45 -123q-39 20 -84 20q-50 0 -64.5 -25.5t-14.5 -82.5v-62h159v-129h-159v-502h-160v502h-70v129h70v72q0 115 51 174t168 59q77 0 149 -32z" />
    <glyph glyph-name="g.sinf" horiz-adv-x="782" 
d="M696 266v-602q0 -81 -26 -142t-71 -96.5t-101 -53t-121 -17.5q-163 0 -293 86l59 131q109 -82 228 -82q75 0 120.5 40t45.5 120v69q-33 -42 -84.5 -63t-104.5 -21q-130 0 -215.5 94t-85.5 230q0 131 85.5 227.5t215.5 96.5q54 0 106.5 -22.5t88.5 -63.5l8 69h145z
M537 -135v207q-59 73 -154 73q-82 0 -127 -55t-45 -133q0 -77 46.5 -130.5t121.5 -53.5q46 0 89.5 23t68.5 69z" />
    <glyph glyph-name="h.sinf" horiz-adv-x="763" 
d="M254 -365h-160v922h160v-373q74 99 182 99q130 0 185 -80.5t55 -231.5v-336h-160v328q0 34 -1 54.5t-7 47.5t-17.5 42.5t-32.5 26.5t-52 11q-42 0 -83.5 -25t-68.5 -67v-418z" />
    <glyph glyph-name="i.sinf" horiz-adv-x="348" 
d="M254 -365h-160v631h160v-631zM254 369h-160v141h160v-141z" />
    <glyph glyph-name="j.sinf" horiz-adv-x="376" 
d="M-63 -616l45 124q32 -16 61 -16q80 0 80 107v667h160v-682q0 -112 -48.5 -169.5t-162.5 -57.5q-62 0 -135 27zM283 369h-160v141h160v-141z" />
    <glyph glyph-name="k.sinf" horiz-adv-x="675" 
d="M254 557v-557h2l213 266h186l-225 -260l242 -371h-195l-155 246l-68 -82v-164h-160v922h160z" />
    <glyph glyph-name="l.sinf" horiz-adv-x="348" 
d="M254 557v-922h-160v922h160z" />
    <glyph glyph-name="m.sinf" horiz-adv-x="1142" 
d="M254 -365h-160v631h144l8 -82q37 48 86 73.5t100 25.5q126 0 184 -107q82 107 213 107q64 0 109.5 -25t70.5 -70t36.5 -98.5t11.5 -120.5v-334h-160v322q0 33 -1.5 54.5t-7.5 49.5t-17 44.5t-32.5 28t-52.5 11.5q-35 0 -72 -21t-65 -56q6 -44 6 -99v-334h-159v322
q0 33 -1 53.5t-7 49t-16.5 45t-31.5 28.5t-51 12q-34 0 -71 -21.5t-64 -55.5v-433z" />
    <glyph glyph-name="n.sinf" horiz-adv-x="763" 
d="M254 -365h-160v631h144l8 -92q78 109 190 109q130 0 185 -80.5t55 -231.5v-336h-160v328q0 34 -1 54.5t-7 47.5t-17.5 42.5t-32.5 26.5t-52 11q-42 0 -83.5 -25t-68.5 -67v-418z" />
    <glyph glyph-name="o.sinf" horiz-adv-x="753" 
d="M377 283q143 0 236.5 -95.5t93.5 -236.5q0 -140 -93.5 -235t-236.5 -95t-236.5 95t-93.5 235q0 141 93.5 236.5t236.5 95.5zM543 -49q0 81 -46.5 137.5t-119.5 56.5t-119.5 -56.5t-46.5 -137.5q0 -80 46.5 -136.5t119.5 -56.5t119.5 56.5t46.5 136.5z" />
    <glyph glyph-name="p.sinf" horiz-adv-x="790" 
d="M238 266l10 -78q31 47 83.5 71t110.5 24q129 0 215 -97t86 -235q0 -133 -85.5 -231.5t-215.5 -98.5q-115 0 -188 76v-365h-160v934h144zM410 145q-46 0 -88.5 -23.5t-67.5 -68.5v-221q57 -74 152 -74q82 0 128 58t46 137t-47 135.5t-123 56.5z" />
    <glyph glyph-name="q.sinf" horiz-adv-x="790" 
d="M350 283q54 0 106 -21.5t87 -62.5l8 67h145v-934h-159v375q-69 -86 -193 -86q-129 0 -213 96.5t-84 235.5q0 133 85.5 231.5t217.5 98.5zM381 -242q47 0 89 22.5t67 69.5v222q-59 73 -154 73q-82 0 -127 -59t-45 -137t46 -134.5t124 -56.5z" />
    <glyph glyph-name="r.sinf" horiz-adv-x="471" 
d="M254 -365h-160v631h144l8 -86q60 103 151 103q31 0 82 -15l-37 -143q-24 16 -61 16q-80 0 -127 -84v-422z" />
    <glyph glyph-name="s.sinf" horiz-adv-x="591" 
d="M522 203l-86 -97q-56 52 -125 52q-31 0 -50 -16t-19 -42q0 -19 17.5 -36t36.5 -26t56 -24q38 -16 63 -29t55 -36t45 -54.5t15 -70.5q0 -68 -35.5 -115.5t-87.5 -67.5t-116 -20q-148 0 -246 107l94 92q74 -74 148 -74q37 0 61.5 18t24.5 50q0 15 -8 27t-27.5 23.5
t-34.5 18.5t-45 19q-37 15 -60 27t-52 34.5t-43.5 54t-14.5 72.5q0 91 64.5 142t156.5 51q127 0 213 -80z" />
    <glyph glyph-name="t.sinf" horiz-adv-x="475" 
d="M408 -225l47 -117q-61 -37 -142 -37q-103 0 -151.5 63t-48.5 173v280h-78v129h80l18 146h139v-146h164v-129h-164v-256q0 -29 1.5 -45.5t7 -38t19.5 -31.5t36 -10q28 0 72 19z" />
    <glyph glyph-name="u.sinf" horiz-adv-x="763" 
d="M508 266h160v-631h-144l-8 93q-78 -109 -190 -109q-130 0 -185 80t-55 231v336h160v-327q0 -34 1 -54.5t7 -48t17.5 -43t32.5 -26.5t52 -11q42 0 83.5 25t68.5 67v418z" />
    <glyph glyph-name="v.sinf" horiz-adv-x="641" 
d="M319 -147h3l137 413h176l-254 -631h-135l-238 631h176z" />
    <glyph glyph-name="w.sinf" horiz-adv-x="931" 
d="M467 29h-2l-111 -394h-174l-172 631h172l99 -411h2l112 411h150l106 -411h4l105 411h166l-183 -631h-168z" />
    <glyph glyph-name="x.sinf" horiz-adv-x="694" 
d="M27 266h200l131 -190l131 190h197l-237 -311l233 -320h-201l-137 201l-137 -201h-199l246 320z" />
    <glyph glyph-name="y.sinf" horiz-adv-x="636" 
d="M315 -133h4l136 399h174l-353 -911l-143 53l98 262l-223 596h174z" />
    <glyph glyph-name="z.sinf" horiz-adv-x="587" 
d="M66 -293l251 430h-264v129h473v-67l-254 -435h275v-129h-481v72z" />
    <glyph glyph-name="zero.num" horiz-adv-x="655" 
d="M330 1315q-121 0 -121 -248q0 -250 121 -250q57 0 88 62.5t31 187.5q0 123 -31 185.5t-88 62.5zM606 1067q0 -180 -72.5 -281.5t-203.5 -101.5q-134 0 -207.5 101.5t-73.5 281.5q0 178 73.5 279.5t207.5 101.5q131 0 203.5 -101.5t72.5 -279.5z" />
    <glyph glyph-name="one.num" horiz-adv-x="473" 
d="M356 692h-155v568q-100 -46 -111 -50v142q17 9 74 37.5t86 44.5h106v-742z" />
    <glyph glyph-name="two.num" horiz-adv-x="622" 
d="M76 813q149 146 258 291q57 77 57 137q0 36 -24.5 57t-63.5 21t-63.5 -27.5t-24.5 -74.5l-154 26q6 92 77.5 148.5t170.5 56.5q98 0 170 -56t72 -149q0 -92 -78 -203q-72 -97 -188 -213h295v-131h-504v117z" />
    <glyph glyph-name="three.num" horiz-adv-x="628" 
d="M201 1008v129q61 0 88 8q80 20 80 90q0 36 -26.5 60t-72.5 24q-75 0 -94 -76l-129 57q24 69 86 108.5t139 39.5q105 0 178.5 -55t73.5 -144q0 -45 -26 -88t-66 -67q57 -22 92 -72t35 -113q0 -103 -77.5 -164t-188.5 -61q-83 0 -152.5 38.5t-105.5 111.5l129 59
q36 -80 127 -80q46 0 78 25t32 73q0 49 -38.5 76t-100.5 27q-38 0 -61 -6z" />
    <glyph glyph-name="four.num" horiz-adv-x="643" 
d="M43 1010q165 216 313 424h160v-433h102v-127h-102v-178h-154v178h-319v136zM362 1001v236q-17 -25 -51 -77.5t-62 -94t-46 -64.5h159z" />
    <glyph glyph-name="five.num" horiz-adv-x="614" 
d="M522 1305h-268q-2 -63 -10 -160q36 20 94 20q93 0 156 -67t63 -160q0 -108 -75.5 -181t-186.5 -73q-82 0 -150 37t-104 106l129 62q35 -76 117 -76q52 0 82 33.5t30 83.5q0 47 -31.5 77.5t-80.5 30.5q-62 0 -97 -45l-102 68q18 185 25 373h409v-129z" />
    <glyph glyph-name="six.num" horiz-adv-x="645" 
d="M440 1481l56 -123q-102 -41 -168 -96t-97 -136q54 45 131 45q103 0 168.5 -67t65.5 -168q0 -108 -71.5 -180t-184.5 -72q-131 0 -211 87t-80 214q0 175 109.5 302.5t281.5 193.5zM207 981q0 -74 29.5 -122t93.5 -48q52 0 81 34.5t29 84.5q0 55 -31 87t-81 32
q-36 0 -69.5 -18t-51.5 -50z" />
    <glyph glyph-name="seven.num" horiz-adv-x="542" 
d="M518 1337q-161 -325 -305 -675l-143 65q34 78 77 170.5t71 150t72 146.5t54 109h-332v131h506v-97z" />
    <glyph glyph-name="eight.num" horiz-adv-x="679" 
d="M606 903q0 -95 -76.5 -158t-189.5 -63q-115 0 -190.5 63t-75.5 158q0 119 110 180q-90 61 -90 158q0 88 69 147.5t177 59.5t177 -59.5t69 -147.5q0 -97 -90 -158q110 -60 110 -180zM246 1233q0 -37 27.5 -63.5t66.5 -26.5q38 0 66 26.5t28 63.5q0 38 -27.5 64t-66.5 26
q-40 0 -67 -26t-27 -64zM231 911q0 -43 31 -72.5t78 -29.5t78 29.5t31 72.5t-31 74t-78 31t-78 -31t-31 -74z" />
    <glyph glyph-name="nine.num" horiz-adv-x="645" 
d="M205 651l-55 123q101 41 167 96t97 136q-54 -45 -131 -45q-103 0 -168.5 67t-65.5 168q0 108 71.5 180t184.5 72q131 0 211 -87t80 -214q0 -175 -109.5 -302.5t-281.5 -193.5zM438 1151q0 74 -29.5 122t-93.5 48q-52 0 -81 -34.5t-29 -84.5q0 -55 31 -87t81 -32
q36 0 69.5 18t51.5 50z" />
    <glyph glyph-name="parenleft.ordn" horiz-adv-x="509" 
d="M508 664l-62 -113q-378 232 -378 655q0 425 376 656l66 -113q-281 -180 -281 -543q0 -194 76.5 -328.5t202.5 -213.5z" />
    <glyph glyph-name="parenright.ordn" horiz-adv-x="509" 
d="M61 551l-59 113q125 80 202 214.5t77 327.5q0 363 -281 543l66 113q376 -233 376 -656t-381 -655z" />
    <glyph glyph-name="hyphen.ordn" horiz-adv-x="630" 
d="M496 1110h-361v137h361v-137z" />
    <glyph glyph-name="comma.ordn" horiz-adv-x="374" 
d="M276 973l-94 -359h-153l71 359h176z" />
    <glyph glyph-name="period.ordn" horiz-adv-x="372" 
d="M276 791h-180v182h180v-182z" />
    <glyph glyph-name="minus.ordn" horiz-adv-x="782" 
d="M74 1286h633v-139h-633v139z" />
    <glyph glyph-name="plus.ordn" horiz-adv-x="759" 
d="M309 874v273h-270v139h270v270h140v-270h272v-139h-272v-273h-140z" />
    <glyph glyph-name="equal.ordn" horiz-adv-x="782" 
d="M74 1405h633v-133h-633v133zM74 1161h633v-137h-633v137z" />
    <glyph glyph-name="a.ordn" horiz-adv-x="784" 
d="M512 1204v17q-3 147 -150 147q-107 0 -212 -59l-46 125q142 69 287 69q143 0 214 -76t71 -219v-417h-146l-8 65q-71 -82 -198 -82q-103 0 -176.5 56.5t-73.5 158.5q0 63 26.5 109t71.5 71.5t98 37.5t113 12q49 0 129 -15zM512 1100q-61 12 -102 12q-31 0 -59.5 -5.5
t-55 -17t-42 -35t-15.5 -55.5q0 -51 33.5 -76.5t86.5 -25.5q72 0 154 68v135z" />
    <glyph glyph-name="b.ordn" horiz-adv-x="886" 
d="M117 791v1024h164v-414q37 50 95 76t120 26q144 0 238.5 -106t94.5 -258q0 -146 -94.5 -255.5t-242.5 -109.5q-61 0 -119.5 24t-98.5 70l-6 -77h-151zM281 1253v-249q71 -89 178 -89q97 0 150 67.5t53 158.5q0 90 -55.5 155.5t-145.5 65.5q-53 0 -103.5 -28t-76.5 -81z
" />
    <glyph glyph-name="c.ordn" horiz-adv-x="673" 
d="M565 969l86 -115q-92 -80 -233 -80q-155 0 -258 101.5t-103 263.5q0 154 106 259t261 105q129 0 221 -76l-80 -118q-59 53 -141 53q-85 0 -142 -65t-57 -158q0 -97 57.5 -160.5t141.5 -63.5q81 0 141 54z" />
    <glyph glyph-name="d.ordn" horiz-adv-x="886" 
d="M770 791h-152l-8 90q-37 -53 -95.5 -80t-123.5 -27q-143 0 -238.5 106.5t-95.5 258.5q0 146 95.5 255t242.5 109q57 0 113 -23.5t98 -66.5v402h164v-1024zM606 1274q-34 43 -82 65.5t-96 22.5q-97 0 -150 -67t-53 -158q0 -90 55.5 -156t145.5 -66q53 0 102.5 28t77.5 81
v250z" />
    <glyph glyph-name="e.ordn" horiz-adv-x="794" 
d="M608 1014l111 -74q-56 -85 -130.5 -125.5t-180.5 -40.5q-159 0 -255 101.5t-96 259.5q0 156 101.5 262t251.5 106q140 0 233.5 -92t93.5 -231q0 -36 -8 -82h-504q8 -82 59.5 -135.5t133.5 -53.5q128 0 190 105zM233 1214h336q-3 67 -47.5 112.5t-111.5 45.5
q-70 0 -115.5 -44t-61.5 -114z" />
    <glyph glyph-name="f.ordn" horiz-adv-x="505" 
d="M539 1794l-47 -125q-48 23 -91 23q-58 0 -77 -31.5t-19 -99.5v-74h180v-133h-180v-563h-164v563h-78v133h78v86q0 126 55.5 192t182.5 66q84 0 160 -37z" />
    <glyph glyph-name="g.ordn" horiz-adv-x="878" 
d="M770 1487v-660q0 -90 -28.5 -158.5t-79 -108t-111.5 -58.5t-133 -19q-174 0 -320 95l62 133q120 -86 252 -86q85 0 139.5 45t54.5 133v86q-38 -50 -95.5 -74t-119.5 -24q-144 0 -239 103t-95 253q0 144 95 250t243 106q59 0 117 -25t98 -71l8 80h152zM606 1040v234
q-34 43 -82 65.5t-96 22.5q-96 0 -149.5 -65t-53.5 -152q0 -88 55 -150.5t144 -62.5q54 0 104 27t78 81z" />
    <glyph glyph-name="h.ordn" horiz-adv-x="862" 
d="M281 791h-164v1024h164v-429q83 117 217 117q74 0 125.5 -26.5t79 -76t39.5 -108t12 -133.5v-368h-164v356q0 32 -1 52t-4.5 48.5t-12 46t-22.5 35t-36.5 25.5t-52.5 8q-51 0 -98.5 -29.5t-81.5 -81.5v-460z" />
    <glyph glyph-name="i.ordn" horiz-adv-x="397" 
d="M281 791h-164v696h164v-696zM281 1604h-164v153h164v-153z" />
    <glyph glyph-name="j.ordn" horiz-adv-x="405" 
d="M-82 514l45 127q32 -18 68 -18q58 0 76 30.5t18 94.5v739h164v-754q0 -120 -53 -185t-175 -65q-76 0 -143 31zM289 1604h-164v153h164v-153z" />
    <glyph glyph-name="k.ordn" horiz-adv-x="745" 
d="M281 1815v-637l247 309h193l-246 -289l264 -407h-198l-174 280l-86 -100v-180h-164v1024h164z" />
    <glyph glyph-name="l.ordn" horiz-adv-x="397" 
d="M281 1815v-1024h-164v1024h164z" />
    <glyph glyph-name="m.ordn" horiz-adv-x="1286" 
d="M281 791h-164v696h151l4 -101q42 55 100 86t117 31q145 0 203 -127q89 127 236 127q72 0 122.5 -27t77.5 -76.5t38.5 -107.5t11.5 -133v-368h-164v356q0 37 -1.5 60.5t-8 56.5t-19.5 51.5t-38 32.5t-60 14q-41 0 -85.5 -26.5t-78.5 -71.5q6 -33 6 -105v-368h-164v356
q0 37 -1 60.5t-8 56t-19 51.5t-36.5 33t-58.5 14q-40 0 -83 -29t-78 -73v-469z" />
    <glyph glyph-name="n.ordn" horiz-adv-x="862" 
d="M279 791h-164v696h151l6 -109q85 125 224 125q74 0 125.5 -26.5t79 -76t39.5 -108t12 -133.5v-368h-164v356q0 32 -1 52t-4.5 48.5t-12 46t-22.5 35t-36.5 25.5t-52.5 8q-51 0 -98.5 -29.5t-81.5 -81.5v-460z" />
    <glyph glyph-name="o.ordn" horiz-adv-x="839" 
d="M420 1503q157 0 259.5 -104.5t102.5 -259.5t-102.5 -260t-259.5 -105q-156 0 -259.5 105t-103.5 260t103.5 259.5t259.5 104.5zM614 1139q0 95 -54.5 159t-139.5 64t-140 -64t-55 -159t55 -159.5t140 -64.5t139.5 64.5t54.5 159.5z" />
    <glyph glyph-name="p.ordn" horiz-adv-x="886" 
d="M117 1487h151l6 -90q37 52 97 79t123 27q145 0 240 -105.5t95 -258.5q0 -147 -94.5 -256t-242.5 -109q-58 0 -115 23t-96 65v-411h-164v1036zM281 1253v-249q71 -89 178 -89q97 0 150 67.5t53 158.5q0 90 -55.5 155.5t-145.5 65.5q-53 0 -103.5 -28t-76.5 -81z" />
    <glyph glyph-name="q.ordn" horiz-adv-x="886" 
d="M770 1487v-1036h-164v426q-39 -52 -97 -77.5t-120 -25.5q-143 0 -237.5 106.5t-94.5 258.5q0 94 41 176.5t120 135t179 52.5q58 0 116 -24t99 -70l6 78h152zM606 1274q-34 43 -82 65.5t-96 22.5q-97 0 -150 -67t-53 -158q0 -90 55.5 -156t145.5 -66q53 0 102.5 28
t77.5 81v250z" />
    <glyph glyph-name="r.ordn" horiz-adv-x="538" 
d="M117 1487h151l6 -107q73 123 175 123q36 0 83 -14l-36 -150q-30 15 -66 15q-92 0 -149 -101v-462h-164v696z" />
    <glyph glyph-name="s.ordn" horiz-adv-x="657" 
d="M569 1417l-88 -98q-62 55 -139 55q-38 0 -62 -18.5t-24 -50.5q0 -17 9.5 -31t32 -27t38 -20t49.5 -21t55 -24.5t50.5 -29.5t47 -39t30 -50.5t12.5 -65.5q0 -110 -76 -166.5t-185 -56.5q-159 0 -262 115l99 94q77 -80 163 -80q43 0 73 21t30 59q0 23 -19.5 42.5t-40 29.5
t-69.5 30q-45 19 -75 35t-58.5 40.5t-43 57.5t-14.5 74q0 100 69.5 155.5t168.5 55.5q143 0 229 -86z" />
    <glyph glyph-name="t.ordn" horiz-adv-x="507" 
d="M428 936l49 -127q-65 -35 -151 -35q-113 0 -164 70t-51 190v320h-84v133h88l16 160h143v-160h185v-133h-185v-293q0 -30 2.5 -52t9.5 -46t23.5 -37t42.5 -13q38 0 76 23z" />
    <glyph glyph-name="u.ordn" horiz-adv-x="862" 
d="M582 1487h163v-696h-151l-6 108q-85 -125 -223 -125q-74 0 -125.5 26.5t-79 76t-39.5 108t-12 133.5v369h163v-357q0 -32 1 -52t4.5 -48.5t12 -46t22.5 -35t36.5 -25.5t52.5 -8q51 0 99 30t82 81v461z" />
    <glyph glyph-name="v.ordn" horiz-adv-x="712" 
d="M702 1487l-276 -696h-154l-262 696h185l163 -498h4l162 498h178z" />
    <glyph glyph-name="w.ordn" horiz-adv-x="1042" 
d="M608 1487l121 -483h4l119 483h174l-205 -696h-174l-125 469h-2l-129 -469h-182l-193 696h177l112 -483h4l131 483h168z" />
    <glyph glyph-name="x.ordn" horiz-adv-x="747" 
d="M737 791h-209l-155 237l-158 -237h-205l262 350l-245 346h209l151 -225l148 225h202l-254 -340z" />
    <glyph glyph-name="y.ordn" horiz-adv-x="708" 
d="M696 1487l-389 -1016l-145 55l104 281l-256 680h183l159 -486h4l164 486h176z" />
    <glyph glyph-name="z.ordn" horiz-adv-x="655" 
d="M82 866l283 488h-297v133h514v-72l-289 -491h311v-133h-522v75z" />
    <glyph glyph-name="zero.denom" horiz-adv-x="655" 
d="M330 616q-121 0 -121 -247q0 -250 121 -250q57 0 88 62.5t31 187.5q0 123 -31 185t-88 62zM606 369q0 -180 -72.5 -281.5t-203.5 -101.5q-134 0 -207.5 101.5t-73.5 281.5q0 178 73.5 279.5t207.5 101.5q131 0 203.5 -101.5t72.5 -279.5z" />
    <glyph glyph-name="one.denom" horiz-adv-x="473" 
d="M356 0h-155v567q-86 -39 -111 -49v141q17 9 74 37.5t86 44.5h106v-741z" />
    <glyph glyph-name="two.denom" horiz-adv-x="622" 
d="M76 117q149 146 258 291q57 77 57 137q0 36 -24.5 57t-63.5 21t-63.5 -28t-24.5 -75l-154 27q6 92 77.5 148.5t170.5 56.5q98 0 170 -56t72 -149q0 -92 -78 -203q-72 -97 -188 -213h295v-131h-504v117z" />
    <glyph glyph-name="three.denom" horiz-adv-x="628" 
d="M201 309v129q61 0 88 8q80 20 80 91q0 36 -26.5 60t-72.5 24q-75 0 -94 -76l-129 57q24 69 86 108.5t139 39.5q105 0 178.5 -55t73.5 -144q0 -45 -26 -89t-66 -67q57 -22 92 -72t35 -112q0 -103 -77.5 -164t-188.5 -61q-83 0 -153 38.5t-105 110.5l129 60q36 -80 127 -80
q46 0 78 25t32 73q0 49 -38.5 75.5t-100.5 26.5q-38 0 -61 -6z" />
    <glyph glyph-name="four.denom" horiz-adv-x="643" 
d="M43 313q165 216 313 424h160v-432h102v-127h-102v-178h-154v178h-319v135zM362 305v236q-17 -25 -51 -77.5t-62 -94t-46 -64.5h159z" />
    <glyph glyph-name="five.denom" horiz-adv-x="614" 
d="M522 606h-268q-2 -63 -10 -160q38 21 94 21q93 0 156 -67t63 -160q0 -108 -75.5 -181t-186.5 -73q-82 0 -150 37t-104 106l129 61q34 -75 117 -75q52 0 82 33.5t30 82.5q0 47 -31.5 78t-80.5 31q-62 0 -97 -45l-102 67q18 185 25 373h409v-129z" />
    <glyph glyph-name="six.denom" horiz-adv-x="645" 
d="M440 782l56 -123q-102 -41 -168 -95.5t-97 -135.5q54 45 131 45q103 0 168.5 -67t65.5 -168q0 -108 -71.5 -180t-184.5 -72q-131 0 -211 87t-80 214q0 174 109 301.5t282 193.5zM207 283q0 -74 29.5 -122t93.5 -48q52 0 81 34t29 84q0 55 -31 87t-81 32q-36 0 -69.5 -18
t-51.5 -49z" />
    <glyph glyph-name="seven.denom" horiz-adv-x="542" 
d="M518 639q-158 -320 -305 -676l-143 66q34 78 77 169.5t72 151t71 145t54 109.5h-332v131h506v-96z" />
    <glyph glyph-name="eight.denom" horiz-adv-x="679" 
d="M606 205q0 -95 -76.5 -158t-189.5 -63q-115 0 -190.5 63t-75.5 158q0 119 110 180q-90 61 -90 158q0 88 69 147.5t177 59.5t177 -59.5t69 -147.5q0 -97 -90 -158q110 -60 110 -180zM246 535q0 -37 27.5 -64t66.5 -27q38 0 66 27t28 64q0 38 -27.5 64t-66.5 26
q-40 0 -67 -26t-27 -64zM231 213q0 -43 31 -72.5t78 -29.5t78 29.5t31 72.5t-31 73.5t-78 30.5t-78 -30.5t-31 -73.5z" />
    <glyph glyph-name="nine.denom" horiz-adv-x="645" 
d="M205 -47l-55 123q102 41 167.5 95.5t96.5 135.5q-54 -45 -131 -45q-103 0 -168.5 67.5t-65.5 168.5q0 108 71.5 180t184.5 72q131 0 211 -87t80 -214q0 -175 -109.5 -302.5t-281.5 -193.5zM438 453q0 74 -29.5 122t-93.5 48q-52 0 -81 -34.5t-29 -84.5q0 -55 31 -87
t81 -32q36 0 69.5 18t51.5 50z" />
    <glyph glyph-name="onefifth" horiz-adv-x="1622" 
d="M1190 1460l121 -88l-1020 -1399l-121 88zM1423 604h-268q0 -10 -12 -158q47 21 96 21q93 0 156 -67t63 -160q0 -109 -75.5 -181.5t-186.5 -72.5q-84 0 -151 36t-103 105l129 63q31 -77 117 -77q52 0 81 33t29 85q0 47 -30.5 78t-79.5 31q-58 0 -98 -45l-101 65
q18 193 25 375h409v-131zM467 692h-156v568q-106 -48 -110 -50v142l73 36.5t86 45.5h107v-742z" />
    <glyph glyph-name="twofifths" horiz-adv-x="1808" 
d="M1376 1460l121 -88l-1020 -1399l-121 88zM1610 604h-269q0 -10 -12 -158q47 21 96 21q93 0 156.5 -67t63.5 -160q0 -109 -76 -181.5t-187 -72.5q-84 0 -151 36t-103 105l129 63q31 -77 117 -77q52 0 81.5 33.5t29.5 84.5q0 46 -31 77.5t-80 31.5q-58 0 -98 -45l-100 65
q16 174 24 375h410v-131zM178 813q149 146 258 291q58 78 58 137q0 36 -24.5 57t-63.5 21t-64 -28t-25 -74l-153 26q6 92 77.5 148.5t170.5 56.5q97 0 169 -56t72 -149q0 -92 -78 -203q-72 -97 -188 -213h295v-131h-504v117z" />
    <glyph glyph-name="threefifths" horiz-adv-x="1765" 
d="M1331 1460l121 -88l-1018 -1399l-121 88zM1567 604h-269q0 -10 -12 -158q44 21 96 21q93 0 156.5 -67t63.5 -160q0 -109 -76 -181.5t-187 -72.5q-84 0 -151 36t-103 105l127 63q34 -77 119 -77q52 0 81.5 33.5t29.5 84.5q0 46 -31 77.5t-80 31.5q-58 0 -98 -45l-100 65
q16 174 24 375h410v-131zM328 1008v129q61 0 88 8q80 20 80 90q0 36 -26.5 60t-72.5 24q-75 0 -94 -76l-129 57q24 69 86 108.5t139 39.5q105 0 178.5 -55t73.5 -144q0 -45 -26 -88t-66 -67q57 -22 92 -72t35 -113q0 -103 -77.5 -164t-188.5 -61q-83 0 -152.5 38.5
t-105.5 111.5l129 59q36 -80 127 -80q46 0 78 25t32 73q0 49 -38.5 76t-100.5 27q-38 0 -61 -6z" />
    <glyph glyph-name="fourfifths" horiz-adv-x="1853" 
d="M1421 1460l119 -88l-1018 -1399l-121 88zM1655 604h-269q0 -10 -12 -158q44 21 96 21q93 0 156.5 -67t63.5 -160q0 -109 -76 -181.5t-187 -72.5q-84 0 -150.5 36t-102.5 105l126 63q34 -77 119 -77q52 0 81.5 33.5t29.5 84.5q0 46 -31 77.5t-80 31.5q-58 0 -98 -45
l-100 65q16 174 24 375h410v-131zM164 1010q165 216 313 424h160v-433h102v-127h-102v-178h-154v178h-319v136zM483 1001v236q-17 -25 -51 -77.5t-62 -94t-46 -64.5h159z" />
    <glyph glyph-name="onesixth" horiz-adv-x="1570" 
d="M1190 1460l121 -88l-1020 -1399l-121 88zM467 692h-156v568q-106 -48 -110 -50v142l73 36.5t86 45.5h107v-742zM1251 782l56 -123q-102 -41 -168 -95.5t-97 -135.5q54 45 132 45q103 0 168 -67t65 -168q0 -108 -71.5 -180t-184.5 -72q-131 0 -211 87t-80 214
q0 174 109 301.5t282 193.5zM1018 283q0 -74 29.5 -122t93.5 -48q52 0 81 34t29 84q0 55 -31 87t-81 32q-36 0 -69.5 -18t-51.5 -49z" />
    <glyph glyph-name="fivesixths" horiz-adv-x="1687" 
d="M1307 1460l120 -88l-1017 -1399l-121 88zM645 1305h-268q-1 -13 -12 -160q39 20 96 20q93 0 156 -67t63 -160q0 -108 -75.5 -181t-186.5 -73q-83 0 -150.5 37t-103.5 106l129 62q32 -76 117 -76q52 0 81 33.5t29 83.5q0 48 -30.5 78t-79.5 30q-62 0 -99 -45l-100 68
q17 185 25 373h409v-129zM1368 782l55 -123q-102 -41 -167.5 -95.5t-96.5 -135.5q54 45 131 45q103 0 168.5 -67t65.5 -168q0 -108 -71.5 -180t-184.5 -72q-131 0 -211 87t-80 214q0 174 109 301.5t282 193.5zM1135 283q0 -74 29 -122t93 -48q52 0 81.5 34t29.5 84
q0 55 -31.5 87t-81.5 32q-36 0 -69 -17.5t-51 -49.5z" />
    <glyph glyph-name="oneseventh" horiz-adv-x="1660" 
d="M1190 1460l121 -88l-1020 -1399l-121 88zM1497 639q-149 -301 -305 -676l-141 64q107 250 274 577h-334v131h506v-96zM467 692h-156v568q-106 -48 -110 -50v142l73 36.5t86 45.5h107v-742z" />
    <glyph glyph-name="twosevenths" horiz-adv-x="1847" 
d="M1376 1460l121 -88l-1020 -1399l-121 88zM178 813q149 146 258 291q58 78 58 137q0 36 -24.5 57t-63.5 21t-64 -28t-25 -74l-153 26q6 92 77.5 148.5t170.5 56.5q97 0 169 -56t72 -149q0 -92 -78 -203q-72 -97 -188 -213h295v-131h-504v117zM1683 639
q-149 -301 -305 -676l-141 64q107 250 274 577h-333v131h505v-96z" />
    <glyph glyph-name="threesevenths" horiz-adv-x="1804" 
d="M1331 1460l121 -88l-1018 -1399l-121 88zM1640 639q-149 -301 -305 -676l-143 64q64 148 274 577h-331v131h505v-96zM328 1008v129q61 0 88 8q80 20 80 90q0 36 -26.5 60t-72.5 24q-75 0 -94 -76l-129 57q24 69 86 108.5t139 39.5q105 0 178.5 -55t73.5 -144
q0 -45 -26 -88t-66 -67q57 -22 92 -72t35 -113q0 -103 -77.5 -164t-188.5 -61q-83 0 -152.5 38.5t-105.5 111.5l129 59q36 -80 127 -80q46 0 78 25t32 73q0 49 -38.5 76t-100.5 27q-38 0 -61 -6z" />
    <glyph glyph-name="foursevenths" horiz-adv-x="1892" 
d="M1421 1460l119 -88l-1018 -1399l-121 88zM164 1010q165 216 313 424h160v-433h102v-127h-102v-178h-154v178h-319v136zM483 1001v236q-17 -25 -51 -77.5t-62 -94t-46 -64.5h159zM1729 639q-155 -314 -306 -676l-143 64q64 148 274 577h-331v131h506v-96z" />
    <glyph glyph-name="fivesevenths" horiz-adv-x="1779" 
d="M1307 1460l120 -88l-1017 -1399l-121 88zM645 1305h-268q-1 -13 -12 -160q39 20 96 20q93 0 156 -67t63 -160q0 -108 -75.5 -181t-186.5 -73q-83 0 -150.5 37t-103.5 106l129 62q32 -76 117 -76q52 0 81 33.5t29 83.5q0 48 -30.5 78t-79.5 30q-62 0 -99 -45l-100 68
q17 185 25 373h409v-129zM1616 639q-149 -301 -305 -676l-144 64q116 266 275 577h-332v131h506v-96z" />
    <glyph glyph-name="sixsevenths" horiz-adv-x="1814" 
d="M1343 1460l121 -88l-1020 -1399l-118 88zM1651 639q-168 -348 -305 -676l-142 64q101 238 275 577h-334v131h506v-96zM555 1481l55 -123q-101 -41 -167 -96t-97 -136q54 45 131 45q103 0 168.5 -67t65.5 -168q0 -108 -71.5 -180t-184.5 -72q-131 0 -211 87t-80 214
q0 175 109.5 302.5t281.5 193.5zM322 981q0 -74 29 -122t93 -48q52 0 81.5 34.5t29.5 84.5q0 55 -31.5 87t-81.5 32q-36 0 -69 -18t-51 -50z" />
    <glyph glyph-name="oneninth" horiz-adv-x="1671" 
d="M1190 1460l121 -88l-1020 -1399l-121 88zM467 692h-156v568q-106 -48 -110 -50v142l73 36.5t86 45.5h107v-742zM1116 -47l-55 123q102 41 167.5 95.5t96.5 135.5q-54 -45 -131 -45q-103 0 -168 67.5t-65 168.5q0 108 71.5 180t184.5 72q131 0 210.5 -87t79.5 -214
q0 -175 -109.5 -302.5t-281.5 -193.5zM1350 453q0 74 -29.5 122t-93.5 48q-52 0 -81.5 -34.5t-29.5 -84.5q0 -55 31.5 -87t81.5 -32q36 0 69.5 18t51.5 50z" />
    </font>
</defs>
</svg>
